<?xml version="1.0" encoding="utf-8"?>
<!-- Generator: Adobe Illustrator 17.1.0, SVG Export Plug-In . SVG Version: 6.00 Build 0)  -->
<!DOCTYPE svg PUBLIC "-//W3C//DTD SVG 1.1//EN" "http://www.w3.org/Graphics/SVG/1.1/DTD/svg11.dtd">
<svg version="1.1" id="Ebene_1" xmlns="http://www.w3.org/2000/svg" xmlns:xlink="http://www.w3.org/1999/xlink" x="0px" y="0px"
	 width="1280px" height="800px" viewBox="0 0 1280 800" enable-background="new 0 0 1280 800" xml:space="preserve">
<g id="Ebene_2" display="none">
	<rect display="inline" opacity="0.5" fill="#1D1D1B" enable-background="new    " width="1280" height="800"/>
</g>
<g>
	<g>
		<path fill="#00306D" d="M435.8,150c0,2.2-1.8,4-4,4h-149c-2.2,0-4-1.8-4-4V61c0-2.2,1.8-4,4-4h149c2.2,0,4,1.8,4,4V150z"/>
	</g>
	<g>
		<path fill="#0097D9" d="M356.6,136.5c8.6-7.8,14.1-19.1,14.1-31.7s-5.4-23.9-14.1-31.8c-7.5-6.9-17.6-11.1-28.7-11.1
			c-23.6,0-42.8,19.2-42.8,42.8s19.2,42.7,42.8,42.7C339,147.6,349.1,143.4,356.6,136.5L356.6,136.5z"/>
		<path fill="#0097D9" d="M356.6,136.5c8.6-7.8,14.1-19.1,14.1-31.7s-5.4-23.9-14.1-31.8V136.5L356.6,136.5z"/>
		<path fill="#E3001B" d="M385.4,62c-11.1,0-21.1,4.2-28.7,11.1c-1.5,1.4-2.9,2.9-4.3,4.5h8.6c1.2,1.4,2.3,3,3.3,4.5h-15.2
			c-0.9,1.5-1.8,3-2.5,4.5h20.1c0.7,1.5,1.3,3,1.8,4.5h-23.7c-0.5,1.5-0.9,3-1.3,4.6h26.3c0.6,2.8,0.9,5.9,0.9,9
			c0,4.7-0.8,9.3-2.2,13.6h-23.7c0.5,1.5,1.1,3,1.8,4.5h20.1c-0.8,1.5-1.5,3.1-2.4,4.5h-15.2c1,1.6,2.1,3.1,3.3,4.5h8.6
			c-1.3,1.6-2.8,3.1-4.4,4.5c7.6,6.9,17.7,11.1,28.7,11.1c23.6,0,42.7-19.1,42.7-42.7S409,62,385.4,62L385.4,62z"/>
		<path fill="#E3001B" d="M422.6,128.6c0-0.8,0.6-1.3,1.3-1.3s1.3,0.6,1.3,1.3c0,0.8-0.6,1.4-1.3,1.4S422.6,129.4,422.6,128.6
			L422.6,128.6z M424,129.7c0.6,0,1.1-0.5,1.1-1.1c0-0.6-0.5-1-1.1-1s-1.1,0.4-1.1,1C422.9,129.2,423.4,129.7,424,129.7L424,129.7z
			 M423.8,129.2h-0.3V128h0.5c0.2,0,0.3,0,0.3,0.1c0.1,0,0.2,0.2,0.2,0.3c0,0.2-0.1,0.3-0.2,0.3l0.2,0.5h-0.3l-0.2-0.4h-0.2V129.2
			L423.8,129.2z M423.8,128.6h0.2c0,0,0.1,0,0.2,0c0,0,0.1-0.1,0.1-0.2l-0.1-0.1c-0.1-0.1-0.2-0.1-0.2-0.1h-0.2V128.6L423.8,128.6z"
			/>
		<polygon fill="#00306D" points="321.3,116.7 315.9,116.7 319.1,100.1 311.8,116.7 307.3,116.7 306.4,100.2 302.8,116.7 298,116.7 
			302.1,95 310.5,95 310.6,108.5 316.5,95 325.5,95 		"/>
		<path fill="#00306D" d="M380.8,116.5c-1.5,0.4-2.6,0.6-3.9,0.6c-2.7,0-4.2-1.3-4.2-3.9c0-0.5,0.1-1.1,0.2-1.6l0.3-1.8l0.3-1.3
			l2.4-13.5h5.3l-0.8,4h2.7l-0.7,4.3h-2.8l-1.4,7.4c0,0.3-0.1,0.6-0.1,0.8c0,0.9,0.6,1.3,1.8,1.3c0.6,0,1.1,0,1.4-0.2L380.8,116.5
			L380.8,116.5z"/>
		<path fill="#00306D" d="M359.6,104.7c0,2.2,1.3,3.8,4,4.9c2.3,0.9,2.6,1.2,2.6,2c0,1.1-1,1.6-3.1,1.6c-1.7,0-3.1-0.3-4.9-0.8
			l-0.8,4.1h0.3l1,0.2c0.3,0.1,0.8,0.2,1.4,0.2c1.3,0.1,2.3,0.2,2.9,0.2c5.7,0,8.3-1.8,8.3-5.9c0-2.4-1.1-3.9-3.8-4.9
			c-2.3-0.8-2.5-1.1-2.5-1.9c0-0.9,0.9-1.4,2.6-1.4c1.1,0,2.5,0.1,3.9,0.3l0.8-4c-1.4-0.3-3.5-0.4-4.8-0.4
			C361.7,98.7,359.6,101.4,359.6,104.7L359.6,104.7z"/>
		<path fill="#00306D" d="M338.5,116.7h-4.4l0.1-1.8c-1.3,1.4-3.2,2.1-5.6,2.1c-2.8,0-4.9-1.9-4.9-4.8c0-4.3,3.4-6.8,9.4-6.8
			c0.6,0,1.3,0,2.2,0.1c0.2-0.6,0.2-0.8,0.2-1.1c0-1.2-0.9-1.7-3.4-1.7c-1.5,0-3.2,0.3-4.4,0.5l-0.8,0.3l-0.5,0.1l0.8-3.9
			c2.7-0.8,4.4-1,6.4-1c4.6,0,7,1.8,7,5.2c0,0.9-0.1,1.5-0.5,3.5l-1.1,6.2l-0.2,1.2l-0.2,0.9l-0.1,0.6V116.7L338.5,116.7z
			 M334.9,108.9c-0.6-0.1-0.8-0.1-1.3-0.1c-3,0-4.5,0.9-4.5,2.7c0,1.1,0.8,1.8,1.9,1.8C333.3,113.2,334.8,111.5,334.9,108.9
			L334.9,108.9z"/>
		<path fill="#00306D" d="M356,116.3c-1.8,0.5-3.5,0.8-5.4,0.8c-5.9,0-9-2.8-9-8c0-6,3.9-10.5,9.3-10.5c4.4,0,7.2,2.5,7.2,6.4
			c0,1.3-0.2,2.6-0.7,4.4h-10.6c-0.1,0.3-0.1,0.4-0.1,0.6c0,2,1.6,3.1,4.7,3.1c1.9,0,3.6-0.3,5.5-1.2L356,116.3L356,116.3z
			 M353.4,105.9c0-0.4,0-0.7,0-0.9c0-1.4-0.9-2.3-2.5-2.3c-1.7,0-2.9,1.1-3.4,3.2L353.4,105.9L353.4,105.9z"/>
		<path fill="#00306D" d="M412.8,108.7c-0.8,5.9-4.9,8.5-10.3,8.5c-6,0-8.5-3.6-8.5-8.1c0-6.2,4.1-10.5,10.5-10.5
			c5.5,0,8.5,3.5,8.5,8C412.9,107.6,412.9,107.7,412.8,108.7L412.8,108.7z M407.4,106.6c0-1.8-0.8-3.6-2.9-3.6c-2.7,0-4.4,3.3-4.4,6
			c0,2.4,1.2,4,3.1,4c1.2,0,3.6-1.6,4.1-4.4C407.3,108.1,407.4,107.4,407.4,106.6L407.4,106.6z"/>
		<path fill="#FFFFFF" d="M413.3,114.1c0-0.8,0.7-1.3,1.4-1.3c0.8,0,1.3,0.6,1.3,1.3c0,0.8-0.6,1.4-1.3,1.4S413.3,114.8,413.3,114.1
			L413.3,114.1z M414.8,115.2c0.6,0,1-0.5,1-1.1s-0.4-1-1-1s-1.1,0.4-1.1,1S414.2,115.2,414.8,115.2L414.8,115.2z M414.6,114.7h-0.3
			v-1.2h0.5c0.2,0,0.3,0,0.3,0.1c0.1,0.1,0.2,0.2,0.2,0.3c0,0.2-0.1,0.3-0.3,0.3l0.3,0.5H415l-0.2-0.4h-0.2V114.7L414.6,114.7z
			 M414.6,114h0.2c0,0,0.1,0,0.2,0c0,0,0-0.1,0-0.2v-0.1c-0.1,0-0.2,0-0.3,0h-0.1L414.6,114L414.6,114z"/>
		<polygon fill="#FFFFFF" points="322.6,115.5 317.2,115.5 320.4,98.8 313.1,115.5 308.3,115.5 307.4,98.9 304.3,115.5 299.4,115.5 
			303.5,93.8 311.9,93.8 312.3,107.2 318.2,93.8 326.8,93.8 		"/>
		<path fill="#FFFFFF" d="M382.1,115.2c-1.5,0.4-2.6,0.6-3.9,0.6c-2.7,0-4.2-1.3-4.2-3.9c0-0.5,0.1-1,0.2-1.6l0.3-1.8l0.3-1.3
			l2.4-13.5h5.3l-0.8,4h2.8l-0.8,4.3h-2.8l-1.3,7.4c-0.1,0.3-0.2,0.6-0.2,0.8c0,0.9,0.6,1.3,1.8,1.3c0.6,0,1.1-0.1,1.4-0.2
			L382.1,115.2L382.1,115.2z"/>
		<path fill="#00306D" d="M395.7,102.9l-0.1-0.6l1-2.8c-0.3,0-0.3,0-0.4-0.1c-0.3,0-0.4-0.1-0.4-0.1c-0.2,0-0.3,0-0.5,0
			c-1.8,0-3,0.8-4.7,2.8l0.6-3.2h-5.5l-3.3,17.7h5.3c0.8-4.1,1.1-6.4,1.5-8.3c0.7-3.2,3-4.6,4.8-4.3c0.2,0,0.3,0,0.6,0.1l0.3,0.2
			L395.7,102.9L395.7,102.9z"/>
		<path fill="#FFFFFF" d="M397.6,98c-0.4-0.2-0.5-0.2-0.6-0.2c-0.3-0.1-0.4-0.1-0.4-0.2c-0.2,0-0.3,0-0.6,0c-1.8,0-3,0.8-4.6,2.8
			l0.5-2.7H387l-3.3,17.7h5.4c1.9-10.8,2.7-12.7,5.3-12.7c0.2,0,0.4,0.1,0.7,0.1l0.6,0.2L397.6,98L397.6,98z"/>
		<path fill="#FFFFFF" d="M361,103.4c0,2.2,1.3,3.8,4.1,4.9c2.2,0.9,2.5,1.2,2.5,2c0,1.1-1,1.6-3.1,1.6c-1.6,0-3.1-0.3-4.9-0.8
			l-0.7,4.1h0.3l0.9,0.3c0.3,0,0.8,0.1,1.4,0.1c1.3,0.2,2.3,0.2,3,0.2c5.6,0,8.3-1.8,8.3-5.9c0-2.4-1.1-3.9-3.9-4.9
			c-2.3-0.8-2.5-1.1-2.5-1.9c0-0.9,0.9-1.4,2.7-1.4c1,0,2.5,0.1,3.9,0.3l0.8-4c-1.4-0.3-3.5-0.3-4.7-0.3
			C363.1,97.5,361,100.2,361,103.4L361,103.4z"/>
		<path fill="#FFFFFF" d="M339.9,115.5h-4.4l0.1-1.8c-1.3,1.4-3.2,2.1-5.6,2.1c-2.8,0-4.9-1.9-4.9-4.8c0-4.3,3.4-6.8,9.4-6.8
			c0.6,0,1.3,0,2.2,0.1c0.2-0.6,0.2-0.8,0.2-1.1c0-1.2-0.9-1.6-3.4-1.6c-1.5,0-3.2,0.2-4.4,0.4l-0.8,0.3l-0.5,0.1l0.8-3.9
			c2.7-0.7,4.4-0.9,6.4-0.9c4.6,0,7,1.8,7,5.1c0,0.9-0.1,1.6-0.4,3.5l-1.1,6.3l-0.2,1.1l-0.2,0.9l-0.1,0.6L339.9,115.5L339.9,115.5z
			 M336,107.6c-0.6-0.1-0.8-0.1-1.2-0.1c-3,0-4.5,0.9-4.5,2.7c0,1.1,0.7,1.8,1.8,1.8C334.3,112.1,335.9,110.2,336,107.6L336,107.6z"
			/>
		<path fill="#FFFFFF" d="M357.4,115.1c-1.8,0.5-3.6,0.8-5.4,0.8c-5.9,0-9-2.8-9-8c0-6,3.9-10.5,9.3-10.5c4.4,0,7.1,2.5,7.1,6.4
			c0,1.3-0.2,2.6-0.6,4.4h-10.6c0,0.3,0,0.4,0,0.6c0,2,1.5,3.1,4.6,3.1c1.9,0,3.7-0.3,5.5-1.1L357.4,115.1L357.4,115.1z
			 M354.5,104.6c0-0.3,0-0.7,0-0.9c0-1.4-0.9-2.3-2.5-2.3c-1.7,0-2.8,1.2-3.4,3.2L354.5,104.6L354.5,104.6z"/>
		<path fill="#FFFFFF" d="M414.2,107.4c-0.8,5.9-4.9,8.5-10.4,8.5c-5.9,0-8.4-3.6-8.4-8.1c0-6.2,4.1-10.5,10.5-10.5
			c5.5,0,8.5,3.5,8.5,8C414.3,106.4,414.3,106.4,414.2,107.4L414.2,107.4z M408.6,105.2c0-1.8-0.8-3.5-2.9-3.5c-2.7,0-4.4,3.2-4.4,6
			c0,2.3,1.2,3.9,3,3.9c1.2,0,3.7-1.6,4.1-4.3C408.6,106.7,408.6,105.9,408.6,105.2L408.6,105.2z"/>
	</g>
</g>
<g>
	<g>
		<path fill="#00306D" d="M618.9,150c0,2.2-1.8,4-4,4h-149c-2.2,0-4-1.8-4-4V61c0-2.2,1.8-4,4-4h149c2.2,0,4,1.8,4,4V150z"/>
	</g>
	<g>
		<path fill="#ED8313" d="M525.8,104.8c0-23.6,19.1-42.7,42.7-42.7c23.6,0,42.7,19.1,42.7,42.7s-19.1,42.7-42.7,42.7
			S525.8,128.4,525.8,104.8L525.8,104.8z"/>
		<path fill="#E10020" d="M539.9,73c0,0-2.2,2-3.7,3.9h7.6c0,0,2.6,2.8,3.6,4.9h-14.8c0,0-1.4,2.3-2.4,4.2h19.6c0,0,1.8,3.4,2.2,5.1
			h-23.9c0,0-0.8,2.3-1.2,4H553c0.7,3.3,2.5,12.8-1.1,23.4h-23.7c0.4,1.3,1,3,1.6,4.2h20.4c-0.8,1.7-2,3.9-2.7,4.9h-14.9
			c0.8,1.2,2.1,3.1,2.9,3.9h9.2c-1.7,2.4-4.7,4.9-4.7,4.9h-0.1h0.1c-7.6,6.8-17.6,10.9-28.5,10.9c-23.6,0-42.7-19.1-42.7-42.7
			s19.1-42.7,42.7-42.7C522.3,62.1,532.3,66.3,539.9,73L539.9,73z"/>
		<path fill="#1E306D" d="M518.8,98.7l-0.7,3.8l-3.7-0.1c0,0-1.9,0.5-1.9,1.3s1.4,1.8,3.4,2.7c2.1,0.9,2.2,3.3,2,5s-0.5,5.1-6.5,5.3
			c-3.4,0.1-5.3-0.6-5.3-0.6l0.8-3.9c0,0,4.4,1.2,5.4,0.5c1-0.7,2.2-1.9,0.3-2.7c-1.9-0.8-4.9-2.1-4.9-5.2c0-3.2,1.3-4.9,3.2-5.8
			C512.9,98.2,516.4,98.3,518.8,98.7L518.8,98.7z"/>
		<polygon fill="#1E306D" points="489.2,116.3 484.9,116.3 487.4,101.4 482,116.2 479,116.2 478.3,100.8 475.7,116.3 471.6,116.3 
			475.4,93.5 480.4,93.5 482.2,106.6 488,93.5 493.1,93.5 		"/>
		<path fill="#1E306D" d="M522.7,116.6c-1.4,0-2.4-0.3-3-0.9s-0.9-1.6-0.9-2.8c0-0.3,0-0.6,0.1-0.9c0-0.3,0.1-0.7,0.1-1.1l2.6-14.6
			h4.1l-0.6,2.9h3.8l-0.6,3.6h-3.8l-1,6.2c-0.1,0.4-0.1,0.8-0.2,1.3c-0.1,0.4-0.1,0.8-0.1,1.1c0,0.6,0.1,1.1,0.4,1.3
			c0.2,0.2,0.6,0.4,1.2,0.4c0.2,0,0.5,0,0.8-0.1s0.6-0.2,0.8-0.4h0.3l-0.6,3.7c-0.5,0.2-0.9,0.3-1.4,0.4
			C524,116.6,523.4,116.6,522.7,116.6L522.7,116.6z"/>
		<path fill="#1E306D" d="M552,103.9c-0.9-0.7-2.9-0.5-3.3,0.9l-2,11.5h-4.1l2.9-17.2h4.1l-0.1,1.4c0.8-0.8,1.6-1.4,3.8-1.4
			C553.6,99.1,552.1,101.7,552,103.9L552,103.9z"/>
		<path fill="#1E306D" d="M559.7,116.8c-2.3,0-4-0.8-5.3-2.3s-1.9-3.7-1.9-6.5c0-2.2,0.3-4.3,0.8-6.1c0.5-1.8,1.3-3.4,2.3-4.7
			c0.9-1.3,2.1-2.3,3.4-3c1.3-0.7,2.7-1.1,4.1-1.1c1.1,0,2.2,0.2,3.2,0.5c0.5,0.2,1.4,0.6,1.4,0.6l-0.9,5.4
			c-0.5-0.6-0.9-1.1-1.4-1.4c-0.7-0.5-1.6-0.7-2.5-0.7c-1.7,0-3.1,0.9-4.2,2.7c-1.1,1.8-1.6,4.2-1.6,7c0,1.8,0.3,3.2,0.9,4
			c0.6,0.8,1.5,1.2,2.6,1.2c1,0,2-0.3,2.9-0.8c0.4-0.3,0.9-0.6,1.3-0.9l-0.9,5.2c0,0-0.5,0.2-0.7,0.3c-0.6,0.2-1.1,0.4-1.5,0.5
			C561.2,116.7,560.6,116.8,559.7,116.8L559.7,116.8z"/>
		<path fill="#1E306D" d="M499.3,115.7c-0.2,0.1-0.3,0.2-0.5,0.3c-0.4,0.2-0.8,0.4-1.2,0.6c-0.4,0.1-0.9,0.2-1.6,0.2
			c-1,0-1.9-0.4-2.6-1.2c-0.7-0.8-1-1.9-1-3.2c0-1.4,0.2-2.5,0.7-3.5c0.5-0.9,1.2-1.7,2.1-2.2c0.9-0.5,1.9-0.9,3.1-1.1l0.8-0.1
			c1-0.2,2-0.3,3.1-0.4c0-0.1,0-0.2,0-0.3c0-0.1,0-0.3,0-0.5c0-0.7-0.2-1.2-0.7-1.6c-0.5-0.3-1.2-0.4-2.2-0.4h-0.2
			c-0.6,0-1.3,0.2-2,0.5c-0.8,0.3-1.4,0.5-1.8,0.8h-0.4l0.6-4.1c0.5-0.2,1.2-0.4,2.2-0.5c0.5-0.1,0.9-0.2,1.4-0.2
			c0.5-0.1,1-0.1,1.6-0.1c2,0,3.4,0.4,4.4,1.1c0.9,0.7,1.4,1.8,1.4,3.3c0,0.2,0,0.5,0,0.8s-0.1,0.6-0.1,0.9l-2,11.7h-4l0.3-1.8
			c-0.2,0.2-0.6,0.5-0.9,0.8C499.6,115.4,499.5,115.6,499.3,115.7L499.3,115.7z M499.3,108.6c-0.4,0.1-0.8,0.2-1.1,0.4
			c-0.5,0.2-0.8,0.5-1,1c-0.3,0.4-0.4,1-0.4,1.6s0.2,1,0.5,1.2s0.8,0.4,1.4,0.4c0.2,0,0.4,0,0.6-0.1c0.2,0,0.4-0.1,0.6-0.2
			c0.4-0.3,0.9-0.6,1.3-1l0.6-3.7c-0.7,0.1-1.4,0.2-2,0.3C499.6,108.5,499.5,108.5,499.3,108.6L499.3,108.6z"/>
		<path fill="#1E306D" d="M534.6,102.1c-0.5,0.1-1,0.4-1.5,0.8c-0.6,0.6-1,1.5-1.3,2.6h2.8h2.7c0-0.2,0-0.3,0-0.5c0-0.1,0-0.3,0-0.5
			c0-0.8-0.2-1.4-0.6-1.9c-0.4-0.4-0.9-0.6-1.6-0.6C535,102,534.8,102,534.6,102.1L534.6,102.1z M534.6,112.9h0.6
			c0.9,0,1.7-0.2,2.5-0.6s1.5-0.9,2.1-1.4h0.5l-0.8,4.4c-0.8,0.5-1.6,0.8-2.5,1.1c-0.7,0.2-1.6,0.3-2.4,0.4h-0.4c-2.2,0-3.8-0.6-5-2
			c-1.2-1.3-1.8-3.1-1.8-5.4c0-1.6,0.2-3,0.6-4.3c0.4-1.3,0.9-2.5,1.7-3.5c0.7-1,1.6-1.7,2.6-2.3c0.7-0.4,1.5-0.6,2.3-0.8
			c0.4,0,0.7,0,1.1,0c1.9,0,3.3,0.5,4.3,1.6c0.9,1,1.4,2.6,1.4,4.6c0,0.7,0,1.4-0.1,2.1c-0.1,0.6-0.2,1.3-0.4,2h-6.3h-3.2v0.2v0.2
			c0,1.2,0.3,2.1,0.9,2.8C532.8,112.4,533.6,112.8,534.6,112.9L534.6,112.9z"/>
		<path fill="#1E306D" d="M572.8,115.7c-0.2,0.1-0.3,0.2-0.5,0.3c-0.4,0.2-0.8,0.4-1.2,0.6c-0.4,0.1-0.9,0.2-1.5,0.2
			c-1.1,0-1.9-0.4-2.6-1.2c-0.7-0.8-1-1.9-1-3.2c0-1.4,0.2-2.5,0.7-3.5c0.5-0.9,1.2-1.7,2.1-2.2c0.9-0.5,1.9-0.9,3.1-1.1
			c0.3,0,0.5-0.1,0.9-0.1c0.9-0.2,2-0.3,3.1-0.4c0-0.1,0-0.2,0.1-0.3c0-0.1,0-0.3,0-0.5c0-0.7-0.3-1.2-0.7-1.6
			c-0.5-0.3-1.2-0.4-2.2-0.4h-0.2c-0.6,0-1.3,0.2-2,0.5c-0.8,0.3-1.4,0.5-1.8,0.8h-0.4l0.6-4.1c0.5-0.2,1.2-0.4,2.2-0.5
			c0.5-0.1,0.9-0.2,1.4-0.2c0.5-0.1,1-0.1,1.6-0.1c2,0,3.4,0.4,4.4,1.1c0.9,0.7,1.4,1.8,1.4,3.3c0,0.2,0,0.5,0,0.8s-0.1,0.6-0.1,0.9
			l-2,11.7h-4l0.3-1.8c-0.3,0.2-0.6,0.5-0.9,0.8L572.8,115.7L572.8,115.7z M572.8,108.6c-0.4,0.1-0.8,0.2-1.2,0.4
			c-0.4,0.2-0.8,0.5-1,1c-0.2,0.4-0.4,1-0.4,1.6s0.2,1,0.5,1.2s0.8,0.4,1.4,0.4c0.2,0,0.4,0,0.7-0.1c0.2,0,0.4-0.1,0.6-0.2
			c0.5-0.3,0.9-0.6,1.3-1l0.6-3.7c-0.7,0.1-1.4,0.2-2.1,0.3C573.1,108.5,572.9,108.5,572.8,108.6L572.8,108.6z"/>
		<path fill="#1E306D" d="M590,103.9c-0.9-0.7-2.9-0.5-3.3,0.9l-2,11.5h-4.1l2.9-17.2h4.1l-0.1,1.4c0.8-0.8,1.6-1.4,3.8-1.4
			C591.6,99.1,590.1,101.7,590,103.9L590,103.9z"/>
		<path fill="#1E306D" d="M598,102.8c-0.2,0.1-0.4,0.2-0.6,0.4c-0.5,0.4-1,0.9-1.3,1.6c-0.3,0.6-0.6,1.4-0.7,2.3
			c-0.2,0.9-0.3,1.8-0.3,2.7c0,1.1,0.2,1.8,0.5,2.2c0.4,0.5,0.9,0.7,1.6,0.7c0.3,0,0.5-0.1,0.8-0.2c0.1-0.1,0.2-0.1,0.4-0.2
			c0.4-0.2,0.8-0.5,1.1-0.8l1.5-8.5c-0.2-0.1-0.5-0.3-0.9-0.4c-0.3-0.1-0.6-0.2-0.9-0.2C598.8,102.5,598.4,102.6,598,102.8
			L598,102.8z M598,115.4c-0.3,0.3-0.6,0.5-1,0.8c-0.3,0.2-0.7,0.4-1,0.5s-0.7,0.1-1.2,0.1c-1.3,0-2.2-0.6-3-1.6
			c-0.7-1.1-1.1-2.7-1.1-4.6c0-1.6,0.2-3.2,0.6-4.6c0.4-1.4,0.9-2.7,1.6-3.8c0.7-1.1,1.5-1.9,2.4-2.6c0.9-0.6,1.8-0.9,2.7-1h0.1
			c0.7,0,1.3,0.1,1.8,0.3c0.5,0.2,1,0.5,1.6,0.9l0.9-6h4.1l-3.7,22.5h-4.1l0.3-1.8C598.7,114.9,598.3,115.1,598,115.4L598,115.4z"/>
		<path fill="#FFFFFF" d="M519.6,98.1l-0.7,3.8l-3.7-0.1c0,0-1.9,0.5-1.9,1.3s1.4,1.8,3.4,2.7c2.1,0.9,2.2,3.3,2,5s-0.5,5.1-6.5,5.3
			c-3.4,0.1-5.3-0.6-5.3-0.6l0.8-3.9c0,0,4.4,1.2,5.4,0.5s2.2-1.9,0.3-2.7c-1.9-0.8-4.9-2.1-4.9-5.2c0-3.2,1.3-4.9,3.3-5.8
			C513.7,97.5,517.2,97.6,519.6,98.1L519.6,98.1z"/>
		<polygon fill="#FFFFFF" points="490.1,115.7 485.7,115.7 488.2,100.7 482.9,115.6 479.9,115.6 479.1,100.1 476.5,115.7 
			472.4,115.7 476.3,92.9 481.3,92.9 483,106 488.8,92.9 493.9,92.9 		"/>
		<path fill="#FFFFFF" d="M523.5,116c-1.4,0-2.4-0.3-3-0.9s-0.9-1.6-0.9-2.8c0-0.3,0-0.6,0.1-0.9c0-0.3,0.1-0.7,0.1-1.1l2.6-14.6
			h4.1l-0.6,2.9h3.8l-0.6,3.6h-3.8l-1,6.2c-0.1,0.4-0.1,0.8-0.2,1.3c-0.1,0.4-0.1,0.8-0.1,1.1c0,0.6,0.1,1.1,0.4,1.3
			c0.2,0.2,0.6,0.4,1.2,0.4c0.2,0,0.5-0.1,0.8-0.1c0.3-0.1,0.6-0.2,0.8-0.4h0.3l-0.6,3.7c-0.5,0.2-0.9,0.3-1.4,0.4
			C524.8,116,524.2,116,523.5,116L523.5,116z"/>
		<path fill="#FFFFFF" d="M552.8,103.3c-0.9-0.7-2.9-0.5-3.3,0.9l-2,11.5h-4.1l2.9-17.2h4.1l-0.1,1.4c0.8-0.8,1.6-1.4,3.8-1.4
			C554.4,98.5,552.9,101.1,552.8,103.3L552.8,103.3z"/>
		<path fill="#FFFFFF" d="M560.5,116.2c-2.3,0-4.1-0.8-5.3-2.3c-1.3-1.5-1.9-3.7-1.9-6.5c0-2.2,0.3-4.3,0.8-6.1
			c0.5-1.8,1.3-3.4,2.3-4.7c0.9-1.3,2.1-2.3,3.4-3c1.3-0.7,2.7-1.1,4.1-1.1c1.1,0,2.2,0.2,3.2,0.5c0.5,0.2,1.4,0.6,1.4,0.6l-0.9,5.4
			c-0.5-0.6-0.9-1.1-1.4-1.4c-0.7-0.5-1.6-0.7-2.5-0.7c-1.7,0-3.1,0.9-4.1,2.7c-1.1,1.8-1.7,4.2-1.7,7c0,1.8,0.3,3.2,0.9,4
			c0.6,0.8,1.5,1.2,2.6,1.2c1,0,2-0.3,2.9-0.8c0.4-0.3,0.9-0.6,1.3-0.9l-1,5.2c0,0-0.5,0.2-0.7,0.3c-0.6,0.2-1.1,0.4-1.5,0.5
			C562,116.1,561.4,116.2,560.5,116.2L560.5,116.2z"/>
		<path fill="#FFFFFF" d="M500.1,115.1c-0.2,0.1-0.3,0.2-0.5,0.3c-0.4,0.2-0.8,0.4-1.2,0.5s-0.9,0.2-1.6,0.2c-1,0-1.9-0.4-2.6-1.2
			c-0.7-0.8-1-1.9-1-3.2c0-1.4,0.2-2.5,0.7-3.5c0.5-0.9,1.2-1.7,2.1-2.2c0.9-0.5,1.9-0.9,3.1-1.1l0.8-0.1c1-0.2,2-0.3,3.1-0.4
			c0-0.1,0-0.2,0-0.3c0-0.1,0-0.3,0-0.5c0-0.7-0.2-1.2-0.7-1.6c-0.5-0.3-1.2-0.4-2.2-0.4h-0.2c-0.6,0-1.3,0.2-2,0.5
			c-0.8,0.3-1.4,0.5-1.8,0.8h-0.2l0.6-4.1c0.5-0.2,1.2-0.4,2.2-0.5c0.5-0.1,0.9-0.2,1.4-0.2c0.5-0.1,1-0.1,1.6-0.1
			c2,0,3.4,0.4,4.4,1.1c0.9,0.7,1.4,1.8,1.4,3.3c0,0.2,0,0.5,0,0.8s-0.1,0.6-0.1,0.9l-2,11.7h-4.1l0.3-1.8c-0.2,0.2-0.6,0.5-0.9,0.8
			C500.4,114.8,500.3,115,500.1,115.1L500.1,115.1z M500.1,108c-0.4,0.1-0.8,0.2-1.1,0.4c-0.5,0.2-0.8,0.5-1,1
			c-0.3,0.4-0.4,1-0.4,1.6s0.2,1,0.5,1.2s0.8,0.4,1.4,0.4c0.2,0,0.4,0,0.6-0.1c0.2,0,0.4-0.1,0.6-0.2c0.4-0.3,0.9-0.6,1.3-1l0.6-3.7
			c-0.7,0.1-1.4,0.2-2,0.3C500.4,107.9,500.3,107.9,500.1,108L500.1,108z"/>
		<path fill="#FFFFFF" d="M535.4,101.5c-0.5,0.1-1,0.4-1.4,0.8c-0.6,0.6-1,1.5-1.3,2.6h2.8h2.7c0-0.2,0-0.3,0-0.5c0-0.1,0-0.3,0-0.5
			c0-0.8-0.2-1.4-0.6-1.9c-0.4-0.4-0.9-0.6-1.6-0.6C535.8,101.4,535.6,101.4,535.4,101.5L535.4,101.5z M535.4,112.3h0.6
			c0.9,0,1.7-0.2,2.5-0.6s1.5-0.9,2.1-1.4h0.5l-0.8,4.4c-0.8,0.5-1.6,0.8-2.5,1.1c-0.7,0.2-1.6,0.3-2.4,0.4H535c-2.2,0-3.8-0.6-5-2
			c-1.2-1.3-1.8-3.1-1.8-5.4c0-1.6,0.2-3,0.6-4.3c0.4-1.3,0.9-2.5,1.7-3.5c0.7-1,1.6-1.7,2.6-2.3c0.7-0.4,1.5-0.6,2.3-0.8
			c0.4,0,0.7,0,1.1,0c1.9,0,3.3,0.5,4.3,1.6c0.9,1,1.4,2.6,1.4,4.6c0,0.7,0,1.4-0.1,2.1c-0.1,0.6-0.2,1.3-0.4,2h-6.3h-3.2v0.2v0.2
			c0,1.2,0.3,2.1,0.9,2.8C533.7,111.8,534.4,112.2,535.4,112.3L535.4,112.3z"/>
		<path fill="#FFFFFF" d="M573.6,115.1c-0.2,0.1-0.3,0.2-0.5,0.3c-0.4,0.2-0.8,0.4-1.2,0.5s-0.9,0.2-1.5,0.2c-1.1,0-1.9-0.4-2.6-1.2
			c-0.7-0.8-1-1.9-1-3.2c0-1.4,0.2-2.5,0.7-3.5c0.5-0.9,1.2-1.7,2.1-2.2c0.9-0.5,1.9-0.9,3.1-1.1c0.3-0.1,0.5-0.1,0.8-0.1
			c0.9-0.2,2-0.3,3.1-0.4c0-0.1,0-0.2,0.1-0.3c0-0.1,0-0.3,0-0.5c0-0.7-0.3-1.2-0.7-1.6c-0.5-0.3-1.2-0.4-2.2-0.4h-0.2
			c-0.6,0-1.3,0.2-2,0.5c-0.8,0.3-1.4,0.5-1.8,0.8h-0.4l0.6-4.1c0.5-0.2,1.2-0.4,2.2-0.5c0.5-0.1,0.9-0.2,1.4-0.2
			c0.5-0.1,1-0.1,1.6-0.1c2,0,3.4,0.4,4.4,1.1c0.9,0.7,1.4,1.8,1.4,3.3c0,0.2,0,0.5,0,0.8s-0.1,0.6-0.1,0.9l-2,11.7h-4.1l0.3-1.8
			c-0.3,0.2-0.6,0.5-0.9,0.8L573.6,115.1L573.6,115.1z M573.6,108c-0.4,0.1-0.8,0.2-1.1,0.4c-0.4,0.2-0.8,0.5-1,1
			c-0.2,0.4-0.4,1-0.4,1.6s0.2,1,0.5,1.2s0.8,0.4,1.4,0.4c0.2,0,0.4,0,0.7-0.1c0.2,0,0.4-0.1,0.6-0.2c0.5-0.3,0.9-0.6,1.3-1l0.6-3.7
			c-0.7,0.1-1.4,0.2-2.1,0.3C573.9,107.9,573.8,107.9,573.6,108L573.6,108z"/>
		<path fill="#FFFFFF" d="M590.8,103.3c-0.9-0.7-2.9-0.5-3.3,0.9l-2,11.5h-4.1l2.9-17.2h4.1l-0.1,1.4c0.8-0.8,1.6-1.4,3.8-1.4
			C592.4,98.5,590.9,101.1,590.8,103.3L590.8,103.3z"/>
		<path fill="#FFFFFF" d="M598.9,102.2c-0.2,0.1-0.4,0.2-0.6,0.4c-0.5,0.4-1,0.9-1.3,1.6c-0.3,0.6-0.6,1.4-0.7,2.3
			c-0.2,0.9-0.3,1.8-0.3,2.7c0,1.1,0.2,1.8,0.5,2.2c0.4,0.5,0.9,0.7,1.6,0.7c0.3,0,0.5-0.1,0.8-0.2c0.1,0,0.2-0.1,0.4-0.2
			c0.4-0.2,0.8-0.5,1.1-0.8l1.4-8.5c-0.2-0.1-0.5-0.3-0.9-0.4c-0.3-0.1-0.6-0.2-0.9-0.2C599.6,101.9,599.2,102,598.9,102.2
			L598.9,102.2z M598.9,114.8c-0.3,0.3-0.6,0.5-1,0.8c-0.3,0.2-0.7,0.4-1,0.5s-0.7,0.1-1.2,0.1c-1.3,0-2.2-0.6-3-1.6
			c-0.7-1.1-1.1-2.7-1.1-4.6c0-1.6,0.2-3.2,0.6-4.6c0.4-1.4,0.9-2.7,1.6-3.8c0.7-1.1,1.4-1.9,2.4-2.6c0.9-0.6,1.8-0.9,2.7-1h0.1
			c0.7,0,1.3,0.1,1.8,0.3c0.5,0.2,1,0.5,1.6,0.9l0.9-6h4.1l-3.7,22.5h-4.1l0.3-1.8C599.5,114.2,599.2,114.5,598.9,114.8L598.9,114.8
			z"/>
	</g>
</g>
<g>
	<path fill="#FFFFFF" d="M801.6,67.6c0-7.4-3.9-11.1-11.5-11.1H656.4c-3.8,0-6.6,1-8.4,3c-2.1,2-3.1,4.7-3.1,8.1v75.1
		c0,3.4,1,5.9,3.1,8c2.1,2,4.9,3,8.4,3h133.7c7.6,0,11.5-3.7,11.5-11.1V67.6L801.6,67.6z"/>
	<path fill="#005180" d="M801.6,67.6c0-7.4-3.9-11.1-11.5-11.1H656.4c-3.8,0-6.6,1-8.4,3c-2.1,2-3.1,4.7-3.1,8.1v75.1
		c0,3.4,1,5.9,3.1,8c2.1,2,4.9,3,8.4,3h133.7c7.6,0,11.5-3.7,11.5-11.1V67.6L801.6,67.6z M790.1,58.3c6.3,0,9.5,3.2,9.5,9.3v75.1
		c0,6.2-3.2,9.3-9.5,9.3H656.4c-3,0-5.3-0.9-7.1-2.6c-1.8-1.7-2.7-4-2.7-6.7V67.6c0-6.2,3.1-9.3,9.7-9.3H790.1L790.1,58.3z"/>
	<g>
		<path fill="#005180" d="M658.4,62.6c-2.5,0-4.1,0.4-5,1.3c-0.8,1-1.1,2.6-1.1,5v16.3h142V68.9c0-4.3-2.1-6.3-6.3-6.3L658.4,62.6
			L658.4,62.6z"/>
		<path fill="#F2A60B" d="M652.3,141.4c0,4.3,2,6.5,6.1,6.5H788c4.2,0,6.3-2.2,6.3-6.5v-16.3h-142V141.4L652.3,141.4z"/>
		<path fill="#005180" d="M699.3,92.2c0,0.8-0.1,1.3-0.4,1.8l-10.2,17.8L688,90h-16.4l5.5,2.6c1.6,1,2.4,2.3,2.4,3.9l1.5,23.1h8
			L708.2,90h-9.8C699,90.5,699.3,91.4,699.3,92.2L699.3,92.2z"/>
		<path fill="#005180" d="M765.5,90.9l0.6-0.9h-10c0.4,0.4,0.5,0.5,0.5,0.6c-0.1,0.5-0.4,0.8-0.5,1.1l-14.6,26.5
			c-0.4,0.5-0.7,0.9-1.1,1.3h8.2l-0.4-0.9c0-0.8,0.4-2.2,1.3-4.2l1.8-3.3h8.5c0.4,2.7,0.6,5,0.7,6.7l-0.7,1.6H770l-1.5-2.2
			L765.5,90.9L765.5,90.9z M759.4,107.2h-6.1l5.2-10L759.4,107.2L759.4,107.2z"/>
		<path fill="#005180" d="M734.1,88.5c-3.2,0-5.8,0.9-8.2,2.6c-2.6,1.5-3.9,3.4-3.9,5.8c0,2.7,0.9,5.1,2.8,7l5.7,3.9
			c2,1.5,3,2.7,3,3.9c0,1.1-0.5,2.1-1.5,2.9s-2.1,1.1-3.5,1.1c-2,0-5.6-1.5-10.4-4.2v5.4c3.8,2.3,7.5,3.4,11,3.4
			c3.4,0,6.3-0.9,8.7-3c2.6-1.9,3.9-4.2,3.9-6.7c0-2.1-0.9-4-3-6.1l-5.4-3.9c-1.8-1.5-2.8-2.7-2.8-3.7c0-2.3,1.3-3.4,4.1-3.4
			c1.9,0,4.6,1.1,8.3,3.3l1.1-5.7C740.8,89.4,737.6,88.5,734.1,88.5L734.1,88.5z"/>
		<path fill="#005180" d="M712.4,119.7c-0.1-1.2-0.4-2.3-0.5-3.5l7.4-24l1.8-2.2h-10.7c0.1,0.5,0.2,1.2,0.4,1.8c0,0.5,0,1.2-0.1,1.8
			l-7.4,23.7l-1.5,2.4L712.4,119.7L712.4,119.7z"/>
	</g>
</g>
<g>
	<g>
		<path fill="#FFD30A" d="M435.8,280c0,2.2-1.8,4-4,4h-149c-2.2,0-4-1.8-4-4v-89c0-2.2,1.8-4,4-4h149c2.2,0,4,1.8,4,4V280z"/>
	</g>
	<g>
		<path fill="#000100" d="M288,215.8h4.1c3.6,0,6.9,1.1,6.9,5c0,3.8-2.8,5.2-6.3,5.2h-1.4v6.3h-3.2v-16.5H288z M291.2,223.4h1.2
			c1.7,0,3.1-0.5,3.1-2.4c0-2-1.4-2.6-3.1-2.6h-1.2V223.4L291.2,223.4z"/>
		<path fill="#000100" d="M306,219.9c3.6,0,6.4,2.4,6.4,6.4c0,3.5-2.3,6.3-6.4,6.3c-4,0-6.3-2.8-6.3-6.3
			C299.7,222.3,302.5,219.9,306,219.9L306,219.9z M306,230.1c2.5,0,3.1-2.2,3.1-4.2c0-1.9-1-3.6-3.1-3.6c-2,0-3,1.8-3,3.6
			C303,227.9,303.7,230.1,306,230.1L306,230.1z"/>
		<path fill="#000100" d="M322,222.7c-1-0.3-1.7-0.5-2.8-0.5c-0.9,0-1.9,0.3-1.9,1.4c0,2,5.5,0.7,5.5,5.1c0,2.8-2.6,3.9-5.1,3.9
			c-1.2,0-2.4-0.2-3.5-0.5l0.1-2.6c1,0.5,2,0.8,3.2,0.8c0.8,0,2-0.3,2-1.4c0-2.4-5.5-0.8-5.5-5.1c0-2.6,2.3-3.8,4.7-3.8
			c1.5,0,2.5,0.2,3.5,0.5L322,222.7L322,222.7z"/>
		<path fill="#000100" d="M326,222.4h-2.3v-2.3h2.3v-2.4l3.2-1v3.4h2.8v2.3h-2.8v5.6c0,1.1,0.3,2,1.5,2c0.5,0,1.1-0.1,1.4-0.4
			l0.1,2.5c-0.6,0.2-1.4,0.3-2.3,0.3c-2.4,0-3.8-1.5-3.8-3.9v-6.1H326z"/>
		<polygon fill="#000100" points="334,215.8 343.2,215.8 343.2,218.4 337.3,218.4 337.3,222.4 342.9,222.4 342.9,225.1 337.3,225.1 
			337.3,232.2 334,232.2 		"/>
		<path fill="#000100" d="M345.2,214.9h3.2v3h-3.2V214.9L345.2,214.9z M345.2,220.1h3.2v12.1h-3.2V220.1L345.2,220.1z"/>
		<path fill="#000100" d="M351.7,220.1h3v1.7c1-1.4,2.3-1.9,4-1.9c2.9,0,4.1,2,4.1,4.7v7.6h-3.2v-6.5c0-1.4,0-3.5-2-3.5
			c-2.3,0-2.8,2.5-2.8,4.1v5.9h-3.2v-12.1H351.7z"/>
		<path fill="#000100" d="M366.4,220.8c1.2-0.6,2.9-0.9,4.2-0.9c3.7,0,5.2,1.5,5.2,5v1.6c0,1.2,0.1,2.1,0.1,3c0,1,0.1,1.8,0.2,2.7
			h-2.8c-0.2-0.6-0.2-1.4-0.2-1.8H373c-0.7,1.4-2.3,2.1-3.7,2.1c-2.2,0-4.3-1.3-4.3-3.6c0-1.8,0.9-2.9,2.1-3.5s2.8-0.7,4.1-0.7h1.7
			c0-2-0.8-2.6-2.7-2.6c-1.4,0-2.7,0.5-3.8,1.4L366.4,220.8L366.4,220.8z M370.1,230.2c1,0,1.7-0.4,2.2-1.1c0.5-0.7,0.7-1.6,0.7-2.5
			h-1.4c-1.4,0-3.5,0.2-3.5,2.1C368.1,229.7,369,230.2,370.1,230.2L370.1,230.2z"/>
		<path fill="#000100" d="M379,220.1h2.9v1.7h0.1c1-1.4,2.3-1.9,4-1.9c2.9,0,4.1,2,4.1,4.7v7.6h-3.2v-6.5c0-1.4,0-3.5-2-3.5
			c-2.3,0-2.8,2.5-2.8,4.1v5.9H379V220.1L379,220.1z"/>
		<path fill="#000100" d="M401.2,222.7c-0.6-0.2-1.2-0.5-2.2-0.5c-2,0-3.2,1.6-3.2,3.8c0,2.3,1.1,4,3.2,4c0.9,0,1.9-0.4,2.5-0.6
			l0.1,2.6c-0.9,0.2-1.8,0.4-3.1,0.4c-4,0-6-2.7-6-6.4c0-3.5,2.1-6.3,5.9-6.3c1.3,0,2.2,0.1,3.1,0.4L401.2,222.7L401.2,222.7z"/>
		<path fill="#000100" d="M413.3,231.5c-1.1,0.7-2.5,1-4.1,1c-4,0-6.3-2.3-6.3-6.3c0-3.5,1.8-6.4,5.6-6.4c4.5,0,5.8,3.1,5.8,7.3
			h-8.5c0.2,2,1.5,3,3.5,3c1.5,0,2.9-0.5,4-1.2V231.5L413.3,231.5z M411.2,225c-0.1-1.5-0.8-2.9-2.6-2.9c-1.7,0-2.6,1.2-2.8,2.9
			H411.2L411.2,225z"/>
		<polygon fill="#E31C13" points="419.4,237.9 427.4,237.9 426.1,243.9 432.1,243.9 430.5,251.4 424.6,251.4 423.4,256.9 
			416.9,256.9 417.3,255 421.8,255 423,249.5 428.9,249.5 429.7,245.8 423.7,245.8 424.9,239.9 420.9,239.9 419.7,245.8 
			417.7,245.8 		"/>
		<polygon fill="#FFFFFF" points="414.5,256.9 415.5,252 359.4,252 358.3,256.9 		"/>
		<path fill="#000100" d="M387,244.1h-1.6h-0.1v0.1l-2,9.4v0.1h0.2h1.9h0.1v-0.1c0,0,0.6-2.9,0.7-3.1h1c1.3,0,2.4-0.4,3.2-1.1
			c0.7-0.7,1-1.5,1-2.4c0-0.8-0.2-1.4-0.7-1.8C389.7,244.3,388.2,244.1,387,244.1L387,244.1z M387.1,245.8h0.5
			c0.4,0,0.8,0.1,1.1,0.5c0.3,0.2,0.4,0.5,0.4,1c0,1.1-1.1,1.7-2,1.7h-0.5L387.1,245.8L387.1,245.8z"/>
		<path fill="#000100" d="M399.8,245c-0.7-0.7-1.7-1.1-2.9-1.1c-1.7,0-2.9,0.5-4,1.8c-0.9,1.1-1.5,2.6-1.5,4.1
			c0,1.2,0.5,2.3,1.1,2.9c0.7,0.7,1.6,1.1,2.7,1.1c1.7,0,3.1-0.6,4.1-1.6c1-1.2,1.6-2.7,1.6-4.3C400.8,246.8,400.5,245.8,399.8,245
			L399.8,245z M395.4,252.3c-0.5,0-1-0.2-1.3-0.5c-0.4-0.4-0.6-1-0.6-1.7c0-1.3,0.5-2.7,1.4-3.5c0.5-0.5,1.1-0.8,1.9-0.8
			c0.5,0,1,0.2,1.3,0.5c0.4,0.4,0.6,1,0.6,1.7C398.6,249.6,397.5,252.3,395.4,252.3L395.4,252.3z"/>
		<path fill="#000100" d="M365,244.1c0,0-2,0-2.4,0h-0.1v0.1l-2,9.4v0.1h0.1h3.2c1.9,0,3.4-0.5,4.3-1.7c0.9-1.1,1.1-2.5,1.2-3.5
			C369.4,245.8,368,244.4,365,244.1L365,244.1z M364.2,245.8h0.2c1.1,0,1.8,0.2,2.3,0.7c0.4,0.4,0.5,0.8,0.5,1.5
			c-0.1,2.8-1.3,4.1-3.8,4.1H363L364.2,245.8L364.2,245.8z"/>
		<path fill="#000100" d="M408,244.4c-0.8-0.3-1.6-0.5-2.5-0.5c-1.7,0-3.6,0.8-3.6,2.9c0,1.4,1,2,1.9,2.5c0.7,0.4,1.3,0.8,1.3,1.4
			c0,1-0.8,1.4-1.7,1.4c-0.8,0-1.6-0.4-2.3-0.7H401l-0.1,0.1l-0.5,1.6v0.1h-0.1h0.1l0.1,0.1c0.9,0.3,1.8,0.5,2.7,0.5
			c1.4,0,2.4-0.4,3.1-1.1c0.5-0.5,0.8-1.3,0.8-2.2c0-1.5-1.1-2.2-2-2.7c-0.7-0.4-1.2-0.8-1.2-1.4c0-0.2,0.1-0.4,0.2-0.5
			c0.4-0.4,1.1-0.5,1.2-0.5c0.7,0,1.4,0.2,2,0.5h0.1v-0.1L408,244.4L408,244.4L408,244.4L408,244.4z"/>
		<polygon fill="#000100" points="381,244.1 375.5,244.1 375.4,244.1 375.4,244.2 373.4,253.6 373.4,253.7 373.6,253.7 379.1,253.7 
			379.2,253.7 379.2,253.6 379.5,252.2 379.6,252 379.5,252 379.4,252 375.8,252 376.4,249.6 379.6,249.6 379.7,249.6 379.7,249.5 
			380,248 380,248 380,247.9 379.9,247.9 376.7,247.9 377.2,245.8 380.8,245.8 380.9,245.8 380.9,245.7 381.2,244.2 381.2,244.1 
			381.1,244.1 		"/>
		<polygon fill="#000100" points="373.7,244.1 373.6,244.1 373.6,244.1 371.6,244.1 371.5,244.1 371.5,244.2 369.6,253.6 
			369.5,253.7 369.6,253.7 369.6,253.7 371.6,253.7 371.7,253.7 371.7,253.6 373.6,244.2 		"/>
		<path fill="#000100" d="M416.1,244.1h-0.2h-7.2h-0.1v0.1l-0.3,1.5l-0.1,0.1h0.1h0.1h2.5l-1.7,7.8v0.1h0.1h2h0.1l0.1-0.1
			c0,0,1.6-7.5,1.7-7.8h2.6h0.1l0.1-0.1L416.1,244.1L416.1,244.1L416.1,244.1z"/>
	</g>
</g>
<g>
	<g>
		<path fill="#FFFFFF" d="M618.7,280c0,2.2-1.8,4-4,4h-149c-2.2,0-4-1.8-4-4v-89c0-2.2,1.8-4,4-4h149c2.2,0,4,1.8,4,4V280z"/>
	</g>
	<g>
		<polygon fill="#2A2984" points="520.3,247.7 522.7,236.5 527.8,247.7 537.6,247.7 532,235.4 540.9,226.6 532.2,226.6 523,234.9 
			526.9,216.9 518.7,216.9 512.1,247.7 		"/>
		<path fill="#2A2984" d="M479,229.6l0.6-2.9h-8.2l-4.5,21.1h8.2l2.4-11.3c0.9-4.4,5.4-4.1,8.4-4.1l1.4-6.5c0,0-1,0-1.8,0
			c-1.3,0.1-2.8,0.6-3.6,1.2C480.9,227.8,479,229.6,479,229.6L479,229.6z"/>
		<path fill="#2A2984" d="M545.6,228.2c2.9-2,7.4-2.9,11.5-2.4c4.6,0.6,7.3,2.6,6.7,6.6c-0.3,2.2-2,7.9-2.4,10.1
			c-0.4,2.3-0.6,5.2-0.6,5.2h-7.7l0.1-2.6c0,0-1.3,1.2-2.3,1.8c-1.3,0.8-4.3,1.4-5.7,1.3c-3.7-0.2-6.1-2-5.8-5.6
			c0.2-3.3,1.9-5.6,4.6-7c1.7-0.9,4.7-1.6,6.9-1.7c1.9,0,4.6-0.1,4.7-0.2c0.2-0.1,0.4-1,0.5-1.9c0.2-1.4-0.3-2.2-2-2.3
			c-1-0.1-2.3,0.7-2.7,1.4c-0.5,1-0.4,1.8-1.4,1.9l-7.3-0.1C542.4,232.8,544,229.4,545.6,228.2L545.6,228.2L545.6,228.2L545.6,228.2
			z M554.2,237.6c-3-0.3-6.3,0.7-6.6,3.5c-0.2,2.1,1.6,2.9,3.8,2.2c2-0.6,3-3.1,3.3-5.5C554.7,237.7,554.3,237.6,554.2,237.6
			L554.2,237.6z"/>
		<polygon fill="#E10015" points="569.2,233.4 576.4,233.4 577.8,226.6 570.7,226.6 		"/>
		<polygon fill="#E10015" points="613.4,226.6 585.9,226.6 584.5,233.4 592,233.4 590.4,240.9 582.9,240.9 581.4,247.7 609,247.7 		
			"/>
		<polygon fill="#E10015" points="566.2,247.7 573.3,247.7 574.8,240.9 567.6,240.9 		"/>
		<path fill="#2A2984" d="M510.5,238.5c2.2-9.2-1-13.8-8.6-13.5c-8.7,0.3-14,3.9-15.2,13.5c-1.9,15.1,22.1,10.8,23.2,1.6h-8
			c-0.6,2.6-4.2,3.6-6.2,2.6c-1.1-0.6-1.2-2.1-1-4.3L510.5,238.5L510.5,238.5L510.5,238.5L510.5,238.5z M496.1,233.8
			c0.7-4.8,7.9-6.4,7.1,0H496.1L496.1,233.8z"/>
	</g>
</g>
<g>
	<g>
		<path fill="#FFFFFF" d="M801.6,280c0,2.2-1.8,4-4,4h-149c-2.2,0-4-1.8-4-4v-89c0-2.2,1.8-4,4-4h149c2.2,0,4,1.8,4,4V280z"/>
	</g>
	<g>
		<path fill="#004A97" d="M727.9,241.4c13.2,0.1,25.2-10.7,25.2-23.9c0-14.4-12-24.3-25.2-24.3h-11.3c-13.3,0-24.3,9.9-24.3,24.3
			c0,13.2,11,24,24.3,23.9H727.9z"/>
		<path fill="#FFFFFF" d="M721.6,230.3v-26.1c5.2,2,9,7.1,9,13.1C730.6,223.2,726.9,228.3,721.6,230.3 M702.6,217.3
			c0-6,3.7-11,9-13.1v26.1C706.4,228.3,702.6,223.2,702.6,217.3 M716.6,195.2c-12.2,0-22.1,9.9-22.1,22.1c0,12.2,9.9,22.1,22.1,22.1
			c12.2,0,22.1-9.9,22.1-22.1C738.7,205.1,728.8,195.2,716.6,195.2"/>
		<path fill="#004A97" d="M667.6,257.8c0,2,1.4,2.2,2.7,2.2c5.5,0,7.3-4.2,7.3-8c0-4.8-3.1-8.2-8-8.2c-1,0-1.5,0.1-2,0.1V257.8z
			 M665.1,245.9c0-2.3-1.2-2.1-2.3-2.2V243c1,0,2,0,3,0c1.1,0,2.5,0,4.4,0c6.6,0,10.2,4.4,10.2,8.9c0,2.5-1.5,8.9-10.5,8.9
			c-1.3,0-2.5-0.1-3.7-0.1c-1.1,0-2.3,0-3.4,0.1v-0.7c1.5-0.2,2.3-0.2,2.3-1.9V245.9z"/>
		<path fill="#004A97" d="M684,245.3c-0.7,0-1.2-0.6-1.2-1.3c0-0.6,0.6-1.2,1.2-1.2c0.7,0,1.2,0.5,1.2,1.2
			C685.2,244.7,684.7,245.3,684,245.3 M681.3,260.2h0.5c0.7,0,1.2,0,1.2-0.8v-6.9c0-1.1-0.4-1.3-1.3-1.8v-0.4
			c1.2-0.4,2.6-0.8,2.7-0.9c0.2-0.1,0.3-0.1,0.5-0.1c0.1,0,0.2,0.2,0.2,0.4v9.8c0,0.8,0.6,0.8,1.3,0.8h0.4v0.7
			c-0.9,0-1.8-0.1-2.7-0.1s-1.8,0-2.8,0.1L681.3,260.2L681.3,260.2z"/>
		<path fill="#004A97" d="M689.1,252.6c0-0.9-0.3-1.2-1.5-1.7v-0.5c1.1-0.4,2.1-0.7,3.4-1.2c0.1,0,0.2,0.1,0.2,0.3v1.7
			c1.5-1,2.7-1.9,4.4-1.9c2.2,0,2.9,1.6,2.9,3.6v6.6c0,0.8,0.6,0.8,1.3,0.8h0.5v0.7c-0.9,0-1.8-0.1-2.7-0.1s-1.8,0-2.8,0.1v-0.7h0.5
			c0.7,0,1.2,0,1.2-0.8v-6.6c0-1.5-0.9-2.2-2.3-2.2c-0.8,0-2.1,0.7-3,1.2v7.5c0,0.8,0.6,0.8,1.3,0.8h0.5v0.7c-0.9,0-1.8-0.1-2.7-0.1
			s-1.8,0-2.8,0.1v-0.7h0.5c0.7,0,1.2,0,1.2-0.8v-6.8H689.1z"/>
		<path fill="#004A97" d="M706.7,253c0.6,0,0.7-0.3,0.7-0.6c0-1.3-0.8-2.3-2.2-2.3c-1.6,0-2.6,1.1-2.9,3L706.7,253L706.7,253z
			 M702.2,253.8c-0.1,0.2-0.1,0.6,0,1.5c0.2,2.4,1.7,4.4,3.7,4.4c1.4,0,2.5-0.8,3.4-1.7l0.4,0.4c-1.2,1.6-2.6,2.9-4.7,2.9
			c-4.1,0-4.9-3.9-4.9-5.6c0-5,3.4-6.5,5.1-6.5c2.1,0,4.3,1.3,4.3,4c0,0.2,0,0.3,0,0.5l-0.2,0.2L702.2,253.8L702.2,253.8z"/>
		<path fill="#004A97" d="M710.2,260.2h0.7c0.7,0,1.2,0,1.2-0.8v-7.2c0-0.8-0.9-0.9-1.3-1.1v-0.4c1.9-0.8,2.9-1.5,3.1-1.5
			c0.1,0,0.2,0.1,0.2,0.3v2.3h0.1c0.6-1,1.7-2.6,3.3-2.6c0.6,0,1.5,0.4,1.5,1.4c0,0.7-0.5,1.3-1.2,1.3c-0.8,0-0.8-0.6-1.7-0.6
			c-0.4,0-1.9,0.6-1.9,2.1v6c0,0.8,0.5,0.8,1.2,0.8h1.4v0.7c-1.4,0-2.5-0.1-3.6-0.1c-1,0-2.1,0-3,0.1V260.2z"/>
		<path fill="#004A97" d="M720,257.3c0.3,1.7,1.4,3.1,3.2,3.1c1.5,0,2.1-0.9,2.1-1.8c0-3-5.6-2-5.6-6.1c0-1.4,1.1-3.3,3.9-3.3
			c0.8,0,1.9,0.2,2.9,0.7l0.2,2.6h-0.6c-0.3-1.6-1.1-2.5-2.8-2.5c-1,0-2,0.6-2,1.7c0,3,5.9,2.1,5.9,6.1c0,1.7-1.4,3.5-4.4,3.5
			c-1,0-2.2-0.4-3.1-0.9l-0.3-2.9L720,257.3z"/>
		<path fill="#004A97" d="M750.3,247.7h-0.6c-0.5-3-2.6-4.2-5.5-4.2s-7.2,2-7.2,8.1c0,5.1,3.7,8.8,7.6,8.8c2.5,0,4.6-1.7,5.1-4.4
			l0.6,0.2l-0.6,3.7c-1.1,0.7-4,1.4-5.6,1.4c-6,0-9.7-3.8-9.7-9.6c0-5.2,4.7-9,9.7-9c2.1,0,4.1,0.7,6,1.4L750.3,247.7z"/>
		<path fill="#004A97" d="M751.2,260.2h0.5c0.7,0,1.2,0,1.2-0.8v-14.2c0-1.7-0.4-1.7-1.4-2v-0.4c1-0.3,2.1-0.8,2.6-1.1
			c0.3-0.2,0.5-0.3,0.6-0.3c0.2,0,0.2,0.2,0.2,0.4v17.6c0,0.8,0.6,0.8,1.3,0.8h0.4v0.7c-0.9,0-1.8-0.1-2.7-0.1s-1.8,0-2.8,0.1v-0.7
			H751.2z"/>
		<path fill="#004A97" d="M767.6,259.4c0,0.5,0.3,0.5,0.7,0.5c0.3,0,0.7,0,1,0v0.5c-1.1,0.1-3.2,0.6-3.7,0.8l-0.1-0.1V259
			c-1.5,1.2-2.7,2.1-4.5,2.1c-1.4,0-2.8-0.9-2.8-3v-6.5c0-0.7-0.1-1.3-1.5-1.4v-0.5c0.9,0,3-0.2,3.3-0.2s0.3,0.2,0.3,0.7v6.6
			c0,0.8,0,3,2.2,3c0.9,0,2-0.7,3.1-1.6v-6.9c0-0.5-1.2-0.8-2.1-1v-0.5c2.3-0.2,3.7-0.4,4-0.4c0.2,0,0.2,0.2,0.2,0.5v9.5H767.6z"/>
		<path fill="#004A97" d="M772.7,258c0,1,0.9,2.6,2.6,2.6c2.7,0,3.9-2.7,3.9-4.9c0-2.8-2.1-5-4.1-5c-0.9,0-1.7,0.6-2.4,1.2V258z
			 M772.7,251c1-0.9,2.4-1.8,3.8-1.8c3,0,4.7,2.6,4.7,5.4c0,3.3-2.4,6.7-6.1,6.7c-1.9,0-2.9-0.6-3.5-0.9l-0.8,0.6l-0.5-0.3
			c0.2-1.5,0.4-3,0.4-4.5v-11c0-1.7-0.4-1.7-1.4-2v-0.4c1-0.3,2.1-0.8,2.6-1.1c0.3-0.2,0.5-0.3,0.6-0.3c0.2,0,0.2,0.2,0.2,0.4V251z"
			/>
		<path fill="#004A97" d="M662.7,275.7h0.2c0.5,0,1-0.1,1-0.8v-7.3c0-0.7-0.5-0.8-1-0.8h-0.2v-0.4c0.5,0,1.4,0.1,2.1,0.1
			c0.7,0,1.5-0.1,2.2-0.1v0.4h-0.2c-0.5,0-1,0.1-1,0.8v7.3c0,0.7,0.5,0.8,1,0.8h0.2v0.4c-0.7,0-1.5-0.1-2.2-0.1s-1.5,0.1-2,0.1
			L662.7,275.7L662.7,275.7z"/>
		<path fill="#004A97" d="M666.9,276v-0.3h-0.1c-0.5,0-1.1-0.1-1.1-0.9v-7.3c0-0.8,0.6-0.9,1.1-0.9h0.1v-0.3c-0.6,0-1.4,0.1-2.1,0.1
			c-0.7,0-1.5-0.1-2-0.1v0.3h0.1c0.5,0,1.1,0.1,1.1,0.9v7.3c0,0.8-0.6,0.9-1.1,0.9h-0.1v0.3c0.5,0,1.3-0.1,2-0.1
			C665.5,276,666.3,276,666.9,276 M667,276.1c-0.7,0-1.5-0.1-2.2-0.1s-1.5,0.1-2,0.1h-0.1V276v-0.4v-0.1h0.1h0.2c0.5,0,1-0.1,1-0.7
			v-7.3c0-0.7-0.5-0.7-1-0.7h-0.3v-0.1v-0.5h0.1c0.5,0,1.4,0.1,2.1,0.1c0.7,0,1.5-0.1,2.2-0.1h0.1v0.1v0.5h-0.1h-0.2
			c-0.5,0-1,0.1-1,0.7v7.3c0,0.7,0.5,0.7,1,0.7h0.3v0.1L667,276.1L667,276.1z"/>
		<path fill="#004A97" d="M676.5,273.4L676.5,273.4v-5.2c0-1.1-0.8-1.3-1.2-1.3H675v-0.4c0.7,0,1.3,0.1,1.9,0.1
			c0.6,0,1.1-0.1,1.7-0.1v0.4h-0.2c-0.6,0-1.2,0.1-1.2,1.8v6.3c0,0.5,0,1,0.1,1.4h-0.5l-7.1-8v5.7c0,1.2,0.2,1.6,1.3,1.6h0.2v0.4
			c-0.6,0-1.2-0.1-1.8-0.1s-1.3,0.1-1.9,0.1v-0.4h0.2c1,0,1.2-0.7,1.2-1.8v-5.8c0-0.8-0.6-1.2-1.3-1.2h-0.2v-0.4
			c0.5,0,1.1,0.1,1.6,0.1c0.4,0,0.8-0.1,1.2-0.1L676.5,273.4z"/>
		<path fill="#004A97" d="M676.5,273.3L676.5,273.3L676.5,273.3L676.5,273.3z M676.5,273.4L676.5,273.4L676.5,273.4z M676.8,276.2
			h0.5c-0.1-0.4-0.1-0.9-0.1-1.3v-6.3c0-1.7,0.7-1.8,1.3-1.8h0.1v-0.3c-0.5,0-1.1,0.1-1.6,0.1c-0.6,0-1.3-0.1-1.9-0.1v0.3h0.2
			c0.4,0,1.3,0.2,1.3,1.4v5.2l0,0l0,0l-6.2-7c-0.4,0-0.8,0.1-1.2,0.1c-0.5,0-1-0.1-1.5-0.1v0.3h0.1c0.7,0,1.3,0.5,1.3,1.3v5.8
			c0,1.1-0.3,1.8-1.3,1.8h-0.1v0.3c0.6,0,1.2-0.1,1.8-0.1s1.2,0.1,1.7,0.1v-0.3H671c-1.1,0-1.4-0.5-1.4-1.7V268L676.8,276.2z
			 M677.3,276.4h-0.6l-7-7.8v5.6c0,1.2,0.2,1.5,1.2,1.6h0.3v0.1v0.5h-0.1c-0.6,0-1.2-0.1-1.8-0.1s-1.3,0.1-1.9,0.1h-0.1v-0.1v-0.5
			h0.1h0.2c0.9,0,1.2-0.6,1.2-1.7v-5.8c0-0.7-0.6-1.2-1.2-1.2h-0.2V267v-0.5h0.1c0.5,0,1.1,0.1,1.6,0.1c0.4,0,0.8-0.1,1.3,0l6.1,6.9
			v-5.1c0-1.1-0.7-1.2-1.1-1.2H675v-0.1v-0.5h0.1c0.7,0,1.3,0.1,1.9,0.1c0.6,0,1.1-0.1,1.7-0.1h0.1v0.1v0.5h-0.1h-0.2
			c-0.6,0-1.2,0.1-1.2,1.7v6.3C677.3,275.4,677.3,275.9,677.3,276.4L677.3,276.4L677.3,276.4z"/>
		<path fill="#004A97" d="M680.7,267.1c-1,0-1.1,0.3-1.3,1.3H679c0.1-0.4,0.1-0.8,0.2-1.2c0.1-0.4,0.1-0.8,0.1-1.2h0.3
			c0.1,0.4,0.5,0.4,0.8,0.4h7.2c0.4,0,0.7,0,0.7-0.4l0.3,0.1c-0.1,0.4-0.1,0.7-0.2,1.1c0,0.4,0,0.7,0,1.1l-0.4,0.2
			c0-0.5-0.1-1.3-1-1.3h-2.3v7.4c0,1.1,0.5,1.2,1.1,1.2h0.3v0.4c-0.5,0-1.5-0.1-2.3-0.1s-1.8,0.1-2.3,0.1v-0.4h0.3
			c0.8,0,1.2-0.1,1.2-1.2v-7.4h-2.3V267.1z"/>
		<path fill="#004A97" d="M686.2,276.1c-0.5,0-1.5-0.1-2.3-0.1s-1.8,0.1-2.3,0.1h-0.1V276v-0.5h0.1h0.3c0.8,0,1.1,0,1.1-1.1v-7.3
			h-2.2V267l0,0h2.3v7.5c0,1.1-0.4,1.2-1.2,1.2h-0.2v0.3c0.5,0,1.5-0.1,2.3-0.1c0.7,0,1.6,0.1,2.2,0.1v-0.3H686
			c-0.7,0-1.2-0.2-1.2-1.3V267h2.3c0.9,0,1.1,0.8,1.1,1.3l0.3-0.1c0-0.4,0-0.7,0-1.1s0.1-0.7,0.1-1.1h-0.2c-0.1,0.4-0.5,0.4-0.8,0.4
			h-7.2h-0.1c-0.3,0-0.7,0-0.8-0.4h-0.2c0,0.4,0,0.8-0.1,1.1c0,0.4-0.1,0.7-0.2,1.1h0.3c0.2-1,0.3-1.3,1.3-1.3v0.1v0.1
			c-1,0-1,0.2-1.2,1.2l0,0l0,0h-0.5v-0.1c0.1-0.4,0.1-0.8,0.2-1.2c0.1-0.4,0.1-0.8,0.1-1.2v-0.1h0.1h0.4l0,0
			c0.1,0.4,0.4,0.4,0.7,0.4h0.1h7.2c0.4,0,0.7,0,0.7-0.4v-0.1h0.1l0.4,0.1v0.1c-0.1,0.4-0.1,0.7-0.2,1.1c0,0.4,0,0.7,0,1.1l0,0l0,0
			l-0.5,0.2v-0.1c0-0.5-0.1-1.3-1-1.3H685v7.3c0,1,0.4,1.1,1.1,1.1h0.3v0.1L686.2,276.1L686.2,276.1z"/>
		<path fill="#004A97" d="M689.1,275.7h0.2c0.5,0,1-0.1,1-0.8v-7.3c0-0.7-0.5-0.8-1-0.8h-0.2v-0.4c0.8,0,2.3,0.1,3.5,0.1
			s2.6-0.1,3.5-0.1c0,0.6,0,1.5,0,2.1l-0.4,0.1c-0.1-0.9-0.2-1.6-1.7-1.6h-1.9v3.6h1.6c0.8,0,1-0.5,1.1-1.2h0.4c0,0.5,0,1.1,0,1.6
			s0,1.1,0,1.6l-0.4,0.1c-0.1-0.8-0.1-1.4-1.1-1.4H692v3.2c0,0.9,0.8,0.9,1.7,0.9c1.7,0,2.4-0.1,2.8-1.7l0.4,0.1
			c-0.2,0.7-0.3,1.5-0.5,2.2c-0.9,0-2.5-0.1-3.7-0.1s-2.9,0.1-3.7,0.1v-0.3H689.1z"/>
		<path fill="#004A97" d="M696.5,276c0.1-0.7,0.3-1.4,0.4-2.1l-0.3-0.1c-0.4,1.6-1.2,1.7-2.9,1.7c-0.9,0-1.7,0-1.8-1v-3.3h1.7
			c1,0,1.1,0.6,1.1,1.4l0.3-0.1c0-0.5,0-1,0-1.5s0-1,0-1.6h-0.3c-0.1,0.7-0.3,1.2-1.1,1.2h-1.7V267h2c1.4,0,1.7,0.7,1.7,1.6l0.3-0.1
			c0-0.4,0-0.9,0-1.4c0-0.2,0-0.5,0-0.7c-0.9,0-2.3,0.1-3.5,0.1c-1.1,0-2.5-0.1-3.4-0.1v0.3h0.1c0.5,0,1.1,0.1,1.1,0.9v7.3
			c0,0.8-0.6,0.8-1.1,0.9H689v0.3c0.8,0,2.4-0.1,3.6-0.1C694,276,695.6,276,696.5,276 M696.5,276.1c-0.9,0-2.5-0.1-3.7-0.1
			s-2.9,0.1-3.7,0.1H689V276v-0.4v-0.1h0.1h0.2c0.5,0,1-0.1,1-0.7v-7.3c0-0.7-0.5-0.7-1-0.7H689v-0.1v-0.5h0.1
			c0.8,0,2.3,0.1,3.5,0.1s2.6-0.1,3.5-0.1h0.1v0.1c0,0.2,0,0.5,0,0.7c0,0.5,0,1,0,1.4v0.1l0,0l-0.5,0.1v-0.1
			c-0.1-0.9-0.2-1.6-1.6-1.6h-1.9v3.5h1.6c0.8,0,0.9-0.4,1-1.2v-0.1h0.1h0.5v0.1c0,0.5,0,1.1,0,1.6s0,1.1,0,1.6l0,0l0,0l-0.5,0.1
			v-0.1c-0.1-0.8-0.1-1.3-1-1.3h-1.6v3.2c0,0.8,0.7,0.8,1.6,0.8c1.7,0,2.3-0.1,2.8-1.6v-0.1h0.1l0.4,0.1v0.1
			C696.9,274.6,696.7,275.4,696.5,276.1L696.5,276.1L696.5,276.1z"/>
		<path fill="#004A97" d="M700.7,271.1h0.7c1.4,0,2.1-0.5,2.1-2.2c0-1.2-0.8-2-2-2c-0.4,0-0.6,0-0.8,0.1V271.1z M698.9,267.9
			c0-1-0.6-1.1-1-1.1h-0.2v-0.4c0.4,0,1.3,0.1,2.1,0.1s1.5-0.1,2.2-0.1c1.7,0,3.3,0.5,3.3,2.4c0,1.2-0.8,2-1.9,2.4l2.4,3.5
			c0.4,0.6,0.7,0.8,1.3,0.8v0.4c-0.5,0-0.9-0.1-1.4-0.1c-0.4,0-0.9,0.1-1.3,0.1c-1.1-1.4-2-2.9-2.9-4.5h-0.9v3
			c0,1.1,0.5,1.1,1.1,1.1h0.3v0.4c-0.8,0-1.6-0.1-2.4-0.1c-0.7,0-1.3,0.1-2,0.1v-0.4h0.2c0.5,0,1-0.2,1-0.7v-6.9H698.9z"/>
		<path fill="#004A97" d="M701.3,271c1.4,0,2.1-0.5,2.1-2.1c0-1.2-0.8-2-2-2c-0.4,0-0.6,0-0.7,0v4h0.6V271z M700.7,271.2
			L700.7,271.2l-0.1-4.2h0.1c0.2,0,0.4-0.1,0.8-0.1c1.3,0,2.1,0.8,2.1,2.1c0,1.7-0.8,2.2-2.2,2.2H700.7z M700.7,271.5h0.9l0,0
			c0.9,1.6,1.8,3.1,2.8,4.5c0.4,0,0.9-0.1,1.3-0.1c0.4,0,0.9,0,1.3,0.1v-0.3c-0.7-0.1-1-0.3-1.3-0.9l-2.4-3.6h0.1
			c1.1-0.4,1.9-1.2,1.9-2.4c0-1.9-1.5-2.4-3.2-2.4c-0.7,0-1.4,0.1-2.2,0.1s-1.6-0.1-2.1-0.1v0.3h0.2c0.4,0,1,0.1,1,1.1v7
			c0,0.6-0.5,0.8-1,0.8h-0.2v0.3c0.7,0,1.3-0.1,2-0.1c0.8,0,1.6,0.1,2.3,0.1v-0.3h-0.2c-0.6,0-1.2-0.1-1.2-1.2L700.7,271.5
			L700.7,271.5z M707.1,276.1c-0.5,0-0.9-0.1-1.4-0.1c-0.4,0-0.9,0.1-1.3,0c-1.1-1.4-2-2.9-2.9-4.5h-0.8v2.9c0,1,0.4,1,1.1,1h0.3
			v0.1v0.5H702c-0.8,0-1.6-0.1-2.4-0.1c-0.7,0-1.3,0.1-2,0.1h0v-0.1v-0.5h0.1h0.3c0.5,0,0.9-0.2,0.9-0.7v-7c0-1-0.5-1-0.9-1h-0.4
			v-0.1v-0.5h0.1c0.4,0,1.3,0.1,2.2,0.1c0.8,0,1.5-0.1,2.2-0.1c1.7,0,3.4,0.5,3.4,2.5c0,1.3-0.8,2-1.9,2.5l2.3,3.5
			c0.4,0.6,0.6,0.7,1.3,0.8l0,0v0.1L707.1,276.1L707.1,276.1z"/>
		<path fill="#004A97" d="M716.5,273.4L716.5,273.4v-5.2c0-1.1-0.8-1.3-1.2-1.3H715v-0.4c0.7,0,1.3,0.1,1.9,0.1
			c0.6,0,1.1-0.1,1.7-0.1v0.4h-0.2c-0.6,0-1.2,0.1-1.2,1.8v6.3c0,0.5,0,1,0.1,1.4h-0.5l-7.1-8v5.7c0,1.2,0.2,1.6,1.3,1.6h0.2v0.4
			c-0.6,0-1.2-0.1-1.8-0.1s-1.3,0.1-1.9,0.1v-0.4h0.2c1,0,1.2-0.7,1.2-1.8v-5.8c0-0.8-0.6-1.2-1.3-1.2h-0.2v-0.4
			c0.5,0,1.1,0.1,1.6,0.1c0.4,0,0.8-0.1,1.2-0.1L716.5,273.4z"/>
		<path fill="#004A97" d="M716.5,273.3L716.5,273.3L716.5,273.3L716.5,273.3z M716.5,273.4L716.5,273.4L716.5,273.4z M716.8,276.2
			h0.5c-0.1-0.4-0.1-0.9-0.1-1.3v-6.3c0-1.7,0.7-1.8,1.3-1.8h0.1v-0.3c-0.5,0-1.1,0.1-1.6,0.1c-0.6,0-1.3-0.1-1.9-0.1v0.3h0.2
			c0.4,0,1.3,0.2,1.3,1.4v5.2l0,0l0,0l-6.2-7c-0.4,0-0.8,0.1-1.2,0.1c-0.5,0-1-0.1-1.5-0.1v0.3h0.1c0.7,0,1.3,0.5,1.3,1.3v5.8
			c0,1.1-0.3,1.8-1.3,1.8h-0.1v0.3c0.6,0,1.2-0.1,1.8-0.1s1.2,0.1,1.7,0.1v-0.3H711c-1.1,0-1.4-0.5-1.4-1.7V268L716.8,276.2z
			 M717.3,276.4h-0.6l-7-7.8v5.6c0,1.2,0.2,1.5,1.2,1.6h0.3v0.1v0.5h-0.1c-0.6,0-1.2-0.1-1.8-0.1s-1.3,0.1-1.9,0.1h-0.1v-0.1v-0.5
			h0.1h0.2c0.9,0,1.2-0.6,1.2-1.7v-5.8c0-0.7-0.6-1.2-1.2-1.2h-0.2V267v-0.5h0.1c0.5,0,1.1,0.1,1.6,0.1c0.4,0,0.8-0.1,1.3,0l6.1,6.9
			v-5.1c0-1.1-0.7-1.2-1.1-1.2H715v-0.1v-0.5h0.1c0.7,0,1.3,0.1,1.9,0.1c0.6,0,1.1-0.1,1.7-0.1h0.1v0.1v0.5h-0.1h-0.2
			c-0.6,0-1.2,0.1-1.2,1.7v6.3C717.3,275.4,717.3,275.9,717.3,276.4L717.3,276.4L717.3,276.4z"/>
		<path fill="#004A97" d="M723,268L723,268l-1.3,3.9h2.6L723,268z M720.9,274.1c-0.1,0.5-0.3,0.8-0.3,1.1c0,0.4,0.6,0.5,1,0.5h0.2
			v0.4c-0.6,0-1.1-0.1-1.7-0.1c-0.5,0-1,0-1.5,0.1v-0.4h0.1c0.5,0,1-0.3,1.2-0.9l2.2-6.4c0.2-0.5,0.4-1.2,0.5-1.7
			c0.4-0.2,1-0.4,1.3-0.6h0.1h0.1c0,0.1,0.1,0.2,0.1,0.3l2.6,7.3c0.2,0.5,0.3,1,0.5,1.4s0.5,0.6,0.9,0.6h0.1v0.4
			c-0.6,0-1.2-0.1-1.9-0.1s-1.4,0-2.1,0.1v-0.4h0.2c0.3,0,0.9-0.1,0.9-0.4c0-0.2-0.1-0.6-0.3-1l-0.5-1.6h-3.1L720.9,274.1z"/>
		<path fill="#004A97" d="M722.9,268L722.9,268L722.9,268z M721.7,271.8h2.4l-1.2-3.7L721.7,271.8z M721.5,271.9l1.3-4l0,0l0,0v0.1
			l0,0l0,0v-0.1l0,0l1.3,4H721.5z M724.4,276c0.7,0,1.4-0.1,2-0.1s1.2,0,1.9,0.1v-0.3l0,0c-0.5,0-0.8-0.2-1-0.6s-0.3-0.9-0.5-1.4
			l-2.6-7.3c0-0.1-0.1-0.2-0.1-0.3l0,0l0,0c0,0,0,0-0.1,0c-0.3,0.2-0.8,0.4-1.2,0.6c-0.1,0.5-0.3,1.2-0.5,1.7l-2.2,6.4
			c-0.2,0.6-0.7,0.9-1.3,0.9l0,0v0.3c0.5,0,1-0.1,1.4-0.1c0.5,0,1.1,0,1.6,0.1v-0.3h-0.1c-0.5,0-1.1-0.1-1.1-0.5
			c0-0.3,0.2-0.6,0.3-1.1h0.1h-0.1l0.5-1.5h3.2l0.6,1.6c0.2,0.4,0.3,0.8,0.3,1c0,0.4-0.6,0.5-0.9,0.5h-0.1v0.3H724.4z M728.3,276.1
			c-0.6,0-1.2-0.1-1.9-0.1s-1.4,0-2.1,0.1h-0.1V276v-0.5h0.1h0.2c0.3,0,0.8-0.1,0.8-0.3c0-0.2-0.1-0.5-0.3-1l-0.5-1.6h-3.1L721,274
			c-0.1,0.5-0.3,0.8-0.3,1.1c0,0.3,0.5,0.4,1,0.4h0.2v0.1v0.5h-0.1c-0.6,0-1.1-0.1-1.7-0.1c-0.5,0-1,0-1.5,0.1h-0.1V276v-0.5h0.1
			h0.1c0.5,0,0.9-0.3,1.1-0.9l2.2-6.4c0.2-0.5,0.4-1.2,0.6-1.8c0.4-0.1,1-0.4,1.3-0.6h0.1c0,0,0.1,0,0.2,0.1c0,0.1,0.1,0.2,0.1,0.3
			l2.6,7.3c0.2,0.5,0.3,1,0.5,1.4s0.4,0.5,0.9,0.5h0.1v0.1L728.3,276.1L728.3,276.1z"/>
		<path fill="#004A97" d="M728.9,267.1c-1,0-1.1,0.3-1.3,1.3h-0.4c0.1-0.4,0.1-0.8,0.2-1.2c0.1-0.4,0.1-0.8,0.1-1.2h0.3
			c0.1,0.4,0.5,0.4,0.8,0.4h7.2c0.4,0,0.7,0,0.7-0.4l0.3,0.1c-0.1,0.4-0.1,0.7-0.2,1.1c0,0.4,0,0.7,0,1.1l-0.4,0.2
			c0-0.5-0.1-1.3-1-1.3h-2.3v7.4c0,1.1,0.5,1.2,1.2,1.2h0.3v0.4c-0.5,0-1.5-0.1-2.3-0.1s-1.8,0.1-2.3,0.1v-0.4h0.3
			c0.8,0,1.2-0.1,1.2-1.2v-7.4h-2.4V267.1z"/>
		<path fill="#004A97" d="M734.4,276.1c-0.5,0-1.5-0.1-2.3-0.1s-1.8,0.1-2.3,0.1h-0.1V276v-0.5h0.1h0.3c0.8,0,1.1,0,1.1-1.1v-7.3
			H729V267l0,0h2.3v7.5c0,1.1-0.5,1.2-1.2,1.2h-0.2v0.3c0.5,0,1.5-0.1,2.3-0.1c0.7,0,1.7,0.1,2.2,0.1v-0.3h-0.2
			c-0.7,0-1.2-0.2-1.2-1.3V267h2.3c0.9,0,1.1,0.8,1.1,1.3l0.3-0.1c0-0.4,0-0.7,0-1.1s0.1-0.7,0.1-1.1h-0.2c-0.1,0.4-0.5,0.4-0.8,0.4
			h-7.2l0,0c-0.3,0-0.7,0-0.8-0.4h-0.2c0,0.4,0,0.8-0.1,1.1c0,0.4-0.1,0.7-0.2,1.1h0.3c0.2-1,0.3-1.3,1.3-1.3v0.1v0.1
			c-1,0-1,0.2-1.2,1.2l0,0l0,0h-0.5v-0.1c0.1-0.4,0.1-0.8,0.2-1.2c0.1-0.4,0.1-0.8,0.1-1.2v-0.1h0.1h0.4l0,0
			c0.1,0.4,0.3,0.4,0.7,0.4c0,0,0,0,0.1,0h7.2c0.4,0,0.7,0,0.7-0.4v-0.1h0.1l0.4,0.1v0.1c-0.1,0.4-0.1,0.7-0.2,1.1
			c0,0.4,0,0.7,0,1.1l0,0l0,0l-0.5,0.2v-0.1c0-0.5-0.1-1.3-1-1.3h-2.2v7.3c0,1,0.4,1.1,1.1,1.1h0.3v0.1L734.4,276.1L734.4,276.1z"/>
		<path fill="#004A97" d="M737.4,275.7h0.2c0.5,0,1-0.1,1-0.8v-7.3c0-0.7-0.5-0.8-1-0.8h-0.2v-0.4c0.5,0,1.4,0.1,2.1,0.1
			c0.7,0,1.5-0.1,2.2-0.1v0.4h-0.2c-0.5,0-1,0.1-1,0.8v7.3c0,0.7,0.5,0.8,1,0.8h0.2v0.4c-0.7,0-1.5-0.1-2.2-0.1s-1.5,0.1-2,0.1
			L737.4,275.7L737.4,275.7z"/>
		<path fill="#004A97" d="M741.5,276v-0.3h-0.1c-0.5,0-1.1-0.1-1.1-0.9v-7.3c0-0.8,0.6-0.9,1.1-0.9h0.1v-0.3c-0.6,0-1.4,0.1-2.1,0.1
			c-0.7,0-1.5-0.1-2-0.1v0.3h0.1c0.5,0,1.1,0.1,1.1,0.9v7.3c0,0.8-0.6,0.9-1.1,0.9h-0.1v0.3c0.5,0,1.3-0.1,2-0.1
			C740.1,276,740.9,276,741.5,276 M741.6,276.1c-0.7,0-1.5-0.1-2.2-0.1s-1.5,0.1-2,0.1h-0.1V276v-0.4v-0.1h0.1h0.2
			c0.5,0,1-0.1,1-0.7v-7.3c0-0.7-0.5-0.7-1-0.7h-0.3v-0.1v-0.5h0.1c0.5,0,1.4,0.1,2.1,0.1c0.7,0,1.5-0.1,2.2-0.1h0.1v0.1v0.5h-0.2
			h-0.2c-0.5,0-1,0.1-1,0.7v7.3c0,0.7,0.5,0.7,1,0.7h0.3v0.1L741.6,276.1L741.6,276.1z"/>
		<path fill="#004A97" d="M747.3,275.7c2.7,0,3.2-2.4,3.2-4.4s-1.1-4.5-3.4-4.5c-2.4,0-3.1,2.2-3.1,4
			C744,273.3,745.1,275.7,747.3,275.7 M747.1,266.2c3,0,5.3,1.8,5.3,4.8c0,3.2-2.3,5.3-5.2,5.3s-5.2-2-5.2-5
			C742,268.4,744.3,266.2,747.1,266.2"/>
		<path fill="#004A97" d="M743.9,270.8c0-1.9,0.7-4.1,3.2-4.1c2.4,0,3.5,2.5,3.5,4.5s-0.5,4.5-3.2,4.5v-0.1v-0.1
			c2.6,0,3.1-2.3,3.1-4.3s-1.1-4.4-3.3-4.4c-2.4,0-3.1,2.1-3.1,4c0,2.5,1.1,4.8,3.3,4.8v0.1v0.1C745,275.7,743.9,273.3,743.9,270.8
			 M742,271.3c0-2.9,2.3-5.2,5.2-5.2v0.1v0.1c-2.9,0-5.1,2.2-5.1,5.1s2.2,4.9,5.1,4.9c2.9,0,5.2-2.1,5.2-5.2c0-2.9-2.3-4.7-5.3-4.7
			v-0.1v-0.1c3,0,5.4,1.9,5.4,4.8c0,3.2-2.3,5.4-5.3,5.4C744.2,276.3,742,274.3,742,271.3"/>
		<path fill="#004A97" d="M761.8,273.4L761.8,273.4v-5.2c0-1.1-0.8-1.3-1.2-1.3h-0.3v-0.4c0.6,0,1.3,0.1,1.9,0.1
			c0.6,0,1.1-0.1,1.7-0.1v0.4h-0.2c-0.6,0-1.2,0.1-1.2,1.8v6.3c0,0.5,0,1,0.1,1.4h-0.5l-7.1-8v5.7c0,1.2,0.2,1.6,1.3,1.6h0.2v0.4
			c-0.6,0-1.2-0.1-1.8-0.1s-1.3,0.1-1.9,0.1v-0.4h0.2c1,0,1.2-0.7,1.2-1.8v-5.8c0-0.8-0.6-1.2-1.3-1.2h-0.2v-0.4
			c0.5,0,1.1,0.1,1.6,0.1c0.4,0,0.8-0.1,1.2-0.1L761.8,273.4z"/>
		<path fill="#004A97" d="M761.8,273.3L761.8,273.3L761.8,273.3L761.8,273.3z M761.8,273.4L761.8,273.4L761.8,273.4z M762.1,276.2
			h0.5c-0.1-0.4-0.1-0.9-0.1-1.3v-6.3c0-1.7,0.7-1.8,1.3-1.8h0.2v-0.3c-0.5,0-1.1,0.1-1.6,0.1c-0.6,0-1.3-0.1-1.9-0.1v0.3h0.2
			c0.4,0,1.3,0.2,1.3,1.4v5.2l0,0l0,0l-6.2-7c-0.4,0-0.8,0.1-1.2,0.1c-0.5,0-1-0.1-1.5-0.1v0.3h0.1c0.7,0,1.3,0.5,1.3,1.3v5.8
			c0,1.1-0.3,1.8-1.3,1.8h-0.1v0.3c0.6,0,1.2-0.1,1.8-0.1s1.2,0.1,1.7,0.1v-0.3h-0.2c-1.1,0-1.4-0.5-1.4-1.7V268L762.1,276.2z
			 M762.6,276.4H762l-7-7.8v5.6c0,1.2,0.2,1.5,1.2,1.6h0.3v0.1v0.5h-0.1c-0.6,0-1.2-0.1-1.8-0.1s-1.3,0.1-1.9,0.1h-0.1v-0.1v-0.5
			h0.1h0.2c0.9,0,1.2-0.6,1.2-1.7v-5.8c0-0.7-0.6-1.2-1.2-1.2h-0.2V267v-0.5h0.1c0.5,0,1.1,0.1,1.6,0.1c0.4,0,0.8-0.1,1.3,0l6.1,6.9
			v-5.1c0-1.1-0.7-1.2-1.1-1.2h-0.4v-0.1v-0.5h0.1c0.7,0,1.3,0.1,1.9,0.1c0.6,0,1.1-0.1,1.7-0.1h0.1v0.1v0.5H764h-0.2
			c-0.6,0-1.2,0.1-1.2,1.7v6.3C762.6,275.4,762.6,275.9,762.6,276.4L762.6,276.4L762.6,276.4z"/>
		<path fill="#004A97" d="M768.2,268L768.2,268l-1.3,3.9h2.6L768.2,268z M766.2,274.1c-0.1,0.5-0.3,0.8-0.3,1.1c0,0.4,0.6,0.5,1,0.5
			h0.2v0.4c-0.6,0-1.1-0.1-1.7-0.1c-0.5,0-1,0-1.5,0.1v-0.4h0.1c0.5,0,1-0.3,1.2-0.9l2.2-6.4c0.2-0.5,0.4-1.2,0.5-1.7
			c0.4-0.2,1-0.4,1.3-0.6h0.1h0.1c0,0.1,0.1,0.2,0.1,0.3l2.5,7.3c0.2,0.5,0.3,1,0.5,1.4s0.5,0.6,0.9,0.6h0.1v0.4
			c-0.6,0-1.2-0.1-1.9-0.1s-1.4,0-2.1,0.1v-0.4h0.2c0.3,0,0.9-0.1,0.9-0.4c0-0.2-0.1-0.6-0.3-1l-0.5-1.6h-3.2L766.2,274.1z"/>
		<path fill="#004A97" d="M768.2,268L768.2,268L768.2,268z M767,271.8h2.4l-1.2-3.7L767,271.8z M766.8,271.9l1.3-4l0,0l0,0v0.1l0,0
			l0,0v-0.1l0,0l1.3,4H766.8z M769.6,276c0.7,0,1.4-0.1,2-0.1s1.2,0,1.9,0.1v-0.3l0,0c-0.5,0-0.8-0.2-1-0.6s-0.3-0.9-0.5-1.4
			l-2.6-7.3c0-0.1-0.1-0.2-0.1-0.3l0,0l0,0c0,0,0,0-0.1,0c-0.3,0.2-0.8,0.4-1.2,0.6c-0.1,0.5-0.3,1.2-0.5,1.7l-2.2,6.4
			c-0.2,0.6-0.7,0.9-1.3,0.9l0,0v0.3c0.5,0,1-0.1,1.4-0.1c0.5,0,1.1,0,1.6,0.1v-0.3h-0.1c-0.5,0-1.1-0.1-1.1-0.5
			c0-0.3,0.2-0.6,0.3-1.1h0.1h-0.1l0.5-1.5h3.2l0.6,1.6c0.2,0.4,0.3,0.8,0.3,1c0,0.4-0.6,0.5-0.9,0.5h-0.2V276z M773.6,276.1
			c-0.6,0-1.2-0.1-1.9-0.1s-1.4,0-2.1,0.1h-0.1V276v-0.5h0.1h0.2c0.3,0,0.8-0.1,0.8-0.3c0-0.2-0.1-0.5-0.3-1l-0.5-1.6h-3.1l-0.4,1.4
			c-0.1,0.5-0.3,0.8-0.3,1.1c0,0.3,0.5,0.4,1,0.4h0.2v0.1v0.5h-0.1c-0.6,0-1.1-0.1-1.7-0.1c-0.5,0-1,0-1.5,0.1h-0.1V276v-0.5h0.1
			h0.1c0.5,0,1-0.3,1.2-0.9l2.2-6.4c0.2-0.5,0.4-1.2,0.6-1.8c0.4-0.2,1-0.4,1.3-0.6h0.1c0,0,0.1,0,0.2,0.1c0,0.1,0.1,0.2,0.1,0.3
			l2.6,7.3c0.2,0.5,0.3,1,0.5,1.4s0.4,0.5,0.9,0.5h0.1v0.1L773.6,276.1L773.6,276.1z"/>
		<path fill="#004A97" d="M777.1,274.7c0,0.6,0.4,0.7,0.8,0.8c0.6,0,1.2,0,1.8,0c0.6-0.1,1.1-0.4,1.3-0.7c0.2-0.3,0.3-0.7,0.4-1h0.4
			c-0.2,0.8-0.3,1.6-0.5,2.4c-1.2,0-2.4-0.1-3.7-0.1c-1.2,0-2.4,0.1-3.7,0.1v-0.4h0.2c0.5,0,1-0.1,1-0.9v-7.1c0-0.7-0.5-0.8-1-0.8
			h-0.2v-0.4c0.7,0,1.5,0.1,2.2,0.1s1.4-0.1,2.1-0.1v0.4h-0.3c-0.5,0-0.9,0-0.9,0.7v7H777.1z"/>
		<path fill="#004A97" d="M781.3,276c0.2-0.8,0.3-1.5,0.5-2.2h-0.3c-0.1,0.3-0.2,0.7-0.4,1c-0.3,0.4-0.8,0.7-1.4,0.8
			c-0.4,0-0.7,0.1-1.1,0.1c-0.3,0-0.5,0-0.8,0c-0.5-0.1-0.9-0.2-0.9-0.8v-7.2c0-0.8,0.5-0.8,1-0.8h0.3v-0.3c-0.7,0-1.4,0.1-2,0.1
			c-0.7,0-1.4-0.1-2.1-0.1v0.3h0.1c0.5,0,1.1,0.1,1.1,0.9v7.1c0,0.9-0.6,1-1.1,1h-0.1v0.3c1.2,0,2.4-0.1,3.6-0.1
			C778.9,276,780.1,276,781.3,276 M781.4,276.1c-1.2,0-2.4-0.1-3.7-0.1c-1.2,0-2.4,0.1-3.7,0.1h-0.1V276v-0.5h0.1h0.2
			c0.5,0,1,0,1-0.9v-7.1c0-0.7-0.5-0.7-1-0.7h-0.3v-0.1v-0.5h0.1c0.7,0,1.5,0.1,2.2,0.1s1.4-0.1,2.1-0.1h0.1v0.1v0.5h-0.1H778
			c-0.5,0-0.9,0-0.9,0.7v7.2c0,0.5,0.3,0.7,0.8,0.7c0.2,0,0.5,0,0.8,0s0.7,0,1.1-0.1c0.6-0.1,1.1-0.4,1.3-0.7c0.2-0.3,0.3-0.7,0.4-1
			l0,0l0,0h0.5v0.1C781.8,274.5,781.6,275.3,781.4,276.1L781.4,276.1L781.4,276.1z"/>
		<path fill="#004A97" d="M781.5,267.5h0.2c0.2,0,0.3-0.1,0.3-0.4c0-0.2-0.1-0.3-0.3-0.3h-0.2V267.5z M781,268.2L781,268.2
			c0.2-0.1,0.2-0.1,0.2-0.2v-1c0-0.2,0-0.2-0.2-0.2v-0.1h0.7c0.3,0,0.5,0.1,0.5,0.4c0,0.2-0.1,0.4-0.3,0.4l0.2,0.3
			c0.1,0.2,0.2,0.3,0.3,0.3l0,0h-0.3c-0.1,0-0.3-0.3-0.5-0.7h-0.2v0.5c0,0.1,0,0.1,0.2,0.1v0.1H781V268.2z M781.7,268.7
			c0.7,0,1.2-0.6,1.2-1.2s-0.5-1.2-1.2-1.2s-1.2,0.6-1.2,1.2C780.6,268.1,781.1,268.7,781.7,268.7 M781.7,266c0.8,0,1.5,0.6,1.5,1.5
			c0,0.8-0.6,1.5-1.5,1.5c-0.8,0-1.5-0.6-1.5-1.5C780.3,266.7,780.9,266,781.7,266"/>
	</g>
</g>
<g>
	<g>
		<path fill="#FFFFFF" d="M929.1,574v145h-87V574H929.1 M933.2,570h-95l-0.2-0.4v153c0,0,0.1,0.4,0.2,0.4h95l-0.1-0.4v-153
			L933.2,570L933.2,570z"/>
	</g>
	
		<text transform="matrix(1 0 0 1 847.5955 608.251)" fill="#FFFFFF" font-family="'HelveticaNeue-CondensedBold'" font-size="37.8656">EUR</text>
	
		<text transform="matrix(3.660256e-07 -1 1 3.660250e-07 920.2272 711.9407)" fill="#FFFFFF" font-family="'HelveticaNeue-CondensedBold'" font-size="60.8852">5</text>
</g>
<g>
	
		<text transform="matrix(1 0 0 1 709.6947 405.0742)" fill="#FFFFFF" font-family="'HelveticaNeue-CondensedBold'" font-size="37.8656">CHF</text>
	<g>
		<path fill="#FFFFFF" d="M790.2,370v145h-87V370H790.2 M794.2,366h-95v0.4v153V519h95c0,0,0,0.5,0,0.4v-153
			C794.2,366.4,794.2,366,794.2,366L794.2,366z"/>
	</g>
	
		<text transform="matrix(3.660256e-07 -1 1 3.660250e-07 781.1345 508.7639)" fill="#FFFFFF" font-family="'HelveticaNeue-CondensedBold'" font-size="60.8852">10</text>
	<g>
		<path fill="#FFFFFF" d="M790.2,574v145h-87V574H790.2 M794.2,570h-95v-0.4v153v0.4h95v-0.4v-153V570L794.2,570z"/>
	</g>
	
		<text transform="matrix(1 0 0 1 708.5017 608.251)" fill="#FFFFFF" font-family="'HelveticaNeue-CondensedBold'" font-size="37.8656">EUR</text>
	
		<text transform="matrix(3.660256e-07 -1 1 3.660250e-07 781.1334 711.9407)" fill="#FFFFFF" font-family="'HelveticaNeue-CondensedBold'" font-size="60.8852">10</text>
</g>
<g>
	
		<text transform="matrix(1 0 0 1 569.6223 405.0742)" fill="#FFFFFF" font-family="'HelveticaNeue-CondensedBold'" font-size="37.8656">CHF</text>
	<g>
		<path fill="#FFFFFF" d="M650.3,370v145h-87V370H650.3 M654.1,366h-95l0.1,0.4v153c0,0-0.2-0.4-0.1-0.4h95c0,0,0.2,0.5,0.2,0.4
			v-153C654.3,366.4,654.1,366,654.1,366L654.1,366z"/>
	</g>
	
		<text transform="matrix(3.660256e-07 -1 1 3.660250e-07 641.062 508.7639)" fill="#FFFFFF" font-family="'HelveticaNeue-CondensedBold'" font-size="60.8852">20</text>
	<g>
		<path fill="#FFFFFF" d="M650.3,574v145h-87V574H650.3 M654.1,570h-95l0.1-0.4v153c0,0-0.2,0.4-0.1,0.4h95l0.2-0.4v-153L654.1,570
			L654.1,570z"/>
	</g>
	
		<text transform="matrix(1 0 0 1 568.4279 608.251)" fill="#FFFFFF" font-family="'HelveticaNeue-CondensedBold'" font-size="37.8656">EUR</text>
	
		<text transform="matrix(3.660256e-07 -1 1 3.660250e-07 641.0601 711.9407)" fill="#FFFFFF" font-family="'HelveticaNeue-CondensedBold'" font-size="60.8852">20</text>
</g>
<g>
	
		<text transform="matrix(1 0 0 1 429.4709 405.0742)" fill="#FFFFFF" font-family="'HelveticaNeue-CondensedBold'" font-size="37.8656">CHF</text>
	<g>
		<path fill="#FFFFFF" d="M510.3,370v145h-87V370H510.3 M514,366h-95l0.3,0.4v153L419,519h95c0,0,0.3,0.5,0.3,0.4v-153
			C514.3,366.4,514,366,514,366L514,366z"/>
	</g>
	
		<text transform="matrix(3.660256e-07 -1 1 3.660250e-07 500.9122 508.7639)" fill="#FFFFFF" font-family="'HelveticaNeue-CondensedBold'" font-size="60.8852">50</text>
	<g>
		<path fill="#FFFFFF" d="M510.3,574v145h-87V574H510.3 M514,570h-95l0.3-0.4v153L419,723h95l0.3-0.4v-153L514,570L514,570z"/>
	</g>
	
		<text transform="matrix(1 0 0 1 428.2771 608.251)" fill="#FFFFFF" font-family="'HelveticaNeue-CondensedBold'" font-size="37.8656">EUR</text>
	
		<text transform="matrix(3.660256e-07 -1 1 3.660250e-07 500.9094 711.9407)" fill="#FFFFFF" font-family="'HelveticaNeue-CondensedBold'" font-size="60.8852">50</text>
</g>
<g>
	
		<text transform="matrix(1 0 0 1 289.3985 405.0742)" fill="#FFFFFF" font-family="'HelveticaNeue-CondensedBold'" font-size="37.8656">CHF</text>
	<g>
		<path fill="#FFFFFF" d="M370.4,370v145h-87V370H370.4 M373.9,366h-95l0.4,0.4v153c0,0-0.5-0.4-0.4-0.4h95c0,0,0.5,0.5,0.5,0.4
			v-153C374.4,366.4,373.9,366,373.9,366L373.9,366z"/>
	</g>
	
		<text transform="matrix(3.660256e-07 -1 1 3.660250e-07 360.8399 508.7639)" fill="#FFFFFF" font-family="'HelveticaNeue-CondensedBold'" font-size="60.8852">100</text>
	<g>
		<path fill="#FFFFFF" d="M370.4,574v145h-87V574H370.4 M373.9,570h-95l0.4-0.4v153c0,0-0.5,0.4-0.4,0.4h95l0.5-0.4v-153L373.9,570
			L373.9,570z"/>
	</g>
	
		<text transform="matrix(1 0 0 1 288.2043 608.251)" fill="#FFFFFF" font-family="'HelveticaNeue-CondensedBold'" font-size="37.8656">EUR</text>
	
		<text transform="matrix(3.660256e-07 -1 1 3.660250e-07 360.8388 711.9407)" fill="#FFFFFF" font-family="'HelveticaNeue-CondensedBold'" font-size="60.8852">100</text>
</g>
<line fill="none" stroke="#FFFFFF" stroke-width="2" stroke-miterlimit="10" x1="278.8" y1="328.5" x2="933.2" y2="328.5"/>
</svg>
