<?xml version="1.0" encoding="utf-8"?>
<!-- Generator: Adobe Illustrator 17.1.0, SVG Export Plug-In . SVG Version: 6.00 Build 0)  -->
<!DOCTYPE svg PUBLIC "-//W3C//DTD SVG 1.1//EN" "http://www.w3.org/Graphics/SVG/1.1/DTD/svg11.dtd">
<svg version="1.1" id="Ebene_1" xmlns="http://www.w3.org/2000/svg" xmlns:xlink="http://www.w3.org/1999/xlink" x="0px" y="0px"
	 width="1280px" height="800px" viewBox="0 0 1280 800" enable-background="new 0 0 1280 800" xml:space="preserve">
<g>
	<path fill="#005180" d="M699.6,135.4 M612.6,280.4 M699.6,135.4 M703.1,131.4h-95l0.4-0.4v153c0,0-0.5,0.4-0.4,0.4h95l0.5-0.4V131
		L703.1,131.4L703.1,131.4z"/>
</g>
<g>
	<path fill="#F2A60B" d="M839.6,135.4 M752.6,280.4 M839.6,135.4 M843.1,131.4h-95l0.4-0.4v153c0,0-0.5,0.4-0.4,0.4h95l0.5-0.4V131
		L843.1,131.4L843.1,131.4z"/>
</g>
<g id="Ebene_2" display="none">
	<rect display="inline" opacity="0.5" fill="#1D1D1B" enable-background="new    " width="1280" height="800"/>
</g>
<g>
	<g>
		<path fill="#00306D" d="M164,150c0,2.2-1.8,4-4,4H11c-2.2,0-4-1.8-4-4V61c0-2.2,1.8-4,4-4h149c2.2,0,4,1.8,4,4V150z"/>
	</g>
	<g>
		<path fill="#0097D9" d="M84.8,136.5c8.6-7.8,14.1-19.1,14.1-31.7S93.5,80.9,84.8,73c-7.5-6.9-17.6-11.1-28.7-11.1
			c-23.6,0-42.8,19.2-42.8,42.8s19.2,42.7,42.8,42.7C67.2,147.6,77.3,143.4,84.8,136.5L84.8,136.5z"/>
		<path fill="#0097D9" d="M84.8,136.5c8.6-7.8,14.1-19.1,14.1-31.7S93.5,80.9,84.8,73V136.5L84.8,136.5z"/>
		<path fill="#E3001B" d="M113.6,62c-11.1,0-21.1,4.2-28.7,11.1c-1.5,1.4-2.9,2.9-4.3,4.5h8.6c1.2,1.4,2.3,3,3.3,4.5H77.3
			c-0.9,1.5-1.8,3-2.5,4.5h20.1c0.7,1.5,1.3,3,1.8,4.5H73c-0.5,1.5-0.9,3-1.3,4.6H98c0.6,2.8,0.9,5.9,0.9,9c0,4.7-0.8,9.3-2.2,13.6
			H73c0.5,1.5,1.1,3,1.8,4.5h20.1c-0.8,1.5-1.5,3.1-2.4,4.5H77.3c1,1.6,2.1,3.1,3.3,4.5h8.6c-1.3,1.6-2.8,3.1-4.4,4.5
			c7.6,6.9,17.7,11.1,28.7,11.1c23.6,0,42.7-19.1,42.7-42.7S137.2,62,113.6,62L113.6,62z"/>
		<path fill="#E3001B" d="M150.8,128.6c0-0.8,0.6-1.3,1.3-1.3s1.3,0.6,1.3,1.3c0,0.8-0.6,1.4-1.3,1.4S150.8,129.4,150.8,128.6
			L150.8,128.6z M152.2,129.7c0.6,0,1.1-0.5,1.1-1.1c0-0.6-0.5-1-1.1-1s-1.1,0.4-1.1,1C151.1,129.2,151.6,129.7,152.2,129.7
			L152.2,129.7z M152,129.2h-0.3V128h0.5c0.2,0,0.3,0,0.3,0.1c0.1,0,0.2,0.2,0.2,0.3c0,0.2-0.1,0.3-0.2,0.3l0.2,0.5h-0.3l-0.2-0.4
			H152V129.2L152,129.2z M152,128.6h0.2c0,0,0.1,0,0.2,0c0,0,0.1-0.1,0.1-0.2l-0.1-0.1c-0.1-0.1-0.2-0.1-0.2-0.1H152V128.6
			L152,128.6z"/>
		<polygon fill="#00306D" points="49.5,116.7 44.1,116.7 47.3,100.1 40,116.7 35.5,116.7 34.6,100.2 31,116.7 26.2,116.7 30.3,95 
			38.7,95 38.8,108.5 44.7,95 53.7,95 		"/>
		<path fill="#00306D" d="M109,116.5c-1.5,0.4-2.6,0.6-3.9,0.6c-2.7,0-4.2-1.3-4.2-3.9c0-0.5,0.1-1.1,0.2-1.6l0.3-1.8l0.3-1.3
			l2.4-13.5h5.3l-0.8,4h2.7l-0.7,4.3h-2.8l-1.4,7.4c0,0.3-0.1,0.6-0.1,0.8c0,0.9,0.6,1.3,1.8,1.3c0.6,0,1.1,0,1.4-0.2L109,116.5
			L109,116.5z"/>
		<path fill="#00306D" d="M87.8,104.7c0,2.2,1.3,3.8,4,4.9c2.3,0.9,2.6,1.2,2.6,2c0,1.1-1,1.6-3.1,1.6c-1.7,0-3.1-0.3-4.9-0.8
			l-0.8,4.1h0.3l1,0.2c0.3,0.1,0.8,0.2,1.4,0.2c1.3,0.1,2.3,0.2,2.9,0.2c5.7,0,8.3-1.8,8.3-5.9c0-2.4-1.1-3.9-3.8-4.9
			c-2.3-0.8-2.5-1.1-2.5-1.9c0-0.9,0.9-1.4,2.6-1.4c1.1,0,2.5,0.1,3.9,0.3l0.8-4c-1.4-0.3-3.5-0.4-4.8-0.4
			C89.9,98.7,87.8,101.4,87.8,104.7L87.8,104.7z"/>
		<path fill="#00306D" d="M66.7,116.7h-4.4l0.1-1.8c-1.3,1.4-3.2,2.1-5.6,2.1c-2.8,0-4.9-1.9-4.9-4.8c0-4.3,3.4-6.8,9.4-6.8
			c0.6,0,1.3,0,2.2,0.1c0.2-0.6,0.2-0.8,0.2-1.1c0-1.2-0.9-1.7-3.4-1.7c-1.5,0-3.2,0.3-4.4,0.5l-0.8,0.3l-0.5,0.1l0.8-3.9
			c2.7-0.8,4.4-1,6.4-1c4.6,0,7,1.8,7,5.2c0,0.9-0.1,1.5-0.5,3.5l-1.1,6.2l-0.2,1.2l-0.2,0.9l-0.1,0.6V116.7L66.7,116.7z
			 M63.1,108.9c-0.6-0.1-0.8-0.1-1.3-0.1c-3,0-4.5,0.9-4.5,2.7c0,1.1,0.8,1.8,1.9,1.8C61.5,113.2,63,111.5,63.1,108.9L63.1,108.9z"
			/>
		<path fill="#00306D" d="M84.2,116.3c-1.8,0.5-3.5,0.8-5.4,0.8c-5.9,0-9-2.8-9-8c0-6,3.9-10.5,9.3-10.5c4.4,0,7.2,2.5,7.2,6.4
			c0,1.3-0.2,2.6-0.7,4.4H75c-0.1,0.3-0.1,0.4-0.1,0.6c0,2,1.6,3.1,4.7,3.1c1.9,0,3.6-0.3,5.5-1.2L84.2,116.3L84.2,116.3z
			 M81.6,105.9c0-0.4,0-0.7,0-0.9c0-1.4-0.9-2.3-2.5-2.3c-1.7,0-2.9,1.1-3.4,3.2L81.6,105.9L81.6,105.9z"/>
		<path fill="#00306D" d="M141,108.7c-0.8,5.9-4.9,8.5-10.3,8.5c-6,0-8.5-3.6-8.5-8.1c0-6.2,4.1-10.5,10.5-10.5c5.5,0,8.5,3.5,8.5,8
			C141.1,107.6,141.1,107.7,141,108.7L141,108.7z M135.6,106.6c0-1.8-0.8-3.6-2.9-3.6c-2.7,0-4.4,3.3-4.4,6c0,2.4,1.2,4,3.1,4
			c1.2,0,3.6-1.6,4.1-4.4C135.5,108.1,135.6,107.4,135.6,106.6L135.6,106.6z"/>
		<path fill="#FFFFFF" d="M141.5,114.1c0-0.8,0.7-1.3,1.4-1.3c0.8,0,1.3,0.6,1.3,1.3c0,0.8-0.6,1.4-1.3,1.4S141.5,114.8,141.5,114.1
			L141.5,114.1z M143,115.2c0.6,0,1-0.5,1-1.1s-0.4-1-1-1s-1.1,0.4-1.1,1S142.4,115.2,143,115.2L143,115.2z M142.8,114.7h-0.3v-1.2
			h0.5c0.2,0,0.3,0,0.3,0.1c0.1,0.1,0.2,0.2,0.2,0.3c0,0.2-0.1,0.3-0.3,0.3l0.3,0.5h-0.3l-0.2-0.4h-0.2L142.8,114.7L142.8,114.7z
			 M142.8,114h0.2c0,0,0.1,0,0.2,0c0,0,0-0.1,0-0.2v-0.1c-0.1,0-0.2,0-0.3,0h-0.1L142.8,114L142.8,114z"/>
		<polygon fill="#FFFFFF" points="50.8,115.5 45.4,115.5 48.6,98.8 41.3,115.5 36.5,115.5 35.6,98.9 32.5,115.5 27.6,115.5 
			31.7,93.8 40.1,93.8 40.5,107.2 46.4,93.8 55,93.8 		"/>
		<path fill="#FFFFFF" d="M110.3,115.2c-1.5,0.4-2.6,0.6-3.9,0.6c-2.7,0-4.2-1.3-4.2-3.9c0-0.5,0.1-1,0.2-1.6l0.3-1.8l0.3-1.3
			l2.4-13.5h5.3l-0.8,4h2.8l-0.8,4.3h-2.8l-1.3,7.4c-0.1,0.3-0.2,0.6-0.2,0.8c0,0.9,0.6,1.3,1.8,1.3c0.6,0,1.1-0.1,1.4-0.2
			L110.3,115.2L110.3,115.2z"/>
		<path fill="#00306D" d="M123.9,102.9l-0.1-0.6l1-2.8c-0.3,0-0.3,0-0.4-0.1c-0.3,0-0.4-0.1-0.4-0.1c-0.2,0-0.3,0-0.5,0
			c-1.8,0-3,0.8-4.7,2.8l0.6-3.2h-5.5l-3.3,17.7h5.3c0.8-4.1,1.1-6.4,1.5-8.3c0.7-3.2,3-4.6,4.8-4.3c0.2,0,0.3,0,0.6,0.1l0.3,0.2
			L123.9,102.9L123.9,102.9z"/>
		<path fill="#FFFFFF" d="M125.8,98c-0.4-0.2-0.5-0.2-0.6-0.2c-0.3-0.1-0.4-0.1-0.4-0.2c-0.2,0-0.3,0-0.6,0c-1.8,0-3,0.8-4.6,2.8
			l0.5-2.7h-4.9l-3.3,17.7h5.4c1.9-10.8,2.7-12.7,5.3-12.7c0.2,0,0.4,0.1,0.7,0.1l0.6,0.2L125.8,98L125.8,98z"/>
		<path fill="#FFFFFF" d="M89.2,103.4c0,2.2,1.3,3.8,4.1,4.9c2.2,0.9,2.5,1.2,2.5,2c0,1.1-1,1.6-3.1,1.6c-1.6,0-3.1-0.3-4.9-0.8
			l-0.7,4.1h0.3l0.9,0.3c0.3,0,0.8,0.1,1.4,0.1c1.3,0.2,2.3,0.2,3,0.2c5.6,0,8.3-1.8,8.3-5.9c0-2.4-1.1-3.9-3.9-4.9
			c-2.3-0.8-2.5-1.1-2.5-1.9c0-0.9,0.9-1.4,2.7-1.4c1,0,2.5,0.1,3.9,0.3l0.8-4c-1.4-0.3-3.5-0.3-4.7-0.3
			C91.3,97.5,89.2,100.2,89.2,103.4L89.2,103.4z"/>
		<path fill="#FFFFFF" d="M68.1,115.5h-4.4l0.1-1.8c-1.3,1.4-3.2,2.1-5.6,2.1c-2.8,0-4.9-1.9-4.9-4.8c0-4.3,3.4-6.8,9.4-6.8
			c0.6,0,1.3,0,2.2,0.1c0.2-0.6,0.2-0.8,0.2-1.1c0-1.2-0.9-1.6-3.4-1.6c-1.5,0-3.2,0.2-4.4,0.4l-0.8,0.3l-0.5,0.1l0.8-3.9
			c2.7-0.7,4.4-0.9,6.4-0.9c4.6,0,7,1.8,7,5.1c0,0.9-0.1,1.6-0.4,3.5l-1.1,6.3l-0.2,1.1l-0.2,0.9l-0.1,0.6L68.1,115.5L68.1,115.5z
			 M64.2,107.6c-0.6-0.1-0.8-0.1-1.2-0.1c-3,0-4.5,0.9-4.5,2.7c0,1.1,0.7,1.8,1.8,1.8C62.5,112.1,64.1,110.2,64.2,107.6L64.2,107.6z
			"/>
		<path fill="#FFFFFF" d="M85.6,115.1c-1.8,0.5-3.6,0.8-5.4,0.8c-5.9,0-9-2.8-9-8c0-6,3.9-10.5,9.3-10.5c4.4,0,7.1,2.5,7.1,6.4
			c0,1.3-0.2,2.6-0.6,4.4H76.4c0,0.3,0,0.4,0,0.6c0,2,1.5,3.1,4.6,3.1c1.9,0,3.7-0.3,5.5-1.1L85.6,115.1L85.6,115.1z M82.7,104.6
			c0-0.3,0-0.7,0-0.9c0-1.4-0.9-2.3-2.5-2.3c-1.7,0-2.8,1.2-3.4,3.2L82.7,104.6L82.7,104.6z"/>
		<path fill="#FFFFFF" d="M142.4,107.4c-0.8,5.9-4.9,8.5-10.4,8.5c-5.9,0-8.4-3.6-8.4-8.1c0-6.2,4.1-10.5,10.5-10.5
			c5.5,0,8.5,3.5,8.5,8C142.5,106.4,142.5,106.4,142.4,107.4L142.4,107.4z M136.8,105.2c0-1.8-0.8-3.5-2.9-3.5c-2.7,0-4.4,3.2-4.4,6
			c0,2.3,1.2,3.9,3,3.9c1.2,0,3.7-1.6,4.1-4.3C136.8,106.7,136.8,105.9,136.8,105.2L136.8,105.2z"/>
	</g>
</g>
<g>
	<g>
		<path fill="#00306D" d="M347.1,150c0,2.2-1.8,4-4,4h-149c-2.2,0-4-1.8-4-4V61c0-2.2,1.8-4,4-4h149c2.2,0,4,1.8,4,4V150z"/>
	</g>
	<g>
		<path fill="#ED8313" d="M254,104.8c0-23.6,19.1-42.7,42.7-42.7c23.6,0,42.7,19.1,42.7,42.7s-19.1,42.7-42.7,42.7
			S254,128.4,254,104.8L254,104.8z"/>
		<path fill="#E10020" d="M268.1,73c0,0-2.2,2-3.7,3.9h7.6c0,0,2.6,2.8,3.6,4.9h-14.8c0,0-1.4,2.3-2.4,4.2H278c0,0,1.8,3.4,2.2,5.1
			h-23.9c0,0-0.8,2.3-1.2,4h26.1c0.7,3.3,2.5,12.8-1.1,23.4h-23.7c0.4,1.3,1,3,1.6,4.2h20.4c-0.8,1.7-2,3.9-2.7,4.9h-14.9
			c0.8,1.2,2.1,3.1,2.9,3.9h9.2c-1.7,2.4-4.7,4.9-4.7,4.9h-0.1h0.1c-7.6,6.8-17.6,10.9-28.5,10.9c-23.6,0-42.7-19.1-42.7-42.7
			s19.1-42.7,42.7-42.7C250.5,62.1,260.5,66.3,268.1,73L268.1,73z"/>
		<path fill="#1E306D" d="M247,98.7l-0.7,3.8l-3.7-0.1c0,0-1.9,0.5-1.9,1.3s1.4,1.8,3.4,2.7c2.1,0.9,2.2,3.3,2,5s-0.5,5.1-6.5,5.3
			c-3.4,0.1-5.3-0.6-5.3-0.6l0.8-3.9c0,0,4.4,1.2,5.4,0.5c1-0.7,2.2-1.9,0.3-2.7c-1.9-0.8-4.9-2.1-4.9-5.2c0-3.2,1.3-4.9,3.2-5.8
			C241.1,98.2,244.6,98.3,247,98.7L247,98.7z"/>
		<polygon fill="#1E306D" points="217.4,116.3 213.1,116.3 215.6,101.4 210.2,116.2 207.2,116.2 206.5,100.8 203.9,116.3 
			199.8,116.3 203.6,93.5 208.6,93.5 210.4,106.6 216.2,93.5 221.3,93.5 		"/>
		<path fill="#1E306D" d="M250.9,116.6c-1.4,0-2.4-0.3-3-0.9s-0.9-1.6-0.9-2.8c0-0.3,0-0.6,0.1-0.9c0-0.3,0.1-0.7,0.1-1.1l2.6-14.6
			h4.1l-0.6,2.9h3.8l-0.6,3.6h-3.8l-1,6.2c-0.1,0.4-0.1,0.8-0.2,1.3c-0.1,0.4-0.1,0.8-0.1,1.1c0,0.6,0.1,1.1,0.4,1.3
			c0.2,0.2,0.6,0.4,1.2,0.4c0.2,0,0.5,0,0.8-0.1s0.6-0.2,0.8-0.4h0.3l-0.6,3.7c-0.5,0.2-0.9,0.3-1.4,0.4
			C252.2,116.6,251.6,116.6,250.9,116.6L250.9,116.6z"/>
		<path fill="#1E306D" d="M280.2,103.9c-0.9-0.7-2.9-0.5-3.3,0.9l-2,11.5h-4.1l2.9-17.2h4.1l-0.1,1.4c0.8-0.8,1.6-1.4,3.8-1.4
			C281.8,99.1,280.3,101.7,280.2,103.9L280.2,103.9z"/>
		<path fill="#1E306D" d="M287.9,116.8c-2.3,0-4-0.8-5.3-2.3s-1.9-3.7-1.9-6.5c0-2.2,0.3-4.3,0.8-6.1c0.5-1.8,1.3-3.4,2.3-4.7
			c0.9-1.3,2.1-2.3,3.4-3c1.3-0.7,2.7-1.1,4.1-1.1c1.1,0,2.2,0.2,3.2,0.5c0.5,0.2,1.4,0.6,1.4,0.6l-0.9,5.4
			c-0.5-0.6-0.9-1.1-1.4-1.4c-0.7-0.5-1.6-0.7-2.5-0.7c-1.7,0-3.1,0.9-4.2,2.7c-1.1,1.8-1.6,4.2-1.6,7c0,1.8,0.3,3.2,0.9,4
			c0.6,0.8,1.5,1.2,2.6,1.2c1,0,2-0.3,2.9-0.8c0.4-0.3,0.9-0.6,1.3-0.9l-0.9,5.2c0,0-0.5,0.2-0.7,0.3c-0.6,0.2-1.1,0.4-1.5,0.5
			C289.4,116.7,288.8,116.8,287.9,116.8L287.9,116.8z"/>
		<path fill="#1E306D" d="M227.5,115.7c-0.2,0.1-0.3,0.2-0.5,0.3c-0.4,0.2-0.8,0.4-1.2,0.6c-0.4,0.1-0.9,0.2-1.6,0.2
			c-1,0-1.9-0.4-2.6-1.2c-0.7-0.8-1-1.9-1-3.2c0-1.4,0.2-2.5,0.7-3.5c0.5-0.9,1.2-1.7,2.1-2.2s1.9-0.9,3.1-1.1l0.8-0.1
			c1-0.2,2-0.3,3.1-0.4c0-0.1,0-0.2,0-0.3c0-0.1,0-0.3,0-0.5c0-0.7-0.2-1.2-0.7-1.6c-0.5-0.3-1.2-0.4-2.2-0.4h-0.2
			c-0.6,0-1.3,0.2-2,0.5c-0.8,0.3-1.4,0.5-1.8,0.8h-0.4l0.6-4.1c0.5-0.2,1.2-0.4,2.2-0.5c0.5-0.1,0.9-0.2,1.4-0.2
			c0.5-0.1,1-0.1,1.6-0.1c2,0,3.4,0.4,4.4,1.1c0.9,0.7,1.4,1.8,1.4,3.3c0,0.2,0,0.5,0,0.8s-0.1,0.6-0.1,0.9l-2,11.7h-4l0.3-1.8
			c-0.2,0.2-0.6,0.5-0.9,0.8C227.8,115.4,227.7,115.6,227.5,115.7L227.5,115.7z M227.5,108.6c-0.4,0.1-0.8,0.2-1.1,0.4
			c-0.5,0.2-0.8,0.5-1,1c-0.3,0.4-0.4,1-0.4,1.6s0.2,1,0.5,1.2s0.8,0.4,1.4,0.4c0.2,0,0.4,0,0.6-0.1c0.2,0,0.4-0.1,0.6-0.2
			c0.4-0.3,0.9-0.6,1.3-1l0.6-3.7c-0.7,0.1-1.4,0.2-2,0.3C227.8,108.5,227.7,108.5,227.5,108.6L227.5,108.6z"/>
		<path fill="#1E306D" d="M262.8,102.1c-0.5,0.1-1,0.4-1.5,0.8c-0.6,0.6-1,1.5-1.3,2.6h2.8h2.7c0-0.2,0-0.3,0-0.5c0-0.1,0-0.3,0-0.5
			c0-0.8-0.2-1.4-0.6-1.9c-0.4-0.4-0.9-0.6-1.6-0.6C263.2,102,263,102,262.8,102.1L262.8,102.1z M262.8,112.9h0.6
			c0.9,0,1.7-0.2,2.5-0.6s1.5-0.9,2.1-1.4h0.5l-0.8,4.4c-0.8,0.5-1.6,0.8-2.5,1.1c-0.7,0.2-1.6,0.3-2.4,0.4h-0.4c-2.2,0-3.8-0.6-5-2
			c-1.2-1.3-1.8-3.1-1.8-5.4c0-1.6,0.2-3,0.6-4.3c0.4-1.3,0.9-2.5,1.7-3.5c0.7-1,1.6-1.7,2.6-2.3c0.7-0.4,1.5-0.6,2.3-0.8
			c0.4,0,0.7,0,1.1,0c1.9,0,3.3,0.5,4.3,1.6c0.9,1,1.4,2.6,1.4,4.6c0,0.7,0,1.4-0.1,2.1c-0.1,0.6-0.2,1.3-0.4,2h-6.3h-3.2v0.2v0.2
			c0,1.2,0.3,2.1,0.9,2.8C261,112.4,261.8,112.8,262.8,112.9L262.8,112.9z"/>
		<path fill="#1E306D" d="M301,115.7c-0.2,0.1-0.3,0.2-0.5,0.3c-0.4,0.2-0.8,0.4-1.2,0.6c-0.4,0.1-0.9,0.2-1.5,0.2
			c-1.1,0-1.9-0.4-2.6-1.2c-0.7-0.8-1-1.9-1-3.2c0-1.4,0.2-2.5,0.7-3.5c0.5-0.9,1.2-1.7,2.1-2.2c0.9-0.5,1.9-0.9,3.1-1.1
			c0.3,0,0.5-0.1,0.9-0.1c0.9-0.2,2-0.3,3.1-0.4c0-0.1,0-0.2,0.1-0.3c0-0.1,0-0.3,0-0.5c0-0.7-0.3-1.2-0.7-1.6
			c-0.5-0.3-1.2-0.4-2.2-0.4h-0.2c-0.6,0-1.3,0.2-2,0.5c-0.8,0.3-1.4,0.5-1.8,0.8h-0.4l0.6-4.1c0.5-0.2,1.2-0.4,2.2-0.5
			c0.5-0.1,0.9-0.2,1.4-0.2c0.5-0.1,1-0.1,1.6-0.1c2,0,3.4,0.4,4.4,1.1c0.9,0.7,1.4,1.8,1.4,3.3c0,0.2,0,0.5,0,0.8s-0.1,0.6-0.1,0.9
			l-2,11.7h-4l0.3-1.8c-0.3,0.2-0.6,0.5-0.9,0.8L301,115.7L301,115.7z M301,108.6c-0.4,0.1-0.8,0.2-1.2,0.4c-0.4,0.2-0.8,0.5-1,1
			c-0.2,0.4-0.4,1-0.4,1.6s0.2,1,0.5,1.2s0.8,0.4,1.4,0.4c0.2,0,0.4,0,0.7-0.1c0.2,0,0.4-0.1,0.6-0.2c0.5-0.3,0.9-0.6,1.3-1l0.6-3.7
			c-0.7,0.1-1.4,0.2-2.1,0.3C301.3,108.5,301.1,108.5,301,108.6L301,108.6z"/>
		<path fill="#1E306D" d="M318.2,103.9c-0.9-0.7-2.9-0.5-3.3,0.9l-2,11.5h-4.1l2.9-17.2h4.1l-0.1,1.4c0.8-0.8,1.6-1.4,3.8-1.4
			C319.8,99.1,318.3,101.7,318.2,103.9L318.2,103.9z"/>
		<path fill="#1E306D" d="M326.2,102.8c-0.2,0.1-0.4,0.2-0.6,0.4c-0.5,0.4-1,0.9-1.3,1.6c-0.3,0.6-0.6,1.4-0.7,2.3
			c-0.2,0.9-0.3,1.8-0.3,2.7c0,1.1,0.2,1.8,0.5,2.2c0.4,0.5,0.9,0.7,1.6,0.7c0.3,0,0.5-0.1,0.8-0.2c0.1-0.1,0.2-0.1,0.4-0.2
			c0.4-0.2,0.8-0.5,1.1-0.8l1.5-8.5c-0.2-0.1-0.5-0.3-0.9-0.4c-0.3-0.1-0.6-0.2-0.9-0.2C327,102.5,326.6,102.6,326.2,102.8
			L326.2,102.8z M326.2,115.4c-0.3,0.3-0.6,0.5-1,0.8c-0.3,0.2-0.7,0.4-1,0.5s-0.7,0.1-1.2,0.1c-1.3,0-2.2-0.6-3-1.6
			c-0.7-1.1-1.1-2.7-1.1-4.6c0-1.6,0.2-3.2,0.6-4.6c0.4-1.4,0.9-2.7,1.6-3.8c0.7-1.1,1.5-1.9,2.4-2.6c0.9-0.6,1.8-0.9,2.7-1h0.1
			c0.7,0,1.3,0.1,1.8,0.3c0.5,0.2,1,0.5,1.6,0.9l0.9-6h4.1l-3.7,22.5h-4.1l0.3-1.8C326.9,114.9,326.5,115.1,326.2,115.4L326.2,115.4
			z"/>
		<path fill="#FFFFFF" d="M247.8,98.1l-0.7,3.8l-3.7-0.1c0,0-1.9,0.5-1.9,1.3s1.4,1.8,3.4,2.7c2.1,0.9,2.2,3.3,2,5s-0.5,5.1-6.5,5.3
			c-3.4,0.1-5.3-0.6-5.3-0.6l0.8-3.9c0,0,4.4,1.2,5.4,0.5s2.2-1.9,0.3-2.7c-1.9-0.8-4.9-2.1-4.9-5.2c0-3.2,1.3-4.9,3.3-5.8
			C241.9,97.5,245.4,97.6,247.8,98.1L247.8,98.1z"/>
		<polygon fill="#FFFFFF" points="218.3,115.7 213.9,115.7 216.4,100.7 211.1,115.6 208.1,115.6 207.3,100.1 204.7,115.7 
			200.6,115.7 204.5,92.9 209.5,92.9 211.2,106 217,92.9 222.1,92.9 		"/>
		<path fill="#FFFFFF" d="M251.7,116c-1.4,0-2.4-0.3-3-0.9s-0.9-1.6-0.9-2.8c0-0.3,0-0.6,0.1-0.9c0-0.3,0.1-0.7,0.1-1.1l2.6-14.6
			h4.1l-0.6,2.9h3.8l-0.6,3.6h-3.8l-1,6.2c-0.1,0.4-0.1,0.8-0.2,1.3c-0.1,0.4-0.1,0.8-0.1,1.1c0,0.6,0.1,1.1,0.4,1.3
			c0.2,0.2,0.6,0.4,1.2,0.4c0.2,0,0.5-0.1,0.8-0.1c0.3-0.1,0.6-0.2,0.8-0.4h0.3l-0.6,3.7c-0.5,0.2-0.9,0.3-1.4,0.4
			C253,116,252.4,116,251.7,116L251.7,116z"/>
		<path fill="#FFFFFF" d="M281,103.3c-0.9-0.7-2.9-0.5-3.3,0.9l-2,11.5h-4.1l2.9-17.2h4.1l-0.1,1.4c0.8-0.8,1.6-1.4,3.8-1.4
			C282.6,98.5,281.1,101.1,281,103.3L281,103.3z"/>
		<path fill="#FFFFFF" d="M288.7,116.2c-2.3,0-4.1-0.8-5.3-2.3c-1.3-1.5-1.9-3.7-1.9-6.5c0-2.2,0.3-4.3,0.8-6.1
			c0.5-1.8,1.3-3.4,2.3-4.7c0.9-1.3,2.1-2.3,3.4-3c1.3-0.7,2.7-1.1,4.1-1.1c1.1,0,2.2,0.2,3.2,0.5c0.5,0.2,1.4,0.6,1.4,0.6l-0.9,5.4
			c-0.5-0.6-0.9-1.1-1.4-1.4c-0.7-0.5-1.6-0.7-2.5-0.7c-1.7,0-3.1,0.9-4.1,2.7c-1.1,1.8-1.7,4.2-1.7,7c0,1.8,0.3,3.2,0.9,4
			c0.6,0.8,1.5,1.2,2.6,1.2c1,0,2-0.3,2.9-0.8c0.4-0.3,0.9-0.6,1.3-0.9l-1,5.2c0,0-0.5,0.2-0.7,0.3c-0.6,0.2-1.1,0.4-1.5,0.5
			C290.2,116.1,289.6,116.2,288.7,116.2L288.7,116.2z"/>
		<path fill="#FFFFFF" d="M228.3,115.1c-0.2,0.1-0.3,0.2-0.5,0.3c-0.4,0.2-0.8,0.4-1.2,0.5s-0.9,0.2-1.6,0.2c-1,0-1.9-0.4-2.6-1.2
			c-0.7-0.8-1-1.9-1-3.2c0-1.4,0.2-2.5,0.7-3.5c0.5-0.9,1.2-1.7,2.1-2.2s1.9-0.9,3.1-1.1l0.8-0.1c1-0.2,2-0.3,3.1-0.4
			c0-0.1,0-0.2,0-0.3c0-0.1,0-0.3,0-0.5c0-0.7-0.2-1.2-0.7-1.6c-0.5-0.3-1.2-0.4-2.2-0.4h-0.2c-0.6,0-1.3,0.2-2,0.5
			c-0.8,0.3-1.4,0.5-1.8,0.8h-0.2l0.6-4.1c0.5-0.2,1.2-0.4,2.2-0.5c0.5-0.1,0.9-0.2,1.4-0.2c0.5-0.1,1-0.1,1.6-0.1
			c2,0,3.4,0.4,4.4,1.1c0.9,0.7,1.4,1.8,1.4,3.3c0,0.2,0,0.5,0,0.8s-0.1,0.6-0.1,0.9l-2,11.7h-4.1l0.3-1.8c-0.2,0.2-0.6,0.5-0.9,0.8
			C228.6,114.8,228.5,115,228.3,115.1L228.3,115.1z M228.3,108c-0.4,0.1-0.8,0.2-1.1,0.4c-0.5,0.2-0.8,0.5-1,1
			c-0.3,0.4-0.4,1-0.4,1.6s0.2,1,0.5,1.2s0.8,0.4,1.4,0.4c0.2,0,0.4,0,0.6-0.1c0.2,0,0.4-0.1,0.6-0.2c0.4-0.3,0.9-0.6,1.3-1l0.6-3.7
			c-0.7,0.1-1.4,0.2-2,0.3C228.6,107.9,228.5,107.9,228.3,108L228.3,108z"/>
		<path fill="#FFFFFF" d="M263.6,101.5c-0.5,0.1-1,0.4-1.4,0.8c-0.6,0.6-1,1.5-1.3,2.6h2.8h2.7c0-0.2,0-0.3,0-0.5c0-0.1,0-0.3,0-0.5
			c0-0.8-0.2-1.4-0.6-1.9c-0.4-0.4-0.9-0.6-1.6-0.6C264,101.4,263.8,101.4,263.6,101.5L263.6,101.5z M263.6,112.3h0.6
			c0.9,0,1.7-0.2,2.5-0.6s1.5-0.9,2.1-1.4h0.5l-0.8,4.4c-0.8,0.5-1.6,0.8-2.5,1.1c-0.7,0.2-1.6,0.3-2.4,0.4h-0.4c-2.2,0-3.8-0.6-5-2
			c-1.2-1.3-1.8-3.1-1.8-5.4c0-1.6,0.2-3,0.6-4.3c0.4-1.3,0.9-2.5,1.7-3.5c0.7-1,1.6-1.7,2.6-2.3c0.7-0.4,1.5-0.6,2.3-0.8
			c0.4,0,0.7,0,1.1,0c1.9,0,3.3,0.5,4.3,1.6c0.9,1,1.4,2.6,1.4,4.6c0,0.7,0,1.4-0.1,2.1c-0.1,0.6-0.2,1.3-0.4,2h-6.3h-3.2v0.2v0.2
			c0,1.2,0.3,2.1,0.9,2.8C261.9,111.8,262.6,112.2,263.6,112.3L263.6,112.3z"/>
		<path fill="#FFFFFF" d="M301.8,115.1c-0.2,0.1-0.3,0.2-0.5,0.3c-0.4,0.2-0.8,0.4-1.2,0.5s-0.9,0.2-1.5,0.2c-1.1,0-1.9-0.4-2.6-1.2
			c-0.7-0.8-1-1.9-1-3.2c0-1.4,0.2-2.5,0.7-3.5c0.5-0.9,1.2-1.7,2.1-2.2c0.9-0.5,1.9-0.9,3.1-1.1c0.3-0.1,0.5-0.1,0.8-0.1
			c0.9-0.2,2-0.3,3.1-0.4c0-0.1,0-0.2,0.1-0.3c0-0.1,0-0.3,0-0.5c0-0.7-0.3-1.2-0.7-1.6c-0.5-0.3-1.2-0.4-2.2-0.4h-0.2
			c-0.6,0-1.3,0.2-2,0.5c-0.8,0.3-1.4,0.5-1.8,0.8h-0.4l0.6-4.1c0.5-0.2,1.2-0.4,2.2-0.5c0.5-0.1,0.9-0.2,1.4-0.2
			c0.5-0.1,1-0.1,1.6-0.1c2,0,3.4,0.4,4.4,1.1c0.9,0.7,1.4,1.8,1.4,3.3c0,0.2,0,0.5,0,0.8s-0.1,0.6-0.1,0.9l-2,11.7H303l0.3-1.8
			c-0.3,0.2-0.6,0.5-0.9,0.8L301.8,115.1L301.8,115.1z M301.8,108c-0.4,0.1-0.8,0.2-1.1,0.4c-0.4,0.2-0.8,0.5-1,1
			c-0.2,0.4-0.4,1-0.4,1.6s0.2,1,0.5,1.2s0.8,0.4,1.4,0.4c0.2,0,0.4,0,0.7-0.1c0.2,0,0.4-0.1,0.6-0.2c0.5-0.3,0.9-0.6,1.3-1l0.6-3.7
			c-0.7,0.1-1.4,0.2-2.1,0.3C302.1,107.9,302,107.9,301.8,108L301.8,108z"/>
		<path fill="#FFFFFF" d="M319,103.3c-0.9-0.7-2.9-0.5-3.3,0.9l-2,11.5h-4.1l2.9-17.2h4.1l-0.1,1.4c0.8-0.8,1.6-1.4,3.8-1.4
			C320.6,98.5,319.1,101.1,319,103.3L319,103.3z"/>
		<path fill="#FFFFFF" d="M327.1,102.2c-0.2,0.1-0.4,0.2-0.6,0.4c-0.5,0.4-1,0.9-1.3,1.6c-0.3,0.6-0.6,1.4-0.7,2.3
			c-0.2,0.9-0.3,1.8-0.3,2.7c0,1.1,0.2,1.8,0.5,2.2c0.4,0.5,0.9,0.7,1.6,0.7c0.3,0,0.5-0.1,0.8-0.2c0.1,0,0.2-0.1,0.4-0.2
			c0.4-0.2,0.8-0.5,1.1-0.8l1.4-8.5c-0.2-0.1-0.5-0.3-0.9-0.4c-0.3-0.1-0.6-0.2-0.9-0.2C327.8,101.9,327.4,102,327.1,102.2
			L327.1,102.2z M327.1,114.8c-0.3,0.3-0.6,0.5-1,0.8c-0.3,0.2-0.7,0.4-1,0.5s-0.7,0.1-1.2,0.1c-1.3,0-2.2-0.6-3-1.6
			c-0.7-1.1-1.1-2.7-1.1-4.6c0-1.6,0.2-3.2,0.6-4.6c0.4-1.4,0.9-2.7,1.6-3.8c0.7-1.1,1.4-1.9,2.4-2.6c0.9-0.6,1.8-0.9,2.7-1h0.1
			c0.7,0,1.3,0.1,1.8,0.3c0.5,0.2,1,0.5,1.6,0.9l0.9-6h4.1l-3.7,22.5h-4.1l0.3-1.8C327.7,114.2,327.4,114.5,327.1,114.8L327.1,114.8
			z"/>
	</g>
</g>
<g>
	<path fill="#FFFFFF" d="M529.8,67.6c0-7.4-3.9-11.1-11.5-11.1H384.6c-3.8,0-6.6,1-8.4,3c-2.1,2-3.1,4.7-3.1,8.1v75.1
		c0,3.4,1,5.9,3.1,8c2.1,2,4.9,3,8.4,3h133.7c7.6,0,11.5-3.7,11.5-11.1L529.8,67.6L529.8,67.6z"/>
	<path fill="#005180" d="M529.8,67.6c0-7.4-3.9-11.1-11.5-11.1H384.6c-3.8,0-6.6,1-8.4,3c-2.1,2-3.1,4.7-3.1,8.1v75.1
		c0,3.4,1,5.9,3.1,8c2.1,2,4.9,3,8.4,3h133.7c7.6,0,11.5-3.7,11.5-11.1L529.8,67.6L529.8,67.6z M518.3,58.3c6.3,0,9.5,3.2,9.5,9.3
		v75.1c0,6.2-3.2,9.3-9.5,9.3H384.6c-3,0-5.3-0.9-7.1-2.6c-1.8-1.7-2.7-4-2.7-6.7V67.6c0-6.2,3.1-9.3,9.7-9.3H518.3L518.3,58.3z"/>
	<g>
		<path fill="#005180" d="M386.6,62.6c-2.5,0-4.1,0.4-5,1.3c-0.8,1-1.1,2.6-1.1,5v16.3h142V68.9c0-4.3-2.1-6.3-6.3-6.3L386.6,62.6
			L386.6,62.6z"/>
		<path fill="#F2A60B" d="M380.5,141.4c0,4.3,2,6.5,6.1,6.5h129.6c4.2,0,6.3-2.2,6.3-6.5v-16.3h-142V141.4L380.5,141.4z"/>
		<path fill="#005180" d="M427.5,92.2c0,0.8-0.1,1.3-0.4,1.8l-10.2,17.8L416.2,90h-16.4l5.5,2.6c1.6,1,2.4,2.3,2.4,3.9l1.5,23.1h8
			L436.4,90h-9.8C427.2,90.5,427.5,91.4,427.5,92.2L427.5,92.2z"/>
		<path fill="#005180" d="M493.7,90.9l0.6-0.9h-10c0.4,0.4,0.5,0.5,0.5,0.6c-0.1,0.5-0.4,0.8-0.5,1.1l-14.6,26.5
			c-0.4,0.5-0.7,0.9-1.1,1.3h8.2l-0.4-0.9c0-0.8,0.4-2.2,1.3-4.2l1.8-3.3h8.5c0.4,2.7,0.6,5,0.7,6.7l-0.7,1.6h10.2l-1.5-2.2
			L493.7,90.9L493.7,90.9z M487.6,107.2h-6.1l5.2-10L487.6,107.2L487.6,107.2z"/>
		<path fill="#005180" d="M462.3,88.5c-3.2,0-5.8,0.9-8.2,2.6c-2.6,1.5-3.9,3.4-3.9,5.8c0,2.7,0.9,5.1,2.8,7l5.7,3.9
			c2,1.5,3,2.7,3,3.9c0,1.1-0.5,2.1-1.5,2.9s-2.1,1.1-3.5,1.1c-2,0-5.6-1.5-10.4-4.2v5.4c3.8,2.3,7.5,3.4,11,3.4
			c3.4,0,6.3-0.9,8.7-3c2.6-1.9,3.9-4.2,3.9-6.7c0-2.1-0.9-4-3-6.1l-5.4-3.9c-1.8-1.5-2.8-2.7-2.8-3.7c0-2.3,1.3-3.4,4.1-3.4
			c1.9,0,4.6,1.1,8.3,3.3l1.1-5.7C469,89.4,465.8,88.5,462.3,88.5L462.3,88.5z"/>
		<path fill="#005180" d="M440.6,119.7c-0.1-1.2-0.4-2.3-0.5-3.5l7.4-24l1.8-2.2h-10.7c0.1,0.5,0.2,1.2,0.4,1.8c0,0.5,0,1.2-0.1,1.8
			l-7.4,23.7l-1.5,2.4L440.6,119.7L440.6,119.7z"/>
	</g>
</g>
<g>
	<g>
		<path fill="#FFD30A" d="M164,280c0,2.2-1.8,4-4,4H11c-2.2,0-4-1.8-4-4v-89c0-2.2,1.8-4,4-4h149c2.2,0,4,1.8,4,4V280z"/>
	</g>
	<g>
		<path fill="#000100" d="M16.2,215.8h4.1c3.6,0,6.9,1.1,6.9,5c0,3.8-2.8,5.2-6.3,5.2h-1.4v6.3h-3.2v-16.5H16.2z M19.4,223.4h1.2
			c1.7,0,3.1-0.5,3.1-2.4c0-2-1.4-2.6-3.1-2.6h-1.2V223.4L19.4,223.4z"/>
		<path fill="#000100" d="M34.2,219.9c3.6,0,6.4,2.4,6.4,6.4c0,3.5-2.3,6.3-6.4,6.3c-4,0-6.3-2.8-6.3-6.3
			C27.9,222.3,30.7,219.9,34.2,219.9L34.2,219.9z M34.2,230.1c2.5,0,3.1-2.2,3.1-4.2c0-1.9-1-3.6-3.1-3.6c-2,0-3,1.8-3,3.6
			C31.2,227.9,31.9,230.1,34.2,230.1L34.2,230.1z"/>
		<path fill="#000100" d="M50.2,222.7c-1-0.3-1.7-0.5-2.8-0.5c-0.9,0-1.9,0.3-1.9,1.4c0,2,5.5,0.7,5.5,5.1c0,2.8-2.6,3.9-5.1,3.9
			c-1.2,0-2.4-0.2-3.5-0.5l0.1-2.6c1,0.5,2,0.8,3.2,0.8c0.8,0,2-0.3,2-1.4c0-2.4-5.5-0.8-5.5-5.1c0-2.6,2.3-3.8,4.7-3.8
			c1.5,0,2.5,0.2,3.5,0.5L50.2,222.7L50.2,222.7z"/>
		<path fill="#000100" d="M54.2,222.4h-2.3v-2.3h2.3v-2.4l3.2-1v3.4h2.8v2.3h-2.8v5.6c0,1.1,0.3,2,1.5,2c0.5,0,1.1-0.1,1.4-0.4
			l0.1,2.5c-0.6,0.2-1.4,0.3-2.3,0.3c-2.4,0-3.8-1.5-3.8-3.9v-6.1L54.2,222.4L54.2,222.4z"/>
		<polygon fill="#000100" points="62.2,215.8 71.4,215.8 71.4,218.4 65.5,218.4 65.5,222.4 71.1,222.4 71.1,225.1 65.5,225.1 
			65.5,232.2 62.2,232.2 		"/>
		<path fill="#000100" d="M73.4,214.9h3.2v3h-3.2V214.9L73.4,214.9z M73.4,220.1h3.2v12.1h-3.2V220.1L73.4,220.1z"/>
		<path fill="#000100" d="M79.9,220.1h3v1.7c1-1.4,2.3-1.9,4-1.9c2.9,0,4.1,2,4.1,4.7v7.6h-3.2v-6.5c0-1.4,0-3.5-2-3.5
			c-2.3,0-2.8,2.5-2.8,4.1v5.9h-3.2v-12.1H79.9z"/>
		<path fill="#000100" d="M94.6,220.8c1.2-0.6,2.9-0.9,4.2-0.9c3.7,0,5.2,1.5,5.2,5v1.6c0,1.2,0.1,2.1,0.1,3c0,1,0.1,1.8,0.2,2.7
			h-2.8c-0.2-0.6-0.2-1.4-0.2-1.8h-0.1c-0.7,1.4-2.3,2.1-3.7,2.1c-2.2,0-4.3-1.3-4.3-3.6c0-1.8,0.9-2.9,2.1-3.5s2.8-0.7,4.1-0.7h1.7
			c0-2-0.8-2.6-2.7-2.6c-1.4,0-2.7,0.5-3.8,1.4L94.6,220.8L94.6,220.8z M98.3,230.2c1,0,1.7-0.4,2.2-1.1c0.5-0.7,0.7-1.6,0.7-2.5
			h-1.4c-1.4,0-3.5,0.2-3.5,2.1C96.3,229.7,97.2,230.2,98.3,230.2L98.3,230.2z"/>
		<path fill="#000100" d="M107.2,220.1h2.9v1.7h0.1c1-1.4,2.3-1.9,4-1.9c2.9,0,4.1,2,4.1,4.7v7.6h-3.2v-6.5c0-1.4,0-3.5-2-3.5
			c-2.3,0-2.8,2.5-2.8,4.1v5.9h-3.1V220.1L107.2,220.1z"/>
		<path fill="#000100" d="M129.4,222.7c-0.6-0.2-1.2-0.5-2.2-0.5c-2,0-3.2,1.6-3.2,3.8c0,2.3,1.1,4,3.2,4c0.9,0,1.9-0.4,2.5-0.6
			l0.1,2.6c-0.9,0.2-1.8,0.4-3.1,0.4c-4,0-6-2.7-6-6.4c0-3.5,2.1-6.3,5.9-6.3c1.3,0,2.2,0.1,3.1,0.4L129.4,222.7L129.4,222.7z"/>
		<path fill="#000100" d="M141.5,231.5c-1.1,0.7-2.5,1-4.1,1c-4,0-6.3-2.3-6.3-6.3c0-3.5,1.8-6.4,5.6-6.4c4.5,0,5.8,3.1,5.8,7.3H134
			c0.2,2,1.5,3,3.5,3c1.5,0,2.9-0.5,4-1.2V231.5L141.5,231.5z M139.4,225c-0.1-1.5-0.8-2.9-2.6-2.9c-1.7,0-2.6,1.2-2.8,2.9H139.4
			L139.4,225z"/>
		<polygon fill="#E31C13" points="147.6,237.9 155.6,237.9 154.3,243.9 160.3,243.9 158.7,251.4 152.8,251.4 151.6,256.9 
			145.1,256.9 145.5,255 150,255 151.2,249.5 157.1,249.5 157.9,245.8 151.9,245.8 153.1,239.9 149.1,239.9 147.9,245.8 
			145.9,245.8 		"/>
		<polygon fill="#FFFFFF" points="142.7,256.9 143.7,252 87.6,252 86.5,256.9 		"/>
		<path fill="#000100" d="M115.2,244.1h-1.6h-0.1v0.1l-2,9.4v0.1h0.2h1.9h0.1v-0.1c0,0,0.6-2.9,0.7-3.1h1c1.3,0,2.4-0.4,3.2-1.1
			c0.7-0.7,1-1.5,1-2.4c0-0.8-0.2-1.4-0.7-1.8C117.9,244.3,116.4,244.1,115.2,244.1L115.2,244.1z M115.3,245.8h0.5
			c0.4,0,0.8,0.1,1.1,0.5c0.3,0.2,0.4,0.5,0.4,1c0,1.1-1.1,1.7-2,1.7h-0.5L115.3,245.8L115.3,245.8z"/>
		<path fill="#000100" d="M128,245c-0.7-0.7-1.7-1.1-2.9-1.1c-1.7,0-2.9,0.5-4,1.8c-0.9,1.1-1.5,2.6-1.5,4.1c0,1.2,0.5,2.3,1.1,2.9
			c0.7,0.7,1.6,1.1,2.7,1.1c1.7,0,3.1-0.6,4.1-1.6c1-1.2,1.6-2.7,1.6-4.3C129,246.8,128.7,245.8,128,245L128,245z M123.6,252.3
			c-0.5,0-1-0.2-1.3-0.5c-0.4-0.4-0.6-1-0.6-1.7c0-1.3,0.5-2.7,1.4-3.5c0.5-0.5,1.1-0.8,1.9-0.8c0.5,0,1,0.2,1.3,0.5
			c0.4,0.4,0.6,1,0.6,1.7C126.8,249.6,125.7,252.3,123.6,252.3L123.6,252.3z"/>
		<path fill="#000100" d="M93.2,244.1c0,0-2,0-2.4,0h-0.1v0.1l-2,9.4v0.1h0.1H92c1.9,0,3.4-0.5,4.3-1.7c0.9-1.1,1.1-2.5,1.2-3.5
			C97.6,245.8,96.2,244.4,93.2,244.1L93.2,244.1z M92.4,245.8h0.2c1.1,0,1.8,0.2,2.3,0.7c0.4,0.4,0.5,0.8,0.5,1.5
			c-0.1,2.8-1.3,4.1-3.8,4.1h-0.4L92.4,245.8L92.4,245.8z"/>
		<path fill="#000100" d="M136.2,244.4c-0.8-0.3-1.6-0.5-2.5-0.5c-1.7,0-3.6,0.8-3.6,2.9c0,1.4,1,2,1.9,2.5c0.7,0.4,1.3,0.8,1.3,1.4
			c0,1-0.8,1.4-1.7,1.4c-0.8,0-1.6-0.4-2.3-0.7h-0.1l-0.1,0.1l-0.5,1.6v0.1h-0.1h0.1l0.1,0.1c0.9,0.3,1.8,0.5,2.7,0.5
			c1.4,0,2.4-0.4,3.1-1.1c0.5-0.5,0.8-1.3,0.8-2.2c0-1.5-1.1-2.2-2-2.7c-0.7-0.4-1.2-0.8-1.2-1.4c0-0.2,0.1-0.4,0.2-0.5
			c0.4-0.4,1.1-0.5,1.2-0.5c0.7,0,1.4,0.2,2,0.5h0.1v-0.1L136.2,244.4L136.2,244.4L136.2,244.4L136.2,244.4z"/>
		<polygon fill="#000100" points="109.2,244.1 103.7,244.1 103.6,244.1 103.6,244.2 101.6,253.6 101.6,253.7 101.8,253.7 
			107.3,253.7 107.4,253.7 107.4,253.6 107.7,252.2 107.8,252 107.7,252 107.6,252 104,252 104.6,249.6 107.8,249.6 107.9,249.6 
			107.9,249.5 108.2,248 108.2,248 108.2,247.9 108.1,247.9 104.9,247.9 105.4,245.8 109,245.8 109.1,245.8 109.1,245.7 
			109.4,244.2 109.4,244.1 109.3,244.1 		"/>
		<polygon fill="#000100" points="101.9,244.1 101.8,244.1 101.8,244.1 99.8,244.1 99.7,244.1 99.7,244.2 97.8,253.6 97.7,253.7 
			97.8,253.7 97.8,253.7 99.8,253.7 99.9,253.7 99.9,253.6 101.8,244.2 		"/>
		<path fill="#000100" d="M144.3,244.1h-0.2h-7.2h-0.1v0.1l-0.3,1.5l-0.1,0.1h0.1h0.1h2.5l-1.7,7.8v0.1h0.1h2h0.1l0.1-0.1
			c0,0,1.6-7.5,1.7-7.8h2.6h0.1l0.1-0.1L144.3,244.1L144.3,244.1L144.3,244.1z"/>
	</g>
</g>
<g>
	<g>
		<path fill="#FFFFFF" d="M346.9,280c0,2.2-1.8,4-4,4h-149c-2.2,0-4-1.8-4-4v-89c0-2.2,1.8-4,4-4h149c2.2,0,4,1.8,4,4V280z"/>
	</g>
	<g>
		<polygon fill="#2A2984" points="248.5,247.7 250.9,236.5 256,247.7 265.8,247.7 260.2,235.4 269.1,226.6 260.4,226.6 251.2,234.9 
			255.1,216.9 246.9,216.9 240.3,247.7 		"/>
		<path fill="#2A2984" d="M207.2,229.6l0.6-2.9h-8.2l-4.5,21.1h8.2l2.4-11.3c0.9-4.4,5.4-4.1,8.4-4.1l1.4-6.5c0,0-1,0-1.8,0
			c-1.3,0.1-2.8,0.6-3.6,1.2C209.1,227.8,207.2,229.6,207.2,229.6L207.2,229.6z"/>
		<path fill="#2A2984" d="M273.8,228.2c2.9-2,7.4-2.9,11.5-2.4c4.6,0.6,7.3,2.6,6.7,6.6c-0.3,2.2-2,7.9-2.4,10.1
			c-0.4,2.3-0.6,5.2-0.6,5.2h-7.7l0.1-2.6c0,0-1.3,1.2-2.3,1.8c-1.3,0.8-4.3,1.4-5.7,1.3c-3.7-0.2-6.1-2-5.8-5.6
			c0.2-3.3,1.9-5.6,4.6-7c1.7-0.9,4.7-1.6,6.9-1.7c1.9,0,4.6-0.1,4.7-0.2c0.2-0.1,0.4-1,0.5-1.9c0.2-1.4-0.3-2.2-2-2.3
			c-1-0.1-2.3,0.7-2.7,1.4c-0.5,1-0.4,1.8-1.4,1.9l-7.3-0.1C270.6,232.8,272.2,229.4,273.8,228.2L273.8,228.2L273.8,228.2
			L273.8,228.2z M282.4,237.6c-3-0.3-6.3,0.7-6.6,3.5c-0.2,2.1,1.6,2.9,3.8,2.2c2-0.6,3-3.1,3.3-5.5
			C282.9,237.7,282.5,237.6,282.4,237.6L282.4,237.6z"/>
		<polygon fill="#E10015" points="297.4,233.4 304.6,233.4 306,226.6 298.9,226.6 		"/>
		<polygon fill="#E10015" points="341.6,226.6 314.1,226.6 312.7,233.4 320.2,233.4 318.6,240.9 311.1,240.9 309.6,247.7 
			337.2,247.7 		"/>
		<polygon fill="#E10015" points="294.4,247.7 301.5,247.7 303,240.9 295.8,240.9 		"/>
		<path fill="#2A2984" d="M238.7,238.5c2.2-9.2-1-13.8-8.6-13.5c-8.7,0.3-14,3.9-15.2,13.5c-1.9,15.1,22.1,10.8,23.2,1.6h-8
			c-0.6,2.6-4.2,3.6-6.2,2.6c-1.1-0.6-1.2-2.1-1-4.3L238.7,238.5L238.7,238.5L238.7,238.5L238.7,238.5z M224.3,233.8
			c0.7-4.8,7.9-6.4,7.1,0H224.3L224.3,233.8z"/>
	</g>
</g>
<g>
	<g>
		<path fill="#FFFFFF" d="M529.8,280c0,2.2-1.8,4-4,4h-149c-2.2,0-4-1.8-4-4v-89c0-2.2,1.8-4,4-4h149c2.2,0,4,1.8,4,4V280z"/>
	</g>
	<g>
		<path fill="#004A97" d="M456.1,241.4c13.2,0.1,25.2-10.7,25.2-23.9c0-14.4-12-24.3-25.2-24.3h-11.3c-13.3,0-24.3,9.9-24.3,24.3
			c0,13.2,11,24,24.3,23.9H456.1z"/>
		<path fill="#FFFFFF" d="M449.8,230.3v-26.1c5.2,2,9,7.1,9,13.1C458.8,223.2,455.1,228.3,449.8,230.3 M430.8,217.3
			c0-6,3.7-11,9-13.1v26.1C434.6,228.3,430.8,223.2,430.8,217.3 M444.8,195.2c-12.2,0-22.1,9.9-22.1,22.1c0,12.2,9.9,22.1,22.1,22.1
			c12.2,0,22.1-9.9,22.1-22.1C466.9,205.1,457,195.2,444.8,195.2"/>
		<path fill="#004A97" d="M395.8,257.8c0,2,1.4,2.2,2.7,2.2c5.5,0,7.3-4.2,7.3-8c0-4.8-3.1-8.2-8-8.2c-1,0-1.5,0.1-2,0.1V257.8z
			 M393.3,245.9c0-2.3-1.2-2.1-2.3-2.2V243c1,0,2,0,3,0c1.1,0,2.5,0,4.4,0c6.6,0,10.2,4.4,10.2,8.9c0,2.5-1.5,8.9-10.5,8.9
			c-1.3,0-2.5-0.1-3.7-0.1c-1.1,0-2.3,0-3.4,0.1v-0.7c1.5-0.2,2.3-0.2,2.3-1.9V245.9z"/>
		<path fill="#004A97" d="M412.2,245.3c-0.7,0-1.2-0.6-1.2-1.3c0-0.6,0.6-1.2,1.2-1.2c0.7,0,1.2,0.5,1.2,1.2
			S412.9,245.3,412.2,245.3 M409.5,260.2h0.5c0.7,0,1.2,0,1.2-0.8v-6.9c0-1.1-0.4-1.3-1.3-1.8v-0.4c1.2-0.4,2.6-0.8,2.7-0.9
			c0.2-0.1,0.3-0.1,0.5-0.1c0.1,0,0.2,0.2,0.2,0.4v9.8c0,0.8,0.6,0.8,1.3,0.8h0.4v0.7c-0.9,0-1.8-0.1-2.7-0.1s-1.8,0-2.8,0.1
			L409.5,260.2L409.5,260.2z"/>
		<path fill="#004A97" d="M417.3,252.6c0-0.9-0.3-1.2-1.5-1.7v-0.5c1.1-0.4,2.1-0.7,3.4-1.2c0.1,0,0.2,0.1,0.2,0.3v1.7
			c1.5-1,2.7-1.9,4.4-1.9c2.2,0,2.9,1.6,2.9,3.6v6.6c0,0.8,0.6,0.8,1.3,0.8h0.5v0.7c-0.9,0-1.8-0.1-2.7-0.1s-1.8,0-2.8,0.1v-0.7h0.5
			c0.7,0,1.2,0,1.2-0.8v-6.6c0-1.5-0.9-2.2-2.3-2.2c-0.8,0-2.1,0.7-3,1.2v7.5c0,0.8,0.6,0.8,1.3,0.8h0.5v0.7c-0.9,0-1.8-0.1-2.7-0.1
			s-1.8,0-2.8,0.1v-0.7h0.5c0.7,0,1.2,0,1.2-0.8v-6.8L417.3,252.6L417.3,252.6z"/>
		<path fill="#004A97" d="M434.9,253c0.6,0,0.7-0.3,0.7-0.6c0-1.3-0.8-2.3-2.2-2.3c-1.6,0-2.6,1.1-2.9,3L434.9,253L434.9,253z
			 M430.4,253.8c-0.1,0.2-0.1,0.6,0,1.5c0.2,2.4,1.7,4.4,3.7,4.4c1.4,0,2.5-0.8,3.4-1.7l0.4,0.4c-1.2,1.6-2.6,2.9-4.7,2.9
			c-4.1,0-4.9-3.9-4.9-5.6c0-5,3.4-6.5,5.1-6.5c2.1,0,4.3,1.3,4.3,4c0,0.2,0,0.3,0,0.5l-0.2,0.2L430.4,253.8L430.4,253.8z"/>
		<path fill="#004A97" d="M438.4,260.2h0.7c0.7,0,1.2,0,1.2-0.8v-7.2c0-0.8-0.9-0.9-1.3-1.1v-0.4c1.9-0.8,2.9-1.5,3.1-1.5
			c0.1,0,0.2,0.1,0.2,0.3v2.3h0.1c0.6-1,1.7-2.6,3.3-2.6c0.6,0,1.5,0.4,1.5,1.4c0,0.7-0.5,1.3-1.2,1.3c-0.8,0-0.8-0.6-1.7-0.6
			c-0.4,0-1.9,0.6-1.9,2.1v6c0,0.8,0.5,0.8,1.2,0.8h1.4v0.7c-1.4,0-2.5-0.1-3.6-0.1c-1,0-2.1,0-3,0.1V260.2z"/>
		<path fill="#004A97" d="M448.2,257.3c0.3,1.7,1.4,3.1,3.2,3.1c1.5,0,2.1-0.9,2.1-1.8c0-3-5.6-2-5.6-6.1c0-1.4,1.1-3.3,3.9-3.3
			c0.8,0,1.9,0.2,2.9,0.7l0.2,2.6h-0.6c-0.3-1.6-1.1-2.5-2.8-2.5c-1,0-2,0.6-2,1.7c0,3,5.9,2.1,5.9,6.1c0,1.7-1.4,3.5-4.4,3.5
			c-1,0-2.2-0.4-3.1-0.9l-0.3-2.9L448.2,257.3z"/>
		<path fill="#004A97" d="M478.5,247.7h-0.6c-0.5-3-2.6-4.2-5.5-4.2s-7.2,2-7.2,8.1c0,5.1,3.7,8.8,7.6,8.8c2.5,0,4.6-1.7,5.1-4.4
			l0.6,0.2l-0.6,3.7c-1.1,0.7-4,1.4-5.6,1.4c-6,0-9.7-3.8-9.7-9.6c0-5.2,4.7-9,9.7-9c2.1,0,4.1,0.7,6,1.4L478.5,247.7z"/>
		<path fill="#004A97" d="M479.4,260.2h0.5c0.7,0,1.2,0,1.2-0.8v-14.2c0-1.7-0.4-1.7-1.4-2v-0.4c1-0.3,2.1-0.8,2.6-1.1
			c0.3-0.2,0.5-0.3,0.6-0.3c0.2,0,0.2,0.2,0.2,0.4v17.6c0,0.8,0.6,0.8,1.3,0.8h0.4v0.7c-0.9,0-1.8-0.1-2.7-0.1s-1.8,0-2.8,0.1v-0.7
			H479.4z"/>
		<path fill="#004A97" d="M495.8,259.4c0,0.5,0.3,0.5,0.7,0.5c0.3,0,0.7,0,1,0v0.5c-1.1,0.1-3.2,0.6-3.7,0.8l-0.1-0.1V259
			c-1.5,1.2-2.7,2.1-4.5,2.1c-1.4,0-2.8-0.9-2.8-3v-6.5c0-0.7-0.1-1.3-1.5-1.4v-0.5c0.9,0,3-0.2,3.3-0.2s0.3,0.2,0.3,0.7v6.6
			c0,0.8,0,3,2.2,3c0.9,0,2-0.7,3.1-1.6v-6.9c0-0.5-1.2-0.8-2.1-1v-0.5c2.3-0.2,3.7-0.4,4-0.4c0.2,0,0.2,0.2,0.2,0.5v9.5
			L495.8,259.4L495.8,259.4z"/>
		<path fill="#004A97" d="M500.9,258c0,1,0.9,2.6,2.6,2.6c2.7,0,3.9-2.7,3.9-4.9c0-2.8-2.1-5-4.1-5c-0.9,0-1.7,0.6-2.4,1.2V258z
			 M500.9,251c1-0.9,2.4-1.8,3.8-1.8c3,0,4.7,2.6,4.7,5.4c0,3.3-2.4,6.7-6.1,6.7c-1.9,0-2.9-0.6-3.5-0.9L499,261l-0.5-0.3
			c0.2-1.5,0.4-3,0.4-4.5v-11c0-1.7-0.4-1.7-1.4-2v-0.4c1-0.3,2.1-0.8,2.6-1.1c0.3-0.2,0.5-0.3,0.6-0.3c0.2,0,0.2,0.2,0.2,0.4V251z"
			/>
		<path fill="#004A97" d="M390.9,275.7h0.2c0.5,0,1-0.1,1-0.8v-7.3c0-0.7-0.5-0.8-1-0.8h-0.2v-0.4c0.5,0,1.4,0.1,2.1,0.1
			c0.7,0,1.5-0.1,2.2-0.1v0.4H395c-0.5,0-1,0.1-1,0.8v7.3c0,0.7,0.5,0.8,1,0.8h0.2v0.4c-0.7,0-1.5-0.1-2.2-0.1s-1.5,0.1-2,0.1
			L390.9,275.7L390.9,275.7z"/>
		<path fill="#004A97" d="M395.1,276v-0.3H395c-0.5,0-1.1-0.1-1.1-0.9v-7.3c0-0.8,0.6-0.9,1.1-0.9h0.1v-0.3c-0.6,0-1.4,0.1-2.1,0.1
			c-0.7,0-1.5-0.1-2-0.1v0.3h0.1c0.5,0,1.1,0.1,1.1,0.9v7.3c0,0.8-0.6,0.9-1.1,0.9H391v0.3c0.5,0,1.3-0.1,2-0.1
			C393.7,276,394.5,276,395.1,276 M395.2,276.1c-0.7,0-1.5-0.1-2.2-0.1s-1.5,0.1-2,0.1h-0.1V276v-0.4v-0.1h0.1h0.2
			c0.5,0,1-0.1,1-0.7v-7.3c0-0.7-0.5-0.7-1-0.7h-0.3v-0.1v-0.5h0.1c0.5,0,1.4,0.1,2.1,0.1c0.7,0,1.5-0.1,2.2-0.1h0.1v0.1v0.5h-0.1
			h-0.2c-0.5,0-1,0.1-1,0.7v7.3c0,0.7,0.5,0.7,1,0.7h0.3v0.1L395.2,276.1L395.2,276.1z"/>
		<path fill="#004A97" d="M404.7,273.4L404.7,273.4v-5.2c0-1.1-0.8-1.3-1.2-1.3h-0.3v-0.4c0.7,0,1.3,0.1,1.9,0.1
			c0.6,0,1.1-0.1,1.7-0.1v0.4h-0.2c-0.6,0-1.2,0.1-1.2,1.8v6.3c0,0.5,0,1,0.1,1.4H405l-7.1-8v5.7c0,1.2,0.2,1.6,1.3,1.6h0.2v0.4
			c-0.6,0-1.2-0.1-1.8-0.1s-1.3,0.1-1.9,0.1v-0.4h0.2c1,0,1.2-0.7,1.2-1.8v-5.8c0-0.8-0.6-1.2-1.3-1.2h-0.2v-0.4
			c0.5,0,1.1,0.1,1.6,0.1c0.4,0,0.8-0.1,1.2-0.1L404.7,273.4z"/>
		<path fill="#004A97" d="M404.7,273.3L404.7,273.3L404.7,273.3L404.7,273.3z M404.7,273.4L404.7,273.4L404.7,273.4z M405,276.2h0.5
			c-0.1-0.4-0.1-0.9-0.1-1.3v-6.3c0-1.7,0.7-1.8,1.3-1.8h0.1v-0.3c-0.5,0-1.1,0.1-1.6,0.1c-0.6,0-1.3-0.1-1.9-0.1v0.3h0.2
			c0.4,0,1.3,0.2,1.3,1.4v5.2l0,0l0,0l-6.2-7c-0.4,0-0.8,0.1-1.2,0.1c-0.5,0-1-0.1-1.5-0.1v0.3h0.1c0.7,0,1.3,0.5,1.3,1.3v5.8
			c0,1.1-0.3,1.8-1.3,1.8h-0.1v0.3c0.6,0,1.2-0.1,1.8-0.1s1.2,0.1,1.7,0.1v-0.3h-0.2c-1.1,0-1.4-0.5-1.4-1.7V268L405,276.2z
			 M405.5,276.4h-0.6l-7-7.8v5.6c0,1.2,0.2,1.5,1.2,1.6h0.3v0.1v0.5h-0.1c-0.6,0-1.2-0.1-1.8-0.1s-1.3,0.1-1.9,0.1h-0.1v-0.1v-0.5
			h0.1h0.2c0.9,0,1.2-0.6,1.2-1.7v-5.8c0-0.7-0.6-1.2-1.2-1.2h-0.2V267v-0.5h0.1c0.5,0,1.1,0.1,1.6,0.1c0.4,0,0.8-0.1,1.3,0l6.1,6.9
			v-5.1c0-1.1-0.7-1.2-1.1-1.2h-0.4v-0.1v-0.5h0.1c0.7,0,1.3,0.1,1.9,0.1c0.6,0,1.1-0.1,1.7-0.1h0.1v0.1v0.5h-0.1h-0.2
			c-0.6,0-1.2,0.1-1.2,1.7v6.3C405.5,275.4,405.5,275.9,405.5,276.4L405.5,276.4L405.5,276.4z"/>
		<path fill="#004A97" d="M408.9,267.1c-1,0-1.1,0.3-1.3,1.3h-0.4c0.1-0.4,0.1-0.8,0.2-1.2c0.1-0.4,0.1-0.8,0.1-1.2h0.3
			c0.1,0.4,0.5,0.4,0.8,0.4h7.2c0.4,0,0.7,0,0.7-0.4l0.3,0.1c-0.1,0.4-0.1,0.7-0.2,1.1c0,0.4,0,0.7,0,1.1l-0.4,0.2
			c0-0.5-0.1-1.3-1-1.3h-2.3v7.4c0,1.1,0.5,1.2,1.1,1.2h0.3v0.4c-0.5,0-1.5-0.1-2.3-0.1s-1.8,0.1-2.3,0.1v-0.4h0.3
			c0.8,0,1.2-0.1,1.2-1.2v-7.4h-2.3L408.9,267.1L408.9,267.1z"/>
		<path fill="#004A97" d="M414.4,276.1c-0.5,0-1.5-0.1-2.3-0.1s-1.8,0.1-2.3,0.1h-0.1V276v-0.5h0.1h0.3c0.8,0,1.1,0,1.1-1.1v-7.3
			H409V267l0,0h2.3v7.5c0,1.1-0.4,1.2-1.2,1.2h-0.2v0.3c0.5,0,1.5-0.1,2.3-0.1c0.7,0,1.6,0.1,2.2,0.1v-0.3h-0.2
			c-0.7,0-1.2-0.2-1.2-1.3V267h2.3c0.9,0,1.1,0.8,1.1,1.3l0.3-0.1c0-0.4,0-0.7,0-1.1s0.1-0.7,0.1-1.1h-0.2c-0.1,0.4-0.5,0.4-0.8,0.4
			h-7.2h-0.1c-0.3,0-0.7,0-0.8-0.4h-0.2c0,0.4,0,0.8-0.1,1.1c0,0.4-0.1,0.7-0.2,1.1h0.3c0.2-1,0.3-1.3,1.3-1.3v0.1v0.1
			c-1,0-1,0.2-1.2,1.2l0,0l0,0h-0.5v-0.1c0.1-0.4,0.1-0.8,0.2-1.2c0.1-0.4,0.1-0.8,0.1-1.2v-0.1h0.1h0.4l0,0
			c0.1,0.4,0.4,0.4,0.7,0.4h0.1h7.2c0.4,0,0.7,0,0.7-0.4v-0.1h0.1l0.4,0.1v0.1c-0.1,0.4-0.1,0.7-0.2,1.1c0,0.4,0,0.7,0,1.1l0,0l0,0
			l-0.5,0.2v-0.1c0-0.5-0.1-1.3-1-1.3h-2.2v7.3c0,1,0.4,1.1,1.1,1.1h0.3v0.1L414.4,276.1L414.4,276.1z"/>
		<path fill="#004A97" d="M417.3,275.7h0.2c0.5,0,1-0.1,1-0.8v-7.3c0-0.7-0.5-0.8-1-0.8h-0.2v-0.4c0.8,0,2.3,0.1,3.5,0.1
			s2.6-0.1,3.5-0.1c0,0.6,0,1.5,0,2.1l-0.4,0.1c-0.1-0.9-0.2-1.6-1.7-1.6h-1.9v3.6h1.6c0.8,0,1-0.5,1.1-1.2h0.4c0,0.5,0,1.1,0,1.6
			s0,1.1,0,1.6l-0.4,0.1c-0.1-0.8-0.1-1.4-1.1-1.4h-1.7v3.2c0,0.9,0.8,0.9,1.7,0.9c1.7,0,2.4-0.1,2.8-1.7l0.4,0.1
			c-0.2,0.7-0.3,1.5-0.5,2.2c-0.9,0-2.5-0.1-3.7-0.1s-2.9,0.1-3.7,0.1L417.3,275.7L417.3,275.7L417.3,275.7z"/>
		<path fill="#004A97" d="M424.7,276c0.1-0.7,0.3-1.4,0.4-2.1l-0.3-0.1c-0.4,1.6-1.2,1.7-2.9,1.7c-0.9,0-1.7,0-1.8-1v-3.3h1.7
			c1,0,1.1,0.6,1.1,1.4l0.3-0.1c0-0.5,0-1,0-1.5s0-1,0-1.6h-0.3c-0.1,0.7-0.3,1.2-1.1,1.2h-1.7V267h2c1.4,0,1.7,0.7,1.7,1.6l0.3-0.1
			c0-0.4,0-0.9,0-1.4c0-0.2,0-0.5,0-0.7c-0.9,0-2.3,0.1-3.5,0.1c-1.1,0-2.5-0.1-3.4-0.1v0.3h0.1c0.5,0,1.1,0.1,1.1,0.9v7.3
			c0,0.8-0.6,0.8-1.1,0.9h-0.1v0.3c0.8,0,2.4-0.1,3.6-0.1C422.2,276,423.8,276,424.7,276 M424.7,276.1c-0.9,0-2.5-0.1-3.7-0.1
			s-2.9,0.1-3.7,0.1h-0.1V276v-0.4v-0.1h0.1h0.2c0.5,0,1-0.1,1-0.7v-7.3c0-0.7-0.5-0.7-1-0.7h-0.3v-0.1v-0.5h0.1
			c0.8,0,2.3,0.1,3.5,0.1s2.6-0.1,3.5-0.1h0.1v0.1c0,0.2,0,0.5,0,0.7c0,0.5,0,1,0,1.4v0.1l0,0l-0.5,0.1v-0.1
			c-0.1-0.9-0.2-1.6-1.6-1.6h-1.9v3.5h1.6c0.8,0,0.9-0.4,1-1.2v-0.1h0.1h0.5v0.1c0,0.5,0,1.1,0,1.6s0,1.1,0,1.6l0,0l0,0l-0.5,0.1
			v-0.1c-0.1-0.8-0.1-1.3-1-1.3h-1.6v3.2c0,0.8,0.7,0.8,1.6,0.8c1.7,0,2.3-0.1,2.8-1.6v-0.1h0.1l0.4,0.1v0.1
			C425.1,274.6,424.9,275.4,424.7,276.1L424.7,276.1L424.7,276.1z"/>
		<path fill="#004A97" d="M428.9,271.1h0.7c1.4,0,2.1-0.5,2.1-2.2c0-1.2-0.8-2-2-2c-0.4,0-0.6,0-0.8,0.1V271.1z M427.1,267.9
			c0-1-0.6-1.1-1-1.1h-0.2v-0.4c0.4,0,1.3,0.1,2.1,0.1s1.5-0.1,2.2-0.1c1.7,0,3.3,0.5,3.3,2.4c0,1.2-0.8,2-1.9,2.4l2.4,3.5
			c0.4,0.6,0.7,0.8,1.3,0.8v0.4c-0.5,0-0.9-0.1-1.4-0.1c-0.4,0-0.9,0.1-1.3,0.1c-1.1-1.4-2-2.9-2.9-4.5h-0.9v3
			c0,1.1,0.5,1.1,1.1,1.1h0.3v0.4c-0.8,0-1.6-0.1-2.4-0.1c-0.7,0-1.3,0.1-2,0.1v-0.4h0.2c0.5,0,1-0.2,1-0.7v-6.9L427.1,267.9
			L427.1,267.9z"/>
		<path fill="#004A97" d="M429.5,271c1.4,0,2.1-0.5,2.1-2.1c0-1.2-0.8-2-2-2c-0.4,0-0.6,0-0.7,0v4h0.6L429.5,271L429.5,271z
			 M428.9,271.2L428.9,271.2l-0.1-4.2h0.1c0.2,0,0.4-0.1,0.8-0.1c1.3,0,2.1,0.8,2.1,2.1c0,1.7-0.8,2.2-2.2,2.2H428.9z M428.9,271.5
			h0.9l0,0c0.9,1.6,1.8,3.1,2.8,4.5c0.4,0,0.9-0.1,1.3-0.1c0.4,0,0.9,0,1.3,0.1v-0.3c-0.7-0.1-1-0.3-1.3-0.9l-2.4-3.6h0.1
			c1.1-0.4,1.9-1.2,1.9-2.4c0-1.9-1.5-2.4-3.2-2.4c-0.7,0-1.4,0.1-2.2,0.1s-1.6-0.1-2.1-0.1v0.3h0.2c0.4,0,1,0.1,1,1.1v7
			c0,0.6-0.5,0.8-1,0.8H426v0.3c0.7,0,1.3-0.1,2-0.1c0.8,0,1.6,0.1,2.3,0.1v-0.3h-0.2c-0.6,0-1.2-0.1-1.2-1.2L428.9,271.5
			L428.9,271.5z M435.3,276.1c-0.5,0-0.9-0.1-1.4-0.1c-0.4,0-0.9,0.1-1.3,0c-1.1-1.4-2-2.9-2.9-4.5h-0.8v2.9c0,1,0.4,1,1.1,1h0.3
			v0.1v0.5h-0.1c-0.8,0-1.6-0.1-2.4-0.1c-0.7,0-1.3,0.1-2,0.1l0,0v-0.1v-0.5h0.1h0.3c0.5,0,0.9-0.2,0.9-0.7v-7c0-1-0.5-1-0.9-1h-0.4
			v-0.1v-0.5h0.1c0.4,0,1.3,0.1,2.2,0.1c0.8,0,1.5-0.1,2.2-0.1c1.7,0,3.4,0.5,3.4,2.5c0,1.3-0.8,2-1.9,2.5l2.3,3.5
			c0.4,0.6,0.6,0.7,1.3,0.8l0,0v0.1L435.3,276.1L435.3,276.1z"/>
		<path fill="#004A97" d="M444.7,273.4L444.7,273.4v-5.2c0-1.1-0.8-1.3-1.2-1.3h-0.3v-0.4c0.7,0,1.3,0.1,1.9,0.1
			c0.6,0,1.1-0.1,1.7-0.1v0.4h-0.2c-0.6,0-1.2,0.1-1.2,1.8v6.3c0,0.5,0,1,0.1,1.4H445l-7.1-8v5.7c0,1.2,0.2,1.6,1.3,1.6h0.2v0.4
			c-0.6,0-1.2-0.1-1.8-0.1s-1.3,0.1-1.9,0.1v-0.4h0.2c1,0,1.2-0.7,1.2-1.8v-5.8c0-0.8-0.6-1.2-1.3-1.2h-0.2v-0.4
			c0.5,0,1.1,0.1,1.6,0.1c0.4,0,0.8-0.1,1.2-0.1L444.7,273.4z"/>
		<path fill="#004A97" d="M444.7,273.3L444.7,273.3L444.7,273.3L444.7,273.3z M444.7,273.4L444.7,273.4L444.7,273.4z M445,276.2h0.5
			c-0.1-0.4-0.1-0.9-0.1-1.3v-6.3c0-1.7,0.7-1.8,1.3-1.8h0.1v-0.3c-0.5,0-1.1,0.1-1.6,0.1c-0.6,0-1.3-0.1-1.9-0.1v0.3h0.2
			c0.4,0,1.3,0.2,1.3,1.4v5.2l0,0l0,0l-6.2-7c-0.4,0-0.8,0.1-1.2,0.1c-0.5,0-1-0.1-1.5-0.1v0.3h0.1c0.7,0,1.3,0.5,1.3,1.3v5.8
			c0,1.1-0.3,1.8-1.3,1.8h-0.1v0.3c0.6,0,1.2-0.1,1.8-0.1s1.2,0.1,1.7,0.1v-0.3h-0.2c-1.1,0-1.4-0.5-1.4-1.7V268L445,276.2z
			 M445.5,276.4h-0.6l-7-7.8v5.6c0,1.2,0.2,1.5,1.2,1.6h0.3v0.1v0.5h-0.1c-0.6,0-1.2-0.1-1.8-0.1s-1.3,0.1-1.9,0.1h-0.1v-0.1v-0.5
			h0.1h0.2c0.9,0,1.2-0.6,1.2-1.7v-5.8c0-0.7-0.6-1.2-1.2-1.2h-0.2V267v-0.5h0.1c0.5,0,1.1,0.1,1.6,0.1c0.4,0,0.8-0.1,1.3,0l6.1,6.9
			v-5.1c0-1.1-0.7-1.2-1.1-1.2h-0.4v-0.1v-0.5h0.1c0.7,0,1.3,0.1,1.9,0.1c0.6,0,1.1-0.1,1.7-0.1h0.1v0.1v0.5h-0.1h-0.2
			c-0.6,0-1.2,0.1-1.2,1.7v6.3C445.5,275.4,445.5,275.9,445.5,276.4L445.5,276.4L445.5,276.4z"/>
		<path fill="#004A97" d="M451.2,268L451.2,268l-1.3,3.9h2.6L451.2,268z M449.1,274.1c-0.1,0.5-0.3,0.8-0.3,1.1c0,0.4,0.6,0.5,1,0.5
			h0.2v0.4c-0.6,0-1.1-0.1-1.7-0.1c-0.5,0-1,0-1.5,0.1v-0.4h0.1c0.5,0,1-0.3,1.2-0.9l2.2-6.4c0.2-0.5,0.4-1.2,0.5-1.7
			c0.4-0.2,1-0.4,1.3-0.6h0.1h0.1c0,0.1,0.1,0.2,0.1,0.3l2.6,7.3c0.2,0.5,0.3,1,0.5,1.4s0.5,0.6,0.9,0.6h0.1v0.4
			c-0.6,0-1.2-0.1-1.9-0.1s-1.4,0-2.1,0.1v-0.4h0.2c0.3,0,0.9-0.1,0.9-0.4c0-0.2-0.1-0.6-0.3-1l-0.5-1.6h-3.1L449.1,274.1z"/>
		<path fill="#004A97" d="M451.1,268L451.1,268L451.1,268z M449.9,271.8h2.4l-1.2-3.7L449.9,271.8z M449.7,271.9l1.3-4l0,0l0,0v0.1
			l0,0l0,0v-0.1l0,0l1.3,4H449.7z M452.6,276c0.7,0,1.4-0.1,2-0.1s1.2,0,1.9,0.1v-0.3l0,0c-0.5,0-0.8-0.2-1-0.6s-0.3-0.9-0.5-1.4
			l-2.6-7.3c0-0.1-0.1-0.2-0.1-0.3l0,0l0,0c0,0,0,0-0.1,0c-0.3,0.2-0.8,0.4-1.2,0.6c-0.1,0.5-0.3,1.2-0.5,1.7l-2.2,6.4
			c-0.2,0.6-0.7,0.9-1.3,0.9l0,0v0.3c0.5,0,1-0.1,1.4-0.1c0.5,0,1.1,0,1.6,0.1v-0.3h-0.1c-0.5,0-1.1-0.1-1.1-0.5
			c0-0.3,0.2-0.6,0.3-1.1h0.1h-0.1l0.5-1.5h3.2l0.6,1.6c0.2,0.4,0.3,0.8,0.3,1c0,0.4-0.6,0.5-0.9,0.5h-0.1v0.3L452.6,276L452.6,276z
			 M456.5,276.1c-0.6,0-1.2-0.1-1.9-0.1s-1.4,0-2.1,0.1h-0.1V276v-0.5h0.1h0.2c0.3,0,0.8-0.1,0.8-0.3c0-0.2-0.1-0.5-0.3-1l-0.5-1.6
			h-3.1l-0.4,1.4c-0.1,0.5-0.3,0.8-0.3,1.1c0,0.3,0.5,0.4,1,0.4h0.2v0.1v0.5H450c-0.6,0-1.1-0.1-1.7-0.1c-0.5,0-1,0-1.5,0.1h-0.1
			V276v-0.5h0.1h0.1c0.5,0,0.9-0.3,1.1-0.9l2.2-6.4c0.2-0.5,0.4-1.2,0.6-1.8c0.4-0.1,1-0.4,1.3-0.6h0.1c0,0,0.1,0,0.2,0.1
			c0,0.1,0.1,0.2,0.1,0.3l2.6,7.3c0.2,0.5,0.3,1,0.5,1.4s0.4,0.5,0.9,0.5h0.1v0.1L456.5,276.1L456.5,276.1z"/>
		<path fill="#004A97" d="M457.1,267.1c-1,0-1.1,0.3-1.3,1.3h-0.4c0.1-0.4,0.1-0.8,0.2-1.2c0.1-0.4,0.1-0.8,0.1-1.2h0.3
			c0.1,0.4,0.5,0.4,0.8,0.4h7.2c0.4,0,0.7,0,0.7-0.4l0.3,0.1c-0.1,0.4-0.1,0.7-0.2,1.1c0,0.4,0,0.7,0,1.1l-0.4,0.2
			c0-0.5-0.1-1.3-1-1.3h-2.3v7.4c0,1.1,0.5,1.2,1.2,1.2h0.3v0.4c-0.5,0-1.5-0.1-2.3-0.1s-1.8,0.1-2.3,0.1v-0.4h0.3
			c0.8,0,1.2-0.1,1.2-1.2v-7.4h-2.4L457.1,267.1L457.1,267.1z"/>
		<path fill="#004A97" d="M462.6,276.1c-0.5,0-1.5-0.1-2.3-0.1s-1.8,0.1-2.3,0.1h-0.1V276v-0.5h0.1h0.3c0.8,0,1.1,0,1.1-1.1v-7.3
			h-2.2V267l0,0h2.3v7.5c0,1.1-0.5,1.2-1.2,1.2h-0.2v0.3c0.5,0,1.5-0.1,2.3-0.1c0.7,0,1.7,0.1,2.2,0.1v-0.3h-0.2
			c-0.7,0-1.2-0.2-1.2-1.3V267h2.3c0.9,0,1.1,0.8,1.1,1.3l0.3-0.1c0-0.4,0-0.7,0-1.1s0.1-0.7,0.1-1.1h-0.2c-0.1,0.4-0.5,0.4-0.8,0.4
			h-7.2l0,0c-0.3,0-0.7,0-0.8-0.4h-0.2c0,0.4,0,0.8-0.1,1.1c0,0.4-0.1,0.7-0.2,1.1h0.3c0.2-1,0.3-1.3,1.3-1.3v0.1v0.1
			c-1,0-1,0.2-1.2,1.2l0,0l0,0h-0.5v-0.1c0.1-0.4,0.1-0.8,0.2-1.2c0.1-0.4,0.1-0.8,0.1-1.2v-0.1h0.1h0.4l0,0
			c0.1,0.4,0.3,0.4,0.7,0.4c0,0,0,0,0.1,0h7.2c0.4,0,0.7,0,0.7-0.4v-0.1h0.1l0.4,0.1v0.1c-0.1,0.4-0.1,0.7-0.2,1.1
			c0,0.4,0,0.7,0,1.1l0,0l0,0l-0.5,0.2v-0.1c0-0.5-0.1-1.3-1-1.3h-2.2v7.3c0,1,0.4,1.1,1.1,1.1h0.3v0.1L462.6,276.1L462.6,276.1z"/>
		<path fill="#004A97" d="M465.6,275.7h0.2c0.5,0,1-0.1,1-0.8v-7.3c0-0.7-0.5-0.8-1-0.8h-0.2v-0.4c0.5,0,1.4,0.1,2.1,0.1
			c0.7,0,1.5-0.1,2.2-0.1v0.4h-0.2c-0.5,0-1,0.1-1,0.8v7.3c0,0.7,0.5,0.8,1,0.8h0.2v0.4c-0.7,0-1.5-0.1-2.2-0.1s-1.5,0.1-2,0.1
			L465.6,275.7L465.6,275.7z"/>
		<path fill="#004A97" d="M469.7,276v-0.3h-0.1c-0.5,0-1.1-0.1-1.1-0.9v-7.3c0-0.8,0.6-0.9,1.1-0.9h0.1v-0.3c-0.6,0-1.4,0.1-2.1,0.1
			c-0.7,0-1.5-0.1-2-0.1v0.3h0.1c0.5,0,1.1,0.1,1.1,0.9v7.3c0,0.8-0.6,0.9-1.1,0.9h-0.1v0.3c0.5,0,1.3-0.1,2-0.1
			C468.3,276,469.1,276,469.7,276 M469.8,276.1c-0.7,0-1.5-0.1-2.2-0.1s-1.5,0.1-2,0.1h-0.1V276v-0.4v-0.1h0.1h0.2
			c0.5,0,1-0.1,1-0.7v-7.3c0-0.7-0.5-0.7-1-0.7h-0.3v-0.1v-0.5h0.1c0.5,0,1.4,0.1,2.1,0.1c0.7,0,1.5-0.1,2.2-0.1h0.1v0.1v0.5h-0.2
			h-0.2c-0.5,0-1,0.1-1,0.7v7.3c0,0.7,0.5,0.7,1,0.7h0.3v0.1L469.8,276.1L469.8,276.1z"/>
		<path fill="#004A97" d="M475.5,275.7c2.7,0,3.2-2.4,3.2-4.4s-1.1-4.5-3.4-4.5c-2.4,0-3.1,2.2-3.1,4
			C472.2,273.3,473.3,275.7,475.5,275.7 M475.3,266.2c3,0,5.3,1.8,5.3,4.8c0,3.2-2.3,5.3-5.2,5.3s-5.2-2-5.2-5
			C470.2,268.4,472.5,266.2,475.3,266.2"/>
		<path fill="#004A97" d="M472.1,270.8c0-1.9,0.7-4.1,3.2-4.1c2.4,0,3.5,2.5,3.5,4.5s-0.5,4.5-3.2,4.5v-0.1v-0.1
			c2.6,0,3.1-2.3,3.1-4.3s-1.1-4.4-3.3-4.4c-2.4,0-3.1,2.1-3.1,4c0,2.5,1.1,4.8,3.3,4.8v0.1v0.1
			C473.2,275.7,472.1,273.3,472.1,270.8 M470.2,271.3c0-2.9,2.3-5.2,5.2-5.2v0.1v0.1c-2.9,0-5.1,2.2-5.1,5.1s2.2,4.9,5.1,4.9
			c2.9,0,5.2-2.1,5.2-5.2c0-2.9-2.3-4.7-5.3-4.7v-0.1v-0.1c3,0,5.4,1.9,5.4,4.8c0,3.2-2.3,5.4-5.3,5.4
			C472.4,276.3,470.2,274.3,470.2,271.3"/>
		<path fill="#004A97" d="M490,273.4L490,273.4v-5.2c0-1.1-0.8-1.3-1.2-1.3h-0.3v-0.4c0.6,0,1.3,0.1,1.9,0.1c0.6,0,1.1-0.1,1.7-0.1
			v0.4h-0.2c-0.6,0-1.2,0.1-1.2,1.8v6.3c0,0.5,0,1,0.1,1.4h-0.5l-7.1-8v5.7c0,1.2,0.2,1.6,1.3,1.6h0.2v0.4c-0.6,0-1.2-0.1-1.8-0.1
			s-1.3,0.1-1.9,0.1v-0.4h0.2c1,0,1.2-0.7,1.2-1.8v-5.8c0-0.8-0.6-1.2-1.3-1.2h-0.2v-0.4c0.5,0,1.1,0.1,1.6,0.1
			c0.4,0,0.8-0.1,1.2-0.1L490,273.4z"/>
		<path fill="#004A97" d="M490,273.3L490,273.3L490,273.3L490,273.3z M490,273.4L490,273.4L490,273.4z M490.3,276.2h0.5
			c-0.1-0.4-0.1-0.9-0.1-1.3v-6.3c0-1.7,0.7-1.8,1.3-1.8h0.2v-0.3c-0.5,0-1.1,0.1-1.6,0.1c-0.6,0-1.3-0.1-1.9-0.1v0.3h0.2
			c0.4,0,1.3,0.2,1.3,1.4v5.2l0,0l0,0l-6.2-7c-0.4,0-0.8,0.1-1.2,0.1c-0.5,0-1-0.1-1.5-0.1v0.3h0.1c0.7,0,1.3,0.5,1.3,1.3v5.8
			c0,1.1-0.3,1.8-1.3,1.8h-0.1v0.3c0.6,0,1.2-0.1,1.8-0.1s1.2,0.1,1.7,0.1v-0.3h-0.2c-1.1,0-1.4-0.5-1.4-1.7V268L490.3,276.2z
			 M490.8,276.4h-0.6l-7-7.8v5.6c0,1.2,0.2,1.5,1.2,1.6h0.3v0.1v0.5h-0.1c-0.6,0-1.2-0.1-1.8-0.1s-1.3,0.1-1.9,0.1h-0.1v-0.1v-0.5
			h0.1h0.2c0.9,0,1.2-0.6,1.2-1.7v-5.8c0-0.7-0.6-1.2-1.2-1.2h-0.2V267v-0.5h0.1c0.5,0,1.1,0.1,1.6,0.1c0.4,0,0.8-0.1,1.3,0l6.1,6.9
			v-5.1c0-1.1-0.7-1.2-1.1-1.2h-0.4v-0.1v-0.5h0.1c0.7,0,1.3,0.1,1.9,0.1c0.6,0,1.1-0.1,1.7-0.1h0.1v0.1v0.5h-0.1H492
			c-0.6,0-1.2,0.1-1.2,1.7v6.3C490.8,275.4,490.8,275.9,490.8,276.4L490.8,276.4L490.8,276.4z"/>
		<path fill="#004A97" d="M496.4,268L496.4,268l-1.3,3.9h2.6L496.4,268z M494.4,274.1c-0.1,0.5-0.3,0.8-0.3,1.1c0,0.4,0.6,0.5,1,0.5
			h0.2v0.4c-0.6,0-1.1-0.1-1.7-0.1c-0.5,0-1,0-1.5,0.1v-0.4h0.1c0.5,0,1-0.3,1.2-0.9l2.2-6.4c0.2-0.5,0.4-1.2,0.5-1.7
			c0.4-0.2,1-0.4,1.3-0.6h0.1h0.1c0,0.1,0.1,0.2,0.1,0.3l2.5,7.3c0.2,0.5,0.3,1,0.5,1.4s0.5,0.6,0.9,0.6h0.1v0.4
			c-0.6,0-1.2-0.1-1.9-0.1s-1.4,0-2.1,0.1v-0.4h0.2c0.3,0,0.9-0.1,0.9-0.4c0-0.2-0.1-0.6-0.3-1l-0.5-1.6h-3.2L494.4,274.1z"/>
		<path fill="#004A97" d="M496.4,268L496.4,268L496.4,268z M495.2,271.8h2.4l-1.2-3.7L495.2,271.8z M495,271.9l1.3-4l0,0l0,0v0.1
			l0,0l0,0v-0.1l0,0l1.3,4H495z M497.8,276c0.7,0,1.4-0.1,2-0.1s1.2,0,1.9,0.1v-0.3l0,0c-0.5,0-0.8-0.2-1-0.6s-0.3-0.9-0.5-1.4
			l-2.6-7.3c0-0.1-0.1-0.2-0.1-0.3l0,0l0,0c0,0,0,0-0.1,0c-0.3,0.2-0.8,0.4-1.2,0.6c-0.1,0.5-0.3,1.2-0.5,1.7l-2.2,6.4
			c-0.2,0.6-0.7,0.9-1.3,0.9l0,0v0.3c0.5,0,1-0.1,1.4-0.1c0.5,0,1.1,0,1.6,0.1v-0.3h-0.1c-0.5,0-1.1-0.1-1.1-0.5
			c0-0.3,0.2-0.6,0.3-1.1h0.1h-0.1l0.5-1.5h3.2l0.6,1.6c0.2,0.4,0.3,0.8,0.3,1c0,0.4-0.6,0.5-0.9,0.5h-0.2L497.8,276L497.8,276z
			 M501.8,276.1c-0.6,0-1.2-0.1-1.9-0.1s-1.4,0-2.1,0.1h-0.1V276v-0.5h0.1h0.2c0.3,0,0.8-0.1,0.8-0.3c0-0.2-0.1-0.5-0.3-1l-0.5-1.6
			h-3.1l-0.4,1.4c-0.1,0.5-0.3,0.8-0.3,1.1c0,0.3,0.5,0.4,1,0.4h0.2v0.1v0.5h-0.1c-0.6,0-1.1-0.1-1.7-0.1c-0.5,0-1,0-1.5,0.1H492
			V276v-0.5h0.1h0.1c0.5,0,1-0.3,1.2-0.9l2.2-6.4c0.2-0.5,0.4-1.2,0.6-1.8c0.4-0.2,1-0.4,1.3-0.6h0.1c0,0,0.1,0,0.2,0.1
			c0,0.1,0.1,0.2,0.1,0.3l2.6,7.3c0.2,0.5,0.3,1,0.5,1.4s0.4,0.5,0.9,0.5h0.1v0.1L501.8,276.1L501.8,276.1z"/>
		<path fill="#004A97" d="M505.3,274.7c0,0.6,0.4,0.7,0.8,0.8c0.6,0,1.2,0,1.8,0c0.6-0.1,1.1-0.4,1.3-0.7c0.2-0.3,0.3-0.7,0.4-1h0.4
			c-0.2,0.8-0.3,1.6-0.5,2.4c-1.2,0-2.4-0.1-3.7-0.1c-1.2,0-2.4,0.1-3.7,0.1v-0.4h0.2c0.5,0,1-0.1,1-0.9v-7.1c0-0.7-0.5-0.8-1-0.8
			h-0.2v-0.4c0.7,0,1.5,0.1,2.2,0.1s1.4-0.1,2.1-0.1v0.4h-0.3c-0.5,0-0.9,0-0.9,0.7v7H505.3z"/>
		<path fill="#004A97" d="M509.5,276c0.2-0.8,0.3-1.5,0.5-2.2h-0.3c-0.1,0.3-0.2,0.7-0.4,1c-0.3,0.4-0.8,0.7-1.4,0.8
			c-0.4,0-0.7,0.1-1.1,0.1c-0.3,0-0.5,0-0.8,0c-0.5-0.1-0.9-0.2-0.9-0.8v-7.2c0-0.8,0.5-0.8,1-0.8h0.3v-0.3c-0.7,0-1.4,0.1-2,0.1
			c-0.7,0-1.4-0.1-2.1-0.1v0.3h0.1c0.5,0,1.1,0.1,1.1,0.9v7.1c0,0.9-0.6,1-1.1,1h-0.1v0.3c1.2,0,2.4-0.1,3.6-0.1
			C507.1,276,508.3,276,509.5,276 M509.6,276.1c-1.2,0-2.4-0.1-3.7-0.1c-1.2,0-2.4,0.1-3.7,0.1h-0.1V276v-0.5h0.1h0.2
			c0.5,0,1,0,1-0.9v-7.1c0-0.7-0.5-0.7-1-0.7h-0.3v-0.1v-0.5h0.1c0.7,0,1.5,0.1,2.2,0.1s1.4-0.1,2.1-0.1h0.1v0.1v0.5h-0.1h-0.3
			c-0.5,0-0.9,0-0.9,0.7v7.2c0,0.5,0.3,0.7,0.8,0.7c0.2,0,0.5,0,0.8,0s0.7,0,1.1-0.1c0.6-0.1,1.1-0.4,1.3-0.7c0.2-0.3,0.3-0.7,0.4-1
			l0,0l0,0h0.5v0.1C510,274.5,509.8,275.3,509.6,276.1L509.6,276.1L509.6,276.1z"/>
		<path fill="#004A97" d="M509.7,267.5h0.2c0.2,0,0.3-0.1,0.3-0.4c0-0.2-0.1-0.3-0.3-0.3h-0.2V267.5z M509.2,268.2L509.2,268.2
			c0.2-0.1,0.2-0.1,0.2-0.2v-1c0-0.2,0-0.2-0.2-0.2v-0.1h0.7c0.3,0,0.5,0.1,0.5,0.4c0,0.2-0.1,0.4-0.3,0.4l0.2,0.3
			c0.1,0.2,0.2,0.3,0.3,0.3l0,0h-0.3c-0.1,0-0.3-0.3-0.5-0.7h-0.2v0.5c0,0.1,0,0.1,0.2,0.1v0.1h-0.6V268.2z M509.9,268.7
			c0.7,0,1.2-0.6,1.2-1.2s-0.5-1.2-1.2-1.2s-1.2,0.6-1.2,1.2C508.8,268.1,509.3,268.7,509.9,268.7 M509.9,266c0.8,0,1.5,0.6,1.5,1.5
			c0,0.8-0.6,1.5-1.5,1.5c-0.8,0-1.5-0.6-1.5-1.5C508.5,266.7,509.1,266,509.9,266"/>
	</g>
</g>
<g>
	<path fill="#FFFFFF" d="M1258.3,370.4v145h-87v-145H1258.3 M1262.4,366.4h-95l-0.2-0.4v153c0,0,0.1,0.4,0.2,0.4h95l-0.1-0.4V366
		L1262.4,366.4L1262.4,366.4z"/>
</g>
<text transform="matrix(1 0 0 1 1176.7955 404.6576)" fill="#FFFFFF" font-family="'HelveticaNeue-CondensedBold'" font-size="37.8656">EUR</text>
<text transform="matrix(3.660256e-07 -1 1 3.660250e-07 1249.4272 508.3469)" fill="#FFFFFF" font-family="'HelveticaNeue-CondensedBold'" font-size="60.8852">5</text>
<text transform="matrix(1 0 0 1 437.8947 405.0742)" fill="#FFFFFF" font-family="'HelveticaNeue-CondensedBold'" font-size="37.8656">CHF</text>
<g>
	<path fill="#FFFFFF" d="M518.4,370v145h-87V370H518.4 M522.4,366h-95v0.4v153V519h95c0,0,0,0.5,0,0.4v-153
		C522.4,366.4,522.4,366,522.4,366L522.4,366z"/>
</g>
<text transform="matrix(3.660256e-07 -1 1 3.660250e-07 509.3346 508.7639)" fill="#FFFFFF" font-family="'HelveticaNeue-CondensedBold'" font-size="60.8852">10</text>
<g>
	<path fill="#FFFFFF" d="M1119.4,370.4v145h-87v-145H1119.4 M1123.4,366.4h-95V366v153v0.4h95V519V366V366.4L1123.4,366.4z"/>
</g>
<text transform="matrix(1 0 0 1 1037.7018 404.6576)" fill="#FFFFFF" font-family="'HelveticaNeue-CondensedBold'" font-size="37.8656">EUR</text>
<text transform="matrix(3.660256e-07 -1 1 3.660250e-07 1110.3334 508.3469)" fill="#FFFFFF" font-family="'HelveticaNeue-CondensedBold'" font-size="60.8852">10</text>
<text transform="matrix(1 0 0 1 297.8223 405.0742)" fill="#FFFFFF" font-family="'HelveticaNeue-CondensedBold'" font-size="37.8656">CHF</text>
<g>
	<path fill="#FFFFFF" d="M378.5,370v145h-87V370H378.5 M382.3,366h-95l0.1,0.4v153c0,0-0.2-0.4-0.1-0.4h95c0,0,0.2,0.5,0.2,0.4v-153
		C382.5,366.4,382.3,366,382.3,366L382.3,366z"/>
</g>
<text transform="matrix(3.660256e-07 -1 1 3.660250e-07 369.262 508.7639)" fill="#FFFFFF" font-family="'HelveticaNeue-CondensedBold'" font-size="60.8852">20</text>
<g>
	<path fill="#FFFFFF" d="M979.5,370.4v145h-87v-145H979.5 M983.3,366.4h-95l0.1-0.4v153c0,0-0.2,0.4-0.1,0.4h95l0.2-0.4V366
		L983.3,366.4L983.3,366.4z"/>
</g>
<text transform="matrix(1 0 0 1 897.628 404.6576)" fill="#FFFFFF" font-family="'HelveticaNeue-CondensedBold'" font-size="37.8656">EUR</text>
<text transform="matrix(3.660256e-07 -1 1 3.660250e-07 970.2601 508.3469)" fill="#FFFFFF" font-family="'HelveticaNeue-CondensedBold'" font-size="60.8852">20</text>
<text transform="matrix(1 0 0 1 157.6709 405.0742)" fill="#FFFFFF" font-family="'HelveticaNeue-CondensedBold'" font-size="37.8656">CHF</text>
<g>
	<path fill="#FFFFFF" d="M238.5,370v145h-87V370H238.5 M242.2,366h-95l0.3,0.4v153l-0.3-0.4h95c0,0,0.3,0.5,0.3,0.4v-153
		C242.5,366.4,242.2,366,242.2,366L242.2,366z"/>
</g>
<text transform="matrix(3.660256e-07 -1 1 3.660250e-07 229.1122 508.7639)" fill="#FFFFFF" font-family="'HelveticaNeue-CondensedBold'" font-size="60.8852">50</text>
<g>
	<path fill="#FFFFFF" d="M839.5,370.4v145h-87v-145H839.5 M843.2,366.4h-95l0.3-0.4v153l-0.3,0.4h95l0.3-0.4V366L843.2,366.4
		L843.2,366.4z"/>
</g>
<text transform="matrix(1 0 0 1 757.4771 404.6576)" fill="#FFFFFF" font-family="'HelveticaNeue-CondensedBold'" font-size="37.8656">EUR</text>
<text transform="matrix(3.660256e-07 -1 1 3.660250e-07 830.1094 508.3469)" fill="#FFFFFF" font-family="'HelveticaNeue-CondensedBold'" font-size="60.8852">50</text>
<text transform="matrix(1 0 0 1 17.5985 405.0742)" fill="#FFFFFF" font-family="'HelveticaNeue-CondensedBold'" font-size="37.8656">CHF</text>
<g>
	<path fill="#FFFFFF" d="M98.6,370v145h-87V370H98.6 M102.1,366h-95l0.4,0.4v153c0,0-0.5-0.4-0.4-0.4h95c0,0,0.5,0.5,0.5,0.4v-153
		C102.6,366.4,102.1,366,102.1,366L102.1,366z"/>
</g>
<text transform="matrix(3.660256e-07 -1 1 3.660250e-07 89.0399 508.7639)" fill="#FFFFFF" font-family="'HelveticaNeue-CondensedBold'" font-size="60.8852">100</text>
<g>
	<path fill="#FFFFFF" d="M699.6,370.4v145h-87v-145H699.6 M703.1,366.4h-95l0.4-0.4v153c0,0-0.5,0.4-0.4,0.4h95l0.5-0.4V366
		L703.1,366.4L703.1,366.4z"/>
</g>
<text transform="matrix(1 0 0 1 617.4044 404.6576)" fill="#FFFFFF" font-family="'HelveticaNeue-CondensedBold'" font-size="37.8656">EUR</text>
<text transform="matrix(3.660256e-07 -1 1 3.660250e-07 690.0388 508.3469)" fill="#FFFFFF" font-family="'HelveticaNeue-CondensedBold'" font-size="60.8852">100</text>
<g>
	<path fill="#FFFFFF" d="M699.6,135.4v145h-87v-145H699.6 M703.1,131.4h-95l0.4-0.4v153c0,0-0.5,0.4-0.4,0.4h95l0.5-0.4V131
		L703.1,131.4L703.1,131.4z"/>
</g>
<text transform="matrix(3.660256e-07 -1 1 3.660250e-07 690.0388 273.3401)" fill="#FFFFFF" font-family="'HelveticaNeue-CondensedBold'" font-size="60.8852">10</text>
<line fill="none" stroke="#FFFFFF" stroke-width="2" stroke-miterlimit="10" x1="7" y1="328.5" x2="1262.4" y2="328.5"/>
<line fill="none" stroke="#FFFFFF" stroke-width="2" stroke-miterlimit="10" x1="566.2" y1="655" x2="566.2" y2="366"/>
<line fill="none" stroke="#FFFFFF" stroke-width="2" stroke-miterlimit="10" x1="566.2" y1="284" x2="566.2" y2="57"/>
<g>
	<text transform="matrix(1 0 0 1 19.4944 631.7656)" enable-background="new    "><tspan x="0" y="0" fill="#FFFFFF" font-family="'HelveticaNeue-CondensedBold'" font-size="37.1909">.</tspan><tspan x="9" y="0" fill="#FFFFFF" font-family="'HelveticaNeue-CondensedBold'" font-size="37.1909" letter-spacing="-1">10</tspan></text>
	<circle fill="none" stroke="#FFFFFF" stroke-width="3" stroke-miterlimit="10" cx="44.6" cy="619.1" r="35.9"/>
</g>
<g>
	<text transform="matrix(1 0 0 1 108.3303 631.7656)" enable-background="new    "><tspan x="0" y="0" fill="#FFFFFF" font-family="'HelveticaNeue-CondensedBold'" font-size="37.1909">.</tspan><tspan x="9" y="0" fill="#FFFFFF" font-family="'HelveticaNeue-CondensedBold'" font-size="37.1909">2</tspan><tspan x="27.6" y="0" fill="#FFFFFF" font-family="'HelveticaNeue-CondensedBold'" font-size="37.1909" letter-spacing="-1">0</tspan></text>
	<circle fill="none" stroke="#FFFFFF" stroke-width="3" stroke-miterlimit="10" cx="133.4" cy="619.1" r="35.9"/>
</g>
<g>
	<text transform="matrix(1 0 0 1 197.1658 631.7656)" enable-background="new    "><tspan x="0" y="0" fill="#FFFFFF" font-family="'HelveticaNeue-CondensedBold'" font-size="37.1909">.</tspan><tspan x="9" y="0" fill="#FFFFFF" font-family="'HelveticaNeue-CondensedBold'" font-size="37.1909" letter-spacing="-1">50</tspan></text>
	<circle fill="none" stroke="#FFFFFF" stroke-width="3" stroke-miterlimit="10" cx="222.3" cy="619.1" r="35.9"/>
</g>
<g>
	
		<text transform="matrix(1 0 0 1 302.3313 631.7656)" fill="#FFFFFF" font-family="'HelveticaNeue-CondensedBold'" font-size="37.1909" letter-spacing="-1">1</text>
	<circle fill="none" stroke="#FFFFFF" stroke-width="3" stroke-miterlimit="10" cx="311.1" cy="619.1" r="35.9"/>
</g>
<g>
	
		<text transform="matrix(1 0 0 1 390.1667 631.7656)" fill="#FFFFFF" font-family="'HelveticaNeue-CondensedBold'" font-size="37.1909" letter-spacing="-1">2</text>
	<circle fill="none" stroke="#FFFFFF" stroke-width="3" stroke-miterlimit="10" cx="399.9" cy="619.1" r="35.9"/>
</g>
<g>
	
		<text transform="matrix(1 0 0 1 480.0018 631.7656)" fill="#FFFFFF" font-family="'HelveticaNeue-CondensedBold'" font-size="37.1909" letter-spacing="-1">5</text>
	<circle fill="none" stroke="#FFFFFF" stroke-width="3" stroke-miterlimit="10" cx="488.8" cy="619.1" r="35.9"/>
</g>
<g display="none">
	<polygon display="inline" fill-rule="evenodd" clip-rule="evenodd" fill="#FFFFFF" points="944,87.7 946.9,74.3 953,87.7 
		964.7,87.7 958,72.9 968.7,62.4 958.3,62.4 947.3,72.3 951.9,50.7 942,50.7 934.2,87.7 944,87.7 	"/>
	<path display="inline" fill-rule="evenodd" clip-rule="evenodd" fill="#FFFFFF" d="M894.4,65.9l0.8-3.5h-9.9l-5.4,25.3h9.9
		l2.9-13.5c1.1-5.3,6.5-4.9,10.1-4.9l1.7-7.8c0,0-1.3,0-2.1,0c-1.5,0.1-3.3,0.7-4.3,1.4C896.7,63.8,894.4,65.9,894.4,65.9
		L894.4,65.9z"/>
	<path display="inline" fill-rule="evenodd" clip-rule="evenodd" fill="#FFFFFF" d="M974.3,64.3c3.4-2.4,8.8-3.4,13.8-2.8
		c5.5,0.7,8.8,3.1,8,7.9c-0.4,2.6-2.4,9.4-2.9,12.1c-0.4,2.7-0.7,6.2-0.7,6.2h-9.3l0.1-3.1c0,0-1.6,1.4-2.8,2.2
		c-1.6,1-5.2,1.7-6.9,1.6c-4.5-0.3-7.3-2.4-7-6.7c0.3-3.9,2.3-6.7,5.5-8.4c2-1.1,5.6-2,8.3-2c2.3,0,5.6-0.1,5.7-0.3
		c0.2-0.2,0.5-1.2,0.6-2.3c0.3-1.7-0.4-2.6-2.4-2.8c-1.2-0.1-2.8,0.8-3.3,1.7c-0.6,1.2-0.5,2.2-1.7,2.3l-8.7-0.1
		C970.5,69.8,972.4,65.6,974.3,64.3L974.3,64.3L974.3,64.3L974.3,64.3z M984.6,75.5c-3.6-0.3-7.6,0.9-7.9,4.2
		c-0.2,2.5,1.9,3.4,4.5,2.6c2.3-0.8,3.6-3.8,4-6.6C985.2,75.6,984.7,75.5,984.6,75.5L984.6,75.5z"/>
	<polygon display="inline" fill-rule="evenodd" clip-rule="evenodd" fill="#FFFFFF" points="1002.7,70.5 1011.2,70.5 1012.9,62.4 
		1004.4,62.4 1002.7,70.5 	"/>
	<polygon display="inline" fill-rule="evenodd" clip-rule="evenodd" fill="#FFFFFF" points="1055.7,62.4 1022.6,62.4 1020.9,70.5 
		1029.9,70.5 1028,79.5 1019,79.5 1017.3,87.7 1050.3,87.7 1055.7,62.4 	"/>
	<polygon display="inline" fill-rule="evenodd" clip-rule="evenodd" fill="#FFFFFF" points="999,87.7 1007.5,87.7 1009.3,79.5 
		1000.7,79.5 999,87.7 	"/>
	<path display="inline" fill-rule="evenodd" clip-rule="evenodd" fill="#FFFFFF" d="M932.2,76.6c2.6-11.1-1.2-16.6-10.3-16.2
		c-10.5,0.4-16.7,4.7-18.2,16.2c-2.3,18.1,26.5,12.9,27.9,2h-9.6c-0.8,3.1-5.1,4.4-7.4,3.2c-1.4-0.7-1.5-2.5-1.2-5.1H932.2
		L932.2,76.6L932.2,76.6L932.2,76.6z M915,71c0.8-5.8,9.4-7.6,8.5,0H915L915,71z"/>
</g>
<g>
	<polygon fill-rule="evenodd" clip-rule="evenodd" fill="#FFFFFF" points="660.2,167.1 662.1,158.2 666.3,167.1 674.1,167.1 
		669.6,157.3 676.7,150.2 669.7,150.2 662.4,156.8 665.5,142.4 658.9,142.4 653.6,167.1 660.2,167.1 	"/>
	<path fill-rule="evenodd" clip-rule="evenodd" fill="#FFFFFF" d="M627.1,152.6l0.5-2.3H621l-3.6,16.9h6.6l1.9-9
		c0.7-3.5,4.3-3.3,6.7-3.3l1.1-5.2c0,0-0.8,0-1.4,0c-1,0-2.2,0.5-2.8,0.9C628.6,151.2,627.1,152.6,627.1,152.6L627.1,152.6z"/>
	<path fill-rule="evenodd" clip-rule="evenodd" fill="#FFFFFF" d="M680.5,151.5c2.3-1.6,5.9-2.3,9.2-1.9c3.7,0.4,5.8,2.1,5.3,5.3
		c-0.3,1.8-1.6,6.3-1.9,8.1c-0.3,1.8-0.5,4.1-0.5,4.1h-6.2l0.1-2.1c0,0-1.1,1-1.9,1.5c-1.1,0.7-3.4,1.1-4.6,1.1
		c-3-0.2-4.9-1.6-4.7-4.5c0.2-2.6,1.5-4.5,3.7-5.6c1.4-0.7,3.8-1.3,5.5-1.3c1.5,0,3.7-0.1,3.8-0.2c0.1-0.1,0.3-0.8,0.4-1.5
		c0.2-1.1-0.3-1.7-1.6-1.9c-0.8-0.1-1.9,0.5-2.2,1.1c-0.4,0.8-0.3,1.5-1.1,1.5l-5.8-0.1C677.9,155.2,679.2,152.4,680.5,151.5
		L680.5,151.5L680.5,151.5L680.5,151.5z M687.3,159c-2.4-0.2-5.1,0.6-5.3,2.8c-0.2,1.6,1.3,2.3,3,1.7c1.6-0.5,2.4-2.5,2.7-4.4
		C687.8,159.1,687.4,159,687.3,159L687.3,159z"/>
	<path fill-rule="evenodd" clip-rule="evenodd" fill="#FFFFFF" d="M652.4,159.7c1.8-7.4-0.8-11.1-6.9-10.8
		c-7,0.2-11.2,3.2-12.2,10.8c-1.5,12.1,17.7,8.6,18.6,1.3h-6.4c-0.5,2.1-3.4,2.9-5,2.1c-0.9-0.5-1-1.7-0.8-3.4H652.4L652.4,159.7
		L652.4,159.7L652.4,159.7z M640.9,156c0.5-3.9,6.3-5.1,5.7,0H640.9L640.9,156z"/>
</g>
<g>
	<path fill="#FFFFFF" d="M839.6,135.4v145h-87v-145H839.6 M843.1,131.4h-95l0.4-0.4v153c0,0-0.5,0.4-0.4,0.4h95l0.5-0.4V131
		L843.1,131.4L843.1,131.4z"/>
</g>
<text transform="matrix(3.660256e-07 -1 1 3.660250e-07 830.0455 273.3401)" fill="#FFFFFF" font-family="'HelveticaNeue-CondensedBold'" font-size="60.8852">50</text>
<g>
	<polygon fill-rule="evenodd" clip-rule="evenodd" fill="#FFFFFF" points="800.2,167.1 802.1,158.2 806.3,167.1 814.1,167.1 
		809.6,157.3 816.7,150.2 809.7,150.2 802.4,156.8 805.5,142.4 798.9,142.4 793.7,167.1 800.2,167.1 	"/>
	<path fill-rule="evenodd" clip-rule="evenodd" fill="#FFFFFF" d="M767.1,152.6l0.5-2.3H761l-3.6,16.9h6.6l1.9-9
		c0.7-3.5,4.3-3.3,6.7-3.3l1.1-5.2c0,0-0.8,0-1.4,0c-1,0-2.2,0.5-2.8,0.9C768.6,151.2,767.1,152.6,767.1,152.6L767.1,152.6z"/>
	<path fill-rule="evenodd" clip-rule="evenodd" fill="#FFFFFF" d="M820.5,151.5c2.3-1.6,5.9-2.3,9.2-1.9c3.7,0.4,5.8,2.1,5.3,5.3
		c-0.3,1.8-1.6,6.3-1.9,8.1c-0.3,1.8-0.5,4.1-0.5,4.1h-6.2l0.1-2.1c0,0-1.1,1-1.9,1.5c-1.1,0.7-3.4,1.1-4.6,1.1
		c-3-0.2-4.9-1.6-4.7-4.5c0.2-2.6,1.5-4.5,3.7-5.6c1.4-0.7,3.8-1.3,5.5-1.3c1.5,0,3.7-0.1,3.8-0.2c0.1-0.1,0.3-0.8,0.4-1.5
		c0.2-1.1-0.3-1.7-1.6-1.9c-0.8-0.1-1.9,0.5-2.2,1.1c-0.4,0.8-0.3,1.5-1.1,1.5l-5.8-0.1C817.9,155.2,819.2,152.4,820.5,151.5
		L820.5,151.5L820.5,151.5L820.5,151.5z M827.3,159c-2.4-0.2-5.1,0.6-5.3,2.8c-0.2,1.6,1.3,2.3,3,1.7c1.6-0.5,2.4-2.5,2.7-4.4
		C827.8,159.1,827.4,159,827.3,159L827.3,159z"/>
	<path fill-rule="evenodd" clip-rule="evenodd" fill="#FFFFFF" d="M792.4,159.7c1.8-7.4-0.8-11.1-6.9-10.8
		c-7,0.2-11.2,3.2-12.2,10.8c-1.5,12.1,17.7,8.6,18.6,1.3h-6.4c-0.5,2.1-3.4,2.9-5,2.1c-0.9-0.5-1-1.7-0.8-3.4H792.4L792.4,159.7
		L792.4,159.7L792.4,159.7z M780.9,156c0.5-3.9,6.3-5.1,5.7,0H780.9L780.9,156z"/>
</g>
<g>
	<path fill="#E10020" d="M974.6,135.4 M887.6,280.4 M974.6,135.4 M978.1,131.4h-95l0.4-0.4v153c0,0-0.5,0.4-0.4,0.4h95l0.5-0.4V131
		L978.1,131.4L978.1,131.4z"/>
</g>
<g>
	<path fill="#25A60B" d="M1114.6,135.4 M1027.6,280.4 M1114.6,135.4 M1118.1,131.4h-95l0.4-0.4v153c0,0-0.5,0.4-0.4,0.4h95l0.5-0.4
		V131L1118.1,131.4L1118.1,131.4z"/>
</g>
<g>
	<path fill="#FFFFFF" d="M974.6,135.4v145h-87v-145H974.6 M978.1,131.4h-95l0.4-0.4v153c0,0-0.5,0.4-0.4,0.4h95l0.5-0.4V131
		L978.1,131.4L978.1,131.4z"/>
</g>
<text transform="matrix(3.660256e-07 -1 1 3.660250e-07 965.0388 273.3401)" fill="#FFFFFF" font-family="'HelveticaNeue-CondensedBold'" font-size="60.8852">10</text>
<g>
	<polygon fill-rule="evenodd" clip-rule="evenodd" fill="#FFFFFF" points="935.2,167.1 937.1,158.2 941.3,167.1 949.1,167.1 
		944.6,157.3 951.7,150.2 944.7,150.2 937.4,156.8 940.5,142.4 933.9,142.4 928.6,167.1 935.2,167.1 	"/>
	<path fill-rule="evenodd" clip-rule="evenodd" fill="#FFFFFF" d="M902.1,152.6l0.5-2.3H896l-3.6,16.9h6.6l1.9-9
		c0.7-3.5,4.3-3.3,6.7-3.3l1.1-5.2c0,0-0.8,0-1.4,0c-1,0-2.2,0.5-2.8,0.9C903.6,151.2,902.1,152.6,902.1,152.6L902.1,152.6z"/>
	<path fill-rule="evenodd" clip-rule="evenodd" fill="#FFFFFF" d="M955.5,151.5c2.3-1.6,5.9-2.3,9.2-1.9c3.7,0.4,5.8,2.1,5.3,5.3
		c-0.3,1.8-1.6,6.3-1.9,8.1c-0.3,1.8-0.5,4.1-0.5,4.1h-6.2l0.1-2.1c0,0-1.1,1-1.9,1.5c-1.1,0.7-3.4,1.1-4.6,1.1
		c-3-0.2-4.9-1.6-4.7-4.5c0.2-2.6,1.5-4.5,3.7-5.6c1.4-0.7,3.8-1.3,5.5-1.3c1.5,0,3.7-0.1,3.8-0.2c0.1-0.1,0.3-0.8,0.4-1.5
		c0.2-1.1-0.3-1.7-1.6-1.9c-0.8-0.1-1.9,0.5-2.2,1.1c-0.4,0.8-0.3,1.5-1.1,1.5l-5.8-0.1C952.9,155.2,954.2,152.4,955.5,151.5
		L955.5,151.5L955.5,151.5L955.5,151.5z M962.3,159c-2.4-0.2-5.1,0.6-5.3,2.8c-0.2,1.6,1.3,2.3,3,1.7c1.6-0.5,2.4-2.5,2.7-4.4
		C962.8,159.1,962.4,159,962.3,159L962.3,159z"/>
	<path fill-rule="evenodd" clip-rule="evenodd" fill="#FFFFFF" d="M927.4,159.7c1.8-7.4-0.8-11.1-6.9-10.8
		c-7,0.2-11.2,3.2-12.2,10.8c-1.5,12.1,17.7,8.6,18.6,1.3h-6.4c-0.5,2.1-3.4,2.9-5,2.1c-0.9-0.5-1-1.7-0.8-3.4H927.4L927.4,159.7
		L927.4,159.7L927.4,159.7z M915.9,156c0.5-3.9,6.3-5.1,5.7,0H915.9L915.9,156z"/>
</g>
<g>
	<path fill="#FFFFFF" d="M1114.6,135.4v145h-87v-145H1114.6 M1118.1,131.4h-95l0.4-0.4v153c0,0-0.5,0.4-0.4,0.4h95l0.5-0.4V131
		L1118.1,131.4L1118.1,131.4z"/>
</g>
<text transform="matrix(3.660256e-07 -1 1 3.660250e-07 1105.0454 273.3401)" fill="#FFFFFF" font-family="'HelveticaNeue-CondensedBold'" font-size="60.8852">50</text>
<g>
	<polygon fill-rule="evenodd" clip-rule="evenodd" fill="#FFFFFF" points="1075.2,167.1 1077.1,158.2 1081.3,167.1 1089.1,167.1 
		1084.6,157.3 1091.7,150.2 1084.7,150.2 1077.4,156.8 1080.5,142.4 1073.9,142.4 1068.7,167.1 1075.2,167.1 	"/>
	<path fill-rule="evenodd" clip-rule="evenodd" fill="#FFFFFF" d="M1042.1,152.6l0.5-2.3h-6.6l-3.6,16.9h6.6l1.9-9
		c0.7-3.5,4.3-3.3,6.7-3.3l1.1-5.2c0,0-0.8,0-1.4,0c-1,0-2.2,0.5-2.8,0.9C1043.6,151.2,1042.1,152.6,1042.1,152.6L1042.1,152.6z"/>
	<path fill-rule="evenodd" clip-rule="evenodd" fill="#FFFFFF" d="M1095.5,151.5c2.3-1.6,5.9-2.3,9.2-1.9c3.7,0.4,5.8,2.1,5.3,5.3
		c-0.3,1.8-1.6,6.3-1.9,8.1c-0.3,1.8-0.5,4.1-0.5,4.1h-6.2l0.1-2.1c0,0-1.1,1-1.9,1.5c-1.1,0.7-3.4,1.1-4.6,1.1
		c-3-0.2-4.9-1.6-4.7-4.5c0.2-2.6,1.5-4.5,3.7-5.6c1.4-0.7,3.8-1.3,5.5-1.3c1.5,0,3.7-0.1,3.8-0.2c0.1-0.1,0.3-0.8,0.4-1.5
		c0.2-1.1-0.3-1.7-1.6-1.9c-0.8-0.1-1.9,0.5-2.2,1.1c-0.4,0.8-0.3,1.5-1.1,1.5l-5.8-0.1C1092.9,155.2,1094.2,152.4,1095.5,151.5
		L1095.5,151.5L1095.5,151.5L1095.5,151.5z M1102.3,159c-2.4-0.2-5.1,0.6-5.3,2.8c-0.2,1.6,1.3,2.3,3,1.7c1.6-0.5,2.4-2.5,2.7-4.4
		C1102.8,159.1,1102.4,159,1102.3,159L1102.3,159z"/>
	<path fill-rule="evenodd" clip-rule="evenodd" fill="#FFFFFF" d="M1067.4,159.7c1.8-7.4-0.8-11.1-6.9-10.8
		c-7,0.2-11.2,3.2-12.2,10.8c-1.5,12.1,17.7,8.6,18.6,1.3h-6.4c-0.5,2.1-3.4,2.9-5,2.1c-0.9-0.5-1-1.7-0.8-3.4H1067.4L1067.4,159.7
		L1067.4,159.7L1067.4,159.7z M1055.9,156c0.5-3.9,6.3-5.1,5.7,0H1055.9L1055.9,156z"/>
</g>
</svg>
