<?xml version="1.0" encoding="utf-8"?>
<!-- Generator: Adobe Illustrator 17.1.0, SVG Export Plug-In . SVG Version: 6.00 Build 0)  -->
<!DOCTYPE svg PUBLIC "-//W3C//DTD SVG 1.0//EN" "http://www.w3.org/TR/2001/REC-SVG-20010904/DTD/svg10.dtd">
<svg version="1.0" xmlns="http://www.w3.org/2000/svg" xmlns:xlink="http://www.w3.org/1999/xlink" x="0px" y="0px" width="1280px"
	 height="800px" viewBox="0 0 1280 800" enable-background="new 0 0 1280 800" xml:space="preserve">
<g id="Ebene_2" display="none">
	<rect display="inline" opacity="0.5" fill="#1D1D1B" width="1280" height="800"/>
</g>
<g id="Ebene_3">
	<path fill-rule="evenodd" clip-rule="evenodd" fill="#FFFFFF" d="M934.5,67.6c0-7.4-3.9-11.1-11.5-11.1H789.3c-3.8,0-6.6,1-8.4,3
		c-2.1,2-3.1,4.7-3.1,8.1v75.1c0,3.4,1,5.9,3.1,8c2.1,2,4.9,3,8.4,3H923c7.6,0,11.5-3.7,11.5-11.1V67.6L934.5,67.6z"/>
	<g>
		<g>
			<path fill="#00306D" d="M575,150c0,2.2-1.8,4-4,4H422c-2.2,0-4-1.8-4-4V61c0-2.2,1.8-4,4-4h149c2.2,0,4,1.8,4,4V150z"/>
		</g>
		<g>
			<path fill-rule="evenodd" clip-rule="evenodd" fill="#0097D9" d="M495.8,136.5c8.6-7.8,14.1-19.1,14.1-31.7s-5.4-23.9-14.1-31.8
				c-7.5-6.9-17.6-11.1-28.7-11.1c-23.6,0-42.8,19.2-42.8,42.8s19.2,42.7,42.8,42.7C478.2,147.6,488.3,143.4,495.8,136.5
				L495.8,136.5z"/>
			<path fill-rule="evenodd" clip-rule="evenodd" fill="#0097D9" d="M495.8,136.5c8.6-7.8,14.1-19.1,14.1-31.7s-5.4-23.9-14.1-31.8
				V136.5L495.8,136.5z"/>
			<path fill-rule="evenodd" clip-rule="evenodd" fill="#E3001B" d="M524.6,62c-11.1,0-21.1,4.2-28.7,11.1c-1.5,1.4-2.9,2.9-4.3,4.5
				h8.6c1.2,1.4,2.3,3,3.3,4.5h-15.2c-0.9,1.5-1.8,3-2.5,4.5h20.1c0.7,1.5,1.3,3,1.8,4.5H484c-0.5,1.5-0.9,3-1.3,4.6H509
				c0.6,2.8,0.9,5.9,0.9,9c0,4.7-0.8,9.3-2.2,13.6H484c0.5,1.5,1.1,3,1.8,4.5h20.1c-0.8,1.5-1.5,3.1-2.4,4.5h-15.2
				c1,1.6,2.1,3.1,3.3,4.5h8.6c-1.3,1.6-2.8,3.1-4.4,4.5c7.6,6.9,17.7,11.1,28.7,11.1c23.6,0,42.7-19.1,42.7-42.7S548.2,62,524.6,62
				L524.6,62z"/>
			<path fill-rule="evenodd" clip-rule="evenodd" fill="#E3001B" d="M561.8,128.6c0-0.8,0.6-1.3,1.3-1.3s1.3,0.6,1.3,1.3
				c0,0.8-0.6,1.4-1.3,1.4S561.8,129.4,561.8,128.6L561.8,128.6z M563.2,129.7c0.6,0,1.1-0.5,1.1-1.1c0-0.6-0.5-1-1.1-1
				c-0.6,0-1.1,0.4-1.1,1C562.1,129.2,562.6,129.7,563.2,129.7L563.2,129.7z M563,129.2h-0.3v-1.2h0.5c0.2,0,0.3,0,0.3,0.1
				c0.1,0,0.2,0.2,0.2,0.3c0,0.2-0.1,0.3-0.2,0.3l0.2,0.5h-0.3l-0.2-0.4H563V129.2L563,129.2z M563,128.6h0.2c0,0,0.1,0,0.2,0
				c0,0,0.1-0.1,0.1-0.2l-0.1-0.1c-0.1-0.1-0.2-0.1-0.2-0.1H563V128.6L563,128.6z"/>
			<polygon fill-rule="evenodd" clip-rule="evenodd" fill="#00306D" points="460.5,116.7 455.1,116.7 458.3,100.1 451,116.7 
				446.5,116.7 445.6,100.2 442,116.7 437.2,116.7 441.3,95 449.7,95 449.8,108.5 455.7,95 464.7,95 460.5,116.7 			"/>
			<path fill-rule="evenodd" clip-rule="evenodd" fill="#00306D" d="M520,116.5c-1.5,0.4-2.6,0.6-3.9,0.6c-2.7,0-4.2-1.3-4.2-3.9
				c0-0.5,0.1-1.1,0.2-1.6l0.3-1.8l0.3-1.3l2.4-13.5h5.3l-0.8,4h2.7l-0.7,4.3h-2.8l-1.4,7.4c0,0.3-0.1,0.6-0.1,0.8
				c0,0.9,0.6,1.3,1.8,1.3c0.6,0,1.1,0,1.4-0.2L520,116.5L520,116.5z"/>
			<path fill-rule="evenodd" clip-rule="evenodd" fill="#00306D" d="M498.8,104.7c0,2.2,1.3,3.8,4,4.9c2.3,0.9,2.6,1.2,2.6,2
				c0,1.1-1,1.6-3.1,1.6c-1.7,0-3.1-0.3-4.9-0.8l-0.8,4.1h0.3l1,0.2c0.3,0.1,0.8,0.2,1.4,0.2c1.3,0.1,2.3,0.2,2.9,0.2
				c5.7,0,8.3-1.8,8.3-5.9c0-2.4-1.1-3.9-3.8-4.9c-2.3-0.8-2.5-1.1-2.5-1.9c0-0.9,0.9-1.4,2.6-1.4c1.1,0,2.5,0.1,3.9,0.3l0.8-4
				c-1.4-0.3-3.5-0.4-4.8-0.4C500.9,98.7,498.8,101.4,498.8,104.7L498.8,104.7z"/>
			<path fill-rule="evenodd" clip-rule="evenodd" fill="#00306D" d="M477.7,116.7h-4.4l0.1-1.8c-1.3,1.4-3.2,2.1-5.6,2.1
				c-2.8,0-4.9-1.9-4.9-4.8c0-4.3,3.4-6.8,9.4-6.8c0.6,0,1.3,0,2.2,0.1c0.2-0.6,0.2-0.8,0.2-1.1c0-1.2-0.9-1.7-3.4-1.7
				c-1.5,0-3.2,0.3-4.4,0.5l-0.8,0.3l-0.5,0.1l0.8-3.9c2.7-0.8,4.4-1,6.4-1c4.6,0,7,1.8,7,5.2c0,0.9-0.1,1.5-0.5,3.5l-1.1,6.2
				l-0.2,1.2l-0.2,0.9l-0.1,0.6V116.7L477.7,116.7z M474.1,108.9c-0.6-0.1-0.8-0.1-1.3-0.1c-3,0-4.5,0.9-4.5,2.7
				c0,1.1,0.8,1.8,1.9,1.8C472.5,113.2,474,111.5,474.1,108.9L474.1,108.9z"/>
			<path fill-rule="evenodd" clip-rule="evenodd" fill="#00306D" d="M495.2,116.3c-1.8,0.5-3.5,0.8-5.4,0.8c-5.9,0-9-2.8-9-8
				c0-6,3.9-10.5,9.3-10.5c4.4,0,7.2,2.5,7.2,6.4c0,1.3-0.2,2.6-0.7,4.4h-10.6c-0.1,0.3-0.1,0.4-0.1,0.6c0,2,1.6,3.1,4.7,3.1
				c1.9,0,3.6-0.3,5.5-1.2L495.2,116.3L495.2,116.3z M492.6,105.9c0-0.4,0-0.7,0-0.9c0-1.4-0.9-2.3-2.5-2.3c-1.7,0-2.9,1.1-3.4,3.2
				H492.6L492.6,105.9z"/>
			<path fill-rule="evenodd" clip-rule="evenodd" fill="#00306D" d="M552,108.7c-0.8,5.9-4.9,8.5-10.3,8.5c-6,0-8.5-3.6-8.5-8.1
				c0-6.2,4.1-10.5,10.5-10.5c5.5,0,8.5,3.5,8.5,8C552.1,107.6,552.1,107.7,552,108.7L552,108.7z M546.6,106.6
				c0-1.8-0.8-3.6-2.9-3.6c-2.7,0-4.4,3.3-4.4,6c0,2.4,1.2,4,3.1,4c1.2,0,3.6-1.6,4.1-4.4C546.5,108.1,546.6,107.4,546.6,106.6
				L546.6,106.6z"/>
			<path fill-rule="evenodd" clip-rule="evenodd" fill="#FFFFFF" d="M552.5,114.1c0-0.8,0.7-1.3,1.4-1.3c0.8,0,1.3,0.6,1.3,1.3
				c0,0.8-0.6,1.4-1.3,1.4C553.2,115.5,552.5,114.8,552.5,114.1L552.5,114.1z M554,115.2c0.6,0,1-0.5,1-1.1c0-0.6-0.4-1-1-1
				s-1.1,0.4-1.1,1C552.9,114.7,553.4,115.2,554,115.2L554,115.2z M553.8,114.7h-0.3v-1.2h0.5c0.2,0,0.3,0,0.3,0.1
				c0.1,0.1,0.2,0.2,0.2,0.3c0,0.2-0.1,0.3-0.3,0.3l0.3,0.5h-0.3l-0.2-0.4h-0.2V114.7L553.8,114.7z M553.8,114h0.2c0,0,0.1,0,0.2,0
				c0,0,0-0.1,0-0.2v-0.1c-0.1,0-0.2,0-0.3,0h-0.1V114L553.8,114z"/>
			<polygon fill-rule="evenodd" clip-rule="evenodd" fill="#FFFFFF" points="461.8,115.5 456.4,115.5 459.6,98.8 452.3,115.5 
				447.5,115.5 446.6,98.9 443.5,115.5 438.6,115.5 442.7,93.8 451.1,93.8 451.5,107.2 457.4,93.8 466,93.8 461.8,115.5 			"/>
			<path fill-rule="evenodd" clip-rule="evenodd" fill="#FFFFFF" d="M521.3,115.2c-1.5,0.4-2.6,0.6-3.9,0.6c-2.7,0-4.2-1.3-4.2-3.9
				c0-0.5,0.1-1,0.2-1.6l0.3-1.8l0.3-1.3l2.4-13.5h5.3l-0.8,4h2.8l-0.8,4.3h-2.8l-1.3,7.4c-0.1,0.3-0.2,0.6-0.2,0.8
				c0,0.9,0.6,1.3,1.8,1.3c0.6,0,1.1-0.1,1.4-0.2L521.3,115.2L521.3,115.2z"/>
			<path fill-rule="evenodd" clip-rule="evenodd" fill="#00306D" d="M534.9,102.9l-0.1-0.6l1-2.8c-0.3,0-0.3,0-0.4-0.1
				c-0.3,0-0.4-0.1-0.4-0.1c-0.2,0-0.3,0-0.5,0c-1.8,0-3,0.8-4.7,2.8l0.6-3.2h-5.5l-3.3,17.7h5.3c0.8-4.1,1.1-6.4,1.5-8.3
				c0.7-3.2,3-4.6,4.8-4.3c0.2,0,0.3,0,0.6,0.1l0.3,0.2L534.9,102.9L534.9,102.9z"/>
			<path fill-rule="evenodd" clip-rule="evenodd" fill="#FFFFFF" d="M536.8,98c-0.4-0.2-0.5-0.2-0.6-0.2c-0.3-0.1-0.4-0.1-0.4-0.2
				c-0.2,0-0.3,0-0.6,0c-1.8,0-3,0.8-4.6,2.8l0.5-2.7h-4.9l-3.3,17.7h5.4c1.9-10.8,2.7-12.7,5.3-12.7c0.2,0,0.4,0.1,0.7,0.1l0.6,0.2
				L536.8,98L536.8,98z"/>
			<path fill-rule="evenodd" clip-rule="evenodd" fill="#FFFFFF" d="M500.2,103.4c0,2.2,1.3,3.8,4.1,4.9c2.2,0.9,2.5,1.2,2.5,2
				c0,1.1-1,1.6-3.1,1.6c-1.6,0-3.1-0.3-4.9-0.8l-0.7,4.1h0.3l0.9,0.3c0.3,0,0.8,0.1,1.4,0.1c1.3,0.2,2.3,0.2,3,0.2
				c5.6,0,8.3-1.8,8.3-5.9c0-2.4-1.1-3.9-3.9-4.9c-2.3-0.8-2.5-1.1-2.5-1.9c0-0.9,0.9-1.4,2.7-1.4c1,0,2.5,0.1,3.9,0.3l0.8-4
				c-1.4-0.3-3.5-0.3-4.7-0.3C502.3,97.5,500.2,100.2,500.2,103.4L500.2,103.4z"/>
			<path fill-rule="evenodd" clip-rule="evenodd" fill="#FFFFFF" d="M479.1,115.5h-4.4l0.1-1.8c-1.3,1.4-3.2,2.1-5.6,2.1
				c-2.8,0-4.9-1.9-4.9-4.8c0-4.3,3.4-6.8,9.4-6.8c0.6,0,1.3,0,2.2,0.1c0.2-0.6,0.2-0.8,0.2-1.1c0-1.2-0.9-1.6-3.4-1.6
				c-1.5,0-3.2,0.2-4.4,0.4l-0.8,0.3l-0.5,0.1l0.8-3.9c2.7-0.7,4.4-0.9,6.4-0.9c4.6,0,7,1.8,7,5.1c0,0.9-0.1,1.6-0.4,3.5l-1.1,6.3
				l-0.2,1.1l-0.2,0.9l-0.1,0.6L479.1,115.5L479.1,115.5z M475.2,107.6c-0.6-0.1-0.8-0.1-1.2-0.1c-3,0-4.5,0.9-4.5,2.7
				c0,1.1,0.7,1.8,1.8,1.8C473.5,112.1,475.1,110.2,475.2,107.6L475.2,107.6z"/>
			<path fill-rule="evenodd" clip-rule="evenodd" fill="#FFFFFF" d="M496.6,115.1c-1.8,0.5-3.6,0.8-5.4,0.8c-5.9,0-9-2.8-9-8
				c0-6,3.9-10.5,9.3-10.5c4.4,0,7.1,2.5,7.1,6.4c0,1.3-0.2,2.6-0.6,4.4h-10.6c0,0.3,0,0.4,0,0.6c0,2,1.5,3.1,4.6,3.1
				c1.9,0,3.7-0.3,5.5-1.1L496.6,115.1L496.6,115.1z M493.7,104.6c0-0.3,0-0.7,0-0.9c0-1.4-0.9-2.3-2.5-2.3c-1.7,0-2.8,1.2-3.4,3.2
				H493.7L493.7,104.6z"/>
			<path fill-rule="evenodd" clip-rule="evenodd" fill="#FFFFFF" d="M553.4,107.4c-0.8,5.9-4.9,8.5-10.4,8.5c-5.9,0-8.4-3.6-8.4-8.1
				c0-6.2,4.1-10.5,10.5-10.5c5.5,0,8.5,3.5,8.5,8C553.5,106.4,553.5,106.4,553.4,107.4L553.4,107.4z M547.8,105.2
				c0-1.8-0.8-3.5-2.9-3.5c-2.7,0-4.4,3.2-4.4,6c0,2.3,1.2,3.9,3,3.9c1.2,0,3.7-1.6,4.1-4.3C547.8,106.7,547.8,105.9,547.8,105.2
				L547.8,105.2z"/>
		</g>
	</g>
	<g>
		<g>
			<path fill="#00306D" d="M756,150c0,2.2-1.8,4-4,4H603c-2.2,0-4-1.8-4-4V61c0-2.2,1.8-4,4-4h149c2.2,0,4,1.8,4,4V150z"/>
		</g>
		<g>
			<path fill="#ED8313" d="M662.9,104.8c0-23.6,19.1-42.7,42.7-42.7c23.6,0,42.7,19.1,42.7,42.7c0,23.6-19.1,42.7-42.7,42.7
				C682,147.5,662.9,128.4,662.9,104.8L662.9,104.8z"/>
			<path fill="#E10020" d="M677,73c0,0-2.2,2-3.7,3.9h7.6c0,0,2.6,2.8,3.6,4.9h-14.8c0,0-1.4,2.3-2.4,4.2h19.6c0,0,1.8,3.4,2.2,5.1
				h-23.9c0,0-0.8,2.3-1.2,4l26.1,0c0.7,3.3,2.5,12.8-1.1,23.4l-23.7,0c0.4,1.3,1,3,1.6,4.2h20.4c-0.8,1.7-2,3.9-2.7,4.9l-14.9,0
				c0.8,1.2,2.1,3.1,2.9,3.9l9.2,0c-1.7,2.4-4.7,4.9-4.7,4.9h-0.1l0.1,0c-7.6,6.8-17.6,10.9-28.5,10.9c-23.6,0-42.7-19.1-42.7-42.7
				c0-23.6,19.1-42.7,42.7-42.7C659.4,62.1,669.4,66.3,677,73L677,73z"/>
			<path fill="#1E306D" d="M655.9,98.7l-0.7,3.8l-3.7-0.1c0,0-1.9,0.5-1.9,1.3s1.4,1.8,3.4,2.7c2.1,0.9,2.2,3.3,2,5
				c-0.2,1.7-0.5,5.1-6.5,5.3c-3.4,0.1-5.3-0.6-5.3-0.6l0.8-3.9c0,0,4.4,1.2,5.4,0.5c1-0.7,2.2-1.9,0.3-2.7
				c-1.9-0.8-4.9-2.1-4.9-5.2c0-3.2,1.3-4.9,3.2-5.8C650,98.2,653.5,98.3,655.9,98.7L655.9,98.7z"/>
			<polygon fill="#1E306D" points="626.3,116.3 622,116.3 624.5,101.4 619.1,116.2 616.1,116.2 615.4,100.8 612.8,116.3 
				608.7,116.3 612.5,93.5 617.5,93.5 619.3,106.6 625.1,93.5 630.2,93.5 626.3,116.3 			"/>
			<path fill="#1E306D" d="M659.8,116.6c-1.4,0-2.4-0.3-3-0.9c-0.6-0.6-0.9-1.6-0.9-2.8c0-0.3,0-0.6,0.1-0.9c0-0.3,0.1-0.7,0.1-1.1
				l2.6-14.6h4.1l-0.6,2.9h3.8l-0.6,3.6h-3.8l-1,6.2c-0.1,0.4-0.1,0.8-0.2,1.3c-0.1,0.4-0.1,0.8-0.1,1.1c0,0.6,0.1,1.1,0.4,1.3
				c0.2,0.2,0.6,0.4,1.2,0.4c0.2,0,0.5,0,0.8-0.1c0.3-0.1,0.6-0.2,0.8-0.4h0.3l-0.6,3.7c-0.5,0.2-0.9,0.3-1.4,0.4
				C661.1,116.6,660.5,116.6,659.8,116.6L659.8,116.6z"/>
			<path fill="#1E306D" d="M689.1,103.9c-0.9-0.7-2.9-0.5-3.3,0.9l-2,11.5h-4.1l2.9-17.2h4.1l-0.1,1.4c0.8-0.8,1.6-1.4,3.8-1.4
				C690.7,99.1,689.2,101.7,689.1,103.9L689.1,103.9z"/>
			<path fill="#1E306D" d="M696.8,116.8c-2.3,0-4-0.8-5.3-2.3c-1.3-1.5-1.9-3.7-1.9-6.5c0-2.2,0.3-4.3,0.8-6.1
				c0.5-1.8,1.3-3.4,2.3-4.7c0.9-1.3,2.1-2.3,3.4-3c1.3-0.7,2.7-1.1,4.1-1.1c1.1,0,2.2,0.2,3.2,0.5c0.5,0.2,1.4,0.6,1.4,0.6
				l-0.9,5.4c-0.5-0.6-0.9-1.1-1.4-1.4c-0.7-0.5-1.6-0.7-2.5-0.7c-1.7,0-3.1,0.9-4.2,2.7c-1.1,1.8-1.6,4.2-1.6,7
				c0,1.8,0.3,3.2,0.9,4c0.6,0.8,1.5,1.2,2.6,1.2c1,0,2-0.3,2.9-0.8c0.4-0.3,0.9-0.6,1.3-0.9l-0.9,5.2c0,0-0.5,0.2-0.7,0.3
				c-0.6,0.2-1.1,0.4-1.5,0.5C698.3,116.7,697.7,116.8,696.8,116.8L696.8,116.8z"/>
			<path fill="#1E306D" d="M636.4,115.7c-0.2,0.1-0.3,0.2-0.5,0.3c-0.4,0.2-0.8,0.4-1.2,0.6c-0.4,0.1-0.9,0.2-1.6,0.2
				c-1,0-1.9-0.4-2.6-1.2c-0.7-0.8-1-1.9-1-3.2c0-1.4,0.2-2.5,0.7-3.5c0.5-0.9,1.2-1.7,2.1-2.2c0.9-0.5,1.9-0.9,3.1-1.1l0.8-0.1
				c1-0.2,2-0.3,3.1-0.4c0-0.1,0-0.2,0-0.3c0-0.1,0-0.3,0-0.5c0-0.7-0.2-1.2-0.7-1.6c-0.5-0.3-1.2-0.4-2.2-0.4h-0.2
				c-0.6,0-1.3,0.2-2,0.5c-0.8,0.3-1.4,0.5-1.8,0.8h-0.4l0.6-4.1c0.5-0.2,1.2-0.4,2.2-0.5c0.5-0.1,0.9-0.2,1.4-0.2
				c0.5-0.1,1-0.1,1.6-0.1c2,0,3.4,0.4,4.4,1.1c0.9,0.7,1.4,1.8,1.4,3.3c0,0.2,0,0.5,0,0.8c0,0.3-0.1,0.6-0.1,0.9l-2,11.7h-4
				l0.3-1.8c-0.2,0.2-0.6,0.5-0.9,0.8C636.7,115.4,636.6,115.6,636.4,115.7L636.4,115.7z M636.4,108.6c-0.4,0.1-0.8,0.2-1.1,0.4
				c-0.5,0.2-0.8,0.5-1,1c-0.3,0.4-0.4,1-0.4,1.6c0,0.6,0.2,1,0.5,1.2c0.3,0.2,0.8,0.4,1.4,0.4c0.2,0,0.4,0,0.6-0.1
				c0.2,0,0.4-0.1,0.6-0.2c0.4-0.3,0.9-0.6,1.3-1l0.6-3.7c-0.7,0.1-1.4,0.2-2,0.3C636.7,108.5,636.6,108.5,636.4,108.6L636.4,108.6z
				"/>
			<path fill="#1E306D" d="M671.7,102.1c-0.5,0.1-1,0.4-1.5,0.8c-0.6,0.6-1,1.5-1.3,2.6h2.8h2.7c0-0.2,0-0.3,0-0.5
				c0-0.1,0-0.3,0-0.5c0-0.8-0.2-1.4-0.6-1.9c-0.4-0.4-0.9-0.6-1.6-0.6C672.1,102,671.9,102,671.7,102.1L671.7,102.1z M671.7,112.9
				h0.6c0.9,0,1.7-0.2,2.5-0.6c0.8-0.4,1.5-0.9,2.1-1.4h0.5l-0.8,4.4c-0.8,0.5-1.6,0.8-2.5,1.1c-0.7,0.2-1.6,0.3-2.4,0.4h-0.4
				c-2.2,0-3.8-0.6-5-2c-1.2-1.3-1.8-3.1-1.8-5.4c0-1.6,0.2-3,0.6-4.3c0.4-1.3,0.9-2.5,1.7-3.5c0.7-1,1.6-1.7,2.6-2.3
				c0.7-0.4,1.5-0.6,2.3-0.8c0.4,0,0.7,0,1.1,0c1.9,0,3.3,0.5,4.3,1.6c0.9,1,1.4,2.6,1.4,4.6c0,0.7,0,1.4-0.1,2.1
				c-0.1,0.6-0.2,1.3-0.4,2h-6.3h-3.2v0.2v0.2c0,1.2,0.3,2.1,0.9,2.8C669.9,112.4,670.7,112.8,671.7,112.9L671.7,112.9z"/>
			<path fill="#1E306D" d="M709.9,115.7c-0.2,0.1-0.3,0.2-0.5,0.3c-0.4,0.2-0.8,0.4-1.2,0.6c-0.4,0.1-0.9,0.2-1.5,0.2
				c-1.1,0-1.9-0.4-2.6-1.2c-0.7-0.8-1-1.9-1-3.2c0-1.4,0.2-2.5,0.7-3.5c0.5-0.9,1.2-1.7,2.1-2.2c0.9-0.5,1.9-0.9,3.1-1.1
				c0.3,0,0.5-0.1,0.9-0.1c0.9-0.2,2-0.3,3.1-0.4c0-0.1,0-0.2,0.1-0.3c0-0.1,0-0.3,0-0.5c0-0.7-0.3-1.2-0.7-1.6
				c-0.5-0.3-1.2-0.4-2.2-0.4h-0.2c-0.6,0-1.3,0.2-2,0.5c-0.8,0.3-1.4,0.5-1.8,0.8h-0.4l0.6-4.1c0.5-0.2,1.2-0.4,2.2-0.5
				c0.5-0.1,0.9-0.2,1.4-0.2c0.5-0.1,1-0.1,1.6-0.1c2,0,3.4,0.4,4.4,1.1c0.9,0.7,1.4,1.8,1.4,3.3c0,0.2,0,0.5,0,0.8
				c0,0.3-0.1,0.6-0.1,0.9l-2,11.7h-4l0.3-1.8c-0.3,0.2-0.6,0.5-0.9,0.8L709.9,115.7L709.9,115.7z M709.9,108.6
				c-0.4,0.1-0.8,0.2-1.2,0.4c-0.4,0.2-0.8,0.5-1,1c-0.2,0.4-0.4,1-0.4,1.6c0,0.6,0.2,1,0.5,1.2c0.3,0.2,0.8,0.4,1.4,0.4
				c0.2,0,0.4,0,0.7-0.1c0.2,0,0.4-0.1,0.6-0.2c0.5-0.3,0.9-0.6,1.3-1l0.6-3.7c-0.7,0.1-1.4,0.2-2.1,0.3
				C710.2,108.5,710,108.5,709.9,108.6L709.9,108.6z"/>
			<path fill="#1E306D" d="M727.1,103.9c-0.9-0.7-2.9-0.5-3.3,0.9l-2,11.5h-4.1l2.9-17.2h4.1l-0.1,1.4c0.8-0.8,1.6-1.4,3.8-1.4
				C728.7,99.1,727.2,101.7,727.1,103.9L727.1,103.9z"/>
			<path fill-rule="evenodd" clip-rule="evenodd" fill="#1E306D" d="M735.1,102.8c-0.2,0.1-0.4,0.2-0.6,0.4c-0.5,0.4-1,0.9-1.3,1.6
				c-0.3,0.6-0.6,1.4-0.7,2.3c-0.2,0.9-0.3,1.8-0.3,2.7c0,1.1,0.2,1.8,0.5,2.2c0.4,0.5,0.9,0.7,1.6,0.7c0.3,0,0.5-0.1,0.8-0.2
				c0.1-0.1,0.2-0.1,0.4-0.2c0.4-0.2,0.8-0.5,1.1-0.8l1.5-8.5c-0.2-0.1-0.5-0.3-0.9-0.4c-0.3-0.1-0.6-0.2-0.9-0.2
				C735.9,102.5,735.5,102.6,735.1,102.8L735.1,102.8z M735.1,115.4c-0.3,0.3-0.6,0.5-1,0.8c-0.3,0.2-0.7,0.4-1,0.5
				c-0.3,0.1-0.7,0.1-1.2,0.1c-1.3,0-2.2-0.6-3-1.6c-0.7-1.1-1.1-2.7-1.1-4.6c0-1.6,0.2-3.2,0.6-4.6c0.4-1.4,0.9-2.7,1.6-3.8
				c0.7-1.1,1.5-1.9,2.4-2.6c0.9-0.6,1.8-0.9,2.7-1h0.1c0.7,0,1.3,0.1,1.8,0.3c0.5,0.2,1,0.5,1.6,0.9l0.9-6h4.1l-3.7,22.5h-4.1
				l0.3-1.8C735.8,114.9,735.4,115.1,735.1,115.4L735.1,115.4z"/>
			<path fill="#FFFFFF" d="M656.7,98.1l-0.7,3.8l-3.7-0.1c0,0-1.9,0.5-1.9,1.3c0,0.8,1.4,1.8,3.4,2.7c2.1,0.9,2.2,3.3,2,5
				c-0.2,1.7-0.5,5.1-6.5,5.3c-3.4,0.1-5.3-0.6-5.3-0.6l0.8-3.9c0,0,4.4,1.2,5.4,0.5c1-0.7,2.2-1.9,0.3-2.7
				c-1.9-0.8-4.9-2.1-4.9-5.2c0-3.2,1.3-4.9,3.3-5.8C650.8,97.5,654.3,97.6,656.7,98.1L656.7,98.1z"/>
			<polygon fill="#FFFFFF" points="627.2,115.7 622.8,115.7 625.3,100.7 620,115.6 617,115.6 616.2,100.1 613.6,115.7 609.5,115.7 
				613.4,92.9 618.4,92.9 620.1,106 625.9,92.9 631,92.9 627.2,115.7 			"/>
			<path fill="#FFFFFF" d="M660.6,116c-1.4,0-2.4-0.3-3-0.9c-0.6-0.6-0.9-1.6-0.9-2.8c0-0.3,0-0.6,0.1-0.9c0-0.3,0.1-0.7,0.1-1.1
				l2.6-14.6h4.1l-0.6,2.9h3.8l-0.6,3.6h-3.8l-1,6.2c-0.1,0.4-0.1,0.8-0.2,1.3c-0.1,0.4-0.1,0.8-0.1,1.1c0,0.6,0.1,1.1,0.4,1.3
				c0.2,0.2,0.6,0.4,1.2,0.4c0.2,0,0.5-0.1,0.8-0.1c0.3-0.1,0.6-0.2,0.8-0.4h0.3l-0.6,3.7c-0.5,0.2-0.9,0.3-1.4,0.4
				C661.9,116,661.3,116,660.6,116L660.6,116z"/>
			<path fill="#FFFFFF" d="M689.9,103.3c-0.9-0.7-2.9-0.5-3.3,0.9l-2,11.5h-4.1l2.9-17.2h4.1l-0.1,1.4c0.8-0.8,1.6-1.4,3.8-1.4
				C691.5,98.5,690,101.1,689.9,103.3L689.9,103.3z"/>
			<path fill="#FFFFFF" d="M697.6,116.2c-2.3,0-4.1-0.8-5.3-2.3c-1.3-1.5-1.9-3.7-1.9-6.5c0-2.2,0.3-4.3,0.8-6.1
				c0.5-1.8,1.3-3.4,2.3-4.7c0.9-1.3,2.1-2.3,3.4-3c1.3-0.7,2.7-1.1,4.1-1.1c1.1,0,2.2,0.2,3.2,0.5c0.5,0.2,1.4,0.6,1.4,0.6
				l-0.9,5.4c-0.5-0.6-0.9-1.1-1.4-1.4c-0.7-0.5-1.6-0.7-2.5-0.7c-1.7,0-3.1,0.9-4.1,2.7c-1.1,1.8-1.7,4.2-1.7,7
				c0,1.8,0.3,3.2,0.9,4c0.6,0.8,1.5,1.2,2.6,1.2c1,0,2-0.3,2.9-0.8c0.4-0.3,0.9-0.6,1.3-0.9l-1,5.2c0,0-0.5,0.2-0.7,0.3
				c-0.6,0.2-1.1,0.4-1.5,0.5C699.1,116.1,698.5,116.2,697.6,116.2L697.6,116.2z"/>
			<path fill="#FFFFFF" d="M637.2,115.1c-0.2,0.1-0.3,0.2-0.5,0.3c-0.4,0.2-0.8,0.4-1.2,0.5c-0.4,0.1-0.9,0.2-1.6,0.2
				c-1,0-1.9-0.4-2.6-1.2c-0.7-0.8-1-1.9-1-3.2c0-1.4,0.2-2.5,0.7-3.5c0.5-0.9,1.2-1.7,2.1-2.2c0.9-0.5,1.9-0.9,3.1-1.1l0.8-0.1
				c1-0.2,2-0.3,3.1-0.4c0-0.1,0-0.2,0-0.3c0-0.1,0-0.3,0-0.5c0-0.7-0.2-1.2-0.7-1.6c-0.5-0.3-1.2-0.4-2.2-0.4h-0.2
				c-0.6,0-1.3,0.2-2,0.5c-0.8,0.3-1.4,0.5-1.8,0.8H633l0.6-4.1c0.5-0.2,1.2-0.4,2.2-0.5c0.5-0.1,0.9-0.2,1.4-0.2
				c0.5-0.1,1-0.1,1.6-0.1c2,0,3.4,0.4,4.4,1.1c0.9,0.7,1.4,1.8,1.4,3.3c0,0.2,0,0.5,0,0.8c0,0.3-0.1,0.6-0.1,0.9l-2,11.7h-4.1
				l0.3-1.8c-0.2,0.2-0.6,0.5-0.9,0.8C637.5,114.8,637.4,115,637.2,115.1L637.2,115.1z M637.2,108c-0.4,0.1-0.8,0.2-1.1,0.4
				c-0.5,0.2-0.8,0.5-1,1c-0.3,0.4-0.4,1-0.4,1.6c0,0.6,0.2,1,0.5,1.2c0.3,0.2,0.8,0.4,1.4,0.4c0.2,0,0.4,0,0.6-0.1
				c0.2,0,0.4-0.1,0.6-0.2c0.4-0.3,0.9-0.6,1.3-1l0.6-3.7c-0.7,0.1-1.4,0.2-2,0.3C637.5,107.9,637.4,107.9,637.2,108L637.2,108z"/>
			<path fill="#FFFFFF" d="M672.5,101.5c-0.5,0.1-1,0.4-1.4,0.8c-0.6,0.6-1,1.5-1.3,2.6h2.8h2.7c0-0.2,0-0.3,0-0.5
				c0-0.1,0-0.3,0-0.5c0-0.8-0.2-1.4-0.6-1.9c-0.4-0.4-0.9-0.6-1.6-0.6C672.9,101.4,672.7,101.4,672.5,101.5L672.5,101.5z
				 M672.5,112.3h0.6c0.9,0,1.7-0.2,2.5-0.6c0.8-0.4,1.5-0.9,2.1-1.4h0.5l-0.8,4.4c-0.8,0.5-1.6,0.8-2.5,1.1
				c-0.7,0.2-1.6,0.3-2.4,0.4h-0.4c-2.2,0-3.8-0.6-5-2c-1.2-1.3-1.8-3.1-1.8-5.4c0-1.6,0.2-3,0.6-4.3c0.4-1.3,0.9-2.5,1.7-3.5
				c0.7-1,1.6-1.7,2.6-2.3c0.7-0.4,1.5-0.6,2.3-0.8c0.4,0,0.7,0,1.1,0c1.9,0,3.3,0.5,4.3,1.6c0.9,1,1.4,2.6,1.4,4.6
				c0,0.7,0,1.4-0.1,2.1c-0.1,0.6-0.2,1.3-0.4,2h-6.3h-3.2v0.2v0.2c0,1.2,0.3,2.1,0.9,2.8C670.8,111.8,671.5,112.2,672.5,112.3
				L672.5,112.3z"/>
			<path fill="#FFFFFF" d="M710.7,115.1c-0.2,0.1-0.3,0.2-0.5,0.3c-0.4,0.2-0.8,0.4-1.2,0.5c-0.4,0.1-0.9,0.2-1.5,0.2
				c-1.1,0-1.9-0.4-2.6-1.2c-0.7-0.8-1-1.9-1-3.2c0-1.4,0.2-2.5,0.7-3.5c0.5-0.9,1.2-1.7,2.1-2.2c0.9-0.5,1.9-0.9,3.1-1.1
				c0.3-0.1,0.5-0.1,0.8-0.1c0.9-0.2,2-0.3,3.1-0.4c0-0.1,0-0.2,0.1-0.3c0-0.1,0-0.3,0-0.5c0-0.7-0.3-1.2-0.7-1.6
				c-0.5-0.3-1.2-0.4-2.2-0.4h-0.2c-0.6,0-1.3,0.2-2,0.5c-0.8,0.3-1.4,0.5-1.8,0.8h-0.4l0.6-4.1c0.5-0.2,1.2-0.4,2.2-0.5
				c0.5-0.1,0.9-0.2,1.4-0.2c0.5-0.1,1-0.1,1.6-0.1c2,0,3.4,0.4,4.4,1.1c0.9,0.7,1.4,1.8,1.4,3.3c0,0.2,0,0.5,0,0.8
				c0,0.3-0.1,0.6-0.1,0.9l-2,11.7h-4.1l0.3-1.8c-0.3,0.2-0.6,0.5-0.9,0.8L710.7,115.1L710.7,115.1z M710.7,108
				c-0.4,0.1-0.8,0.2-1.1,0.4c-0.4,0.2-0.8,0.5-1,1c-0.2,0.4-0.4,1-0.4,1.6c0,0.6,0.2,1,0.5,1.2c0.3,0.2,0.8,0.4,1.4,0.4
				c0.2,0,0.4,0,0.7-0.1c0.2,0,0.4-0.1,0.6-0.2c0.5-0.3,0.9-0.6,1.3-1l0.6-3.7c-0.7,0.1-1.4,0.2-2.1,0.3
				C711,107.9,710.9,107.9,710.7,108L710.7,108z"/>
			<path fill="#FFFFFF" d="M727.9,103.3c-0.9-0.7-2.9-0.5-3.3,0.9l-2,11.5h-4.1l2.9-17.2h4.1l-0.1,1.4c0.8-0.8,1.6-1.4,3.8-1.4
				C729.5,98.5,728,101.1,727.9,103.3L727.9,103.3z"/>
			<path fill-rule="evenodd" clip-rule="evenodd" fill="#FFFFFF" d="M736,102.2c-0.2,0.1-0.4,0.2-0.6,0.4c-0.5,0.4-1,0.9-1.3,1.6
				c-0.3,0.6-0.6,1.4-0.7,2.3c-0.2,0.9-0.3,1.8-0.3,2.7c0,1.1,0.2,1.8,0.5,2.2c0.4,0.5,0.9,0.7,1.6,0.7c0.3,0,0.5-0.1,0.8-0.2
				c0.1,0,0.2-0.1,0.4-0.2c0.4-0.2,0.8-0.5,1.1-0.8l1.4-8.5c-0.2-0.1-0.5-0.3-0.9-0.4c-0.3-0.1-0.6-0.2-0.9-0.2
				C736.7,101.9,736.3,102,736,102.2L736,102.2z M736,114.8c-0.3,0.3-0.6,0.5-1,0.8c-0.3,0.2-0.7,0.4-1,0.5
				c-0.3,0.1-0.7,0.1-1.2,0.1c-1.3,0-2.2-0.6-3-1.6c-0.7-1.1-1.1-2.7-1.1-4.6c0-1.6,0.2-3.2,0.6-4.6c0.4-1.4,0.9-2.7,1.6-3.8
				c0.7-1.1,1.4-1.9,2.4-2.6c0.9-0.6,1.8-0.9,2.7-1h0.1c0.7,0,1.3,0.1,1.8,0.3c0.5,0.2,1,0.5,1.6,0.9l0.9-6h4.1l-3.7,22.5h-4.1
				l0.3-1.8C736.6,114.2,736.3,114.5,736,114.8L736,114.8z"/>
		</g>
	</g>
	<path fill-rule="evenodd" clip-rule="evenodd" fill="#005180" d="M934.5,67.6c0-7.4-3.9-11.1-11.5-11.1H789.3c-3.8,0-6.6,1-8.4,3
		c-2.1,2-3.1,4.7-3.1,8.1v75.1c0,3.4,1,5.9,3.1,8c2.1,2,4.9,3,8.4,3H923c7.6,0,11.5-3.7,11.5-11.1V67.6L934.5,67.6z M923,58.3
		c6.3,0,9.5,3.2,9.5,9.3v75.1c0,6.2-3.2,9.3-9.5,9.3H789.3c-3,0-5.3-0.9-7.1-2.6c-1.8-1.7-2.7-4-2.7-6.7V67.6c0-6.2,3.1-9.3,9.7-9.3
		H923L923,58.3z"/>
	<g>
		<path fill-rule="evenodd" clip-rule="evenodd" fill="#005180" d="M791.3,62.6c-2.5,0-4.1,0.4-5,1.3c-0.8,1-1.1,2.6-1.1,5v16.3h142
			V68.9c0-4.3-2.1-6.3-6.3-6.3H791.3L791.3,62.6z"/>
		<path fill-rule="evenodd" clip-rule="evenodd" fill="#F2A60B" d="M785.2,141.4c0,4.3,2,6.5,6.1,6.5h129.6c4.2,0,6.3-2.2,6.3-6.5
			v-16.3h-142V141.4L785.2,141.4z"/>
		<path fill-rule="evenodd" clip-rule="evenodd" fill="#005180" d="M832.2,92.2c0,0.8-0.1,1.3-0.4,1.8l-10.2,17.8L820.9,90h-16.4
			l5.5,2.6c1.6,1,2.4,2.3,2.4,3.9l1.5,23.1h8L841.1,90h-9.8C831.9,90.5,832.2,91.4,832.2,92.2L832.2,92.2z"/>
		<path fill-rule="evenodd" clip-rule="evenodd" fill="#005180" d="M898.4,90.9L899,90h-10c0.4,0.4,0.5,0.5,0.5,0.6
			c-0.1,0.5-0.4,0.8-0.5,1.1l-14.6,26.5c-0.4,0.5-0.7,0.9-1.1,1.3h8.2l-0.4-0.9c0-0.8,0.4-2.2,1.3-4.2l1.8-3.3h8.5
			c0.4,2.7,0.6,5,0.7,6.7l-0.7,1.6h10.2l-1.5-2.2L898.4,90.9L898.4,90.9z M892.3,107.2h-6.1l5.2-10L892.3,107.2L892.3,107.2z"/>
		<path fill-rule="evenodd" clip-rule="evenodd" fill="#005180" d="M867,88.5c-3.2,0-5.8,0.9-8.2,2.6c-2.6,1.5-3.9,3.4-3.9,5.8
			c0,2.7,0.9,5.1,2.8,7l5.7,3.9c2,1.5,3,2.7,3,3.9c0,1.1-0.5,2.1-1.5,2.9c-1,0.8-2.1,1.1-3.5,1.1c-2,0-5.6-1.5-10.4-4.2v5.4
			c3.8,2.3,7.5,3.4,11,3.4c3.4,0,6.3-0.9,8.7-3c2.6-1.9,3.9-4.2,3.9-6.7c0-2.1-0.9-4-3-6.1l-5.4-3.9c-1.8-1.5-2.8-2.7-2.8-3.7
			c0-2.3,1.3-3.4,4.1-3.4c1.9,0,4.6,1.1,8.3,3.3l1.1-5.7C873.7,89.4,870.5,88.5,867,88.5L867,88.5z"/>
		<path fill-rule="evenodd" clip-rule="evenodd" fill="#005180" d="M845.3,119.7c-0.1-1.2-0.4-2.3-0.5-3.5l7.4-24L854,90h-10.7
			c0.1,0.5,0.2,1.2,0.4,1.8c0,0.5,0,1.2-0.1,1.8l-7.4,23.7l-1.5,2.4H845.3L845.3,119.7z"/>
	</g>
	<g>
		<g>
			<path fill="#FFD30A" d="M575,280c0,2.2-1.8,4-4,4H422c-2.2,0-4-1.8-4-4v-89c0-2.2,1.8-4,4-4h149c2.2,0,4,1.8,4,4V280z"/>
		</g>
		<g>
			<path fill-rule="evenodd" clip-rule="evenodd" fill="#000100" d="M427.2,215.8h4.1c3.6,0,6.9,1.1,6.9,5c0,3.8-2.8,5.2-6.3,5.2
				h-1.4v6.3h-3.2V215.8L427.2,215.8z M430.4,223.4h1.2c1.7,0,3.1-0.5,3.1-2.4c0-2-1.4-2.6-3.1-2.6h-1.2V223.4L430.4,223.4z"/>
			<path fill-rule="evenodd" clip-rule="evenodd" fill="#000100" d="M445.2,219.9c3.6,0,6.4,2.4,6.4,6.4c0,3.5-2.3,6.3-6.4,6.3
				c-4,0-6.3-2.8-6.3-6.3C438.9,222.3,441.7,219.9,445.2,219.9L445.2,219.9z M445.2,230.1c2.5,0,3.1-2.2,3.1-4.2
				c0-1.9-1-3.6-3.1-3.6c-2,0-3,1.8-3,3.6C442.2,227.9,442.9,230.1,445.2,230.1L445.2,230.1z"/>
			<path fill-rule="evenodd" clip-rule="evenodd" fill="#000100" d="M461.2,222.7c-1-0.3-1.7-0.5-2.8-0.5c-0.9,0-1.9,0.3-1.9,1.4
				c0,2,5.5,0.7,5.5,5.1c0,2.8-2.6,3.9-5.1,3.9c-1.2,0-2.4-0.2-3.5-0.5l0.1-2.6c1,0.5,2,0.8,3.2,0.8c0.8,0,2-0.3,2-1.4
				c0-2.4-5.5-0.8-5.5-5.1c0-2.6,2.3-3.8,4.7-3.8c1.5,0,2.5,0.2,3.5,0.5L461.2,222.7L461.2,222.7z"/>
			<path fill-rule="evenodd" clip-rule="evenodd" fill="#000100" d="M465.2,222.4h-2.3v-2.3h2.3v-2.4l3.2-1v3.4h2.8v2.3h-2.8v5.6
				c0,1.1,0.3,2,1.5,2c0.5,0,1.1-0.1,1.4-0.4l0.1,2.5c-0.6,0.2-1.4,0.3-2.3,0.3c-2.4,0-3.8-1.5-3.8-3.9V222.4L465.2,222.4z"/>
			<polygon fill-rule="evenodd" clip-rule="evenodd" fill="#000100" points="473.2,215.8 482.4,215.8 482.4,218.4 476.5,218.4 
				476.5,222.4 482.1,222.4 482.1,225.1 476.5,225.1 476.5,232.2 473.2,232.2 473.2,215.8 			"/>
			<path fill-rule="evenodd" clip-rule="evenodd" fill="#000100" d="M484.4,214.9h3.2v3h-3.2V214.9L484.4,214.9z M484.4,220.1h3.2
				v12.1h-3.2V220.1L484.4,220.1z"/>
			<path fill-rule="evenodd" clip-rule="evenodd" fill="#000100" d="M490.9,220.1h3v1.7c1-1.4,2.3-1.9,4-1.9c2.9,0,4.1,2,4.1,4.7
				v7.6h-3.2v-6.5c0-1.4,0-3.5-2-3.5c-2.3,0-2.8,2.5-2.8,4.1v5.9h-3.2V220.1L490.9,220.1z"/>
			<path fill-rule="evenodd" clip-rule="evenodd" fill="#000100" d="M505.6,220.8c1.2-0.6,2.9-0.9,4.2-0.9c3.7,0,5.2,1.5,5.2,5v1.6
				c0,1.2,0.1,2.1,0.1,3c0,1,0.1,1.8,0.2,2.7h-2.8c-0.2-0.6-0.2-1.4-0.2-1.8h-0.1c-0.7,1.4-2.3,2.1-3.7,2.1c-2.2,0-4.3-1.3-4.3-3.6
				c0-1.8,0.9-2.9,2.1-3.5c1.2-0.6,2.8-0.7,4.1-0.7h1.7c0-2-0.8-2.6-2.7-2.6c-1.4,0-2.7,0.5-3.8,1.4L505.6,220.8L505.6,220.8z
				 M509.3,230.2c1,0,1.7-0.4,2.2-1.1c0.5-0.7,0.7-1.6,0.7-2.5h-1.4c-1.4,0-3.5,0.2-3.5,2.1C507.3,229.7,508.2,230.2,509.3,230.2
				L509.3,230.2z"/>
			<path fill-rule="evenodd" clip-rule="evenodd" fill="#000100" d="M518.2,220.1h2.9v1.7h0.1c1-1.4,2.3-1.9,4-1.9
				c2.9,0,4.1,2,4.1,4.7v7.6h-3.2v-6.5c0-1.4,0-3.5-2-3.5c-2.3,0-2.8,2.5-2.8,4.1v5.9h-3.1V220.1L518.2,220.1z"/>
			<path fill-rule="evenodd" clip-rule="evenodd" fill="#000100" d="M540.4,222.7c-0.6-0.2-1.2-0.5-2.2-0.5c-2,0-3.2,1.6-3.2,3.8
				c0,2.3,1.1,4,3.2,4c0.9,0,1.9-0.4,2.5-0.6l0.1,2.6c-0.9,0.2-1.8,0.4-3.1,0.4c-4,0-6-2.7-6-6.4c0-3.5,2.1-6.3,5.9-6.3
				c1.3,0,2.2,0.1,3.1,0.4L540.4,222.7L540.4,222.7z"/>
			<path fill-rule="evenodd" clip-rule="evenodd" fill="#000100" d="M552.5,231.5c-1.1,0.7-2.5,1-4.1,1c-4,0-6.3-2.3-6.3-6.3
				c0-3.5,1.8-6.4,5.6-6.4c4.5,0,5.8,3.1,5.8,7.3H545c0.2,2,1.5,3,3.5,3c1.5,0,2.9-0.5,4-1.2V231.5L552.5,231.5z M550.4,225
				c-0.1-1.5-0.8-2.9-2.6-2.9c-1.7,0-2.6,1.2-2.8,2.9H550.4L550.4,225z"/>
			<polygon fill-rule="evenodd" clip-rule="evenodd" fill="#E31C13" points="558.6,237.9 566.6,237.9 565.3,243.9 571.3,243.9 
				569.7,251.4 563.8,251.4 562.6,256.9 556.1,256.9 556.5,255 561,255 562.2,249.5 568.1,249.5 568.9,245.8 562.9,245.8 
				564.1,239.9 560.1,239.9 558.9,245.8 556.9,245.8 558.6,237.9 			"/>
			<polygon fill-rule="evenodd" clip-rule="evenodd" fill="#FFFFFF" points="553.7,256.9 554.7,252 498.6,252 497.5,256.9 
				553.7,256.9 			"/>
			<path fill-rule="evenodd" clip-rule="evenodd" fill="#000100" d="M526.2,244.1h-1.6h-0.1v0.1l-2,9.4v0.1h0.2h1.9h0.1v-0.1
				c0,0,0.6-2.9,0.7-3.1h1c1.3,0,2.4-0.4,3.2-1.1c0.7-0.7,1-1.5,1-2.4c0-0.8-0.2-1.4-0.7-1.8C528.9,244.3,527.4,244.1,526.2,244.1
				L526.2,244.1z M526.3,245.8h0.5c0.4,0,0.8,0.1,1.1,0.5c0.3,0.2,0.4,0.5,0.4,1c0,1.1-1.1,1.7-2,1.7h-0.5L526.3,245.8L526.3,245.8z
				"/>
			<path fill-rule="evenodd" clip-rule="evenodd" fill="#000100" d="M539,245c-0.7-0.7-1.7-1.1-2.9-1.1c-1.7,0-2.9,0.5-4,1.8
				c-0.9,1.1-1.5,2.6-1.5,4.1c0,1.2,0.5,2.3,1.1,2.9c0.7,0.7,1.6,1.1,2.7,1.1c1.7,0,3.1-0.6,4.1-1.6c1-1.2,1.6-2.7,1.6-4.3
				C540,246.8,539.7,245.8,539,245L539,245z M534.6,252.3c-0.5,0-1-0.2-1.3-0.5c-0.4-0.4-0.6-1-0.6-1.7c0-1.3,0.5-2.7,1.4-3.5
				c0.5-0.5,1.1-0.8,1.9-0.8c0.5,0,1,0.2,1.3,0.5c0.4,0.4,0.6,1,0.6,1.7C537.8,249.6,536.7,252.3,534.6,252.3L534.6,252.3z"/>
			<path fill-rule="evenodd" clip-rule="evenodd" fill="#000100" d="M504.2,244.1c0,0-2,0-2.4,0h-0.1v0.1l-2,9.4v0.1h0.1h3.2
				c1.9,0,3.4-0.5,4.3-1.7c0.9-1.1,1.1-2.5,1.2-3.5C508.6,245.8,507.2,244.4,504.2,244.1L504.2,244.1z M503.4,245.8h0.2
				c1.1,0,1.8,0.2,2.3,0.7c0.4,0.4,0.5,0.8,0.5,1.5c-0.1,2.8-1.3,4.1-3.8,4.1h-0.4L503.4,245.8L503.4,245.8z"/>
			<path fill-rule="evenodd" clip-rule="evenodd" fill="#000100" d="M547.2,244.4c-0.8-0.3-1.6-0.5-2.5-0.5c-1.7,0-3.6,0.8-3.6,2.9
				c0,1.4,1,2,1.9,2.5c0.7,0.4,1.3,0.8,1.3,1.4c0,1-0.8,1.4-1.7,1.4c-0.8,0-1.6-0.4-2.3-0.7h-0.1l-0.1,0.1l-0.5,1.6v0.1h-0.1h0.1
				l0.1,0.1c0.9,0.3,1.8,0.5,2.7,0.5c1.4,0,2.4-0.4,3.1-1.1c0.5-0.5,0.8-1.3,0.8-2.2c0-1.5-1.1-2.2-2-2.7c-0.7-0.4-1.2-0.8-1.2-1.4
				c0-0.2,0.1-0.4,0.2-0.5c0.4-0.4,1.1-0.5,1.2-0.5c0.7,0,1.4,0.2,2,0.5h0.1v-0.1L547.2,244.4L547.2,244.4L547.2,244.4L547.2,244.4z
				"/>
			<polygon fill-rule="evenodd" clip-rule="evenodd" fill="#000100" points="520.2,244.1 514.7,244.1 514.6,244.1 514.6,244.2 
				512.6,253.6 512.6,253.7 512.8,253.7 518.3,253.7 518.4,253.7 518.4,253.6 518.7,252.2 518.8,252 518.7,252 518.6,252 515,252 
				515.6,249.6 518.8,249.6 518.9,249.6 518.9,249.5 519.2,248 519.2,248 519.2,247.9 519.1,247.9 515.9,247.9 516.4,245.8 
				520,245.8 520.1,245.8 520.1,245.7 520.4,244.2 520.4,244.1 520.3,244.1 520.2,244.1 			"/>
			<polygon fill-rule="evenodd" clip-rule="evenodd" fill="#000100" points="512.9,244.1 512.8,244.1 512.8,244.1 510.8,244.1 
				510.7,244.1 510.7,244.2 508.8,253.6 508.7,253.7 508.8,253.7 508.8,253.7 510.8,253.7 510.9,253.7 510.9,253.6 512.8,244.2 
				512.9,244.1 			"/>
			<path fill-rule="evenodd" clip-rule="evenodd" fill="#000100" d="M555.3,244.1h-0.2h-7.2h-0.1v0.1l-0.3,1.5l-0.1,0.1h0.1h0.1h2.5
				l-1.7,7.8v0.1h0.1h2h0.1l0.1-0.1c0,0,1.6-7.5,1.7-7.8h2.6h0.1l0.1-0.1L555.3,244.1L555.3,244.1L555.3,244.1z"/>
		</g>
	</g>
	<g>
		<g>
			<path fill="#FFFFFF" d="M756,280c0,2.2-1.8,4-4,4H603c-2.2,0-4-1.8-4-4v-89c0-2.2,1.8-4,4-4h149c2.2,0,4,1.8,4,4V280z"/>
		</g>
		<g>
			<polygon fill-rule="evenodd" clip-rule="evenodd" fill="#2A2984" points="657.6,247.7 660,236.5 665.1,247.7 674.9,247.7 
				669.3,235.4 678.2,226.6 669.5,226.6 660.3,234.9 664.2,216.9 656,216.9 649.4,247.7 657.6,247.7 			"/>
			<path fill-rule="evenodd" clip-rule="evenodd" fill="#2A2984" d="M616.3,229.6l0.6-2.9h-8.2l-4.5,21.1h8.2l2.4-11.3
				c0.9-4.4,5.4-4.1,8.4-4.1l1.4-6.5c0,0-1,0-1.8,0c-1.3,0.1-2.8,0.6-3.6,1.2C618.2,227.8,616.3,229.6,616.3,229.6L616.3,229.6z"/>
			<path fill-rule="evenodd" clip-rule="evenodd" fill="#2A2984" d="M682.9,228.2c2.9-2,7.4-2.9,11.5-2.4c4.6,0.6,7.3,2.6,6.7,6.6
				c-0.3,2.2-2,7.9-2.4,10.1c-0.4,2.3-0.6,5.2-0.6,5.2h-7.7l0.1-2.6c0,0-1.3,1.2-2.3,1.8c-1.3,0.8-4.3,1.4-5.7,1.3
				c-3.7-0.2-6.1-2-5.8-5.6c0.2-3.3,1.9-5.6,4.6-7c1.7-0.9,4.7-1.6,6.9-1.7c1.9,0,4.6-0.1,4.7-0.2c0.2-0.1,0.4-1,0.5-1.9
				c0.2-1.4-0.3-2.2-2-2.3c-1-0.1-2.3,0.7-2.7,1.4c-0.5,1-0.4,1.8-1.4,1.9l-7.3-0.1C679.7,232.8,681.3,229.4,682.9,228.2
				L682.9,228.2L682.9,228.2L682.9,228.2z M691.5,237.6c-3-0.3-6.3,0.7-6.6,3.5c-0.2,2.1,1.6,2.9,3.8,2.2c2-0.6,3-3.1,3.3-5.5
				C692,237.7,691.6,237.6,691.5,237.6L691.5,237.6z"/>
			<polygon fill-rule="evenodd" clip-rule="evenodd" fill="#E10015" points="706.5,233.4 713.7,233.4 715.1,226.6 708,226.6 
				706.5,233.4 			"/>
			<polygon fill-rule="evenodd" clip-rule="evenodd" fill="#E10015" points="750.7,226.6 723.2,226.6 721.8,233.4 729.3,233.4 
				727.7,240.9 720.2,240.9 718.7,247.7 746.3,247.7 750.7,226.6 			"/>
			<polygon fill-rule="evenodd" clip-rule="evenodd" fill="#E10015" points="703.5,247.7 710.6,247.7 712.1,240.9 704.9,240.9 
				703.5,247.7 			"/>
			<path fill-rule="evenodd" clip-rule="evenodd" fill="#2A2984" d="M647.8,238.5c2.2-9.2-1-13.8-8.6-13.5
				c-8.7,0.3-14,3.9-15.2,13.5c-1.9,15.1,22.1,10.8,23.2,1.6h-8c-0.6,2.6-4.2,3.6-6.2,2.6c-1.1-0.6-1.2-2.1-1-4.3H647.8L647.8,238.5
				L647.8,238.5L647.8,238.5z M633.4,233.8c0.7-4.8,7.9-6.4,7.1,0H633.4L633.4,233.8z"/>
		</g>
	</g>
	<g>
		<path fill="#FFFFFF" d="M934,280c0,2.2-1.8,4-4,4H781c-2.2,0-4-1.8-4-4v-89c0-2.2,1.8-4,4-4h149c2.2,0,4,1.8,4,4V280z"/>
	</g>
	<g>
		<path fill="#FFFFFF" d="M511,370v145h-87V370H511 M515,366h-95c0,0,0,0.4,0,0.4v153c0,0,0-0.4,0-0.4h95c0,0,0,0.5,0,0.4v-153
			C515,366.4,515,366,515,366L515,366z"/>
	</g>
	<g>
		<path fill="#004A97" d="M860.3,241.4c13.2,0.1,25.2-10.7,25.2-23.9c0-14.4-12-24.3-25.2-24.3H849c-13.3,0-24.3,9.9-24.3,24.3
			c0,13.2,11,24,24.3,23.9H860.3z"/>
		<path fill="#FFFFFF" d="M854,230.3v-26.1c5.2,2,9,7.1,9,13.1C863,223.2,859.3,228.3,854,230.3 M835,217.3c0-6,3.7-11,9-13.1v26.1
			C838.8,228.3,835,223.2,835,217.3 M849,195.2c-12.2,0-22.1,9.9-22.1,22.1c0,12.2,9.9,22.1,22.1,22.1c12.2,0,22.1-9.9,22.1-22.1
			C871.1,205.1,861.2,195.2,849,195.2"/>
		<path fill="#004A97" d="M800,257.8c0,2,1.4,2.2,2.7,2.2c5.5,0,7.3-4.2,7.3-8c0-4.8-3.1-8.2-8-8.2c-1,0-1.5,0.1-2,0.1V257.8z
			 M797.5,245.9c0-2.3-1.2-2.1-2.3-2.2v-0.7c1,0,2,0,3,0c1.1,0,2.5,0,4.4,0c6.6,0,10.2,4.4,10.2,8.9c0,2.5-1.5,8.9-10.5,8.9
			c-1.3,0-2.5-0.1-3.7-0.1c-1.1,0-2.3,0-3.4,0.1v-0.7c1.5-0.2,2.3-0.2,2.3-1.9V245.9z"/>
		<path fill="#004A97" d="M816.4,245.3c-0.7,0-1.2-0.6-1.2-1.3c0-0.6,0.6-1.2,1.2-1.2c0.7,0,1.2,0.5,1.2,1.2
			C817.6,244.7,817.1,245.3,816.4,245.3 M813.7,260.2h0.5c0.7,0,1.2,0,1.2-0.8v-6.9c0-1.1-0.4-1.3-1.3-1.8v-0.4
			c1.2-0.4,2.6-0.8,2.7-0.9c0.2-0.1,0.3-0.1,0.5-0.1c0.1,0,0.2,0.2,0.2,0.4v9.8c0,0.8,0.6,0.8,1.3,0.8h0.4v0.7
			c-0.9,0-1.8-0.1-2.7-0.1c-0.9,0-1.8,0-2.8,0.1V260.2z"/>
		<path fill="#004A97" d="M821.5,252.6c0-0.9-0.3-1.2-1.5-1.7v-0.5c1.1-0.4,2.1-0.7,3.4-1.2c0.1,0,0.2,0.1,0.2,0.3v1.7
			c1.5-1,2.7-1.9,4.4-1.9c2.2,0,2.9,1.6,2.9,3.6v6.6c0,0.8,0.6,0.8,1.3,0.8h0.5v0.7c-0.9,0-1.8-0.1-2.7-0.1c-0.9,0-1.8,0-2.8,0.1
			v-0.7h0.5c0.7,0,1.2,0,1.2-0.8v-6.6c0-1.5-0.9-2.2-2.3-2.2c-0.8,0-2.1,0.7-3,1.2v7.5c0,0.8,0.6,0.8,1.3,0.8h0.5v0.7
			c-0.9,0-1.8-0.1-2.7-0.1c-0.9,0-1.8,0-2.8,0.1v-0.7h0.5c0.7,0,1.2,0,1.2-0.8V252.6z"/>
		<path fill="#004A97" d="M839.1,253c0.6,0,0.7-0.3,0.7-0.6c0-1.3-0.8-2.3-2.2-2.3c-1.6,0-2.6,1.1-2.9,3H839.1z M834.6,253.8
			c-0.1,0.2-0.1,0.6,0,1.5c0.2,2.4,1.7,4.4,3.7,4.4c1.4,0,2.5-0.8,3.4-1.7l0.4,0.4c-1.2,1.6-2.6,2.9-4.7,2.9c-4.1,0-4.9-3.9-4.9-5.6
			c0-5,3.4-6.5,5.1-6.5c2.1,0,4.3,1.3,4.3,4c0,0.2,0,0.3,0,0.5l-0.2,0.2H834.6z"/>
		<path fill="#004A97" d="M842.6,260.2h0.7c0.7,0,1.2,0,1.2-0.8v-7.2c0-0.8-0.9-0.9-1.3-1.1v-0.4c1.9-0.8,2.9-1.5,3.1-1.5
			c0.1,0,0.2,0.1,0.2,0.3v2.3h0.1c0.6-1,1.7-2.6,3.3-2.6c0.6,0,1.5,0.4,1.5,1.4c0,0.7-0.5,1.3-1.2,1.3c-0.8,0-0.8-0.6-1.7-0.6
			c-0.4,0-1.9,0.6-1.9,2.1v6c0,0.8,0.5,0.8,1.2,0.8h1.4v0.7c-1.4,0-2.5-0.1-3.6-0.1c-1,0-2.1,0-3,0.1V260.2z"/>
		<path fill="#004A97" d="M852.4,257.3c0.3,1.7,1.4,3.1,3.2,3.1c1.5,0,2.1-0.9,2.1-1.8c0-3-5.6-2-5.6-6.1c0-1.4,1.1-3.3,3.9-3.3
			c0.8,0,1.9,0.2,2.9,0.7l0.2,2.6h-0.6c-0.3-1.6-1.1-2.5-2.8-2.5c-1,0-2,0.6-2,1.7c0,3,5.9,2.1,5.9,6.1c0,1.7-1.4,3.5-4.4,3.5
			c-1,0-2.2-0.4-3.1-0.9l-0.3-2.9L852.4,257.3z"/>
		<path fill="#004A97" d="M882.7,247.7h-0.6c-0.5-3-2.6-4.2-5.5-4.2c-2.9,0-7.2,2-7.2,8.1c0,5.1,3.7,8.8,7.6,8.8
			c2.5,0,4.6-1.7,5.1-4.4l0.6,0.2l-0.6,3.7c-1.1,0.7-4,1.4-5.6,1.4c-6,0-9.7-3.8-9.7-9.6c0-5.2,4.7-9,9.7-9c2.1,0,4.1,0.7,6,1.4
			L882.7,247.7z"/>
		<path fill="#004A97" d="M883.6,260.2h0.5c0.7,0,1.2,0,1.2-0.8v-14.2c0-1.7-0.4-1.7-1.4-2v-0.4c1-0.3,2.1-0.8,2.6-1.1
			c0.3-0.2,0.5-0.3,0.6-0.3c0.2,0,0.2,0.2,0.2,0.4v17.6c0,0.8,0.6,0.8,1.3,0.8h0.4v0.7c-0.9,0-1.8-0.1-2.7-0.1s-1.8,0-2.8,0.1V260.2
			z"/>
		<path fill="#004A97" d="M900,259.4c0,0.5,0.3,0.5,0.7,0.5c0.3,0,0.7,0,1,0v0.5c-1.1,0.1-3.2,0.6-3.7,0.8l-0.1-0.1v-2.1
			c-1.5,1.2-2.7,2.1-4.5,2.1c-1.4,0-2.8-0.9-2.8-3v-6.5c0-0.7-0.1-1.3-1.5-1.4v-0.5c0.9,0,3-0.2,3.3-0.2c0.3,0,0.3,0.2,0.3,0.7v6.6
			c0,0.8,0,3,2.2,3c0.9,0,2-0.7,3.1-1.6v-6.9c0-0.5-1.2-0.8-2.1-1v-0.5c2.3-0.2,3.7-0.4,4-0.4c0.2,0,0.2,0.2,0.2,0.5V259.4z"/>
		<path fill="#004A97" d="M905.1,258c0,1,0.9,2.6,2.6,2.6c2.7,0,3.9-2.7,3.9-4.9c0-2.8-2.1-5-4.1-5c-0.9,0-1.7,0.6-2.4,1.2V258z
			 M905.1,251c1-0.9,2.4-1.8,3.8-1.8c3,0,4.7,2.6,4.7,5.4c0,3.3-2.4,6.7-6.1,6.7c-1.9,0-2.9-0.6-3.5-0.9l-0.8,0.6l-0.5-0.3
			c0.2-1.5,0.4-3,0.4-4.5v-11c0-1.7-0.4-1.7-1.4-2v-0.4c1-0.3,2.1-0.8,2.6-1.1c0.3-0.2,0.5-0.3,0.6-0.3c0.2,0,0.2,0.2,0.2,0.4V251z"
			/>
		<path fill="#004A97" d="M795.1,275.7h0.2c0.5,0,1-0.1,1-0.8v-7.3c0-0.7-0.5-0.8-1-0.8h-0.2v-0.4c0.5,0,1.4,0.1,2.1,0.1
			c0.7,0,1.5-0.1,2.2-0.1v0.4h-0.2c-0.5,0-1,0.1-1,0.8v7.3c0,0.7,0.5,0.8,1,0.8h0.2v0.4c-0.7,0-1.5-0.1-2.2-0.1
			c-0.7,0-1.5,0.1-2,0.1V275.7z"/>
		<path fill="#004A97" d="M799.3,276l0-0.3h-0.1c-0.5,0-1.1-0.1-1.1-0.9v-7.3c0-0.8,0.6-0.9,1.1-0.9h0.1v-0.3
			c-0.6,0-1.4,0.1-2.1,0.1c-0.7,0-1.5-0.1-2-0.1v0.3h0.1c0.5,0,1.1,0.1,1.1,0.9v7.3c0,0.8-0.6,0.9-1.1,0.9h-0.1v0.3
			c0.5,0,1.3-0.1,2-0.1C797.9,276,798.7,276,799.3,276 M799.4,276.1c-0.7,0-1.5-0.1-2.2-0.1c-0.7,0-1.5,0.1-2,0.1h-0.1v-0.1v-0.4
			v-0.1h0.1h0.2c0.5,0,1-0.1,1-0.7v-7.3c0-0.7-0.5-0.7-1-0.7h-0.3v-0.1v-0.5h0.1c0.5,0,1.4,0.1,2.1,0.1c0.7,0,1.5-0.1,2.2-0.1h0.1
			v0.1v0.5h-0.1h-0.2c-0.5,0-1,0.1-1,0.7v7.3c0,0.7,0.5,0.7,1,0.7h0.3v0.1L799.4,276.1L799.4,276.1z"/>
		<path fill="#004A97" d="M808.9,273.4L808.9,273.4l0-5.2c0-1.1-0.8-1.3-1.2-1.3h-0.3v-0.4c0.7,0,1.3,0.1,1.9,0.1
			c0.6,0,1.1-0.1,1.7-0.1v0.4h-0.2c-0.6,0-1.2,0.1-1.2,1.8v6.3c0,0.5,0,1,0.1,1.4h-0.5l-7.1-8v5.7c0,1.2,0.2,1.6,1.3,1.6h0.2v0.4
			c-0.6,0-1.2-0.1-1.8-0.1c-0.6,0-1.3,0.1-1.9,0.1v-0.4h0.2c1,0,1.2-0.7,1.2-1.8v-5.8c0-0.8-0.6-1.2-1.3-1.2h-0.2v-0.4
			c0.5,0,1.1,0.1,1.6,0.1c0.4,0,0.8-0.1,1.2-0.1L808.9,273.4z"/>
		<path fill="#004A97" d="M808.9,273.3L808.9,273.3L808.9,273.3L808.9,273.3z M808.9,273.4L808.9,273.4L808.9,273.4z M809.2,276.2
			h0.5c-0.1-0.4-0.1-0.9-0.1-1.3v-6.3c0-1.7,0.7-1.8,1.3-1.8h0.1v-0.3c-0.5,0-1.1,0.1-1.6,0.1c-0.6,0-1.3-0.1-1.9-0.1l0,0.3h0.2
			c0.4,0,1.3,0.2,1.3,1.4l0,5.2l0,0l0,0l-6.2-7c-0.4,0-0.8,0.1-1.2,0.1c-0.5,0-1-0.1-1.5-0.1l0,0.3h0.1c0.7,0,1.3,0.5,1.3,1.3v5.8
			c0,1.1-0.3,1.8-1.3,1.8l-0.1,0v0.3c0.6,0,1.2-0.1,1.8-0.1c0.6,0,1.2,0.1,1.7,0.1v-0.3h-0.2c-1.1,0-1.4-0.5-1.4-1.7v-5.9
			L809.2,276.2z M809.7,276.4l-0.6,0l-7-7.8v5.6c0,1.2,0.2,1.5,1.2,1.6h0.3v0.1v0.5h-0.1c-0.6,0-1.2-0.1-1.8-0.1
			c-0.6,0-1.3,0.1-1.9,0.1h-0.1v-0.1v-0.5h0.1h0.2c0.9,0,1.2-0.6,1.2-1.7v-5.8c0-0.7-0.6-1.2-1.2-1.2h-0.2v-0.1v-0.5h0.1
			c0.5,0,1.1,0.1,1.6,0.1c0.4,0,0.8-0.1,1.3,0l6.1,6.9v-5.1c0-1.1-0.7-1.2-1.1-1.2h-0.4v-0.1v-0.5h0.1c0.7,0,1.3,0.1,1.9,0.1
			c0.6,0,1.1-0.1,1.7-0.1h0.1v0.1v0.5h-0.1h-0.2c-0.6,0-1.2,0.1-1.2,1.7v6.3C809.7,275.4,809.7,275.9,809.7,276.4L809.7,276.4
			L809.7,276.4z"/>
		<path fill="#004A97" d="M813.1,267.1c-1,0-1.1,0.3-1.3,1.3h-0.4c0.1-0.4,0.1-0.8,0.2-1.2c0.1-0.4,0.1-0.8,0.1-1.2h0.3
			c0.1,0.4,0.5,0.4,0.8,0.4h7.2c0.4,0,0.7,0,0.7-0.4l0.3,0.1c-0.1,0.4-0.1,0.7-0.2,1.1c0,0.4,0,0.7,0,1.1l-0.4,0.2
			c0-0.5-0.1-1.3-1-1.3h-2.3v7.4c0,1.1,0.5,1.2,1.1,1.2h0.3v0.4c-0.5,0-1.5-0.1-2.3-0.1c-0.8,0-1.8,0.1-2.3,0.1v-0.4h0.3
			c0.8,0,1.2-0.1,1.2-1.2v-7.4H813.1z"/>
		<path fill="#004A97" d="M818.6,276.1c-0.5,0-1.5-0.1-2.3-0.1c-0.8,0-1.8,0.1-2.3,0.1h-0.1v-0.1v-0.5h0.1h0.3c0.8,0,1.1,0,1.1-1.1
			v-7.3h-2.2v-0.1V267h2.3v7.5c0,1.1-0.4,1.2-1.2,1.2h-0.2v0.3c0.5,0,1.5-0.1,2.3-0.1c0.7,0,1.6,0.1,2.2,0.1v-0.3h-0.2
			c-0.7,0-1.2-0.2-1.2-1.3V267h2.3c0.9,0,1.1,0.8,1.1,1.3l0.3-0.1c0-0.4,0-0.7,0-1.1c0-0.4,0.1-0.7,0.1-1.1l-0.2,0
			c-0.1,0.4-0.5,0.4-0.8,0.4h-7.2h-0.1c-0.3,0-0.7,0-0.8-0.4h-0.2c0,0.4,0,0.8-0.1,1.1c0,0.4-0.1,0.7-0.2,1.1h0.3
			c0.2-1,0.3-1.3,1.3-1.3v0.1v0.1c-1,0-1,0.2-1.2,1.2l0,0h0h-0.5l0-0.1c0.1-0.4,0.1-0.8,0.2-1.2c0.1-0.4,0.1-0.8,0.1-1.2v-0.1h0.1
			h0.4l0,0c0.1,0.4,0.4,0.4,0.7,0.4h0.1h7.2c0.4,0,0.7,0,0.7-0.4l0-0.1l0.1,0l0.4,0.1l0,0.1c-0.1,0.4-0.1,0.7-0.2,1.1
			c0,0.4,0,0.7,0,1.1v0l0,0l-0.5,0.2l0-0.1c0-0.5-0.1-1.3-1-1.3h-2.2v7.3c0,1,0.4,1.1,1.1,1.1h0.3v0.1L818.6,276.1L818.6,276.1z"/>
		<path fill="#004A97" d="M821.5,275.7h0.2c0.5,0,1-0.1,1-0.8v-7.3c0-0.7-0.5-0.8-1-0.8h-0.2v-0.4c0.8,0,2.3,0.1,3.5,0.1
			c1.2,0,2.6-0.1,3.5-0.1c0,0.6,0,1.5,0,2.1l-0.4,0.1c-0.1-0.9-0.2-1.6-1.7-1.6h-1.9v3.6h1.6c0.8,0,1-0.5,1.1-1.2h0.4
			c0,0.5,0,1.1,0,1.6c0,0.5,0,1.1,0,1.6l-0.4,0.1c-0.1-0.8-0.1-1.4-1.1-1.4h-1.7v3.2c0,0.9,0.8,0.9,1.7,0.9c1.7,0,2.4-0.1,2.8-1.7
			l0.4,0.1c-0.2,0.7-0.3,1.5-0.5,2.2c-0.9,0-2.5-0.1-3.7-0.1c-1.2,0-2.9,0.1-3.7,0.1V275.7z"/>
		<path fill="#004A97" d="M828.9,276c0.1-0.7,0.3-1.4,0.4-2.1l-0.3-0.1c-0.4,1.6-1.2,1.7-2.9,1.7c-0.9,0-1.7,0-1.8-1v-3.3h1.7
			c1,0,1.1,0.6,1.1,1.4l0.3-0.1c0-0.5,0-1,0-1.5c0-0.5,0-1,0-1.6h-0.3c-0.1,0.7-0.3,1.2-1.1,1.2h-1.7V267h2c1.4,0,1.7,0.7,1.7,1.6
			l0.3-0.1c0-0.4,0-0.9,0-1.4c0-0.2,0-0.5,0-0.7c-0.9,0-2.3,0.1-3.5,0.1c-1.1,0-2.5-0.1-3.4-0.1v0.3h0.1c0.5,0,1.1,0.1,1.1,0.9v7.3
			c0,0.8-0.6,0.8-1.1,0.9h-0.1v0.3c0.8,0,2.4-0.1,3.6-0.1C826.4,276,828,276,828.9,276 M828.9,276.1c-0.9,0-2.5-0.1-3.7-0.1
			c-1.2,0-2.9,0.1-3.7,0.1h-0.1v-0.1v-0.4v-0.1h0.1h0.2c0.5,0,1-0.1,1-0.7v-7.3c0-0.7-0.5-0.7-1-0.7h-0.3v-0.1v-0.5h0.1
			c0.8,0,2.3,0.1,3.5,0.1c1.2,0,2.6-0.1,3.5-0.1h0.1l0,0.1c0,0.2,0,0.5,0,0.7c0,0.5,0,1,0,1.4l0,0.1l0,0l-0.5,0.1l0-0.1
			c-0.1-0.9-0.2-1.6-1.6-1.6h-1.9l0,3.5h1.6c0.8,0,0.9-0.4,1-1.2l0-0.1h0.1h0.5l0,0.1c0,0.5,0,1.1,0,1.6c0,0.5,0,1.1,0,1.6l0,0l0,0
			l-0.5,0.1l0-0.1c-0.1-0.8-0.1-1.3-1-1.3h-1.6v3.2c0,0.8,0.7,0.8,1.6,0.8c1.7,0,2.3-0.1,2.8-1.6l0-0.1l0.1,0l0.4,0.1l0,0.1
			C829.3,274.6,829.1,275.4,828.9,276.1L828.9,276.1L828.9,276.1z"/>
		<path fill="#004A97" d="M833.1,271.1h0.7c1.4,0,2.1-0.5,2.1-2.2c0-1.2-0.8-2-2-2c-0.4,0-0.6,0-0.8,0.1V271.1z M831.3,267.9
			c0-1-0.6-1.1-1-1.1h-0.2v-0.4c0.4,0,1.3,0.1,2.1,0.1c0.8,0,1.5-0.1,2.2-0.1c1.7,0,3.3,0.5,3.3,2.4c0,1.2-0.8,2-1.9,2.4l2.4,3.5
			c0.4,0.6,0.7,0.8,1.3,0.8v0.4c-0.5,0-0.9-0.1-1.4-0.1c-0.4,0-0.9,0.1-1.3,0.1c-1.1-1.4-2-2.9-2.9-4.5h-0.9v3
			c0,1.1,0.5,1.1,1.1,1.1h0.3v0.4c-0.8,0-1.6-0.1-2.4-0.1c-0.7,0-1.3,0.1-2,0.1v-0.4h0.2c0.5,0,1-0.2,1-0.7V267.9z"/>
		<path fill="#004A97" d="M833.7,271c1.4,0,2.1-0.5,2.1-2.1c0-1.2-0.8-2-2-2c-0.4,0-0.6,0-0.7,0v4H833.7z M833.1,271.2L833.1,271.2
			l-0.1-4.2l0.1,0c0.2,0,0.4-0.1,0.8-0.1c1.3,0,2.1,0.8,2.1,2.1c0,1.7-0.8,2.2-2.2,2.2H833.1z M833.1,271.5h0.9l0,0
			c0.9,1.6,1.8,3.1,2.8,4.5c0.4,0,0.9-0.1,1.3-0.1c0.4,0,0.9,0,1.3,0.1v-0.3c-0.7-0.1-1-0.3-1.3-0.9l-2.4-3.6l0.1,0
			c1.1-0.4,1.9-1.2,1.9-2.4c0-1.9-1.5-2.4-3.2-2.4c-0.7,0-1.4,0.1-2.2,0.1c-0.8,0-1.6-0.1-2.1-0.1v0.3h0.2c0.4,0,1,0.1,1,1.1v7
			c0,0.6-0.5,0.8-1,0.8h-0.2v0.3c0.7,0,1.3-0.1,2-0.1c0.8,0,1.6,0.1,2.3,0.1v-0.3h-0.2c-0.6,0-1.2-0.1-1.2-1.2L833.1,271.5
			L833.1,271.5z M839.5,276.1c-0.5,0-0.9-0.1-1.4-0.1c-0.4,0-0.9,0.1-1.3,0c-1.1-1.4-2-2.9-2.9-4.5h-0.8v2.9c0,1,0.4,1,1.1,1h0.3
			v0.1v0.5h-0.1c-0.8,0-1.6-0.1-2.4-0.1c-0.7,0-1.3,0.1-2,0.1H830v-0.1v-0.5h0.1h0.3c0.5,0,0.9-0.2,0.9-0.7v-7c0-1-0.5-1-0.9-1H830
			v-0.1v-0.5h0.1c0.4,0,1.3,0.1,2.2,0.1c0.8,0,1.5-0.1,2.2-0.1c1.7,0,3.4,0.5,3.4,2.5c0,1.3-0.8,2-1.9,2.5l2.3,3.5
			c0.4,0.6,0.6,0.7,1.3,0.8l0,0v0.1L839.5,276.1L839.5,276.1z"/>
		<path fill="#004A97" d="M848.9,273.4L848.9,273.4l0-5.2c0-1.1-0.8-1.3-1.2-1.3h-0.3v-0.4c0.7,0,1.3,0.1,1.9,0.1
			c0.6,0,1.1-0.1,1.7-0.1v0.4h-0.2c-0.6,0-1.2,0.1-1.2,1.8v6.3c0,0.5,0,1,0.1,1.4h-0.5l-7.1-8v5.7c0,1.2,0.2,1.6,1.3,1.6h0.2v0.4
			c-0.6,0-1.2-0.1-1.8-0.1c-0.6,0-1.3,0.1-1.9,0.1v-0.4h0.2c1,0,1.2-0.7,1.2-1.8v-5.8c0-0.8-0.6-1.2-1.3-1.2h-0.2v-0.4
			c0.5,0,1.1,0.1,1.6,0.1c0.4,0,0.8-0.1,1.2-0.1L848.9,273.4z"/>
		<path fill="#004A97" d="M848.9,273.3L848.9,273.3L848.9,273.3L848.9,273.3z M848.9,273.4L848.9,273.4L848.9,273.4z M849.2,276.2
			h0.5c-0.1-0.4-0.1-0.9-0.1-1.3v-6.3c0-1.7,0.7-1.8,1.3-1.8h0.1v-0.3c-0.5,0-1.1,0.1-1.6,0.1c-0.6,0-1.3-0.1-1.9-0.1v0.3h0.2
			c0.4,0,1.3,0.2,1.3,1.4l0,5.2l0,0l0,0l-6.2-7c-0.4,0-0.8,0.1-1.2,0.1c-0.5,0-1-0.1-1.5-0.1v0.3h0.1c0.7,0,1.3,0.5,1.3,1.3v5.8
			c0,1.1-0.3,1.8-1.3,1.8l-0.1,0v0.3c0.6,0,1.2-0.1,1.8-0.1c0.6,0,1.2,0.1,1.7,0.1v-0.3h-0.2c-1.1,0-1.4-0.5-1.4-1.7v-5.9
			L849.2,276.2z M849.7,276.4l-0.6,0l-7-7.8v5.6c0,1.2,0.2,1.5,1.2,1.6h0.3v0.1v0.5h-0.1c-0.6,0-1.2-0.1-1.8-0.1
			c-0.6,0-1.3,0.1-1.9,0.1h-0.1v-0.1v-0.5h0.1h0.2c0.9,0,1.2-0.6,1.2-1.7v-5.8c0-0.7-0.6-1.2-1.2-1.2h-0.2v-0.1v-0.5h0.1
			c0.5,0,1.1,0.1,1.6,0.1c0.4,0,0.8-0.1,1.3,0l6.1,6.9v-5.1c0-1.1-0.7-1.2-1.1-1.2h-0.4v-0.1v-0.5h0.1c0.7,0,1.3,0.1,1.9,0.1
			c0.6,0,1.1-0.1,1.7-0.1h0.1v0.1v0.5h-0.1h-0.2c-0.6,0-1.2,0.1-1.2,1.7v6.3C849.7,275.4,849.7,275.9,849.7,276.4L849.7,276.4
			L849.7,276.4z"/>
		<path fill="#004A97" d="M855.4,268L855.4,268l-1.3,3.9h2.6L855.4,268z M853.3,274.1c-0.1,0.5-0.3,0.8-0.3,1.1c0,0.4,0.6,0.5,1,0.5
			h0.2v0.4c-0.6,0-1.1-0.1-1.7-0.1c-0.5,0-1,0-1.5,0.1v-0.4h0.1c0.5,0,1-0.3,1.2-0.9l2.2-6.4c0.2-0.5,0.4-1.2,0.5-1.7
			c0.4-0.2,1-0.4,1.3-0.6c0,0,0.1,0,0.1,0c0,0,0.1,0,0.1,0c0,0.1,0.1,0.2,0.1,0.3l2.6,7.3c0.2,0.5,0.3,1,0.5,1.4
			c0.2,0.4,0.5,0.6,0.9,0.6h0.1v0.4c-0.6,0-1.2-0.1-1.9-0.1c-0.7,0-1.4,0-2.1,0.1v-0.4h0.2c0.3,0,0.9-0.1,0.9-0.4
			c0-0.2-0.1-0.6-0.3-1l-0.5-1.6h-3.1L853.3,274.1z"/>
		<path fill="#004A97" d="M855.3,268L855.3,268L855.3,268z M854.1,271.8h2.4l-1.2-3.7L854.1,271.8z M853.9,271.9l1.3-4h0h0v0.1l0,0
			l0,0v-0.1h0l1.3,4H853.9z M856.8,276c0.7,0,1.4-0.1,2-0.1c0.6,0,1.2,0,1.9,0.1v-0.3h0c-0.5,0-0.8-0.2-1-0.6
			c-0.2-0.4-0.3-0.9-0.5-1.4l-2.6-7.3c0-0.1-0.1-0.2-0.1-0.3c0,0,0,0,0,0h0c0,0,0,0-0.1,0c-0.3,0.2-0.8,0.4-1.2,0.6
			c-0.1,0.5-0.3,1.2-0.5,1.7l-2.2,6.4c-0.2,0.6-0.7,0.9-1.3,0.9h0v0.3c0.5,0,1-0.1,1.4-0.1c0.5,0,1.1,0,1.6,0.1v-0.3h-0.1
			c-0.5,0-1.1-0.1-1.1-0.5c0-0.3,0.2-0.6,0.3-1.1l0.1,0l-0.1,0l0.5-1.5h3.2l0.6,1.6c0.2,0.4,0.3,0.8,0.3,1c0,0.4-0.6,0.5-0.9,0.5
			h-0.1V276z M860.7,276.1c-0.6,0-1.2-0.1-1.9-0.1c-0.7,0-1.4,0-2.1,0.1l-0.1,0v-0.1v-0.5h0.1h0.2c0.3,0,0.8-0.1,0.8-0.3
			c0-0.2-0.1-0.5-0.3-1l-0.5-1.6h-3.1l-0.4,1.4c-0.1,0.5-0.3,0.8-0.3,1.1c0,0.3,0.5,0.4,1,0.4h0.2v0.1v0.5l-0.1,0
			c-0.6,0-1.1-0.1-1.7-0.1c-0.5,0-1,0-1.5,0.1l-0.1,0v-0.1v-0.5h0.1h0.1c0.5,0,0.9-0.3,1.1-0.9l2.2-6.4c0.2-0.5,0.4-1.2,0.6-1.8
			c0.4-0.1,1-0.4,1.3-0.6c0,0,0.1,0,0.1,0c0,0,0.1,0,0.2,0.1c0,0.1,0.1,0.2,0.1,0.3l2.6,7.3c0.2,0.5,0.3,1,0.5,1.4
			c0.2,0.4,0.4,0.5,0.9,0.5h0.1v0.1L860.7,276.1L860.7,276.1z"/>
		<path fill="#004A97" d="M861.3,267.1c-1,0-1.1,0.3-1.3,1.3h-0.4c0.1-0.4,0.1-0.8,0.2-1.2c0.1-0.4,0.1-0.8,0.1-1.2h0.3
			c0.1,0.4,0.5,0.4,0.8,0.4h7.2c0.4,0,0.7,0,0.7-0.4l0.3,0.1c-0.1,0.4-0.1,0.7-0.2,1.1c0,0.4,0,0.7,0,1.1l-0.4,0.2
			c0-0.5-0.1-1.3-1-1.3h-2.3v7.4c0,1.1,0.5,1.2,1.2,1.2h0.3v0.4c-0.5,0-1.5-0.1-2.3-0.1c-0.8,0-1.8,0.1-2.3,0.1v-0.4h0.3
			c0.8,0,1.2-0.1,1.2-1.2v-7.4H861.3z"/>
		<path fill="#004A97" d="M866.8,276.1c-0.5,0-1.5-0.1-2.3-0.1c-0.8,0-1.8,0.1-2.3,0.1h-0.1v-0.1v-0.5h0.1h0.3c0.8,0,1.1,0,1.1-1.1
			l0-7.3h-2.2v-0.1V267h2.3v7.5c0,1.1-0.5,1.2-1.2,1.2h-0.2v0.3c0.5,0,1.5-0.1,2.3-0.1c0.7,0,1.7,0.1,2.2,0.1l0-0.3h-0.2
			c-0.7,0-1.2-0.2-1.2-1.3V267h2.3c0.9,0,1.1,0.8,1.1,1.3l0.3-0.1c0-0.4,0-0.7,0-1.1c0-0.4,0.1-0.7,0.1-1.1l-0.2,0
			c-0.1,0.4-0.5,0.4-0.8,0.4H861H861c-0.3,0-0.7,0-0.8-0.4h-0.2c0,0.4,0,0.8-0.1,1.1c0,0.4-0.1,0.7-0.2,1.1h0.3
			c0.2-1,0.3-1.3,1.3-1.3v0.1v0.1c-1,0-1,0.2-1.2,1.2l0,0h0h-0.5l0-0.1c0.1-0.4,0.1-0.8,0.2-1.2c0.1-0.4,0.1-0.8,0.1-1.2v-0.1h0.1
			h0.4l0,0c0.1,0.4,0.3,0.4,0.7,0.4c0,0,0,0,0.1,0h7.2c0.4,0,0.7,0,0.7-0.4l0-0.1l0.1,0l0.4,0.1l0,0.1c-0.1,0.4-0.1,0.7-0.2,1.1
			c0,0.4,0,0.7,0,1.1v0l0,0l-0.5,0.2l0-0.1c0-0.5-0.1-1.3-1-1.3h-2.2v7.3c0,1,0.4,1.1,1.1,1.1h0.3v0.1L866.8,276.1L866.8,276.1z"/>
		<path fill="#004A97" d="M869.8,275.7h0.2c0.5,0,1-0.1,1-0.8v-7.3c0-0.7-0.5-0.8-1-0.8h-0.2v-0.4c0.5,0,1.4,0.1,2.1,0.1
			c0.7,0,1.5-0.1,2.2-0.1v0.4h-0.2c-0.5,0-1,0.1-1,0.8v7.3c0,0.7,0.5,0.8,1,0.8h0.2v0.4c-0.7,0-1.5-0.1-2.2-0.1
			c-0.7,0-1.5,0.1-2,0.1V275.7z"/>
		<path fill="#004A97" d="M873.9,276v-0.3h-0.1c-0.5,0-1.1-0.1-1.1-0.9v-7.3c0-0.8,0.6-0.9,1.1-0.9h0.1v-0.3c-0.6,0-1.4,0.1-2.1,0.1
			c-0.7,0-1.5-0.1-2-0.1v0.3h0.1c0.5,0,1.1,0.1,1.1,0.9v7.3c0,0.8-0.6,0.9-1.1,0.9h-0.1v0.3c0.5,0,1.3-0.1,2-0.1
			C872.5,276,873.3,276,873.9,276 M874,276.1c-0.7,0-1.5-0.1-2.2-0.1c-0.7,0-1.5,0.1-2,0.1h-0.1v-0.1v-0.4v-0.1h0.1h0.2
			c0.5,0,1-0.1,1-0.7v-7.3c0-0.7-0.5-0.7-1-0.7h-0.3v-0.1v-0.5h0.1c0.5,0,1.4,0.1,2.1,0.1c0.7,0,1.5-0.1,2.2-0.1h0.1v0.1v0.5H874
			h-0.2c-0.5,0-1,0.1-1,0.7v7.3c0,0.7,0.5,0.7,1,0.7h0.3v0.1L874,276.1L874,276.1z"/>
		<path fill="#004A97" d="M879.7,275.7c2.7,0,3.2-2.4,3.2-4.4c0-2-1.1-4.5-3.4-4.5c-2.4,0-3.1,2.2-3.1,4
			C876.4,273.3,877.5,275.7,879.7,275.7 M879.5,266.2c3,0,5.3,1.8,5.3,4.8c0,3.2-2.3,5.3-5.2,5.3c-2.9,0-5.2-2-5.2-5
			C874.4,268.4,876.7,266.2,879.5,266.2"/>
		<path fill="#004A97" d="M876.3,270.8c0-1.9,0.7-4.1,3.2-4.1c2.4,0,3.5,2.5,3.5,4.5c0,2-0.5,4.5-3.2,4.5v-0.1v-0.1
			c2.6,0,3.1-2.3,3.1-4.3c0-2-1.1-4.4-3.3-4.4c-2.4,0-3.1,2.1-3.1,4c0,2.5,1.1,4.8,3.3,4.8v0.1v0.1
			C877.4,275.7,876.3,273.3,876.3,270.8 M874.4,271.3c0-2.9,2.3-5.2,5.2-5.2v0.1v0.1c-2.9,0-5.1,2.2-5.1,5.1c0,2.9,2.2,4.9,5.1,4.9
			c2.9,0,5.2-2.1,5.2-5.2c0-2.9-2.3-4.7-5.3-4.7v-0.1v-0.1c3,0,5.4,1.9,5.4,4.8c0,3.2-2.3,5.4-5.3,5.4
			C876.6,276.3,874.4,274.3,874.4,271.3"/>
		<path fill="#004A97" d="M894.2,273.4L894.2,273.4l0-5.2c0-1.1-0.8-1.3-1.2-1.3h-0.3v-0.4c0.6,0,1.3,0.1,1.9,0.1
			c0.6,0,1.1-0.1,1.7-0.1v0.4h-0.2c-0.6,0-1.2,0.1-1.2,1.8v6.3c0,0.5,0,1,0.1,1.4h-0.5l-7.1-8v5.7c0,1.2,0.2,1.6,1.3,1.6h0.2v0.4
			c-0.6,0-1.2-0.1-1.8-0.1c-0.6,0-1.3,0.1-1.9,0.1v-0.4h0.2c1,0,1.2-0.7,1.2-1.8v-5.8c0-0.8-0.6-1.2-1.3-1.2h-0.2v-0.4
			c0.5,0,1.1,0.1,1.6,0.1c0.4,0,0.8-0.1,1.2-0.1L894.2,273.4z"/>
		<path fill="#004A97" d="M894.2,273.3L894.2,273.3L894.2,273.3L894.2,273.3z M894.2,273.4L894.2,273.4L894.2,273.4z M894.5,276.2
			h0.5c-0.1-0.4-0.1-0.9-0.1-1.3v-6.3c0-1.7,0.7-1.8,1.3-1.8h0.2v-0.3c-0.5,0-1.1,0.1-1.6,0.1c-0.6,0-1.3-0.1-1.9-0.1v0.3h0.2
			c0.4,0,1.3,0.2,1.3,1.4l0,5.2l0,0l0,0l-6.2-7c-0.4,0-0.8,0.1-1.2,0.1c-0.5,0-1-0.1-1.5-0.1v0.3h0.1c0.7,0,1.3,0.5,1.3,1.3v5.8
			c0,1.1-0.3,1.8-1.3,1.8l-0.1,0v0.3c0.6,0,1.2-0.1,1.8-0.1c0.6,0,1.2,0.1,1.7,0.1v-0.3h-0.2c-1.1,0-1.4-0.5-1.4-1.7v-5.9
			L894.5,276.2z M895,276.4l-0.6,0l-7-7.8v5.6c0,1.2,0.2,1.5,1.2,1.6h0.3v0.1v0.5h-0.1c-0.6,0-1.2-0.1-1.8-0.1
			c-0.6,0-1.3,0.1-1.9,0.1h-0.1v-0.1v-0.5h0.1h0.2c0.9,0,1.2-0.6,1.2-1.7v-5.8c0-0.7-0.6-1.2-1.2-1.2h-0.2v-0.1v-0.5h0.1
			c0.5,0,1.1,0.1,1.6,0.1c0.4,0,0.8-0.1,1.3,0l6.1,6.9v-5.1c0-1.1-0.7-1.2-1.1-1.2h-0.4v-0.1v-0.5h0.1c0.7,0,1.3,0.1,1.9,0.1
			c0.6,0,1.1-0.1,1.7-0.1h0.1v0.1v0.5h-0.1h-0.2c-0.6,0-1.2,0.1-1.2,1.7v6.3C895,275.4,895,275.9,895,276.4L895,276.4L895,276.4z"/>
		<path fill="#004A97" d="M900.6,268L900.6,268l-1.3,3.9h2.6L900.6,268z M898.6,274.1c-0.1,0.5-0.3,0.8-0.3,1.1c0,0.4,0.6,0.5,1,0.5
			h0.2v0.4c-0.6,0-1.1-0.1-1.7-0.1c-0.5,0-1,0-1.5,0.1v-0.4h0.1c0.5,0,1-0.3,1.2-0.9l2.2-6.4c0.2-0.5,0.4-1.2,0.5-1.7
			c0.4-0.2,1-0.4,1.3-0.6c0,0,0.1,0,0.1,0c0,0,0.1,0,0.1,0c0,0.1,0.1,0.2,0.1,0.3l2.5,7.3c0.2,0.5,0.3,1,0.5,1.4
			c0.2,0.4,0.5,0.6,0.9,0.6h0.1v0.4c-0.6,0-1.2-0.1-1.9-0.1c-0.7,0-1.4,0-2.1,0.1v-0.4h0.2c0.3,0,0.9-0.1,0.9-0.4
			c0-0.2-0.1-0.6-0.3-1l-0.5-1.6H899L898.6,274.1z"/>
		<path fill="#004A97" d="M900.6,268L900.6,268L900.6,268z M899.4,271.8h2.4l-1.2-3.7L899.4,271.8z M899.2,271.9l1.3-4h0h0v0.1l0,0
			l0,0v-0.1h0l1.3,4H899.2z M902,276c0.7,0,1.4-0.1,2-0.1c0.6,0,1.2,0,1.9,0.1l0-0.3h0c-0.5,0-0.8-0.2-1-0.6
			c-0.2-0.4-0.3-0.9-0.5-1.4l-2.6-7.3c0-0.1-0.1-0.2-0.1-0.3c0,0,0,0,0,0h0c0,0,0,0-0.1,0c-0.3,0.2-0.8,0.4-1.2,0.6
			c-0.1,0.5-0.3,1.2-0.5,1.7l-2.2,6.4c-0.2,0.6-0.7,0.9-1.3,0.9h0v0.3c0.5,0,1-0.1,1.4-0.1c0.5,0,1.1,0,1.6,0.1v-0.3h-0.1
			c-0.5,0-1.1-0.1-1.1-0.5c0-0.3,0.2-0.6,0.3-1.1l0.1,0l-0.1,0l0.5-1.5h3.2l0.6,1.6c0.2,0.4,0.3,0.8,0.3,1c0,0.4-0.6,0.5-0.9,0.5
			H902V276z M906,276.1c-0.6,0-1.2-0.1-1.9-0.1c-0.7,0-1.4,0-2.1,0.1l-0.1,0v-0.1v-0.5h0.1h0.2c0.3,0,0.8-0.1,0.8-0.3
			c0-0.2-0.1-0.5-0.3-1l-0.5-1.6h-3.1l-0.4,1.4c-0.1,0.5-0.3,0.8-0.3,1.1c0,0.3,0.5,0.4,1,0.4h0.2v0.1v0.5l-0.1,0
			c-0.6,0-1.1-0.1-1.7-0.1c-0.5,0-1,0-1.5,0.1l-0.1,0v-0.1v-0.5h0.1h0.1c0.5,0,1-0.3,1.2-0.9l2.2-6.4c0.2-0.5,0.4-1.2,0.6-1.8
			c0.4-0.2,1-0.4,1.3-0.6c0,0,0.1,0,0.1,0c0,0,0.1,0,0.2,0.1c0,0.1,0.1,0.2,0.1,0.3l2.6,7.3c0.2,0.5,0.3,1,0.5,1.4
			c0.2,0.4,0.4,0.5,0.9,0.5h0.1v0.1L906,276.1L906,276.1z"/>
		<path fill="#004A97" d="M909.5,274.7c0,0.6,0.4,0.7,0.8,0.8c0.6,0,1.2,0,1.8,0c0.6-0.1,1.1-0.4,1.3-0.7c0.2-0.3,0.3-0.7,0.4-1h0.4
			c-0.2,0.8-0.3,1.6-0.5,2.4c-1.2,0-2.4-0.1-3.7-0.1c-1.2,0-2.4,0.1-3.7,0.1v-0.4h0.2c0.5,0,1-0.1,1-0.9v-7.1c0-0.7-0.5-0.8-1-0.8
			h-0.2v-0.4c0.7,0,1.5,0.1,2.2,0.1c0.7,0,1.4-0.1,2.1-0.1v0.4h-0.3c-0.5,0-0.9,0-0.9,0.7V274.7z"/>
		<path fill="#004A97" d="M913.7,276c0.2-0.8,0.3-1.5,0.5-2.2h-0.3c-0.1,0.3-0.2,0.7-0.4,1c-0.3,0.4-0.8,0.7-1.4,0.8
			c-0.4,0-0.7,0.1-1.1,0.1c-0.3,0-0.5,0-0.8,0c-0.5-0.1-0.9-0.2-0.9-0.8v-7.2c0-0.8,0.5-0.8,1-0.8h0.3v-0.3c-0.7,0-1.4,0.1-2,0.1
			c-0.7,0-1.4-0.1-2.1-0.1v0.3h0.1c0.5,0,1.1,0.1,1.1,0.9v7.1c0,0.9-0.6,1-1.1,1h-0.1v0.3c1.2,0,2.4-0.1,3.6-0.1
			C911.3,276,912.5,276,913.7,276 M913.8,276.1c-1.2,0-2.4-0.1-3.7-0.1c-1.2,0-2.4,0.1-3.7,0.1h-0.1v-0.1v-0.5h0.1h0.2
			c0.5,0,1,0,1-0.9v-7.1c0-0.7-0.5-0.7-1-0.7h-0.3v-0.1v-0.5h0.1c0.7,0,1.5,0.1,2.2,0.1c0.7,0,1.4-0.1,2.1-0.1h0.1v0.1v0.5h-0.1
			h-0.3c-0.5,0-0.9,0-0.9,0.7v7.2c0,0.5,0.3,0.7,0.8,0.7c0.2,0,0.5,0,0.8,0c0.3,0,0.7,0,1.1-0.1c0.6-0.1,1.1-0.4,1.3-0.7
			c0.2-0.3,0.3-0.7,0.4-1l0,0h0h0.5l0,0.1C914.2,274.5,914,275.3,913.8,276.1L913.8,276.1L913.8,276.1z"/>
		<path fill="#004A97" d="M913.9,267.5h0.2c0.2,0,0.3-0.1,0.3-0.4c0-0.2-0.1-0.3-0.3-0.3h-0.2V267.5z M913.4,268.2L913.4,268.2
			c0.2-0.1,0.2-0.1,0.2-0.2V267c0-0.2,0-0.2-0.2-0.2v-0.1h0.7c0.3,0,0.5,0.1,0.5,0.4c0,0.2-0.1,0.4-0.3,0.4l0.2,0.3
			c0.1,0.2,0.2,0.3,0.3,0.3v0h-0.3c-0.1,0-0.3-0.3-0.5-0.7h-0.2v0.5c0,0.1,0,0.1,0.2,0.1v0.1H913.4z M914.1,268.7
			c0.7,0,1.2-0.6,1.2-1.2c0-0.6-0.5-1.2-1.2-1.2c-0.7,0-1.2,0.6-1.2,1.2C913,268.1,913.5,268.7,914.1,268.7 M914.1,266
			c0.8,0,1.5,0.6,1.5,1.5c0,0.8-0.6,1.5-1.5,1.5c-0.8,0-1.5-0.6-1.5-1.5C912.7,266.7,913.3,266,914.1,266"/>
	</g>
	
		<text transform="matrix(1 0 0 1 430.4947 405.0742)" fill="#FFFFFF" font-family="'HelveticaNeue-CondensedBold'" font-size="37.8656">CHF</text>
	
		<text transform="matrix(3.660256e-07 -1 1 3.660250e-07 501.9345 508.7636)" fill="#FFFFFF" font-family="'HelveticaNeue-CondensedBold'" font-size="60.8852">10</text>
	<g>
		<path fill="#FFFFFF" d="M651,370v145h-87V370H651 M654.8,366h-95c0,0,0.1,0.4,0.1,0.4v153c0,0-0.2-0.4-0.1-0.4h95
			c0,0,0.2,0.5,0.2,0.4v-153C655,366.4,654.8,366,654.8,366L654.8,366z"/>
	</g>
	
		<text transform="matrix(1 0 0 1 570.3443 405.0742)" fill="#FFFFFF" font-family="'HelveticaNeue-CondensedBold'" font-size="37.8656">CHF</text>
	
		<text transform="matrix(3.660256e-07 -1 1 3.660250e-07 641.784 508.7637)" fill="#FFFFFF" font-family="'HelveticaNeue-CondensedBold'" font-size="60.8852">20</text>
	<g>
		<path fill="#FFFFFF" d="M791,370v145h-87V370H791 M794.7,366h-95c0,0,0.3,0.4,0.3,0.4v153c0,0-0.3-0.4-0.3-0.4h95
			c0,0,0.3,0.5,0.3,0.4v-153C795,366.4,794.7,366,794.7,366L794.7,366z"/>
	</g>
	
		<text transform="matrix(1 0 0 1 710.1933 405.0742)" fill="#FFFFFF" font-family="'HelveticaNeue-CondensedBold'" font-size="37.8656">CHF</text>
	
		<text transform="matrix(3.660256e-07 -1 1 3.660250e-07 781.6346 508.7638)" fill="#FFFFFF" font-family="'HelveticaNeue-CondensedBold'" font-size="60.8852">50</text>
	<g>
		<path fill="#FFFFFF" d="M931,370v145h-87V370H931 M934.5,366h-95c0,0,0.4,0.4,0.4,0.4v153c0,0-0.5-0.4-0.4-0.4h95
			c0,0,0.5,0.5,0.5,0.4v-153C935,366.4,934.5,366,934.5,366L934.5,366z"/>
	</g>
	
		<text transform="matrix(1 0 0 1 850.0419 405.0742)" fill="#FFFFFF" font-family="'HelveticaNeue-CondensedBold'" font-size="37.8656">CHF</text>
	
		<text transform="matrix(3.660256e-07 -1 1 3.660250e-07 921.4832 508.7638)" fill="#FFFFFF" font-family="'HelveticaNeue-CondensedBold'" font-size="60.8852">100</text>
	<g>
		<path fill="#FFFFFF" d="M371,574v145h-87V574H371 M375.1,570h-95c0,0-0.2-0.4-0.2-0.4v153c0,0,0.1,0.4,0.2,0.4h95
			c0,0-0.1-0.4-0.1-0.4v-153C375,569.6,375.1,570,375.1,570L375.1,570z"/>
	</g>
	
		<text transform="matrix(1 0 0 1 289.4521 608.251)" fill="#FFFFFF" font-family="'HelveticaNeue-CondensedBold'" font-size="37.8656">EUR</text>
	
		<text transform="matrix(3.660256e-07 -1 1 3.660250e-07 362.0838 711.9403)" fill="#FFFFFF" font-family="'HelveticaNeue-CondensedBold'" font-size="60.8852">5</text>
	<g>
		<path fill="#FFFFFF" d="M511,574v145h-87V574H511 M515,570h-95c0,0,0-0.4,0-0.4v153c0,0,0,0.4,0,0.4h95c0,0,0-0.4,0-0.4v-153
			C515,569.6,515,570,515,570L515,570z"/>
	</g>
	
		<text transform="matrix(1 0 0 1 429.3017 608.251)" fill="#FFFFFF" font-family="'HelveticaNeue-CondensedBold'" font-size="37.8656">EUR</text>
	
		<text transform="matrix(3.660256e-07 -1 1 3.660250e-07 501.9334 711.9404)" fill="#FFFFFF" font-family="'HelveticaNeue-CondensedBold'" font-size="60.8852">10</text>
	<g>
		<path fill="#FFFFFF" d="M651,574v145h-87V574H651 M654.8,570h-95c0,0,0.1-0.4,0.1-0.4v153c0,0-0.2,0.4-0.1,0.4h95
			c0,0,0.2-0.4,0.2-0.4v-153C655,569.6,654.8,570,654.8,570L654.8,570z"/>
	</g>
	
		<text transform="matrix(1 0 0 1 569.1499 608.251)" fill="#FFFFFF" font-family="'HelveticaNeue-CondensedBold'" font-size="37.8656">EUR</text>
	
		<text transform="matrix(3.660256e-07 -1 1 3.660250e-07 641.7821 711.9405)" fill="#FFFFFF" font-family="'HelveticaNeue-CondensedBold'" font-size="60.8852">20</text>
	<g>
		<path fill="#FFFFFF" d="M791,574v145h-87V574H791 M794.7,570h-95c0,0,0.3-0.4,0.3-0.4v153c0,0-0.3,0.4-0.3,0.4h95
			c0,0,0.3-0.4,0.3-0.4v-153C795,569.6,794.7,570,794.7,570L794.7,570z"/>
	</g>
	
		<text transform="matrix(1 0 0 1 708.9995 608.251)" fill="#FFFFFF" font-family="'HelveticaNeue-CondensedBold'" font-size="37.8656">EUR</text>
	
		<text transform="matrix(3.660256e-07 -1 1 3.660250e-07 781.6317 711.9405)" fill="#FFFFFF" font-family="'HelveticaNeue-CondensedBold'" font-size="60.8852">50</text>
	<g>
		<path fill="#FFFFFF" d="M931,574v145h-87V574H931 M934.5,570h-95c0,0,0.4-0.4,0.4-0.4v153c0,0-0.5,0.4-0.4,0.4h95
			c0,0,0.5-0.4,0.5-0.4v-153C935,569.6,934.5,570,934.5,570L934.5,570z"/>
	</g>
	
		<text transform="matrix(1 0 0 1 848.8477 608.251)" fill="#FFFFFF" font-family="'HelveticaNeue-CondensedBold'" font-size="37.8656">EUR</text>
	
		<text transform="matrix(3.660256e-07 -1 1 3.660250e-07 921.4822 711.9406)" fill="#FFFFFF" font-family="'HelveticaNeue-CondensedBold'" font-size="60.8852">100</text>
	<line fill="none" stroke="#FFFFFF" stroke-width="2" stroke-miterlimit="10" x1="280.1" y1="328.5" x2="934.5" y2="328.5"/>
</g>
</svg>
