<?xml version="1.0" encoding="utf-8"?>
<!-- Generator: Adobe Illustrator 17.1.0, SVG Export Plug-In . SVG Version: 6.00 Build 0)  -->
<!DOCTYPE svg PUBLIC "-//W3C//DTD SVG 1.1//EN" "http://www.w3.org/Graphics/SVG/1.1/DTD/svg11.dtd">
<svg version="1.1" id="Ebene_1" xmlns:sketch="http://www.bohemiancoding.com/sketch/ns"
	 xmlns="http://www.w3.org/2000/svg" xmlns:xlink="http://www.w3.org/1999/xlink" x="0px" y="0px" viewBox="0 0 960 560"
	 enable-background="new 0 0 960 560" xml:space="preserve">
<g>
	<ellipse id="Oval_1_" fill="#FFFFFF" cx="820" cy="326.8" rx="86.7" ry="82.5"/>
	<path id="Shape_1_" fill="#FFFFFF" d="M780.8,427.9c-53.6,0-95,41.3-95,90.8V593c0,33,268.2,33,268.2,0v-74.3
		c0-49.5-43.3-90.8-95-90.8L780.8,427.9L780.8,427.9z"/>
</g>
<g>
	<ellipse id="Oval" fill="#FFFFFF" cx="462" cy="164.6" rx="84.4" ry="84.4"/>
	<path id="Shape" fill="#FFFFFF" d="M406.3,278c-51.9,0-94.1,42.2-94.1,94.1V589c0,38.4,299.5,38.4,299.5,0V372
		c0-51.9-42.2-94.1-94.1-94.1H406.3V278z"/>
</g>
</svg>
