<?xml version="1.0" encoding="utf-8"?>
<!-- Generator: Adobe Illustrator 17.1.0, SVG Export Plug-In . SVG Version: 6.00 Build 0)  -->
<!DOCTYPE svg PUBLIC "-//W3C//DTD SVG 1.1//EN" "http://www.w3.org/Graphics/SVG/1.1/DTD/svg11.dtd">
<svg version="1.1" id="Layer_1" xmlns="http://www.w3.org/2000/svg" xmlns:xlink="http://www.w3.org/1999/xlink" x="0px" y="0px"
	 width="64px" height="64px" viewBox="0 0 64 64" enable-background="new 0 0 64 64" xml:space="preserve">
<g>
	<polygon fill="#FFFFFF" points="21.9,19.3 22.1,18.6 21.5,18.5 20.9,18.7 21.3,19.5 	"/>
	<polygon fill="#FFFFFF" points="23.5,21 22.7,21 22.2,21.6 22.1,22.2 22.5,22.4 	"/>
	<polygon fill="#FFFFFF" points="24,20.9 24,20.4 23.9,20.4 23.9,20.1 23,20.1 22.3,20.4 22.2,20.7 22.7,20.9 	"/>
	<polygon fill="#FFFFFF" points="24.3,20.3 24.3,20.9 24.7,20.8 	"/>
	<path fill="#FFFFFF" d="M53.8,27.3c0-0.1-0.1-0.3-0.1-0.4L53.6,27L53.8,27.3z"/>
	<polygon fill="#FFFFFF" points="20.2,15.2 20.2,14.9 19.4,14.9 19.4,15.1 18.9,15.1 18.9,15.1 18.9,15.5 20,15.5 	"/>
	<polygon fill="#FFFFFF" points="25.7,22.2 25.7,21.8 24.9,21.5 24.8,21.5 24.8,21.9 25,22.2 	"/>
	<path fill="#FFFFFF" d="M51.1,23.3l-0.1-1l-0.6,0.3L50,23.9L49.2,23l0-0.9l-0.8-0.7L48,21.1h-1l0.3,0.9l1.2,0.6l0.2,0.2l-0.3,0.1
		l0,0.7l-0.6,0.2l-0.5-0.1l-0.3-0.4l0.8,0l0.2-0.3l-1.7-1.2l-0.1-0.5L45.5,22l-0.7-0.1l-1.1,1.4l-0.2,0.6l-0.7,0.1l-1,0l-0.6-0.3
		L41,22.4l0.2-0.6l1.1-0.2l1.1,0.2l0.1-0.6L43,21.1l0.2-1l1.2-0.2l0.8-1.1l0.8-0.1l0.8,0.1H47l-0.2-1.1L46,18l-0.3-0.8l-0.5-0.1
		L45,16.6l0.4-0.5l1-0.4l0.3-0.5c-3.9-3.5-9.1-5.6-14.7-5.6c-4.9,0-9.4,1.6-13.1,4.3l1.1,0l0.5,0.3l0.9,0.2l0.1,0.4l1.5,0.1
		l-0.2-0.5l-1.3,0l0.3-0.3l-0.1-0.4h-1.2l1.3-1h1.3l0.6,0.8l1,0.1l0.6-0.6l0.4,0.2L24.9,14c0,0-1.1,0-1.1,0c0.1,0,0.1,0.8,0.1,0.8
		l1.4,0l0.1-0.4l0.9-0.1l0.1-0.6l-0.6-0.1l0.2-0.5l0.4-0.1l1.5,0.1l-0.8,0.7l0.1,0.6l0.9,0.1l-0.1-1l0.8-0.4l1.4-0.2l2.1,0.9v0.8
		l0.7,0.2l-0.3,0.6h-0.9l-0.3,0.7l-2.2-0.5l1.7-0.9l-0.6-0.6L29,14.4l-0.1,0.1l0,0l0,0L28.4,15l-0.7,0.1l0.1,0.3l0.2,0.1l0,0.1
		l-0.6,0.1l0,0.3l-0.5,0l-0.1-0.7l-1,0.3l-2,1.2l0.2,0.8l0.6,0.4l1.1,0.2v1.3l0.5-0.1l0.5-1l1.2-0.4v-1.5l0.7-0.5l1.6,0.4l-0.1,1
		h0.4l1.2-0.6l0.1,1.3l0.9,0.5l0,0.8l-0.8,0.3l0.1,0.3l1,0.4l0,0.5l-0.3,0c0,0,0,0,0,0l-1.2-0.4l-0.1-0.4h0l0.4-0.2v-0.4l-0.4-0.1
		L31,19.8l-0.7,0.1l-0.1,0v0L30,20l-0.2-0.4l-0.2-0.1h-0.5l-0.2,0.2v0.4l0.4,0.1l0.4,0.1l-0.1,0l-0.4,0.4l-0.2-0.2l-0.4-0.1l-1,0.9
		l0.1,0.1l-1.5,0.8L25,23.7l-0.1,0.6l-1.4,0.9l-0.7,0.7l0.1,1.4L22,26.9l0-0.8l-2.6,0L18,26.7l-0.6,1.1l-0.2,0.9l0.4,0.8l1.1,0.1
		l1.7-1.1l0.1,0.6l-0.5,1l1.3,0.2l0.1,2l1.8,0.3l1.1-1.3l1.4,0.3l0.5,0.7l1.3-0.1l0-0.4l0.7,0.4l0.8,1.3l1.4,0l0.5,0.9l0.1,1.1
		l1.6,0.6l2,0l0.6,0.9l0.9,0.3l-0.2,0.8l-1,1.2L34.6,42l-0.9,0.7l-1.3,0l-0.4,0.7l0.3,1.4L31,46.5l-0.4,0.8L29.2,48l-0.9,0.1l0,0.4
		l0.6,0.2l-0.1,0.4l-0.5,0.5l0.3,0.4l0.7,0l0,0.5L29.1,51L29,51.4l1,0.8l-0.1,0.4l-1.3,0l-1.3-1.2l-1-1.8l0.1-1.7l-0.8-1l0.3-1.8
		L25.4,45v-3.8c0,0-1.3-1-1.4-1s-0.7-0.2-0.7-0.2l-0.1-0.7l-1.7-2.1l0.2-0.8l0.1-1.2l1.2-0.8L22.7,33L21,32.9l-1.3-1.5l-0.9-0.3
		L18.1,31l0.1-0.6l-0.8-0.1v0.3l-1.9-0.5L14.7,29l0.3-0.6l-1.2-1.8l-0.2-1.3h-0.5l0.2,1.3l0.9,1.3L14,28.4l-0.7-0.1l-0.9-1.5V25
		l-0.9-0.4v-1.3C10.3,26,9.7,28.9,9.7,32c0,12.3,10,22.3,22.3,22.3c7,0,13.2-3.2,17.3-8.2h-0.7v-1.5l-0.9-1.1v-1.8L47.1,41L47,40.3
		l0.8-1.6l-1.6-2.8l0.2-1.9L45,33.9l-0.5-0.5h-0.9l-0.5,0.4h-1.7L41.4,34h-0.9l-2.1-2.4l0-1.9l0.4-0.1l0.1-0.7h-0.5L38.1,28l2.5-1.8
		V25l1.2-0.7l0.5,0h1L44,24l2.5-0.2V25l2,0.5l0.4,0.3h0.4v-0.7l1.1-0.1l1.1,0.8h1.8l0.1-0.1c-0.2-0.6-0.4-1.2-0.6-1.8l-1.2,0
		L51.1,23.3z M42.3,17.6l0.2-0.3l0.7-0.1l0.2,0.9l0.4,0.6L44,19l0.5,0.2l-0.4,0.5l-0.9,0.1h-0.6l0.1-0.8l0.5-0.1l0-0.4l-0.5-0.3
		l-0.4-0.2L42.3,17.6L42.3,17.6z M41.1,19l0.4-0.7l0.6-0.1l0.4,0.2l0,0.5l-0.9,0.6h-0.5C41.1,19.4,41.1,19,41.1,19z M28.9,21.7
		l-0.5,0l0-0.3l0.2-0.3l0.3,0.2L28.9,21.7z M30.6,21.2l-0.3,0l-0.1,0.3l-0.2,0.2l-0.4,0c0-0.1,0-0.2,0-0.2h-0.2v-0.3H30l0.1-0.3
		l0.3,0l0.3,0.1L30.6,21.2z"/>
	<path fill="#FFFFFF" d="M51.7,22v1l0.4-0.1l0.2,0c-0.2-0.4-0.3-0.7-0.5-1.1L51.7,22z"/>
	<path fill="#FFFFFF" d="M20.2,16.6c0,0,0-0.5,0-0.5s-0.5,0.1-0.5,0.1l-0.8,0.2l0.2,0.2L20.2,16.6z"/>
	<polygon fill="#FFFFFF" points="25.6,21.2 25.3,21 25.1,21.2 25.4,21.4 	"/>
	<path fill="#FFFFFF" d="M23.9,21.8l0.4-0.1l0.3-0.2V21h-0.8C23.9,21.1,23.9,21.8,23.9,21.8z"/>
	<path fill="#FFFFFF" d="M54.6,23l-0.1-0.4l-0.1-0.1C54.5,22.7,54.5,22.9,54.6,23L54.6,23z"/>
	<polygon fill="#FFFFFF" points="23.9,22.2 23.6,22.2 23.5,22.7 24.2,22.7 24.5,22.4 24.5,21.9 24,22 	"/>
	<path fill="#FFFFFF" d="M13.2,20.1c-0.3,0.5-0.6,1-0.9,1.5l0.9-1.1L13.2,20.1z"/>
	<path fill="#FFFFFF" d="M47.3,18.3l0.1,0.3l1.5,0l0.4-0.7c-0.4-0.4-0.7-0.8-1.1-1.3l0,1.1L47.3,18.3z"/>
	<polygon fill="#FFFFFF" points="43.1,18.5 43.2,18.9 42.6,19 42.6,19.7 43.2,19.7 44.1,19.7 44.5,19.1 44,18.9 43.8,18.7 43.4,18 
		43.2,17.1 42.5,17.3 42.3,17.6 42.3,17.9 42.6,18.2 	"/>
	<polygon fill="#FFFFFF" points="42.5,18.8 42.5,18.3 42.1,18.1 41.5,18.3 41.1,19 41.1,19.4 41.6,19.4 	"/>
	<path fill="#FFFFFF" d="M30.1,20.8L30,21.2h-0.6v0.3h0.2c0,0,0,0.1,0,0.2l0.4,0l0.2-0.2l0.1-0.3l0.3,0l0.1-0.3l-0.3-0.1L30.1,20.8z
		"/>
	<polygon fill="#FFFFFF" points="28.5,21.4 28.5,21.8 28.9,21.7 29,21.4 28.7,21.2 	"/>
	<path fill="#FFFFFF" d="M56.3,31.7c0-0.7,0-1.4-0.1-2.1c-0.2-2.3-0.8-4.5-1.6-6.6c-0.1-0.2-0.1-0.3-0.2-0.5c-1.1-2.6-2.7-5-4.6-7
		c-0.1-0.1-0.3-0.3-0.4-0.4c-0.4-0.4-0.7-0.7-1.1-1.1C44,10.1,38.3,7.7,32,7.7c-6.3,0-12.1,2.4-16.5,6.4c-1,0.9-1.9,1.9-2.8,3
		C9.6,21.3,7.7,26.4,7.7,32c0,13.4,10.9,24.3,24.3,24.3c9.4,0,17.6-5.4,21.6-13.3c0.9-1.7,1.5-3.5,2-5.4c0.1-0.5,0.2-1,0.3-1.4
		c0.2-1.4,0.4-2.8,0.4-4.2C56.3,31.9,56.3,31.8,56.3,31.7z M51.7,22l0.1-0.2c0.2,0.4,0.4,0.7,0.5,1.1l-0.2,0L51.7,23V22z M48.2,17.8
		l0-1.1c0.4,0.4,0.8,0.8,1.1,1.3l-0.4,0.7l-1.5,0l-0.1-0.3L48.2,17.8z M18.9,15.1L18.9,15.1l0.5,0l0-0.2h0.8v0.3L20,15.5h-1.1
		L18.9,15.1L18.9,15.1z M19.7,16.2c0,0,0.5-0.1,0.5-0.1s0,0.5,0,0.5l-1.1,0.1l-0.2-0.2L19.7,16.2z M53.3,25.8h-1.8L50.4,25l-1.1,0.1
		v0.7h-0.4l-0.4-0.3l-2-0.5v-1.3L44,24l-0.8,0.4h-1l-0.5,0L40.6,25v1.3L38.1,28l0.2,0.8h0.5l-0.1,0.7l-0.4,0.1l0,1.9l2.1,2.4h0.9
		l0.1-0.1h1.7l0.5-0.4h0.9l0.5,0.5l1.4,0.1l-0.2,1.9l1.6,2.8L47,40.3l0.1,0.7l0.7,0.6v1.8l0.9,1.1v1.5h0.7c-4.1,5-10.3,8.2-17.3,8.2
		c-12.3,0-22.3-10-22.3-22.3c0-3.1,0.6-6,1.8-8.7v-0.7l0.8-1c0.3-0.5,0.6-1,0.9-1.5l0,0.4l-0.9,1.1c-0.3,0.5-0.6,1.1-0.8,1.7v1.3
		l0.9,0.4v1.8l0.9,1.5l0.7,0.1l0.1-0.5l-0.9-1.3l-0.2-1.3h0.5l0.2,1.3l1.2,1.8L14.7,29l0.8,1.2l1.9,0.5v-0.3l0.8,0.1L18.1,31
		l0.6,0.1l0.9,0.3l1.3,1.5l1.7,0.1l0.2,1.4l-1.2,0.8l-0.1,1.2l-0.2,0.8l1.7,2.1l0.1,0.7c0,0,0.6,0.2,0.7,0.2c0.1,0,1.4,1,1.4,1V45
		l0.5,0.1l-0.3,1.8l0.8,1l-0.1,1.7l1,1.8l1.3,1.2l1.3,0l0.1-0.4l-1-0.8l0.1-0.4l0.2-0.5l0-0.5l-0.7,0l-0.3-0.4l0.5-0.5l0.1-0.4
		l-0.6-0.2l0-0.4l0.9-0.1l1.3-0.6l0.4-0.8l1.4-1.8L32,43.4l0.4-0.7l1.3,0l0.9-0.7l0.3-2.7l1-1.2l0.2-0.8L35.1,37l-0.6-0.9l-2,0
		L31,35.5L31,34.3l-0.5-0.9l-1.4,0l-0.8-1.3l-0.7-0.4l0,0.4l-1.3,0.1l-0.5-0.7l-1.4-0.3l-1.1,1.3l-1.8-0.3l-0.1-2L20,30.1l0.5-1
		l-0.1-0.6l-1.7,1.1l-1.1-0.1l-0.4-0.8l0.2-0.9l0.6-1.1l1.4-0.7l2.6,0l0,0.8l0.9,0.4l-0.1-1.4l0.7-0.7l1.4-0.9l0.1-0.6l1.4-1.4
		l1.5-0.8l-0.1-0.1l1-0.9l0.4,0.1l0.2,0.2l0.4-0.4l0.1,0l-0.4-0.1l-0.4-0.1v-0.4l0.2-0.2h0.5l0.2,0.1L30,20l0.2,0v0l0.1,0l0.7-0.1
		l0.1-0.3l0.4,0.1V20l-0.4,0.2h0l0.1,0.4l1.2,0.4c0,0,0,0,0,0l0.3,0l0-0.5l-1-0.4l-0.1-0.3l0.8-0.3l0-0.8l-0.9-0.5l-0.1-1.3
		l-1.2,0.6H30l0.1-1L28.5,16l-0.7,0.5v1.5l-1.2,0.4l-0.5,1l-0.5,0.1v-1.3l-1.1-0.2L24,17.7l-0.2-0.8l2-1.2l1-0.3l0.1,0.7l0.5,0
		l0-0.3l0.6-0.1l0-0.1l-0.2-0.1l-0.1-0.3l0.7-0.1l0.4-0.4l0,0l0,0l0.1-0.1l1.5-0.2l0.6,0.6l-1.7,0.9l2.2,0.5l0.3-0.7h0.9l0.3-0.6
		l-0.7-0.2v-0.8L30.4,13l-1.4,0.2l-0.8,0.4l0.1,1l-0.9-0.1l-0.1-0.6l0.8-0.7l-1.5-0.1l-0.4,0.1l-0.2,0.5l0.6,0.1l-0.1,0.6l-0.9,0.1
		l-0.1,0.4l-1.4,0c0,0,0-0.8-0.1-0.8s1.1,0,1.1,0l0.8-0.8L25.2,13l-0.6,0.6l-1-0.1l-0.6-0.8h-1.3l-1.3,1h1.2l0.1,0.4l-0.3,0.3l1.3,0
		l0.2,0.5l-1.5-0.1l-0.1-0.4l-0.9-0.2L20,14l-1.1,0c3.7-2.7,8.2-4.3,13.1-4.3c5.6,0,10.8,2.1,14.7,5.6l-0.3,0.5l-1,0.4L45,16.6
		l0.1,0.5l0.5,0.1L46,18l0.9-0.4l0.2,1.1h-0.3L46,18.6l-0.8,0.1l-0.8,1.1l-1.2,0.2l-0.2,1l0.5,0.1l-0.1,0.6l-1.1-0.2l-1.1,0.2
		L41,22.4l0.2,1.2l0.6,0.3l1,0l0.7-0.1l0.2-0.6l1.1-1.4l0.7,0.1l0.7-0.6l0.1,0.5l1.7,1.2l-0.2,0.3l-0.8,0l0.3,0.4l0.5,0.1l0.6-0.2
		l0-0.7l0.3-0.1l-0.2-0.2l-1.2-0.6L47,21.1h1l0.3,0.3l0.8,0.7l0,0.9l0.9,0.9l0.3-1.3l0.6-0.3l0.1,1l0.6,0.6l1.2,0
		c0.2,0.6,0.4,1.2,0.6,1.8L53.3,25.8z M20.9,18.7l0.6-0.3l0.5,0.1l-0.2,0.7l-0.6,0.2L20.9,18.7z M24,20.4v0.5h-1.3l-0.5-0.1l0.1-0.3
		l0.6-0.3h0.9v0.3H24z M24.7,21v0.4l-0.3,0.2l-0.4,0.1c0,0,0-0.7,0-0.7H24.7z M24.3,20.9v-0.5l0.5,0.4L24.3,20.9z M24.5,21.9v0.4
		l-0.3,0.3h-0.7l0.1-0.5l0.3,0L24,22L24.5,21.9z M22.7,21h0.7l-0.9,1.3l-0.4-0.2l0.1-0.6L22.7,21z M25.7,21.8v0.4H25l-0.2-0.3v-0.4
		h0.1L25.7,21.8z M25.1,21.2l0.2-0.2l0.3,0.2l-0.3,0.2L25.1,21.2z M53.6,27L53.6,27c0.1,0,0.1,0.2,0.2,0.3L53.6,27z"/>
	<path fill="#FFFFFF" d="M11.5,22.6v0.7c0.2-0.6,0.5-1.1,0.8-1.7L11.5,22.6z"/>
</g>
</svg>
