<?xml version="1.0" encoding="utf-8"?>
<!-- Generator: Adobe Illustrator 17.1.0, SVG Export Plug-In . SVG Version: 6.00 Build 0)  -->
<!DOCTYPE svg PUBLIC "-//W3C//DTD SVG 1.1//EN" "http://www.w3.org/Graphics/SVG/1.1/DTD/svg11.dtd">
<svg version="1.1" id="Capa_1" xmlns="http://www.w3.org/2000/svg" xmlns:xlink="http://www.w3.org/1999/xlink" x="0px" y="0px"
	 width="960px" height="560px" viewBox="0 0 960 560" enable-background="new 0 0 960 560" xml:space="preserve">
<g>
	<path fill="#FFFFFF" d="M480,538.2c141.5,0,256.7-115.1,256.7-256.7S621.5,24.8,480,24.8S223.3,140,223.3,281.5
		S338.5,538.2,480,538.2z M480,44.4c25.1,0,49.3,4,72.1,11.2c-6.5,9.2-7.5-3.7-9.5,1.7c-2.1,5.5-7.1,7.2-8.6,7.1
		c-2.9,4.4-5.6,9-8.4,13.2c-3,0.6-5.8,1.1-8.7,1.5c-1.2,0.2-2,0.6-2.8,1.5c-3.1,3.7-6.3,7.3-9.4,11c-2.7,3.2-5.3,6.5-8,9.8
		c-0.4,0.4-0.8,0.8-1.2,1.2c-2.1-0.8-3.7-1.9-5.2-3.3c-2.6-2.4-4.4-5.3-5.7-8.5c-1.8-4.3-2.8-8.8-3.4-13.4c-0.2-1.4,0-2.6,0.5-3.9
		c1.7-4.1,3.2-8.3,4.9-12.5c0.5-1.2,0.3-2.1-0.6-3c-2.9,0.2-5.9-0.7-9,0.3c0.3,0.7,0.5,1.3,0.8,1.9c0.9,2.1,1.9,4.1,2.9,6.2
		c0.2,0.4,0.3,0.9,0.4,1.4c-2.6,2-5.2,3.9-7.7,5.9c-2.5,2-4.6,4.4-7.2,6.4c-1.2-2.3-3.1-3.9-5.1-5.3c-3.3-2.4-2.1-2-6.2-1.9
		c-2.8,0.1-5.5,0.3-8.1,1.4c-1.4,0.6-3,0.6-4.5,0.5c-1.2-0.1-2.1-0.5-2.8-1.4c-0.2-0.3-0.4-0.6-0.6-0.8c-0.6-0.8-1.5-1.1-2.5-0.7
		c-0.8,0.3-1.6,0.6-2.3,1.1c-1.2,0.8-2.3,1.7-3.4,2.6c-1.3,1.2-2.7,2.3-4.2,3.2c-2.3,1.4-4.5,2.9-6.8,4.4c-0.8,0.5-1.4,1.2-1.5,2.2
		c-0.2,1.6-0.7,3.1-0.8,4.7c-0.2,2.1-0.3,4.2,0.4,6.3c0.9,2.7,3.3,3.9,6,2.9c3.3-1.2,6.3-2.8,9-5c1.8-1.4,3.3-3.1,4.1-5.3
		c0.1-0.4,0.3-0.8,0.5-1.1c0.5-0.8,1.1-1,1.9-0.6c0.7,0.3,1.4,0.7,2,1c1.7,0.8,3.4,0.8,5.1-0.2c0.9-0.5,1.7-1.1,2.5-1.7
		c0.7-0.6,1.3-1.3,2-1.9c1.1-1.1,2.3-2,3.7-2.5c2.7-1.1,4.6-0.6,6.1,1.8c1.2,1.8,2.7,3.2,4.4,4.4c0.8,0.5,1.5,1.1,2.2,1.7
		c1.1,1,1.4,2.2,1,3.7c-0.4,1.6-1.2,3-2,4.3c-0.7,1.1-1.5,2.3-2.1,3.5c-0.3,0.6-0.5,1.2-0.6,1.9c-0.1,0.7,0.5,1.4,1.2,1.3
		c0.9-0.2,1.8-0.5,2.7-0.7c0.5-0.1,1.1-0.3,1.8-0.5c-0.3,5.2-1.1,10.1-3.6,14.5c-0.5,0.8-1,1.6-1.7,2.2c-1.9,1.8-4.1,2.6-6.7,1.9
		c-1.8-0.4-3.5-1.1-4.9-2.4c-2.8-2.6-5.4-2.3-7.9,0.5c-0.8,0.9-1.5,1.9-2,2.9c-0.6,1.1-1.4,1.6-2.5,1.9c-4.9,1.3-9.9,1.9-15,1.2
		c-0.9-0.1-1.6-0.1-2.5,0.2c-3.2,1-6.5,1.9-9.7,2.8c-1.3,0.4-2.5,0.9-3.7,1.6c-2.2,1.3-4.4,2.4-6.9,3.2c-2.5,0.8-4.9,1.2-7.3-0.5
		c-7.7,6.4-16.3,11.2-25.9,14.2c-0.6,3.6-1.1,7.1-1.7,10.6c-0.7,4.2-1.3,8.5-2,12.7c-0.2,1.1-0.6,1.5-1.6,1.6c-1.2,0.2-2.2,0-3-0.9
		c-0.8-0.9-1.5-1.9-2-2.9c-1.4-2.6-2.2-5.5-2.5-8.4c-0.4-4.1-2.6-6.9-6.1-8.6c-4.7-2.3-9.6-3.1-14.8-2.2
		c-8.4,1.5-15.6,5.4-21.4,11.7c-4.9,5.3-4.8,5.3-6.2,12.6c-0.5,2.6-0.5,5.2,0.3,7.8c0.8,2.6,2.6,4.3,5.3,4.8
		c1.4,0.3,2.8,0.4,4.3,0.1c1.6-0.3,5.7-1.2,6.1-1c1.2,0.5,2.2,1.2,3,2.2c1,1.3,1.3,2.7,0.6,4.3c-0.5,1.2-1.3,2.2-2.2,3
		c-1.2,1-4.9,3.7-5.4,4.1c-2.1,1.9-2,4.3,0.1,6.1c0.5,0.4,1.1,0.8,1.7,1.2c0.5,0.3,1,0.6,1.6,0.9c-0.1,1.5-0.2,3-0.4,4.4
		c-0.4,3.7-0.5,7.4-0.3,11.1c0.2,3.5,1.7,6.5,4.6,8.6c1.9,1.4,3.9,2.6,6,3.7c1.2,0.6,2.5,1,3.8,1.4c3.8,1,7.2,0.1,10-2.7
		c1.2-1.2,2.1-2.6,3-4c1.7-2.6,4.1-3.7,7.1-3.1c1.6,0.3,3,1.1,4.2,2.3c1.4,1.4,3.1,2.3,4.8,3.1c2.4,1.1,4.7,2.3,7,3.4
		c0.8,0.4,1.7,0.7,2.6,0.9c6.7,1.7,12.4,4.9,16.6,10.4c0.9,1.1,1.9,1.8,3.2,2.2c6.3,2.2,12,5.3,17.1,9.5
		c6.5,5.3,11.3,11.8,13.8,19.8c0.6,1.9,1.4,3.5,2.9,4.9c1.4,1.4,2.5,3,3.5,4.6c1.4,2.2,2.6,4.6,3.8,6.8c0.3,0.6,0.6,1.1,0.9,1.6
		c1.2,0.2,2.3,0.4,3.4,0.7c7.1,1.6,13.9,4.2,19.9,8.3c3.2,2.1,6,4.6,8.4,7.6c0.7,0.8,1.1,1.6,1.1,2.7c0.1,9.6-3.3,17.4-11.4,23
		c-1,0.7-1.6,1.6-2.1,2.7c-2.1,5.6-4.2,11.2-6.3,16.8c-0.4,1-0.9,2-1.5,2.9c-2.8,4-5.7,7.9-8.5,11.9c-0.9,1.3-2,2.3-3.4,3
		c-1,0.5-2.1,1.1-3.1,1.6c-3.9,1.8-8,3.2-12.2,4c-1.1,0.2-2,0.7-2.7,1.6c-2.8,3.7-5.7,7.3-8.5,11c-0.3,0.4-0.6,0.8-0.9,1.2
		c-2.7,5.1-6.1,9.7-9.2,14.5c-0.7,1.1-1.6,1.9-2.7,2.6c-4.6,3-9.1,6.1-13.7,9.2c-1.3,0.9-2.6,1.9-3.7,3c-2.3,2.1-4.5,4.3-6.7,6.5
		c-0.6,0.6-1.1,1.3-1.5,2c-2.1,4.6-4.2,9.2-6.3,13.8c-0.5,1-0.5,1.9-0.3,2.9c1.4,7.6,2.9,15.2,4.3,22.9c0.2,0.9,0.3,1.8,0.3,2.7
		c-1.9,0.1-1.9,0.1-3.8-0.7c-3.2-1.4-6-3.3-8.6-5.7c-5.9-5.3-10.4-11.7-14.4-18.5c-0.4-0.6-0.6-1.4-0.7-2.1c-0.9-6-1.7-12-2.6-18
		c-0.1-0.8-0.4-1.4-0.8-2.1c-1-1.5-1.4-3.2-1.8-5c-0.8-4.1-0.3-8.2,0.3-12.3c0.7-4.8,1.5-9.7,2.2-14.5c0.1-0.7,0.1-1.3-0.4-1.9
		c-1.2-1.6-1.5-3.5-1.7-5.5c-0.2-3.8,0.4-7.4,1.4-11c0.3-1.3,0.6-2.6,0.8-3.9c0.6-4.3,1.2-8.7,1.8-13c0.2-1.8,0.4-3.7,0.6-5.4
		c-0.4-0.4-0.6-0.6-0.9-0.8c-2.4-2-3.8-4.6-4.4-7.7c-0.4-2.2-0.4-4.4,0-6.5c0.3-1.6,0.7-3.3,1-4.9c-0.9-0.6-1.6-1.1-2.4-1.6
		c-3.7-2.6-7.1-5.5-9.9-8.9c-2.9-3.6-5.8-7.2-8.7-10.9c-1.1-1.5-2.1-3-3-4.7c-1.4-2.7-2-5.5-1.3-8.6c0.2-0.7,0-1.3-0.2-2
		c-1.7-4.9-1.9-9.9-1.6-15c0.3-3.5,1.2-6.8,3.2-9.7c1.2-1.8,2.4-3.7,3.7-5.5c2.2-3.2,4.5-6.3,6.8-9.5c2.2-3.1,3.5-6.5,4.2-10.2
		c0.3-1.7,0.5-3.3,0.3-5c-0.3-2.6-1.2-4.9-3.4-6.5c-2.5-1.8-4.8-3.6-7.4-5.4c-1.3-0.9-1.9-2-2.2-3.5c-0.8-3.4-1.8-6.9-2.5-10.3
		c-0.3-1.2-0.8-2.2-1.8-3c-1.5-1.2-2.9-2.5-4.4-3.8c-0.6-0.5-1.1-1-1.6-1.5c0.1-3.2,1-6.2,1-9.4c-0.8-0.4-1.6-0.7-2.4-1
		c-3.8-1.6-7.4-3.6-10.7-6.2c-2-1.6-3.8-3.4-5.1-5.6c-1.8-2.8-2.6-5.8-2.1-9.1c0.4-2.3,0.6-4.7,0.9-7c0.2-1.8,0.5-3.7,0.7-5.5
		c0-0.3,0.1-0.7-0.4-0.8c0,0,1.6-2.9-5.4-11.6c-0.5-0.7-1-1.4-1.4-2.1C323.8,87.4,396.9,44.4,480,44.4z M602.8,484.2
		c5.5-5.7,9.3-11.9,5.7-16.6c-2-1.9-1.8-4.2-1-6.5c0.5-1.4,0.9-2.7,1.4-4c1.7-3.9,3.6-7.8,5.3-11.7c2-4.3,3.9-8.6,5.9-12.9
		c1.2-2.6,1.4-5.3,0.8-8.1c-0.7-3.3-1.3-6.6-2-9.9c-0.7-3.3-0.7-6.5,0.4-9.7c2.1-6,5-11.6,9.7-16.1c1.5-1.4,2.8-2.9,4.1-4.5
		c1.7-2,3-4.3,3.9-6.7c1.2-3.1,1.6-6.3,0.9-9.7c-0.5-2.6-1.4-5-2.3-7.5c-0.7-2.1-1.5-4.1-2.1-6.2c-1-3.4-1.1-6.8-0.2-10.2
		c0.6-2.2,1.4-4.3,2.1-6.5c0.8-2.2,1.7-4.4,2.5-6.6c1-2.9,1.6-5.9,1.3-8.9c-0.2-2.1-0.6-4.2-1.1-6.2c-0.5-2.2-1.5-2.6-3.5-1.8
		c-0.8,0.3-1.5,0.7-2.3,1c-2.4,1-3.9,0.6-5.1-1.2c-0.9-1.3-2.2-2.1-3.7-2.5c-1.3-0.3-2.6-0.8-3.9-0.9c-4.5-0.3-8.9-0.1-13.4,0.1
		c-3.3,0.2-6.6,0.3-9.8,0.4c-1,0-2-0.2-3-0.4c-2.7-0.5-5.2-1.5-7.6-2.6c-4.4-2.1-8.5-4.9-12.3-7.9c-6.2-4.9-11.8-10.6-17.5-16
		c-0.8-0.7-1.2-1.6-1.5-2.6c-0.3-1.2-0.6-2.5-0.7-3.7c-0.5-5.8,0.2-11.4,1.3-17.1c1.1-6.1,2.7-12,4.4-17.9c1-3.3,1.5-6.7,1.5-10.2
		c0-1.5-0.1-2.9-0.9-4.1c-0.7-1.1-0.6-2.3-0.1-3.4c0.8-1.8,1.6-3.7,2.7-5.4c3.6-5.8,8.8-9.5,15.3-11.3c1.5-0.4,2.6-1,3.5-2.2
		c2.4-3,5-5.9,7.4-8.9c0.8-1,1.8-1.7,3.1-2c3.8-1.1,7.6-2.3,11.3-3.5c3.3-1,6.7-1.6,10.2-1.7c6.3-0.2,12.5,0.5,18.4,2.8
		c1,0.4,2,0.4,3,0.4c3.5-0.1,7.1-0.1,10.6,0.5c3.4,0.5,6.5,1.5,9.2,3.7c4.8,4,9.9,7.6,14.8,11.5c2.7,2.1,2.7,2.1,6.2,2
		c5.2-0.1,10.5-0.1,15.6,1c0.2,0,0.5-0.1,0.9-0.1c-0.1-0.7,0-1.4-0.2-2c-0.5-2.3-1.1-4.6-2.3-6.7c-0.9-1.5-1.8-3.1-2.9-4.4
		c-2.3-2.8-5.3-4.4-9-4.6c-1-0.1-2-0.2-3-0.4c-2.9-0.5-5-2.1-6-4.8c-0.5-1.3-0.7-2.6-1.1-3.9c-0.1-0.4-0.4-0.9-0.6-1.3
		c-0.3,0.2-0.6,0.3-0.8,0.5c-0.5,0.5-0.9,1-1.3,1.6c-0.5,0.7-1,1.4-1.5,2c-1.8,2.1-3.2,1.9-4.5-0.4c-0.3-0.5-0.5-1.1-0.7-1.6
		c-0.3-0.8-0.5-1.6-0.8-2.4c-0.4-1.1-0.8-2.2-1.3-3.3c-1-2.1-1.9-2.2-3.3-0.4c-0.3,0.3-0.5,0.7-0.8,1c-0.5,0.5-0.9,1-1.4,1.4
		c-1.8,1.4-3.7,1.4-5.6,0c-0.3-0.2-0.6-0.6-0.9-0.8c-0.9-0.8-1.3-1.7-1.2-2.9c0.1-1.5,0-3-0.1-4.5c-0.1-0.9-0.4-1.8-0.8-2.6
		c-0.3-0.7-1.1-0.9-1.7-0.4c-0.6,0.4-1.2,0.9-1.8,1.5c-0.8-0.3-1.5-0.6-2.3-1c-3.3-1.5-6.6-3-9.9-4.5c-1.1-0.5-2.2-1.1-3.1-2.4
		c-1.8,5.9-1.9,11.8-2.8,17.6c-0.6,0.2-1.2,0.4-1.9,0.6c-2.8,0.7-5.6,1.3-8.3,2.1c-4.5,1.3-8.5,0.4-12.1-2.5
		c-2.6-2.1-4.7-4.6-6.3-7.5c-2.1-3.7-4.1-7.4-6.1-11c-0.2-0.4-0.4-0.9-0.6-1.4c0.9-1,2.2-1.4,3.2-2.1c4.9-2.8,10.1-4.5,15.9-3.9
		c0.7,0.1,1.3-0.1,1.9-0.5c0.4-0.3,0.9-0.5,1.3-0.8c2.1-1.4,4.5-2.5,6.3-4.1c1.9-1.7,3.3-4,4.9-6.1c0.6-0.9,1.5-1.6,1.9-2.7
		c-0.7-1.7-1.4-3.5-2.2-5.1c-0.7-1.4-0.8-2.7-0.6-4.2c0.3-1.7,0.6-3.5,0.8-5.2c0.1-0.6,0.4-1.3-0.3-2c-2.7-0.4-5.6-0.9-8.4-1.1
		c-1.4-0.1-2.2-0.7-2.8-1.8c-0.9-1.5-1.9-3-2.7-4.6c-0.6-1.1-1.4-1.6-2.6-1.7c-1.6-0.2-3.2-0.5-4.8-0.6c-1.3-0.1-2.2-0.6-3-1.6
		c-1.3-1.4-2-3.1-2.6-4.9c-0.8-2.5-1.1-5.1-1.3-7.7c-0.3-3.4-0.1-6.7,0.4-10.2c0.7-0.1,1.3-0.3,1.9-0.4c0.7-0.1,1.3-0.1,2-0.1
		c0.6-0.1,1.2-0.2,1.8-0.2c0.7-0.1,1.3-0.1,2-0.2c0.6-0.1,1.3,0.1,1.9-0.4c0,0,5.7,0.8,6.6-5.9c0.1-0.7,0.3-1.4,0.7-2
		c65.9,42.2,109.7,115.9,109.7,199.8C717.1,367.3,671.2,442.6,602.8,484.2z"/>
</g>
</svg>
