<?xml version="1.0" encoding="utf-8"?>
<!-- Generator: Adobe Illustrator 17.1.0, SVG Export Plug-In . SVG Version: 6.00 Build 0)  -->
<!DOCTYPE svg PUBLIC "-//W3C//DTD SVG 1.1//EN" "http://www.w3.org/Graphics/SVG/1.1/DTD/svg11.dtd">
<svg version="1.1" id="Layer_1" xmlns="http://www.w3.org/2000/svg" xmlns:xlink="http://www.w3.org/1999/xlink" x="0px" y="0px"
	 width="50px" height="50px" viewBox="0 0 50 50" enable-background="new 0 0 50 50" xml:space="preserve">
<path fill="#FFFFFF" d="M25,6.8C14.9,6.8,6.8,14.9,6.8,25c0,10.1,8.2,18.2,18.2,18.2S43.2,35.1,43.2,25C43.2,14.9,35.1,6.8,25,6.8z
	 M34.8,13.7c0,0,0.1,0.1,0.2,0.1c0,0,0.1,0,0.1,0c0.1-0.1,0.2-0.2,0.1-0.3c-0.1-0.2-0.2-0.4-0.3-0.6c0,0,0,0,0,0c0,0,0,0,0,0
	c0.4,0.7,0.5,1,0.6,1.2c0,0,0,0,0,0c-0.1,0-0.1,0-0.2,0c-0.1,0-0.1,0.1-0.1,0.2C35.2,14.1,35,14,34.8,13.7
	C34.8,13.8,34.8,13.8,34.8,13.7C34.8,13.8,34.8,13.8,34.8,13.7z M13.9,12.7c0.1,0,0.1,0,0.2,0c0,0,0.1,0,0.1,0c0,0.1,0,0.1,0.1,0.1
	c0,0,0.1,0.1,0.1,0.1c0,0,0,0-0.1,0.1c-0.1,0.1-0.1,0.1-0.1,0.2c0,0.1,0.1,0.1,0.2,0.2l0,0c-2.3,2.1-3.3,3-3.8,3.5
	C11.5,15.3,12.6,13.9,13.9,12.7z M8.5,25c0-1.1,0.1-2.3,0.4-3.4c0,0,0.1,0.1,0.2,0.1h0.2c0,0,0,0,0,0c-0.1,0.4-0.2,0.7-0.2,1
	c0,0,0,0.1,0,0.1c0,0.5,0.1,1.1,0.2,1.6c0,0.1,0.1,0.1,0.1,0.2c2.3,1.4,3.5,4,3.7,4.6c-0.7,1.1-0.9,2.1-0.7,2.8
	c0.2,0.9,0.9,1.3,1.5,1.6c0.1,0.2,0.1,0.4,0.2,0.7c0,0,0,0.1,0.1,0.1c0,0,1.4,1.5,2.7,1.9c0.4,2,1.6,3.5,3.4,4.5c0,0,0,0,0,0
	C13.3,38.7,8.5,32.4,8.5,25z M39.7,31.7c-0.1,0.4-0.2,0.7-0.3,1.1c-0.4,0.6-0.7,1.3-1,2l0,0.1c-3.1,4.2-8.1,6.7-13.3,6.7
	c-0.7,0-1.4,0-2.1-0.1c0,0,0-0.1-0.1-0.1l-0.1-0.1c0,0-0.1-0.1-0.1-0.1L22.3,41c-0.2-0.3-0.2-0.3-0.1-0.5c0,0,0,0,0,0c0,0,0,0,0,0
	l0.2,0c0.1,0,0.2,0,0.2-0.1s0-0.2,0-0.3c0,0,0,0,0,0c0,0,0,0,0.1,0c0.2-0.1,0.5-0.1,0.7-0.3c0.1,0,0.1,0,0.2,0c0.1,0,0.2,0,0.2,0
	l0.3-0.2c0.1,0,0.1-0.1,0.1-0.2c0-0.7,0-0.8-0.1-1.1c1.8-1.1,2-1.3,1.7-2.1c1.1-1.2,1.1-1.3,1.2-2.1c0-0.1,0-0.2,0-0.3
	c0-0.1-0.1-0.2-0.2-0.3c-0.1,0-2.6-0.1-4.2-1.6c-0.1,0-0.1-0.1-0.2-0.1c-0.2,0-0.6,0-1.1,0.4l-0.1-0.1l0.2-0.2
	c0.1-0.1,0.1-0.2,0-0.3c-0.6-1.3-0.8-1.4-1.5-1.5c-0.8-0.1-0.8-0.1-1-0.8c0,0,0-0.1-0.1-0.1l-0.2-0.2c-0.6-0.6-1.4-0.9-2.2-1.2
	c0,0-0.1,0-0.1,0l-0.4,0c-0.4-0.2-0.6-0.4-1-0.6c-0.1-0.1-0.2,0-0.3,0c-0.3,0.2-0.4,0.3-0.5,0.3c-0.2,0-0.6-0.3-1.2-0.7
	c-0.1-0.3-0.5-0.8-1.1-1.2l-0.1-0.2c0-0.2,0.1-0.5,0.1-0.7c0.2-0.3,0.3-0.4,0.4-0.8c0-0.1,0-0.1,0-0.2s-0.1-0.1-0.2-0.1
	c-0.4,0-0.7,0.1-1,0.5c-0.1,0-0.1-0.1-0.2-0.1c-0.1-0.2-0.2-0.8-0.1-1.5c0.2-0.1,0.3-0.3,0.8-1.1c0.8,0,0.8,0,1.3,0.4
	c0.1,0.1,0.2,0.1,0.3,0c0.1,0,0.1-0.1,0.2-0.1l0.1,0.2c0,0.1,0.1,0.2,0.2,0.2c0.1,0,0.2,0,0.3,0c0,0.3,0,0.6,0,0.9
	c0,0.3,0,0.5,0,0.8c0,0.1,0.1,0.2,0.1,0.2c0,0,0.1,0,0.1,0c0,0-0.1,0-0.1,0c-0.1-0.4-0.4-0.4-0.6-0.4c-0.2,0-0.4,0-0.6,0
	c-0.1,0-0.2,0-0.2,0.1c-0.1,0.1-0.1,0.2,0,0.3c0.1,0.2,0.4,0.5,1.1,0.7h0c0.3,0.4,0.4,0.5,1,0.6c0,0,0,0,0.1,0c0.1,0,0.1,0,0.2-0.1
	l0.2-0.2c0.1-0.1,0.1-0.1,0.1-0.2s-0.1-0.2-0.1-0.2c0,0-0.1-0.1-0.2-0.2c-0.2-0.3-0.3-0.4-0.6-0.4c0,0-0.1,0-0.1,0c0,0,0.1,0,0.1,0
	l0.8-0.7c0.1-0.1,0.1-0.2,0.1-0.3l-0.2-0.5c0-0.1,0.1-0.2,0.1-0.3c0,0,0.1,0,0.1,0c0.2-0.1,0.3-0.2,0.5-0.3c0.2-0.1,0.3-0.2,0.5-0.3
	c0.2,0,0.4,0,0.6,0.1c0.1,0,0.2,0,0.2-0.1c0.7-0.8,0.7-0.9,0.9-1.1c1.2-0.5,1.2-0.5,4.3-1.4c0.1,0,0.2-0.1,0.2-0.2
	c0-0.1-0.1-0.2-0.2-0.2c-0.1,0-0.2,0-0.3-0.1l0.2-0.2c0.1-0.1,0.1-0.2,0.1-0.2c0,0,0,0,0,0c0.1,0,0.3,0,0.4,0c0,0,0,0.1,0.1,0.1
	c0.3,0.2,0.5,0.4,0.5,0.5c0,0.1,0.1,0.1,0.2,0.1c0,0,0,0,0,0c0.1,0,0.1,0,0.2-0.1l0.4-0.4c0.1-0.1,0.1-0.2,0.1-0.2s-0.1-0.1-0.2-0.2
	l-0.1,0c0.2-0.1,0.5-0.4,1-0.8c0.1-0.1,0.1-0.2,0.1-0.3s-0.1-0.2-0.2-0.2c-0.2,0-0.3,0-0.4,0.1l0,0c0-0.1,0-0.2,0-0.2L24,16.3
	c0-0.1,0.1-0.2,0.2-0.4c0-0.1,0-0.1,0-0.2c0-0.1-0.1-0.1-0.1-0.1c-0.3-0.2-0.6-0.2-1-0.1c-0.5-0.8-0.5-0.8-0.9-0.9
	c-0.1,0-0.1,0-0.2,0.1c-0.1,0-0.1,0.1-0.1,0.2c0,0.1,0,0.2,0,0.2l-0.3,0c-0.1,0-0.2,0-0.2,0.1c-0.3,0.4-0.7,0.7-1.1,1.1
	c-0.3,0.3-0.6,0.5-0.8,0.8c-0.2-0.4-0.3-1.1-0.4-1.5l1.1-0.6c1-0.6,1.4-0.9,1.7-0.9c0.1,0,0.2,0,0.3,0.1c0,0-0.1,0.1-0.1,0.1
	c0,0.1,0.1,0.2,0.2,0.2c0.2,0,0.4,0,0.6,0l0.2,0.4c0,0.1,0.1,0.1,0.2,0.1c0.1,0,0.2-0.1,0.2-0.1c0.3-0.6,0.5-0.6,0.5-0.6
	c0.1,0,0.3,0.2,0.3,0.2c0,0,0.1,0.1,0.2,0.1c0.1,0,0.1,0,0.2-0.1c0.1-0.1,0.3-0.3,0.4-0.7l0-0.1c0-0.1,0-0.2-0.1-0.2
	c0,0-0.1-0.1-0.1-0.1c0-0.1,0-0.2,0-0.3c0-0.1,0-0.2-0.1-0.2c-0.2-0.1-0.2-0.2-0.2-0.2c0-0.1-0.1-0.2-0.2-0.3c0,0-0.1,0-0.3-0.1
	c-0.1-0.1-0.2-0.1-0.3-0.1l-0.1-0.1c0-0.1-0.1-0.1-0.2-0.1c-0.1,0-0.1,0-0.2,0c0,0,0,0,0,0C23.3,12,23.2,12,23.1,12
	c-0.1,0-0.2,0.1-0.3,0.1c0-0.1,0-0.1,0-0.2c0-0.1,0-0.1-0.1-0.1c0,0,0,0,0.1-0.1c0,0,0.1-0.1,0.1-0.2c0-0.1,0-0.2,0-0.3
	c0-0.1,0-0.2-0.1-0.2c0,0,0,0,0,0c0,0,0.1-0.1,0.2-0.1c0.1-0.1,0.2-0.2,0.2-0.5c0-0.1,0-0.2-0.1-0.2c-0.1-0.1-0.2,0-0.3,0
	c-0.6,0.3-0.6,0.3-0.7,0.4c-0.1,0-0.2,0.2-0.2,0.3c0,0.1,0.1,0.2,0.3,0.2c0.1,0,0.2,0,0.2,0c0,0,0,0,0,0c-0.1,0.1-0.2,0.1-0.2,0.1
	c0,0-0.1,0.1-0.1,0.1c0,0,0,0.1-0.1,0.1c-0.1,0-0.1-0.1-0.2-0.1c0-0.1,0-0.1,0-0.2c0-0.1-0.1-0.1-0.2-0.2c-0.1,0-0.1,0-0.2,0
	c0,0,0,0,0,0c0,0,0,0-0.1,0c-0.1-0.1-0.2-0.1-0.3-0.1c-0.3,0.1-0.4,0.2-0.5,0.2c-0.1,0.1-0.1,0.2-0.1,0.3l0,0.1
	c0,0.1,0.1,0.2,0.2,0.2l0,0c0,0,0,0.1,0,0.1c0,0-0.1,0-0.1,0l-0.1-0.1c0-0.2,0-0.3-0.2-0.4c-0.1-0.1-0.2-0.1-0.3,0
	c-0.1,0-0.1,0.1-0.1,0.2c0,0,0,0.1-0.1,0.1c-0.1,0.1-0.1,0.2-0.1,0.3c0,0.1,0,0.1,0,0.2c0,0,0,0.1,0,0.1c0,0,0,0,0,0
	c-0.1,0-0.2,0.1-0.3,0.1c-0.1,0-0.1,0.1-0.1,0.1c0,0.1,0,0.1,0,0.2c0.1,0.1,0.2,0.2,0.3,0.3L19.5,13c0,0,0,0-0.1,0c0,0-0.1,0-0.1,0
	l0-0.2c0-0.1-0.1-0.1-0.1-0.2c0,0-0.1,0-0.1,0c0,0-0.1,0-0.1,0c0,0,0,0-0.1,0l0-0.1c0-0.1,0-0.1,0-0.2c0-0.1-0.1-0.1-0.1-0.1
	c-0.1,0-0.3-0.1-0.4-0.1c-0.1,0-0.1,0-0.2,0C18,12,17.9,12,17.9,12l0.1-0.2c0-0.1,0.1-0.2,0-0.2c0-0.1-0.1-0.1-0.2-0.2
	c-0.1,0-0.3-0.1-0.6,0c0,0,0,0,0-0.1c0-0.1,0.1-0.2,0-0.2c0,0,0-0.1-0.1-0.1c0-0.1,0-0.2,0-0.2c-0.1-0.1-0.2-0.1-0.3-0.1
	c-0.2,0.1-0.2,0.1-0.6,0.3c0,0,0,0,0,0c2.6-1.7,5.6-2.6,8.8-2.6c3,0,5.9,0.8,8.4,2.3c0,0-0.1,0-0.1,0c-0.1,0-0.3-0.1-0.7-0.2
	c-0.1,0-0.2,0-0.3,0.1c-0.1,0.1-0.2,0.1-0.3,0.2C32,10.9,32,11,32,11.1s0,0.2,0.1,0.2c0.6,0.8,0.7,0.8,1,1.4c-0.1,0.5,0,0.6,0.9,1.3
	c0.1,0.1,0.2,0.1,0.3,0l0.1-0.1c0,0,0.1,0,0.1,0h0c0,0,0,0.1,0,0.1c0,0.2,0,0.3,0.4,0.7c0,0,0,0,0,0c-0.1,0-0.1,0.1-0.1,0.2l0,0.2
	c-0.2-0.1-0.3-0.1-0.5-0.2c-0.1,0-0.1-0.1-0.1-0.1l-0.4-0.6c-0.1-0.1-0.2-0.1-0.3-0.1c-0.1,0.1-0.2,0.2-0.3,0.2
	C33,14.5,33,14.6,33,14.7c0,0.1,0.1,0.2,0.2,0.4c-0.2,0.1-0.3,0.3-0.4,0.6c0,0.1,0,0.2,0,0.3l0.2-0.1L32.8,16c0,0,0,0.1,0,0.1
	l0.2-0.1l-0.2,0.2c0,0,0,0.1,0,0.1c0,0,0,0.1,0,0.1l0.1,0c0,0,0,0,0,0.1l0,0c0,0,0,0.1,0,0.1l0,0c0,0.1,0.1,0.1,0.2,0.1
	c0,0,0,0,0.1,0c0.1,0,0.2-0.1,0.2-0.2c0-0.3,0.1-0.3,0.1-0.3c0,0,0.1-0.1,0.1-0.1l0,0c0,0.1,0,0.1,0.1,0.2c0,0,0.1,0.1,0.1,0.1
	c0,0.1,0,0.1,0,0.2c0,0.1,0.1,0.1,0.2,0.1c0.1,0,0.1,0,0.6,0.8c-0.2,0-0.5,0.1-1.1,0.1c-0.1,0-0.2,0.1-0.2,0.1c0,0.1,0,0.2,0,0.2
	c0.1,0.2,0.2,0.5,0.4,0.7c0.1,0.2,0.2,0.3,0.3,0.5c-0.1,0.1-0.1,0.2,0,0.2l0.1,0.4c0,0,0,0.1,0,0.1c0,0.1,0.1,0.1,0.1,0.1
	c0.1,0,0.1,0,0.2,0c1.1-0.4,1.2-0.4,1.7-0.7c0.1-0.1,0.2-0.2,0.1-0.3c-0.1-0.2-0.2-0.4-0.3-0.6c0.2-0.2,0.2-0.5,0.2-0.7
	c0-0.2,0.1-0.3,0.1-0.5c0,0,0.1,0,0.1-0.1c0.6,0.6,0.8,0.8,1.1,0.8c0.1,0,0.1,0,0.2,0c0.1,0.1,0.1,0.1,0.2,0.3
	c0.1,0.1,0.2,0.1,0.3,0c0.1-0.1,0.1-0.2,0.1-0.3c0-0.1-0.1-0.1-0.1-0.2c0.2,0.1,0.4,0.3,0.6,0.5c0.1,0.1,0.2,0.1,0.2,0
	c0.1,0,0.1-0.1,0.2-0.2c0-0.1,0-0.1,0-0.2c0,0,0,0,0,0c0.1,0.1,0.2,0.1,0.3,0c0,0,0,0,0,0c0.1,0.3,0.3,0.6,0.4,0.8
	c-0.1,0.1-0.4,0.2-0.8,0.3c-0.1,0-0.2,0.1-0.2,0.2c0,0.1,0,0.2,0,0.4c-0.3-0.2-0.8-0.5-1.1-0.9c-0.1-0.1-0.2-0.1-0.3,0
	c-0.4,0.2-1.2,0.7-2.4,1c-0.1,0-0.2,0.1-0.2,0.2c0,0.1,0,0.1,0,0.2c0,0,0,0,0,0l0,0.3L35.2,20c-0.1,0-0.2,0.1-0.2,0.2
	c-0.5,1.3-0.9,2.4-2.3,4.3c-0.1,0.1-0.1,0.3,0,0.3l0.4,0.3c0.2,1.6,0.2,1.6,0,2.2c0,0.1,0,0.2,0.1,0.3c2.3,2,2.3,2,2.8,2.2
	c0.1,0,0.2,0,0.3-0.1l0.3-0.4c0.7-0.2,1.3-0.3,1.9-0.5c0.5-0.1,0.8-0.3,1.1-0.3c0.1,0,0.2,0,0.2,0.1C39.9,28.8,39.8,30.1,39.7,31.7z
	 M17.4,18.3c0-0.1-0.2-0.2-0.3-0.2l-0.2,0c0,0-0.1,0-0.1,0c0,0,0-0.1,0-0.1c0-0.1,0-0.2-0.1-0.2c-0.1,0-0.1-0.1-0.2-0.1
	c0,0-0.1-0.1-0.1-0.1c0.3-0.2,0.4-0.2,0.8,0c0.1,0.5,0.2,0.8,0.5,1.1c-0.1,0.1-0.2,0.1-0.3,0.2c-0.2,0.1-0.4,0.3-0.6,0.3
	c0.1-0.1,0.1-0.2,0.1-0.4l0.3-0.2C17.4,18.5,17.4,18.4,17.4,18.3z M20.4,13c0.3-0.1,0.6-0.2,1-0.5l0.1-0.1c0,0,0-0.1,0.1-0.1
	c-0.5,0.8-0.5,0.9-0.8,0.9c0,0-0.1,0-0.1,0C20.7,13.1,20.6,13,20.4,13C20.5,13,20.5,13,20.4,13z M21.6,12.3
	C21.6,12.3,21.6,12.2,21.6,12.3L21.6,12.3C21.6,12.2,21.6,12.2,21.6,12.3C21.6,12.3,21.6,12.3,21.6,12.3z M22.3,12.7L22.3,12.7
	c0,0.1,0.1,0.2,0.2,0.2c0,0,0,0,0,0c0,0,0.1,0,0.1,0c0,0,0,0,0,0.1c0,0,0,0,0,0c-0.2,0.1-0.3,0.1-0.4,0.2
	C22.2,13,22.2,12.9,22.3,12.7c0-0.2,0-0.3,0-0.5c0-0.1-0.1-0.2-0.2-0.2c0,0,0,0-0.1,0c0,0,0-0.1,0.1-0.1c0,0,0.1,0.1,0.1,0.1
	c0,0,0.1,0,0.1,0c0,0,0,0,0.1,0C22.2,12.1,22.2,12.3,22.3,12.7z M23.1,13.4L23,13.1c0,0,0,0,0,0c0,0,0,0,0,0c0,0,0.1,0,0.1,0
	c0.1,0,0.3,0.1,0.3,0.1c-0.2,0.3-0.4,0.5-0.5,0.8c-0.1,0-0.1,0-0.2,0c0.1-0.1,0.2-0.2,0.3-0.3C23.1,13.6,23.1,13.5,23.1,13.4z
	 M33.8,15.7l-0.1-0.2c0,0,0,0,0.1,0.1L33.8,15.7z M16.8,25.9c0.1,0.1,0,0.2,0,0.3l-0.4,0.4c0,0-0.1,0.1-0.2,0.1c0,0,0,0,0,0
	c-0.1,0-0.1,0-0.2-0.1c-0.3-0.4-0.3-0.4-0.4-0.4c0,0-0.1,0-0.1,0c-0.1,0-0.2-0.1-0.3-0.2c-0.1-0.6-0.1-0.8,0.4-1l0.1,0
	c0.1,0,0.1,0,0.2,0l0.5,0.3c0,0,0.1,0,0.1,0.1L16.8,25.9z M29.9,13c-0.7,0.9-1.8,1.7-2.4,1.9c0,0.1,0,0.2-0.1,0.3
	c-0.1,0.1-0.2,0.1-0.3,0.2c0,0,0,0,0,0c-0.2,0-0.4-0.1-0.5-0.2C26.4,15,26.4,15,26.3,15c-0.1,0-0.2-0.1-0.2-0.2c0-0.1,0-0.2-0.1-0.3
	c-0.1-0.2-0.2-0.4-0.1-0.6c0,0,0-0.1,0-0.1l0.1-0.1c0.1-0.2,0.2-0.3,0.2-0.5c-0.1-0.1-0.1-0.1-0.2-0.2C26,12.9,26,12.8,26,12.8
	c0-0.2,0-0.2,0-0.3c-0.1-0.1-0.1-0.1-0.2-0.2c-0.1-0.1-0.2-0.3-0.3-0.4c-0.1,0-0.3-0.1-0.3-0.1s-0.1,0-0.2-0.1l-0.1,0.1
	c0,0.1-0.1,0.1-0.2,0.1s-0.1,0-0.2-0.1c0,0,0,0,0,0c-0.1,0.1-0.3,0.2-0.7,0.3c0,0-0.1,0-0.1,0c0,0-0.1,0-0.1,0
	C23.6,12,23.6,12,23.5,12c-0.1,0-0.2-0.1-0.2-0.3c0-0.1,0.1-0.2,0.3-0.2h0c0.3,0,0.4-0.1,0.9-0.4c-0.1-0.1-0.1-0.3-0.2-0.4
	c0-0.1,0-0.1,0.1-0.2s0.1-0.1,0.2-0.1c0.1,0,0.2,0,0.3-0.1c0.2,0,0.4-0.1,0.6-0.1c0,0,0.1,0,0.1,0c0.2,0,0.3,0.1,0.4,0.2
	c0,0,0,0,0,0c0,0,0,0,0.1,0c0,0,0.1,0,0.1,0c0-0.1,0.1-0.2,0.1-0.2c0.1,0,0.2-0.1,0.2,0c0.2,0.1,0.3,0.1,0.4,0.2c0,0,0,0,0.1,0
	c0,0,0.1,0,0.1,0c0.1,0,0.1,0,0.2,0c0-0.1,0.1-0.1,0.1-0.1c0.1-0.1,0.1-0.1,0.2-0.1c0,0,0.1,0,0.1,0c0,0,0.1-0.1,0.2-0.1l0.1,0
	c0.1,0,0.1,0,0.2,0l0.4,0.2c0.1,0,0.1,0.1,0.1,0.1c0.1-0.1,0.2-0.1,0.3,0c0.1,0,0.1,0.1,0.1,0.2c0.1,0.1,0.3,0.6,0.7,1.1
	c0,0,0.1,0.1,0.1,0.1l0,0.1c0,0.1,0.1,0.2,0.1,0.2c0,0.1,0,0.2-0.1,0.3c0,0,0,0,0,0c0,0,0.1,0.1,0.1,0.1c0.1,0.1,0.1,0.2,0,0.3
	c0,0,0,0.1-0.1,0.1c0,0,0,0,0,0C30,12.8,29.9,12.9,29.9,13z M31.4,13.5C31.4,13.5,31.4,13.6,31.4,13.5c0,0.4-0.3,0.6-1,0.7
	c0,0,0,0,0,0c-0.1,0-0.1,0-0.1,0l-0.1-0.1C30,14.1,29.9,14,29.8,14c-0.1,0-0.1-0.1-0.1-0.2c0-0.1,0-0.2,0.1-0.2
	c0.2-0.1,0.4-0.2,0.6-0.2c0.3-0.1,0.5-0.1,0.8,0C31.3,13.3,31.4,13.4,31.4,13.5z"/>
</svg>
