<?xml version="1.0" encoding="utf-8"?>
<!-- Generator: Adobe Illustrator 17.1.0, SVG Export Plug-In . SVG Version: 6.00 Build 0)  -->
<!DOCTYPE svg PUBLIC "-//W3C//DTD SVG 1.0//EN" "http://www.w3.org/TR/2001/REC-SVG-20010904/DTD/svg10.dtd">
<svg version="1.0" id="Ebene_1" xmlns="http://www.w3.org/2000/svg" xmlns:xlink="http://www.w3.org/1999/xlink" x="0px" y="0px"
	 viewBox="0 0 71.221 46.797" enable-background="new 0 0 71.221 46.797" xml:space="preserve">
<rect x="0" y="0" fill-rule="evenodd" clip-rule="evenodd" fill="#171F69" width="71.221" height="46.797"/>
<polygon fill-rule="evenodd" clip-rule="evenodd" fill="#FFFFFF" points="0,15.595 8.613,15.595 0,11.272 0,0 0.166,0 
	27.785,13.767 27.785,0 43.338,0 43.338,13.767 70.957,0 71.221,0 71.221,11.245 62.509,15.595 71.221,15.595 71.221,31.2 
	62.509,31.2 71.221,35.55 71.221,46.797 70.957,46.797 43.338,33.028 43.338,46.797 27.785,46.797 27.785,33.028 0.166,46.797 
	0,46.797 0,35.522 8.613,31.2 0,31.2 "/>
<g>
	<polygon fill-rule="evenodd" clip-rule="evenodd" fill="#ED1B2D" points="71.221,1.891 43.8,15.605 51.27,15.605 71.221,5.588 	"/>
	<polygon fill-rule="evenodd" clip-rule="evenodd" fill="#ED1B2D" points="71.221,41.218 51.236,31.2 58.739,31.2 71.221,37.479 	
		"/>
	<polygon fill-rule="evenodd" clip-rule="evenodd" fill="#ED1B2D" points="20.131,15.605 0,5.556 0,9.298 12.597,15.605 	"/>
	<polygon fill-rule="evenodd" clip-rule="evenodd" fill="#ED1B2D" points="20.067,31.2 0,41.232 0,44.965 27.537,31.2 	"/>
	<polygon fill-rule="evenodd" clip-rule="evenodd" fill="#ED1B2D" points="0,18.831 31.098,18.831 31.098,0 40.236,0 40.236,18.831 
		71.221,18.831 71.221,27.97 40.236,27.97 40.236,46.797 31.098,46.797 31.098,27.97 0,27.97 	"/>
</g>
</svg>
