<?xml version="1.0" encoding="utf-8"?>
<!-- Generator: Adobe Illustrator 17.1.0, SVG Export Plug-In . SVG Version: 6.00 Build 0)  -->
<!DOCTYPE svg PUBLIC "-//W3C//DTD SVG 1.0//EN" "http://www.w3.org/TR/2001/REC-SVG-20010904/DTD/svg10.dtd">
<svg version="1.0" id="Ebene_1" xmlns="http://www.w3.org/2000/svg" xmlns:xlink="http://www.w3.org/1999/xlink" x="0px" y="0px"
	 viewBox="0 0 902.756 87.884" enable-background="new 0 0 902.756 87.884" xml:space="preserve">
<rect x="-1.906" y="0" fill="#FF0000" width="290.096" height="87.884"/>
<polyline fill="#FFFFFF" points="198.108,13.001 177.401,13.001 146.347,44.066 177.679,75.537 198.108,75.537 173.682,51.1 
	203.496,51.1 203.496,75.26 218.124,75.26 218.124,51.1 247.108,51.1 222.955,75.26 241.313,75.26 272.785,43.796 242.001,13.001 
	223.225,13.001 247.108,37.311 218.124,37.311 218.124,13.001 203.496,13.001 203.496,37.168 173.813,37.168 198.108,13.001 "/>
<g>
	<path fill="#FFFFFF" d="M323.539,62.207c0.755,1.435,1.743,2.6,2.983,3.487c1.24,0.902,2.69,1.556,4.362,1.991
		c1.671,0.429,3.404,0.646,5.189,0.646c1.21,0,2.506-0.098,3.888-0.3c1.383-0.203,2.679-0.586,3.893-1.165
		c1.206-0.571,2.217-1.367,3.021-2.375c0.808-1.007,1.21-2.285,1.21-3.848c0-1.668-0.529-3.013-1.597-4.051
		c-1.063-1.037-2.461-1.894-4.186-2.592c-1.728-0.691-3.689-1.285-5.876-1.811c-2.187-0.511-4.4-1.09-6.643-1.721
		c-2.307-0.579-4.55-1.277-6.737-2.112c-2.191-0.834-4.145-1.916-5.877-3.239c-1.728-1.323-3.118-2.976-4.185-4.959
		c-1.063-1.984-1.597-4.388-1.597-7.214c0-3.163,0.676-5.907,2.028-8.236c1.353-2.33,3.119-4.276,5.306-5.824
		c2.187-1.555,4.662-2.705,7.424-3.449c2.762-0.752,5.523-1.127,8.285-1.127c3.223,0,6.316,0.361,9.281,1.075
		c2.96,0.729,5.594,1.886,7.897,3.501c2.299,1.616,4.126,3.675,5.478,6.17c1.353,2.51,2.029,5.546,2.029,9.108h-13.083
		c-0.112-1.834-0.503-3.367-1.168-4.569c-0.662-1.217-1.544-2.164-2.642-2.848c-1.097-0.691-2.352-1.18-3.765-1.473
		c-1.416-0.278-2.96-0.428-4.632-0.428c-1.101,0-2.198,0.12-3.295,0.346c-1.097,0.225-2.097,0.639-2.987,1.217
		c-0.898,0.563-1.631,1.292-2.209,2.149c-0.579,0.864-0.868,1.954-0.868,3.277c0,1.217,0.229,2.194,0.691,2.93
		c0.459,0.752,1.368,1.443,2.72,2.074c1.353,0.632,3.224,1.278,5.617,1.909c2.386,0.631,5.508,1.427,9.367,2.412
		c1.15,0.232,2.746,0.646,4.791,1.255c2.044,0.601,4.073,1.571,6.087,2.886c2.018,1.322,3.758,3.096,5.226,5.305
		c1.465,2.225,2.202,5.057,2.202,8.507c0,2.826-0.545,5.44-1.642,7.86c-1.09,2.419-2.712,4.509-4.869,6.259
		c-2.153,1.759-4.828,3.119-8.018,4.103c-3.193,0.97-6.887,1.466-11.084,1.466c-3.389,0-6.685-0.421-9.878-1.263
		c-3.187-0.826-6.004-2.142-8.45-3.923c-2.446-1.796-4.382-4.073-5.82-6.831s-2.127-6.041-2.07-9.837h13.083
		C322.42,59.013,322.795,60.764,323.539,62.207z"/>
	<path fill="#FFFFFF" d="M398.179,15.796c2.934,0,5.606,0.255,8.022,0.774c2.415,0.511,4.486,1.36,6.207,2.539
		c1.728,1.18,3.066,2.751,4.017,4.697c0.947,1.954,1.424,4.373,1.424,7.244c0,3.096-0.703,5.681-2.112,7.747
		c-1.405,2.067-3.483,3.765-6.241,5.088c3.802,1.09,6.639,3.006,8.51,5.741s2.811,6.027,2.811,9.889
		c0,3.103-0.605,5.801-1.811,8.071c-1.21,2.277-2.836,4.133-4.881,5.561c-2.044,1.443-4.373,2.51-6.992,3.201
		c-2.616,0.692-5.306,1.037-8.071,1.037h-29.867v-61.59h28.984V15.796z M396.487,40.684c2.412,0,4.396-0.578,5.948-1.721
		c1.552-1.142,2.329-3.013,2.329-5.584c0-1.427-0.262-2.615-0.777-3.532c-0.519-0.909-1.207-1.623-2.071-2.149
		c-0.86-0.511-1.856-0.864-2.976-1.067c-1.12-0.203-2.285-0.301-3.49-0.301h-12.678v14.353L396.487,40.684L396.487,40.684z
		 M397.247,66.851c1.319,0,2.585-0.135,3.791-0.39c1.202-0.255,2.269-0.692,3.186-1.293c0.92-0.609,1.65-1.428,2.198-2.45
		c0.545-1.037,0.815-2.367,0.815-3.968c0-3.163-0.89-5.426-2.668-6.779c-1.781-1.352-4.137-2.028-7.067-2.028h-14.729v16.908
		H397.247z"/>
	<path fill="#FFFFFF" d="M458.893,15.796c2.931,0,5.606,0.255,8.026,0.774c2.405,0.511,4.478,1.36,6.207,2.539
		c1.721,1.18,3.066,2.751,4.013,4.697c0.947,1.954,1.421,4.373,1.421,7.244c0,3.096-0.699,5.681-2.112,7.747
		c-1.406,2.067-3.487,3.765-6.238,5.088c3.803,1.09,6.643,3.006,8.507,5.741c1.878,2.735,2.81,6.027,2.81,9.889
		c0,3.103-0.601,5.801-1.811,8.071c-1.21,2.277-2.833,4.133-4.877,5.561c-2.044,1.443-4.374,2.51-6.989,3.201
		c-2.622,0.692-5.306,1.037-8.071,1.037h-29.871v-61.59h28.985V15.796z M457.195,40.684c2.42,0,4.404-0.578,5.951-1.721
		c1.556-1.142,2.33-3.013,2.33-5.584c0-1.427-0.255-2.615-0.774-3.532c-0.519-0.909-1.21-1.623-2.067-2.149
		c-0.871-0.511-1.863-0.864-2.983-1.067c-1.12-0.203-2.277-0.301-3.487-0.301h-12.677v14.353L457.195,40.684L457.195,40.684z
		 M457.961,66.851c1.315,0,2.586-0.135,3.788-0.39c1.203-0.255,2.269-0.692,3.187-1.293c0.916-0.609,1.653-1.428,2.194-2.45
		c0.556-1.037,0.826-2.367,0.826-3.968c0-3.163-0.894-5.426-2.675-6.779c-1.781-1.352-4.133-2.028-7.064-2.028h-14.728v16.908
		H457.961z"/>
	<path fill="#FFFFFF" d="M578.016,32.208c-0.804-1.293-1.811-2.435-3.021-3.412c-1.202-0.976-2.57-1.743-4.095-2.285
		c-1.526-0.541-3.119-0.819-4.787-0.819c-3.051,0-5.636,0.594-7.763,1.766c-2.126,1.187-3.855,2.773-5.177,4.749
		c-1.323,1.984-2.285,4.253-2.893,6.778c-0.601,2.54-0.91,5.156-0.91,7.86c0,2.586,0.309,5.11,0.91,7.553
		c0.609,2.449,1.571,4.652,2.893,6.605c1.322,1.968,3.051,3.532,5.177,4.712c2.127,1.172,4.712,1.766,7.763,1.766
		c4.141,0,7.372-1.263,9.701-3.795c2.33-2.532,3.751-5.869,4.276-10.002h13.105c-0.338,3.848-1.232,7.334-2.667,10.431
		c-1.443,3.111-3.337,5.764-5.697,7.951c-2.359,2.187-5.117,3.854-8.281,5.005c-3.164,1.15-6.643,1.728-10.438,1.728
		c-4.719,0-8.958-0.827-12.73-2.465c-3.772-1.638-6.943-3.893-9.543-6.779c-2.6-2.87-4.584-6.252-5.967-10.137
		s-2.074-8.071-2.074-12.572c0-4.599,0.691-8.867,2.074-12.812c1.383-3.938,3.367-7.372,5.967-10.317
		c2.6-2.939,5.771-5.238,9.543-6.906s8.01-2.502,12.73-2.502c3.389,0,6.598,0.496,9.619,1.465c3.021,0.985,5.726,2.398,8.108,4.268
		c2.382,1.871,4.351,4.186,5.914,6.944c1.547,2.758,2.525,5.921,2.93,9.491H579.57C579.339,34.929,578.82,33.501,578.016,32.208z"/>
	<path fill="#FFFFFF" d="M645.73,15.796v11.377h-29.766V41.39h25.798v10.536h-25.798v25.46h-13.571v-61.59
		C602.393,15.796,645.73,15.796,645.73,15.796z"/>
	<path fill="#FFFFFF" d="M696.868,15.796v11.377H667.11V41.39h25.791v10.536H667.11v25.46h-13.579v-61.59
		C653.531,15.796,696.868,15.796,696.868,15.796z"/>
	<path fill="#FFFFFF" d="M795.881,15.796v11.377h-29.774V41.39h25.798v10.536h-25.798v25.46h-13.571v-61.59
		C752.536,15.796,795.881,15.796,795.881,15.796z"/>
	<path fill="#FFFFFF" d="M847.011,15.796v11.377h-29.759V41.39h25.791v10.536h-25.791v25.46h-13.586v-61.59
		C803.666,15.796,847.011,15.796,847.011,15.796z"/>
	<path fill="#FFFFFF" d="M865.129,62.207c0.752,1.435,1.744,2.6,2.983,3.487c1.233,0.902,2.69,1.556,4.358,1.991
		c1.676,0.429,3.404,0.646,5.193,0.646c1.21,0,2.502-0.098,3.885-0.3c1.383-0.203,2.682-0.586,3.893-1.165
		c1.21-0.571,2.224-1.367,3.02-2.375c0.812-1.007,1.217-2.285,1.217-3.848c0-1.668-0.541-3.013-1.601-4.051
		c-1.067-1.037-2.457-1.894-4.185-2.592c-1.728-0.691-3.682-1.285-5.877-1.811c-2.187-0.511-4.404-1.09-6.643-1.721
		c-2.307-0.579-4.554-1.277-6.733-2.112c-2.194-0.834-4.148-1.916-5.876-3.239c-1.729-1.323-3.127-2.976-4.194-4.959
		c-1.067-1.984-1.593-4.388-1.593-7.214c0-3.163,0.676-5.907,2.029-8.236c1.353-2.33,3.118-4.276,5.305-5.824
		c2.195-1.555,4.659-2.705,7.425-3.449c2.765-0.752,5.523-1.127,8.281-1.127c3.232,0,6.32,0.361,9.289,1.075
		c2.96,0.729,5.59,1.886,7.891,3.501c2.299,1.616,4.133,3.675,5.486,6.17c1.352,2.51,2.028,5.546,2.028,9.108h-13.083
		c-0.12-1.834-0.511-3.367-1.172-4.569c-0.669-1.217-1.541-2.164-2.638-2.848c-1.097-0.691-2.359-1.18-3.772-1.473
		c-1.413-0.278-2.961-0.428-4.629-0.428c-1.104,0-2.202,0.12-3.291,0.346c-1.105,0.225-2.097,0.639-2.991,1.217
		c-0.902,0.563-1.638,1.292-2.209,2.149c-0.579,0.864-0.864,1.954-0.864,3.277c0,1.217,0.225,2.194,0.684,2.93
		c0.466,0.752,1.367,1.443,2.728,2.074c1.352,0.632,3.216,1.278,5.614,1.909c2.382,0.631,5.508,1.427,9.363,2.412
		c1.157,0.232,2.751,0.646,4.795,1.255c2.044,0.601,4.073,1.571,6.087,2.886c2.014,1.322,3.758,3.096,5.23,5.305
		c1.465,2.225,2.195,5.057,2.195,8.507c0,2.826-0.542,5.44-1.638,7.86c-1.09,2.419-2.713,4.509-4.869,6.259
		c-2.157,1.759-4.825,3.119-8.026,4.103c-3.187,0.97-6.883,1.466-11.077,1.466c-3.397,0-6.688-0.421-9.874-1.263
		c-3.193-0.826-6.011-2.142-8.454-3.923c-2.442-1.796-4.381-4.073-5.824-6.831c-1.436-2.758-2.127-6.041-2.067-9.837h13.083
		C864.009,59.013,864.384,60.764,865.129,62.207z"/>
</g>
</svg>
